<!DOCTYPE svg PUBLIC "-//W3C//DTD SVG 20010904//EN" "http://www.w3.org/TR/2001/REC-SVG-20010904/DTD/svg10.dtd">
<svg version="1.0" xmlns="http://www.w3.org/2000/svg" width="174px" height="158px" viewBox="0 0 1740 1620" preserveAspectRatio="xMidYMid meet">
<g id="layer101" fill="none" stroke-width="20" stroke="black" transform="translate(0, 20)">
 <path d="M737 1565 c-354 -67 -611 -278 -707 -580 -27 -85 -39 -317 -21 -405 16 -75 52 -150 96 -199 84 -92 448 -293 630 -347 130 -38 317 -45 434 -16 276 70 485 284 552 567 29 124 23 306 -16 445 -76 277 -234 450 -475 521 -99 28 -373 36 -493 14z"/>
 </g>

</svg>
