<?xml version="1.0" encoding="UTF-8"?>
<svg width="7px" height="13px" viewBox="0 0 7 13" version="1.1" xmlns="http://www.w3.org/2000/svg" xmlns:xlink="http://www.w3.org/1999/xlink">
    <!-- Generator: sketchtool 52.5 (67469) - http://www.bohemiancoding.com/sketch -->
    <title>A0846A86-5384-4C4E-BE4D-DAFE02A85C83</title>
    <desc>Created with sketchtool.</desc>
    <g id="Page-1" stroke="none" stroke-width="1" fill="none" fill-rule="evenodd">
        <g id="Desktop-v1" transform="translate(-225.000000, -4659.000000)" fill="#1E2229">
            <g id="подвал" transform="translate(0.000000, 4498.000000)">
                <path d="M229.289333,173.038667 L227.04,173.038667 C227.04,171.094667 227.04,169.149333 227.04,167.205333 C227.04,167.184 227.036,167.164 227.032,167.134667 L225,167.134667 L225,165.173333 C225.038667,165.172 225.077333,165.169333 225.116,165.168 L226.921333,165.168 L227.04,165.168 L227.04,165.049333 C227.04,164.722667 227.042667,164.396 227.04,164.069333 C227.036,163.56 227.128,163.069333 227.344,162.606667 C227.666667,161.916 228.169333,161.408 228.897333,161.152 C229.109333,161.078667 229.337333,161.049333 229.558667,161 L231.673333,161 L231.673333,163.096 C231.042667,163.096 230.412,163.094667 229.78,163.094667 C229.662667,163.094667 229.573333,163.150667 229.496,163.233333 C229.344,163.398667 229.292,163.598667 229.290667,163.816 C229.289333,164.24 229.290667,164.662667 229.290667,165.085333 C229.290667,165.109333 229.294667,165.134667 229.297333,165.168 L229.416,165.168 C230.117333,165.168 230.818667,165.168 231.521333,165.168 C231.572,165.168 231.622667,165.172 231.673333,165.173333 L231.673333,167.134667 L229.290667,167.134667 L229.290667,167.273333 C229.290667,169.194667 229.289333,171.117333 229.289333,173.038667" id="Fill-1"></path>
            </g>
        </g>
    </g>
</svg>