<?xml version="1.0" encoding="UTF-8"?>
<svg width="10px" height="16px" viewBox="0 0 10 16" version="1.1" xmlns="http://www.w3.org/2000/svg" xmlns:xlink="http://www.w3.org/1999/xlink">
    <!-- Generator: sketchtool 52.5 (67469) - http://www.bohemiancoding.com/sketch -->
    <title>DCD54FD0-E29D-4B51-A871-E9ACE330534D</title>
    <desc>Created with sketchtool.</desc>
    <g id="Page-1" stroke="none" stroke-width="1" fill="none" fill-rule="evenodd">
        <g id="Desktop-v1" transform="translate(-304.000000, -4657.000000)" fill="#1E2229" stroke-width="0.5">
            <g id="подвал" transform="translate(0.000000, 4498.000000)">
                <g id="Fill-1" transform="translate(305.000000, 160.000000)">
                    <path d="M1.44765,14.194215 C1.32015,14.128215 1.17915,14.078715 1.06665,13.993215 C0.56415,13.612215 0.52365,13.060215 0.96615,12.613215 C1.74165,11.830215 2.52465,11.051715 3.30615,10.273215 C3.37965,10.199715 3.46665,10.138215 3.60765,10.018215 C3.22815,9.950715 2.93865,9.902715 2.65065,9.845715 C1.76415,9.673215 0.97965,9.292215 0.31065,8.686215 C0.07365,8.471715 -0.06735,8.218215 0.03315,7.874715 C0.23865,7.169715 0.84315,6.976215 1.49565,7.364715 C1.96065,7.640715 2.44515,7.919715 2.95815,8.063715 C4.39665,8.462715 5.75865,8.260215 7.00215,7.385715 C7.64115,6.937215 8.27865,7.163715 8.47965,7.885215 C8.57715,8.228715 8.42715,8.479215 8.19015,8.693715 C7.52865,9.290715 6.75315,9.668715 5.88015,9.842715 C5.59515,9.899715 5.30565,9.944715 4.97865,10.001715 C5.06115,10.094715 5.12265,10.171215 5.19315,10.241715 C5.93415,10.985715 6.64965,11.761215 7.42965,12.461715 C8.14815,13.105215 7.92465,13.906215 7.06215,14.194215 L6.87315,14.194215 C6.64065,14.041215 6.38115,13.916715 6.18315,13.729215 C5.60415,13.180215 5.04915,12.604215 4.48365,12.041715 C4.41315,11.971215 4.33665,11.906715 4.24665,11.825715 C3.59715,12.479715 2.97765,13.123215 2.33265,13.741215 C2.13615,13.928715 1.87065,14.045715 1.63665,14.194215 L1.44765,14.194215 Z" stroke="#20242B"></path>
                    <path d="M4.2456,5.361165 C5.2221,5.362665 6.0081,4.594665 6.0231,3.616665 C6.0381,2.643165 5.2311,1.830165 4.2501,1.831665 C3.2811,1.833165 2.4921,2.625165 2.4891,3.597165 C2.4846,4.567665 3.2736,5.359665 4.2456,5.361165 Z M4.4121,0.000164999999 C5.0151,0.091665 5.6016,0.219165 6.1326,0.550665 C7.5411,1.432665 8.1861,3.181665 7.6521,4.717665 C7.0986,6.315165 5.5551,7.338165 3.9561,7.168665 C2.2176,6.982665 0.8976,5.704665 0.6966,4.012665 C0.4626,2.035665 1.9026,0.244665 3.8856,0.046665 C3.9576,0.039165 4.0266,0.016665 4.0971,0.000164999999 L4.4121,0.000164999999 Z" id="Fill-4" stroke="#1E2229"></path>
                </g>
            </g>
        </g>
    </g>
</svg>