<?xml version="1.0" encoding="UTF-8"?>
<svg width="14px" height="12px" viewBox="0 0 14 12" version="1.1" xmlns="http://www.w3.org/2000/svg" xmlns:xlink="http://www.w3.org/1999/xlink">
    <!-- Generator: sketchtool 52.5 (67469) - http://www.bohemiancoding.com/sketch -->
    <title>6752E424-0F41-4C8D-B29C-E6908804EB9D</title>
    <desc>Created with sketchtool.</desc>
    <g id="Page-1" stroke="none" stroke-width="1" fill="none" fill-rule="evenodd">
        <g id="Desktop-v1" transform="translate(-249.000000, -4659.000000)" fill="#1E2229">
            <g id="подвал" transform="translate(0.000000, 4498.000000)">
                <path d="M253.85296,172.50548 L252.829093,172.50548 C252.82116,172.491247 252.80786,172.49568 252.79596,172.49638 C252.755827,172.492647 252.715693,172.488213 252.67556,172.484947 C252.156627,172.444347 251.647493,172.35078 251.146527,172.210313 C250.470327,172.02038 249.831227,171.744813 249.226193,171.388747 C249.150127,171.343947 249.07546,171.29658 249.000093,171.25038 C249.001493,171.245713 249.002893,171.240813 249.004293,171.235913 C249.74956,171.31758 250.483393,171.26088 251.204393,171.058347 C251.926793,170.855813 252.582927,170.52238 253.184927,170.054313 C253.094627,170.04778 253.01786,170.04498 252.942027,170.036347 C252.50546,169.987113 252.09876,169.849913 251.727527,169.613313 C251.164727,169.254447 250.772027,168.75978 250.54966,168.130247 C250.530993,168.077513 250.535193,168.07238 250.589793,168.08218 C250.95566,168.14728 251.320127,168.136313 251.682493,168.05698 C251.718193,168.049047 251.75506,168.044147 251.795893,168.021747 C251.77256,168.01568 251.758793,168.01148 251.745027,168.008447 C251.251293,167.895747 250.81636,167.668947 250.447693,167.322913 C249.84896,166.76058 249.545627,166.065247 249.530693,165.243913 C249.529993,165.202147 249.543527,165.20238 249.574793,165.218947 C249.879993,165.383213 250.204793,165.48658 250.54826,165.53068 C250.629927,165.541413 250.712293,165.554013 250.806327,165.545847 C250.782527,165.52788 250.768293,165.517147 250.75406,165.50618 C249.78666,164.76698 249.406793,163.796313 249.615627,162.598147 C249.665093,162.314647 249.77406,162.04958 249.912427,161.797113 C249.93506,161.75558 249.94766,161.757913 249.974727,161.792447 C250.022327,161.853113 250.073193,161.91098 250.12406,161.968847 C250.962427,162.923413 251.967393,163.646047 253.141993,164.13138 C253.975927,164.476013 254.844393,164.672947 255.745527,164.723347 C255.80876,164.72708 255.809227,164.725913 255.796627,164.66618 C255.710993,164.257847 255.71356,163.849747 255.807827,163.443747 C256.12796,162.06638 257.38376,161.139347 258.794027,161.240847 C259.488893,161.291013 260.085993,161.564947 260.58346,162.051447 C260.646693,162.11328 260.69966,162.12658 260.783893,162.107447 C261.36186,161.97608 261.908327,161.765147 262.421893,161.469047 C262.433093,161.462513 262.443593,161.44898 262.460393,161.456447 C262.46646,161.476747 262.454793,161.49308 262.448727,161.509413 C262.233827,162.11398 261.85746,162.592547 261.325693,162.950247 C261.300493,162.96728 261.26946,162.976847 261.252193,163.004613 C261.249393,163.006013 261.241927,163.001813 261.245893,163.01068 C261.247527,163.008113 261.249393,163.006013 261.25126,163.00368 C261.276693,163.003213 261.302593,163.005547 261.32756,163.002047 C261.79656,162.93578 262.251093,162.815847 262.690927,162.63898 C262.738993,162.619613 262.78356,162.58858 262.83816,162.586713 L262.836993,162.58578 C262.82976,162.59838 262.82346,162.61168 262.815293,162.62358 C262.45176,163.153013 262.01286,163.60988 261.496493,163.991847 C261.451693,164.02498 261.435127,164.05788 261.437227,164.113647 C261.464293,164.841647 261.393127,165.56078 261.217427,166.26778 C260.77036,168.06468 259.860593,169.576913 258.429093,170.763413 C257.825927,171.263213 257.15556,171.652413 256.42826,171.941747 C255.65616,172.248813 254.853727,172.425213 254.025393,172.486813 C253.967993,172.491247 253.908727,172.484247 253.85296,172.50548" id="Fill-1"></path>
            </g>
        </g>
    </g>
</svg>