<svg width="463" height="190" viewBox="0 0 463 190" xmlns="http://www.w3.org/2000/svg"><title>0AA39FCF-ED1B-4A30-A64F-E0681B3F477A</title><path d="M-6 1c87.76 15.979 51.437 74.97 70.975 97.648 11.71 13.592 28.512 18.06 41.605 16.201 10.096-1.434 21.07-8.741 28.174-13.688 16.319-11.36 44.773-48.685 62.926-61.276 18.153-12.591 67.192-15.11 75.624 30.218 8.432 45.328-2.933 81.757-27.35 104.087-24.418 22.329-52.115 14.21-59.725-.651-7.61-14.862-10.256-50.544 18.38-74.891C233.244 74.3 261.536 68.834 301.72 77.53c40.185 8.697 50.989 61.897 79.653 73.155 28.664 11.259 49.311 4.349 66.015-9.92 16.704-14.27 20.489-42.962-2.713-65.626s-27.453-5.037-23.202-.84" stroke="#000" stroke-width="4" fill="none" stroke-linecap="round"/></svg>