<svg width="341" height="417" viewBox="0 0 341 417" xmlns="http://www.w3.org/2000/svg"><title>F1D191AC-2419-4F70-A21D-9948C0A7398C</title><g fill="none" fill-rule="evenodd"><path d="M404 18c-20-87.37-33.667-105.621-41-54.752-11 76.305-168.279 99.467-191.505 134.946C148.268 133.673 151.979 208.71 191.792 225c39.813 16.29 59-19.17 51-44.264s-61.504-84.778-122.297-74.542c-60.794 10.236-104 62.185-116 132.092C-7.505 308.194 37.68 347.223 42 355c4.32 7.777 37.47 26.61 39 21 1.53-5.61-4.625-17-12-17s-15.505 16.95-15.505 24.194" stroke="#000" stroke-width="4" stroke-linecap="round"/><path d="M66 398.844C66 388.989 60.18 381 53 381s-13 7.989-13 17.844c0 5.463 12.818 8.11 13 8.11 6.81 0 13 1.744 13-8.11z" fill="#000"/><path d="M57 403l-2 12m-8-14l-2 12" stroke="#000" stroke-width="3" stroke-linecap="round"/></g></svg>