<svg width="337" height="849" viewBox="0 0 337 849" xmlns="http://www.w3.org/2000/svg"><title>62E03C33-7F2D-4A8B-942D-110C3DAE8231</title><path d="M-507.643 423.708c-56.002-66.018-62.335-126.701-19-182.05 65.002-83.022 228.007 185.05 319.01 200.055 91.003 15.004 104.003-32.009 91.003-71.02-13-39.01-73.002-40.01-99.003-30.008-26.001 10.003-91.66 69.02-103.004 142.039-7.562 48.68 1.772 103.695 28.001 165.044l253.971 199.054C67.404 849.49 130.42 822.15 152.38 764.8c20.373-53.204 273.572-273.074 147.674-663.18-6.539-20.26 1.128-53.467 23-99.62" stroke="#000" stroke-width="4" fill="none" stroke-linecap="round"/></svg>