<svg width="424" height="552" viewBox="0 0 424 552" xmlns="http://www.w3.org/2000/svg"><title>E736ECD2-3309-4FB3-8159-7B9C474D4710</title><g fill="none" fill-rule="evenodd"><path d="M282 152v41h44.556v-41c-23.06 1.333-36.25 1.333-39.573 0" stroke="#E87C7C" stroke-width="3" stroke-linecap="round"/><path d="M116.474 64c-2.063 15.292 2.604 36.959 14 65 20.667 12 32.667 18 36 18 3.334 0 8.334-4.667 15-14l-8-40-7-13 11 4-2-25-9-3c-6.623-5.334-11.623-8.668-15-10-5.465-2.157-13.327-2.04-16-2-16.507.246-17.594 9.582-19 20zM53 498c-1.333-4-1.333-8.667 0-14a467.246 467.246 0 0 1 4-15l10-8 6-4 5-7 4-8 2-3c4-3.333 7.667-3 11 1s4.667 5.333 4 4l8 9 7 6c8 5.576 13 8.364 15 8.364 3 0 2-2.728 5-1.364 2 .91 3.667 2.242 5 4 2.667-4 4.333-6 5-6 .667 0 3 2.667 7 8l6-4 3 5 2-5 17 4 10-3 6-5 15 9 18 3 6-2 7-4 5-7-1-6-8-18-3-16 2-11.5 7-14.5 7-12-2-7 11-10 1-4v-34l-2-9-17-14-28-23-15-16-5-6v-12l-7-6-3-10-3-7 3-12.037c5.333-6.402 8-9.663 8-9.783 0-.12 3.333-3.009 10-8.667L215 190h10l15 10.225L256 211l11 2 1 43 12 22c2.4 5.964 4.066 10.464 5 13.5.934 3.036 1.934 7.202 3 12.5l2 11 13 10 14 4 11-11.39 3-10.61-3-9v-4l-14-30 27-5 2 5 2 6-2 10-5 11 4 3 7 23.61 2 33.39-2 23v15l-6-4v12l-26 42-18 24 3 3-3 14-2 20v8l2 6 11 7 1 4-1 6.5-7 5.5-13 1-7-1-5-5.616L276 521c-4.667-2.667-6.333-5-5-7 1.333-2 .333-7.667-3-17-1.333-2-2.667-3-4-3-1.333 0-3.333 2-6 6v5c2.667 14.667 4 21.333 4 20 0-1.333 1.667-1.333 5 0l9 13-3 2v5l-5 3-12 1h-15l-7-14h-6v-9l-3-16-10 4-5-2v4l-6 5h-3l-26-5-20 2-26-4 2 4v3l-4 4-4 1-2 4-5 1.5h-9l-3 3.5-14 2-12-8-11-8 1-11" fill="#FFF"/><path d="M168.156 208c-14.666-10.114-23.333-18.17-26-24.17-4-9-19-30.06-25-43.53-6-13.47-22-59.47-22-63.47 0-.4-6.998-19.203-4-24.5 1.75-3.091-.413-10.48 0-16.5.49-7.124 3.417-14.137 4-14 1.906.447 13.896 1.225 18 16.896 3.413 13.028-.908 40.829 0 46.104 2 11.62 5 23.067 8 27.45 5.665 8.274 36 28.55 43 26.55s10-3 4-18-4-35-16-44-16-10-20-12c-2.666-1.334 9.334 3.666 36 15 0-14-2-22.334-6-25-.416-.278-16.839-10.009-26-12-23-5-39.057-21.685-39.496-24.104-1.032-5.675 8.019-16.323 27.496-14.896 18.276 1.338 45.36 15.96 50 20 16 13.93 26 23.93 30 30l31 41 11 16" stroke="#000" fill="#FFF" stroke-linecap="round"/><path d="M266.025 253c5.333 8.667 8.667 14.333 10 17 1.333 2.667 4.333 9.667 9 21 2.667 6.667 4 11.667 4 15v10l15 9 13 3 8-9 6-10-6-25-12-20c-8.6 3.264-15.6 4.264-21 3-5.4-1.264-14.067-5.93-26-14z" fill="#FF9AA7"/><path d="M253 245.7l43.025 22.542 31-6 22-5h17l7 2 8-9 4-12.421L364 241.869l-14.975-7.627V226l2.975-9c7.365-.422 10.365-1.422 9-3-1.365-1.578-1.698-1.578-1 0l13.025-14-24-.705-8-1.709-4-.831-7-6.513-6-9-3-8-1-7v-26l1-3c-11.006-2.437-18.598-2.887-22.776-1.351-.761.28-2.224.96-2.224.96l3 7.391 1 7v18c0 2.667-.333 7.667-1 15l-7 9.244L253 214v31.7z" fill="#FFF"/><path d="M54.025 500v-16l5-14 11-8 7-7 5-11 3-4c2-1.333 4-1.333 6 0 3 2 7 1.654 10 6.327s20 18.673 23 19.673c2 .667 5 1.833 9 3.5.667-2 1.667-2.5 3-1.5l4 3s3-6 5-6c1.333 0 3.667 2.667 7 8l5-5 5 7v-7c9.333 2.667 15.667 4 19 4 5 0 13-4 15-6 1.333-1.333 3-.167 5 3.5 11.333 5 19 7.5 23 7.5 6 0 15-1 15-3 0-.962 2.876-2.955 6-6 .803-.783 1.803-2.117 3-4l-9-22c-4-15-4.667-24.833-2-29.5 2.667-4.667 7.333-13.167 14-25.5l-2-8c7.333-6 11-9.333 11-10 0-1 2-13 2-15s-1-26-2-29c-.667-2-17-16.333-49-43l-15-17-2-4v-9l-6-5.541-5-13.459-2-5 2-9.724 13-17.051 15-9.225 13-2 13 7.513 12 9.657 13 6.83 6 1 13-12 19-16 1-7 1-14-3-23-8-11-10-7-15-3-13-10.984c-18.667.035-30 1.708-34 5.018-4 3.31-7.667 8.3-11 14.966-4.531 12.396-8.531 22.063-12 29-3.469 6.937-7.802 13.937-13 21l-21 42v15.579l7 7.88 7 5.541c-.757 3.26-1.423 6.26-2 9s-1.244 6.74-2 12l2 14.034 2 4.966-24 26.61-45 49.39-18 22-19 14-19 15-17 21v16l4 26 5 10" fill="#FFF"/><path d="M292.025 137.37c9.529-1.172 16.179-1.593 19.95-1.265 3.136.273 6.152.825 9.05 1.655l-1 1.584v23.416l1 11 5 11 6 8.653 8 4.69 8 1.042 8 2.615 4-1.947-14-9.053-5-37 4-8 2 1v-2.057l-2-5.36-44-25.583-16-4.76h-24l-14 1.776 45 26.593zM364 245c.667.058 11.333-3.609 32-11l9-22-6-2.727-6-2.103-13-3.077L370 203l-6 2-7 4.692L348 220l-3-5-1 6 2 11 11 9c4 2.609 6.333 3.942 7 4zM41 457c1.895-4-2-5.75 4-14.75s-1-13 11-19 16-12 16-15.5c0-2.333-.333-3.917-1-4.75l-17 14-13 12.25-7 9.554V450l2 11.25c2.07-.167 3.737-1.583 5-4.25z" fill="#FFF"/><path d="M407 209.692l1-8.467L386 193l-14 4.513-24 12.18-2 4.307 4 6 7-8 9-7 6-2 9 1.093 11 2.087s5.059.882 10 3.094c1.069.478 2.069 1.387 3 2.726l2-2.308zM339 155c1.333 0 14.333-8.333 39-25l18-49-5-55-15 6-47 72.267C334.333 138.09 337.667 155 339 155z" fill="#FFF"/><path d="M339 138.47V109l32-46c5.333-18 9.333-27 12-27 4 0 6 31 5 38s-3 33.005-15 47c-12 13.995-18 23-34 33-10.667 6.667-9.333 16.333 4 29l25-24 25-38 6-60V16l-11-6-28 18-38 35-37 51.736 54 23.734zM25.025 500l-8-3-9-8-2-11 1-7 8.5 4 5.5 2 4 8.5 3 11.5z" fill="#FFF"/><path d="M384.21 273.22c-12.946 19.522-42.396-6.023-55.397-9.895-13-3.871-19.548 7.19-34 2.913-5.153-1.525-18-6-28-12-6.624-3.975-29.576-.776-27 19.17 3.561 27.564-28.542-7.17 5-7.17 8 0 10.616 27.263 18.255 26.004" stroke="#000" stroke-width="3" stroke-linecap="round"/><path d="M339.168 191.61c2.209 0 2.857-2.471 2.857-3.888 0-1.417-1.889-4.91-2.857-5.833-1.918-1.824-3.696-.33-4 0-.906.98-1.143 4.154-1.143 5.833 0 2.953 2.934 3.888 5.143 3.888zM266.293 198c3.495 0 6.815-3.227 6.815-7.5s.087-7.5-3.408-7.5-5.355 3.869-7.302 6.19c-1.167 1.391-1.855 4.734-.973 6.063 1.16 1.75 2.881 2.747 4.868 2.747z" stroke="#2D2D2D" fill="#7F6E5D"/><path d="M23.025 493c.498-3.253.498-5.253 0-6-.498-.747-1.165-1.08-2-1l-3-3-1-1 1-1h3l1-1-1-2-4-5 19 3 4 10-5 5c-3.333 2-5.5 3-6.5 3s-2.833-.333-5.5-1z" fill="#E6B520"/><path d="M267.42 193.87c-1.763-.281-2.775-2.263-2.261-4.427.514-2.163 2.36-3.69 4.124-3.41 1.763.28 2.776 2.262 2.262 4.426-.515 2.164-2.36 3.69-4.124 3.41z" fill="#383838"/><path d="M95.597 379.583c3.933-5.552 6.933-9.552 9-12 8.484-10.045 15.024-16.535 16-18 2-3 29-32 32-36 2-2.666 9-9.666 21-21 1.904 1.955 1.904 4.955 0 9-2.855 6.068-8 4-8 8s2 10-3 10-8 2-8 5 4 7 0 9-9-10-10-6 0 4 0 10 1 9-4 12-9 5-10 3-5-2-9 5 1 8-5 10-3-2-9 4-8 11-10 14c-1.333 2-2 0-2-6z" fill="#FFF"/><path d="M339.017 189.75c-1.24.205-2.537-.911-2.898-2.492-.361-1.581.35-3.029 1.59-3.234 1.239-.205 2.536.911 2.897 2.492.362 1.581-.35 3.029-1.59 3.234z" fill="#2D2D2D"/><path d="M224 354.256c-3 5-12 9.29-18 4.29-6-5-4.379 18-12.379 23s-14.621-4-19.621-13c-5-9-12-3.29-12-4.29v-16.873c0-8.127 7-12.127 12-12.127s2-10 7-15c3.898-3.898 25-7.71 33 10.29 1.729 3.89 10.661 22.608 10 23.71z" fill="#FFF"/><path d="M292.025 109c17.333-28.667 33.333-49.333 48-62 14.667-12.667 30.667-25 48-37 9.333 3.887 14 7.692 14 11.415 0 5.585-2 89.975-8 102.585-4.93 10.359-26.73 37.442-39.9 50.107-1.908 1.834-4.941 4.798-9.1 8.893" stroke="#000" stroke-width="4"/><path d="M246.906 108.272c-41.334-58.827-72-91.24-92-97.24-30-9-33-11.61-44-6.305-11 5.304-25 19.304-18 56.304s24.48 85.908 45 114c13.68 18.729 24.033 28.789 31.06 30.18a526.144 526.144 0 0 0-8.06 20.208c-4 10.635 6 22.612 27 29.612" stroke="#000" stroke-width="3" stroke-linecap="round"/><path d="M175.108 250c-4.666 16.667-5.333 28.667-2 36 5 11 9 17 9 25" stroke="#2D2D2D" stroke-width="3" stroke-linecap="round"/><path d="M176.025 307c2.667 2.814 4 6.35 4 10.61m-6 .39c2.667 2.814 4 6.35 4 10.61s1.333 7.057 4 8.39" stroke="#2D2D2D" stroke-width="2" stroke-linecap="round"/><path d="M174.853 291c-58 60.667-87.666 95.333-89 104-2 13-4 16-2 24" stroke="#000" stroke-width="2"/><path d="M90.025 386c-16.726 13.062-28.726 22.729-36 29-7.275 6.271-14.608 13.938-22 23 1.675 23.902 3.687 39.185 6.035 45.85.772 2.193 2.094 4.91 3.965 8.15 15.313 9.096 23.646 14.43 25 16 2.03 2.356-2.03 11 0 13s18 16 23 16 16-3 17-4 2-18-12-25" stroke="#000" stroke-width="3" stroke-linecap="round"/><path d="M108.025 531.5c5.804.541 9.643.247 11.517-.883 1.425-.859 3.483-2.617 3.483-3.655 0-1.038-3-20.962-20-20.962" stroke="#2D2D2D" stroke-width="3" stroke-linecap="round"/><path d="M123.025 526.242c4.667-1.974 7.333-3.628 8-4.961 1-2-2-24-24-21" stroke="#2D2D2D" stroke-width="3" stroke-linecap="round"/><path d="M36.966 480c-14.367-1.922-24.094-4.806-29.18-8.65-.65-.491-1.59-1.274-2.82-2.35-2.667 12 .333 20.667 9 26 13 8 22 0 27-4" stroke="#2D2D2D" stroke-width="3" fill="#E6B520"/><path d="M42.025 491c-10 5-15 8-25 5s-11.505-11.553-12-17a61.215 61.215 0 0 1 0-11c.001 1.8 2.051 3.8 6.15 6 6.148 3.3 6.532 3.734 14.34 5 5.206.844 10.709.844 16.51 0L44 486c5.35 0 4.692 1.667-1.975 5z" fill="#FFF"/><path d="M1.025 497c4.667 6 12.333 9 23 9m-13-45c2.667 4.667 6.667 6.667 12 6" stroke="#000" stroke-width="2" stroke-linecap="round"/><path d="M20.223 481c2 2.667 2.334 4 1 4-2 0-5-1-4 1s2 3 6 5" stroke="#000" stroke-linecap="round"/><path d="M53.025 493c0-14.667 3-24 9-28 9-6 12-7 16-16 2.667-6 5-9.333 7-10m1-16l1 8" stroke="#000" stroke-width="2" stroke-linecap="round"/><path d="M89.025 441c3.333 16.667 8 28.333 14 35 9 10 11 19 10 23" stroke="#2D2D2D" stroke-width="3" stroke-linecap="round"/><path d="M97.025 442c2 1 5 7 8 9s14 15 27 17" stroke="#000" stroke-linecap="round"/><path d="M134.025 466s4 4 5 4" stroke="#2D2D2D" stroke-linecap="round"/><path d="M144.025 464c4.667 6 7.333 8.667 8 8 1-1 4-5 4-5l5 6v-6c14.667 5.333 24.333 5.833 29 1.5 4.667-4.333 6.333-5.833 5-4.5 2 2 4 3.5 6 4.5 7.456 3.728 16.422 6.914 21.783 7.363 1.76.147 4.498.192 8.217.137 5.244-1.837 9.39-4.593 12.436-8.267.774-.933 1.962-2.51 3.564-4.733-11.333-24-15.333-40.333-12-49 3.333-8.667 8.333-18.333 15-29l-2-7c8-6.667 12-11 12-13 0-3 2-40.61-2-44-4-3.39-65-51-65-61 0-6.667-.333-10-1-10-4.667-3.895-7.333-8.036-8-12.421-1-6.579-5-6.855-4-13.579s8-16.893 17-24.946c9-8.054 21-11.054 28-9.054 5.876 1.679 17.39 15.143 32.768 21.361 1.96.793 5.037 1.672 9.232 2.639l32-28c2.667-25.854 1.333-42.317-4-49.39-8-10.61-19-14.61-29-14.61" stroke="#000" stroke-width="2" stroke-linecap="round"/><path d="M280.025 128c-9.333-2.667-17-4-23-4" stroke="#000"/><path d="M294.025 136.68c-22.667-9.74-46-4.277-70 16.39" stroke="#000" stroke-width="2" stroke-linecap="round"/><path d="M296.025 132l-3-5m7 5c-.667-3.333-2-6-4-8m8 6c1 0-4-8-5-9" stroke="#000" stroke-linecap="round"/><path d="M310.025 131c-2-4-3.667-6.667-5-8m10 9c-1.6-3-2.933-5-4-6" stroke="#000"/><path d="M319.025 133c-1.2-2-2.2-3.333-3-4" stroke="#2D2D2D"/><path d="M130.025 513c12 5.333 27 6.667 45 4 27-4 48-3 50-6" stroke="#000" stroke-width="3" stroke-linecap="round"/><path d="M202.025 469c17.469 20.822 26.019 40.046 25.65 57.673-.036 1.678.08 4.12.35 7.327 3.333 1.333 5.333 2.333 6 3 1 1 5 8 6 11 17.645 1.27 28.153.972 31.524-.892.712-.394 1.538-1.097 2.476-2.108l-1-4 4-3c-4.117-8.784-8.46-13.417-13.032-13.9a27.25 27.25 0 0 0-1.968-.1c-2.504-9.422-4.17-17.088-5-23-3.166-22.567-3.957-44.864-3-53" stroke="#000" stroke-width="3"/><path d="M260.025 548c-4-13.333-7-20-9-20s-5.667 1.167-11 3.5m33 10.305c-4.514-7.459-7.514-11.792-9-13-2.23-1.811-6 0-7 0" stroke="#2D2D2D" stroke-width="3" stroke-linecap="round"/><path d="M179.025 517c15.333 4 24.333 5.333 27 4 2.667-1.333 3.667-3.667 3-7" stroke="#000" stroke-width="3" stroke-linecap="round"/><path d="M257.025 499c18.834-13.807 32.501-25.474 41-35 20.703-23.207 39.86-55.217 42.968-64.83.783-2.421 1.46-5.811 2.032-10.17l2-5 4 7c3.239-47.87 1.172-79.79-6.198-95.759-.39-.846-1.658-2.593-3.802-5.241" stroke="#000" stroke-width="4"/><path d="M302.025 461c-3.166 20.333-4.957 33.485-5.374 39.454-.288 4.123.448 8.639 2.206 13.546 7.445 4 11.168 6.333 11.168 7 0 1 2 4 0 9s-4.218 7.57-13.374 8c-9.156.43-18.626-3-18.626-6.5 0-3.12-.795-9.818-5.22-11.942-.538-.259-1.926-.582-1.78-.558.145.024 3-19-7-25" stroke="#000" stroke-width="3"/><path d="M290.025 537c4-6 4.333-11.333 1-16m14 15c.667-6.025.667-10.025 0-12-1-2.962-4-3-9-5" stroke="#000" stroke-width="3" stroke-linecap="round"/><path d="M162.025 380c0 15.293 2.667 29.293 8 42" stroke="#000" stroke-width="2" stroke-linecap="round"/><path d="M266.025 254c12.76 19.685 20.214 35.4 22.361 47.147.822 4.494 1.639 13.853 1.639 13.853s4.415 5.03 14 10c2.367 1.227 6.7 2.56 13 4 10-8 14.333-15 13-21-2-9-5-25.466-17-44" stroke="#2D2D2D" stroke-width="3" fill="#FFF"/><path d="M163.025 411c.667 9 3 15.833 7 20.5" stroke="#000" stroke-width="2" stroke-linecap="round"/><path d="M218.025 284l14 7m-25-20l14 7m-28-20l11 9m6-46c4.667-4 11.667-4 21 0m-4-10l5 3" stroke="#2D2D2D" stroke-width="2" stroke-linecap="round"/><path d="M224.025 219c22.367 21.405 41.461 35.72 57.283 42.944 3.148 1.438 8.053 3.456 14.717 6.056 34.867-7.713 56.66-11.41 65.376-11.089 3.092.114 6.633.81 10.624 2.089 9.333-7.895 13.333-15.036 12-21.421" stroke="#000" stroke-width="3"/><path d="M240.025 246c19.24 23.132 30.818 38.148 34.735 45.047 1.522 2.682 2.944 5.666 4.265 8.953 2.667 2 5.333 3 8 3" stroke="#2D2D2D" stroke-width="2" stroke-linecap="round"/><path d="M260.025 250c16.667 28 25.333 43.667 26 47m35.75-34c-.667 10-.667 15.667 0 17" stroke="#2D2D2D"/><path d="M325.025 262l4 34" stroke="#2D2D2D" stroke-width="3" stroke-linecap="round"/><path d="M339.275 259c4.667 5.333 6 11.667 4 19-2.311 8.474-5.216 11.607-7.342 15.342-.634 1.113-1.658 3.658-1.658 3.658s-1 3 1 7" stroke="#2D2D2D" stroke-width="2"/><path d="M338.058 291c-1.228 3.995-1.895 6.662-2 8-.25 3.159 1 4.515 1 6-.003 7.223.886 10.738 0 12.547-2 4.085 4.785 16.337 3 27.569-1.786 11.231.93 11.231-1.535 18.379-2.465 7.147 3.535 7.147 3.535 12.252V388" stroke="#000"/><path d="M294.025 274c1 0 15 0 17 3s-15 2-12 5m2 1.25c1 0 5-1 10 1m-5 4.75c4.667 6.667 7.667 15.333 9 26" stroke="#2D2D2D" stroke-linecap="round"/><path d="M360.345 256.047l4-10 33-13c3.625-7.222 5.959-12.222 7-15 3.94-10.506 4.419-16.001 4-17-.876-2.093-21.562-9.713-24.218-9-2.656.712-17.731 4.504-32.506 14.483-2.02 1.363-4.346 3.57-4.276 3.517.07-.054-5 17 4.276 24 6.183 4.666 11.092 8.333 14.724 11" stroke="#2D2D2D" stroke-width="3"/><path d="M365.025 219l-6-1-9 9 4 7 11-15zm16 16.317c6.667-7.333 10-11.667 10-13 0-2 4 6 1 9-2 2-5.667 3.333-11 4z" stroke="#2D2D2D" fill="#383838"/><path d="M347.025 214.062l3 5c10-12.061 18-17.728 24-17 9 1.093 31 5.034 32 9.967" stroke="#000"/><path d="M358.515 199.054l-13-10.054c-2.879-16.388-4.373-26.851-4.484-31.391-.07-2.837.484-6.609.484-6.609l2-6" stroke="#000" stroke-width="2" stroke-linecap="round"/><path d="M169.025 206.466l18-33.936c-22.667-2.667-34-4.667-34-6 0-2-14-25.06-19-28.53" stroke="#000" stroke-width="3" stroke-linecap="round"/><path d="M128.416 130c-13.333-29.604-19-55.604-17-78" stroke="#000" stroke-linecap="round"/><path d="M116.025 42.736c2-2 18-5 30 0" stroke="#000" fill="#FFF" stroke-linecap="round"/><path d="M147.025 41c17.333 13.333 26 20.667 26 22 0 1.333.667.667 2-2 12 15.333 18.667 25 20 29" stroke="#000" stroke-linecap="round"/><path d="M227.025 112.543c30.701-5.364 53.485-5.978 68.353-1.842 3.897 1.084 11.327 3.752 11.647 3.876.213.083 13.547 8.405 40 24.966" stroke="#000" stroke-width="3" stroke-linecap="round"/><path d="M385.025 37c3.333 12.86 4.667 24.193 4 34m-3 10c1.333 17.594-2.667 31.26-12 41m6-87c-14.667 14-25.667 29.333-33 46" stroke="#000" stroke-linecap="round"/><path d="M343.025 85c-7.333 16-11.333 31-12 45" stroke="#000"/><path stroke="#000" stroke-width="3" stroke-linecap="round" d="M373.025 50l-11.583 20.023-23.417 40.482V133.5h1l1 1v-26"/><path d="M372.025 63l-32.175 49m31.175 28l-4 10-24 14" stroke="#000" stroke-width="2" stroke-linecap="round"/><path d="M356.025 200.23c-3.333-1.54-8.333-2.76-15-3.655-10-1.344-21-18.344-21-34.344v-22c7.333-2.667 16.333-1 27 5" stroke="#000" stroke-linecap="round"/><path d="M320.025 140.42c8-3.187 14.667-4.65 20-4.39m-20 4.97c0-4.667 4-7.667 12-9" stroke="#000"/><path d="M344.025 138c1.599 1.953 2.599 3.424 3 4.416.4.99.4 1.99 0 3" stroke="#2D2D2D"/><path d="M337.867 184.012c.62-.102 1.268.455 1.449 1.246.18.79-.176 1.514-.795 1.617-.62.102-1.268-.455-1.45-1.246-.18-.79.176-1.514.796-1.617zm-67.707 3.004c-.884-.138-1.81.613-2.068 1.678-.258 1.064.25 2.039 1.135 2.177.884.138 1.81-.613 2.068-1.678.258-1.064-.25-2.039-1.134-2.177z" fill="#FFF"/><path d="M23.025 498c-.667 0-5.333-2.667-14-8"/><path d="M52.025 499l2-16" fill="#D8D8D8"/><path d="M113.025 75.594c-1.333-9.333-.667-17.833 2-25.5 2.667-7.667 10.333-10.833 23-9.5l-34-19-6-3.594-2 5.594 6 20 11 34v-2z" fill="#FFF"/><path d="M120.041 116.556c5.334-2.667 9.334-3.334 12-2 4 2-6-15-3-17s2-13 7-12 0-8 0-11 0-7 5-10 5-6 5-11-9-11-13-11-12-3.5-18 0-10 10-8 16-2 19 3 28 5 11.965 5 18c0 4.023 1.667 8.023 5 12z" fill="#FFF"/><path d="M415.04 406c-13 25.93-11 23 0 40s9.985 28-4.507 28m-41.209 76c-12.65 0-15.18-23 0-23 10.12 0 14.126 4.26 12.018 12.778L344.025 550" stroke="#000" stroke-width="3" stroke-linecap="round"/><path d="M293.73 344.882c18 10 20 10 30 0 6.666-6.666 11-7.666 13-3-2 8.667-2 13.667 0 15 3 2 0 3 0 10s-1 22-9 26-4 16-23 12.5-32-8.5-29-23.5-9-34-3-37 3-10 21 0z" fill="#FFF"/><path d="M300.279 347.951c12.093 6.717 13.436 6.717 20.155 0 4.478-4.478 7.39-5.15 8.733-2.015-1.343 5.822-1.343 9.18 0 10.076 2.016 1.343 0 2.015 0 6.717s-.671 14.778-6.046 17.464c-5.375 2.687-2.687 10.748-15.452 8.397-12.765-2.351-21.499-5.71-19.483-15.785 2.015-10.076-6.047-22.839-2.016-24.854 4.031-2.015 2.016-6.717 14.109 0zM147.025 394.71c-2 3.333-2 7.5 0 12.5 3 7.5 6 6.5 3 11.5s-7 10-13 5-12-10-20-5-17 1-17 5-12 6-12 5v-16.873c0-8.128 7-12.128 12-12.128s20 5 25 0 19-19 22-15c2 2.667 2 6 0 10zm74.278-152.54c-5-5-13-8.228-17-14s-8-16.208-4-21c4-4.79 9-15.236 15-14.82 6 .417 11-4.82 21 0s14 12.82 20 15.82 24 6 27 3-5 9-16 8-21.021-11-26.01-11c-4.99 0-21.99-10.447-25.99-3.723-4 6.723 0 12.18 0 17.951 0 5.772 11 24.773 6 19.772zm93.01-97.17c-5.524 2-7.62 6.333-6.286 13 2 10 4 21 0 21s-4 11.912-10 17.093c-6 5.18-3 6.038-8 9.907-5 3.87-9 14.097-2 17.548 7 3.452 10 9.381 20 7.03 10-2.35 17-6.578 22-6.578s1-5.752 5-11 6-12.3 9-13.064c3-.765-15-.976-19-3.843-4-2.868-8-10.093-8-17.093 0-4.667-.905-16-2.714-34z" fill="#FFF"/><path d="M132.025 63c12.667 2.697 30.333 10.744 53 24.143 34 20.098 19 45.5 19 48.286 0 1.857-3 8.047-9 18.571" stroke="#000" stroke-width="4" stroke-linecap="round"/><path d="M133.025 57c19.333 7.333 33.667 16 43 26" stroke="#2D2D2D" stroke-width="2" stroke-linecap="round"/><path d="M372.025 47.364c4 1.333 5.333 4 4 8-2 6-4 9 0 9s4-3 8-3 0-15.5 0-20-2.222-9-5.111-4.5c-1.926 3-4.222 6.5-6.89 10.5zM316.803 189c-5.334 2.742-8 5.069-8 6.98 0 2.868-4 9.776 0 9.776s4-5.323 12-1.727 16 1.411 16 .42c0-.992.889-1.426-7-3.513-5.26-1.392-9.593-5.37-13-11.936zm-95.778-72l18-4 29-3c10.637.544 18.97 1.223 25 2.038 6.029.814 10.696 2.468 14 4.962-7.333-1.333-12-1.333-14 0-3 2-4 1-6 0s-13-4-16-3-7 2-12 2-18-3-20-1" fill="#FFF"/></g></svg>