<svg width="21" height="22" viewBox="0 0 21 22" xmlns="http://www.w3.org/2000/svg"><title>7C855B31-79FB-4F58-BA1B-3146E6861BBA</title><path d="M19.58 0H1.386C.61 0 0 .659 0 1.5S.609 3 1.386 3h18.228C20.39 3 21 2.341 21 1.5 20.966.659 20.357 0 19.58 0zm0 19H1.386C.61 19 0 19.659 0 20.5S.609 22 1.386 22h18.228C20.39 22 21 21.341 21 20.5c-.034-.841-.643-1.5-1.42-1.5zm0-9H1.386C.61 10 0 10.659 0 11.5S.609 13 1.386 13h18.228C20.39 13 21 12.341 21 11.5c-.034-.841-.643-1.5-1.42-1.5z" fill-rule="evenodd"/></svg>