<svg width="24" height="24" viewBox="0 0 24 24" xmlns="http://www.w3.org/2000/svg"><title>0108DC97-6814-4A1E-8C2A-94130D8C45A7</title><path d="M19.99 19.514c-.055 3.325-1.84 4.528-3.736 4.417-1.896-.111-3.214-.984-4.56-.984l-.055.031c-1.35 0-2.664.9-4.56 1.014-1.896.114-3.682-1.032-3.736-4.357.11-3.052 2.454-3.276 4.45-6.883 1.758-3.175 3.846-2.917 3.846-2.917h.061s2.1-.243 3.846 2.917c1.982 3.612 4.335 3.71 4.444 6.762zM8.254 8.464c1.68-.126 2.896-2.122 2.717-4.458-.178-2.335-1.684-4.126-3.364-4-1.68.126-2.895 2.123-2.716 4.458.178 2.335 1.684 4.128 3.36 4h.003zm6.364.04c1.64.45 3.48-1.05 4.107-3.328.627-2.278-.195-4.5-1.836-4.936-1.641-.436-3.48 1.05-4.107 3.328-.627 2.279.195 4.494 1.836 4.937zm7.601-1.826c-1.43-.387-3.03.912-3.575 2.899-.546 1.987.169 3.912 1.597 4.299 1.428.387 3.03-.912 3.576-2.9.546-1.987-.17-3.911-1.598-4.298zM5.357 9.577c-.546-1.987-2.146-3.286-3.576-2.9-1.429.388-2.144 2.312-1.597 4.3.547 1.987 2.146 3.284 3.576 2.899 1.43-.386 2.143-2.312 1.597-4.299z" fill="#E6B51F" fill-rule="evenodd"/></svg>