<svg width="53" height="41" xmlns="http://www.w3.org/2000/svg" viewBox="0 0 53 41"><path fill="#fff" class="cls-1" d="M0 17.36a1.581 1.581 0 0 0 1.42.96 2.631 2.631 0 0 1 .84.29 3.713 3.713 0 0 1 .76 1.6c-.39.96-2.05 5.22-2.18 7.77-.09 1.77.08 5.97.25 9.18a3.246 3.246 0 0 0 3.26 3.08h3.31a.666.666 0 0 0 .66-.55h2.37a.719.719 0 0 0 .53-.23.671.671 0 0 0 .19-.54 3.832 3.832 0 0 0-3.08-3.61 1 1 0 0 1-.64-1.22 14.012 14.012 0 0 1 .82-3.13v-.02a11.95 11.95 0 0 0 3.97-3.36 13.531 13.531 0 0 0 10.66 5.12 17.281 17.281 0 0 0 4.92-.75 5.921 5.921 0 0 0 2.79 3.51 5.852 5.852 0 0 0 .16 2.99c.71 2.31 1.98 2.55 4.71 2.55a2 2 0 0 0 1.6-.65 2.578 2.578 0 0 0 .44-2.1c-.16-1.03-1.4-1.54-2.15-1.76a38.617 38.617 0 0 1 .92-6.04 12.051 12.051 0 0 0 7.62-10.22c.18-2.33.45-4.92.57-5.94 1.55-.45 6.38-2.17 6.25-5.84V6.97a.673.673 0 0 0-.2-.48.687.687 0 0 0-.49-.19c-.04 0-4.78.06-7.8-3.3a2.875 2.875 0 0 0-2.67-.96 6.778 6.778 0 0 0-2.1.81.6.6 0 0 0-.19.16 2.59 2.59 0 0 0-1.34.29 4.928 4.928 0 0 1-1 .34c-1.2.32-2.04.72-1.93 2.98a5.559 5.559 0 0 1-2.79 4.32 16.413 16.413 0 0 1-8.5 1.78c-.43-.04-.96-.09-1.55-.15-5.08-.51-10.15-.83-11.58 1.29-1.66 0-5.73.17-7.8 1.81A1.886 1.886 0 0 0 0 17.36z"/><path class="cls-1" d="M38.78 17.44a.682.682 0 0 0 .55.28.631.631 0 0 0 .39-.13c4.1-2.9 2.79-7.03 2.01-9.5a9.152 9.152 0 0 1-.36-1.33 1.954 1.954 0 0 1 .96-2.04.679.679 0 0 0 .3-.9.67.67 0 0 0-.9-.3 3.3 3.3 0 0 0-1.69 3.43 10.35 10.35 0 0 0 .41 1.55c.76 2.39 1.79 5.66-1.51 8a.682.682 0 0 0-.16.94zm-3.97-1.5c3.47-1.18 3.43-4.89 3.42-5.06a.675.675 0 0 1 1.35-.03 6.619 6.619 0 0 1-4.34 6.36.78.78 0 0 1-.22.04.673.673 0 0 1-.21-1.31zM2 15.36a1.581 1.581 0 0 0 1.42.96 2.631 2.631 0 0 1 .84.29 3.713 3.713 0 0 1 .76 1.6c-.39.96-2.05 5.22-2.18 7.77-.09 1.77.08 5.97.25 9.18a3.246 3.246 0 0 0 3.26 3.08h3.31a.666.666 0 0 0 .66-.55h2.37a.719.719 0 0 0 .53-.23.671.671 0 0 0 .19-.54 3.844 3.844 0 0 0-3.08-3.61.994.994 0 0 1-.64-1.22 14.012 14.012 0 0 1 .82-3.13v-.02a11.87 11.87 0 0 0 3.97-3.37 13.5 13.5 0 0 0 10.66 5.14 17.318 17.318 0 0 0 4.92-.76 5.921 5.921 0 0 0 2.79 3.51 5.852 5.852 0 0 0 .16 2.99c.71 2.31 1.98 2.55 4.71 2.55a2 2 0 0 0 1.6-.65 2.578 2.578 0 0 0 .44-2.1c-.16-1.03-1.4-1.54-2.15-1.76a38.617 38.617 0 0 1 .92-6.04 12.051 12.051 0 0 0 7.62-10.22c.18-2.33.45-4.92.57-5.94 1.55-.45 6.38-2.17 6.25-5.84V4.97a.673.673 0 0 0-.2-.48.687.687 0 0 0-.49-.19c-.04 0-4.78.06-7.8-3.31a2.862 2.862 0 0 0-2.67-.94 6.5 6.5 0 0 0-2.1.8.6.6 0 0 0-.19.16 2.636 2.636 0 0 0-1.33.29 5.221 5.221 0 0 1-1.01.34c-1.2.32-2.04.72-1.93 2.98a5.559 5.559 0 0 1-2.79 4.32 16.413 16.413 0 0 1-8.5 1.78c-.43-.04-.96-.09-1.55-.15-5.08-.51-10.15-.83-11.58 1.29-1.66 0-5.72.17-7.8 1.81A1.886 1.886 0 0 0 2 15.36zm9.79 20.89h-1.75a3.281 3.281 0 0 0-2.37-1.9c-.16-1.98-.02-3.92.32-4.21.09-.04.25-.11.44-.19.08-.04.17-.08.26-.12a14.966 14.966 0 0 0-.44 2.07 2.421 2.421 0 0 0 1.77 2.82.127.127 0 0 0 .06.01 2.142 2.142 0 0 1 1.71 1.52zM3.57 14.97a3.259 3.259 0 0 1 .3-.25c1.82-1.44 6.12-1.58 7.62-1.51a.677.677 0 0 0 .7-.64.761.761 0 0 0-.03-.21c1.54-1.32 7.27-.74 10.11-.46.61.07 1.15.12 1.58.15a17.586 17.586 0 0 0 9.2-1.9 5.854 5.854 0 0 0 2.39-2.14c.02 2.73-.55 5.03-3.18 5.5a.672.672 0 0 0-.55.78.682.682 0 0 0 .66.55.487.487 0 0 0 .12-.01c4.86-.86 4.41-6.33 4.17-9.27-.02-.35-.05-.67-.07-.96-.07-1.4.1-1.44.93-1.66a6.314 6.314 0 0 0 1.25-.44.9.9 0 0 1 1.33.31.679.679 0 0 0 .9.3.668.668 0 0 0 .31-.89 2.473 2.473 0 0 0-.36-.5 5.114 5.114 0 0 1 1.11-.36 1.536 1.536 0 0 1 1.42.53 11.7 11.7 0 0 0 6.73 3.55 2.336 2.336 0 0 0 1.41 1.35c-.25 2.98-5.62 4.31-5.68 4.32a.67.67 0 0 0-.51.58c-.01.03-.38 3.44-.62 6.44a10.733 10.733 0 0 1-5.93 8.71c.41-1.87.83-3.61 1.1-4.67a.671.671 0 1 0-1.3-.33c-.28 1.09-2.72 10.76-2.38 13.27a.658.658 0 0 0 .54.57 2.479 2.479 0 0 1 1.59.77 1.412 1.412 0 0 1-.13 1.03.744.744 0 0 1-.58.18c-2.7 0-3.01-.27-3.43-1.61a4.233 4.233 0 0 1-.02-2.7.659.659 0 0 0-.43-.9c-.17-.06-4.29-1.43-2.24-8.76a.67.67 0 0 0-1.29-.36 14.654 14.654 0 0 0-.61 4.3 5.972 5.972 0 0 1-2.14-4.3c-.21-3.06 1.24-4.13 1.3-4.17a.674.674 0 0 0 .17-.93.654.654 0 0 0-.92-.18c-.09.06-2.15 1.49-1.89 5.36a7.3 7.3 0 0 0 2.85 5.43c-9.3 2.43-13.58-4.12-13.77-4.41a.444.444 0 0 0-.08-.11 7.956 7.956 0 0 0 .74-3.76.656.656 0 0 0-.69-.64.67.67 0 0 0-.65.69c.2 5.12-4.83 7.29-6.73 8.11-.22.09-.4.17-.52.23-1.35.68-1.2 4.08-.99 6.05a.68.68 0 0 0 .6.6 2.061 2.061 0 0 1 1.88 1.3H6.35a1.906 1.906 0 0 1-1.92-1.81c-.14-2.6-.34-7.24-.25-9.05.13-2.59 2.14-7.46 2.16-7.51a.731.731 0 0 0 .04-.36 5.055 5.055 0 0 0-1.17-2.5 3 3 0 0 0-1.48-.65c-.05-.02-.11-.03-.16-.05zM44.83 4l1.01.35a.667.667 0 0 1-.22 1.3.761.761 0 0 1-.21-.03l-1.01-.35A.67.67 0 1 1 44.83 4z"/></svg>