<svg xmlns="http://www.w3.org/2000/svg" viewBox="0 0 79.97 68" width="80" height="68"><path fill="#fff" d="M2.86 50.49a47.715 47.715 0 0 1 .8-11.01 24.092 24.092 0 0 1 2.73-7.87c-2.64-1.39-8-5.25-5.95-13.18C2.96 8.7 13.89 2.4 14.35 2.14a1.123 1.123 0 0 1 1.46.31 1.182 1.182 0 0 1-.1 1.52c-.14.14-13.3 13.95-5.98 23.95a20.97 20.97 0 0 1 2.33-1.57c3.68-2.2 10.58-2.03 16.67-1.88 2.01.05 3.9.1 5.37.04 5.63-.22 10.34-1.3 15.06-5.85 5.07-4.87 7.91-5.69 8.22-5.76.03-.01.06-.01.08-.02a16.265 16.265 0 0 0 1.8-5.57c.06-4.2 2.35-5.13 2.62-5.23a1.128 1.128 0 0 1 1.07.21 7.275 7.275 0 0 1 2.25 5.59c-.03 1.43-.1 2.21-.17 3.46h.02a5.543 5.543 0 0 1 3.23.85c1.7 1.13 2.8 3.05 3.26 5.91l5.58 1.46a1.167 1.167 0 0 1 .84 1.34c-.06.32-1.49 5.87-6.94 6.62a38.91 38.91 0 0 1-3.95.64c-1.97 0-3 1.16-4.68.53-.75 3.73-3.84 15.19-14.06 19.85-.22 1.36-.38 2.56-.42 3.27-.02.47-.08 1.11-.14 1.84-.15 1.82-.53 6.54-.1 7.72 1.74.66 3 3.73 3.48 5.08a1.144 1.144 0 0 1-.14 1.06 1.131 1.131 0 0 1-.93.5 37.792 37.792 0 0 1-3.92-.54c-3.03-.5-4.64-2.76-4.77-6.74-.02-.35-.02-.92-.03-1.64-.01-2.18-.05-6.79-.45-10.19-.4.03-.8.05-1.23.05-7.69 0-19.86-5.05-23.45-6.62a45.886 45.886 0 0 1-4.08 6.22 26.245 26.245 0 0 0-3.31 5.18c-.97 2.65-.72 6.68-.58 8.18 1.46 1.05 2.38 3.58 2.65 4.42a1.205 1.205 0 0 1-.08.93 1.1 1.1 0 0 1-.72.56 6.636 6.636 0 0 1-1.67.19 6.171 6.171 0 0 1-3.4-.94c-2.69-1.76-2.61-10.91-2.27-12.96a23.363 23.363 0 0 0 .09-3.62z"/><path d="M66.58 15.84a1.168 1.168 0 0 0 .61 1.51 5.209 5.209 0 0 1 1.02.71 1.122 1.122 0 0 0 1.6-.12 1.174 1.174 0 0 0-.11-1.63 7.27 7.27 0 0 0-1.63-1.1 1.125 1.125 0 0 0-1.49.63zM4.86 48.49a47.715 47.715 0 0 1 .8-11.01 24.092 24.092 0 0 1 2.73-7.87c-2.64-1.39-8-5.26-5.95-13.17C4.96 6.7 15.89.4 16.35.14a1.123 1.123 0 0 1 1.46.31 1.182 1.182 0 0 1-.1 1.52c-.14.14-13.29 13.95-5.98 23.95a20.97 20.97 0 0 1 2.33-1.57c3.68-2.2 10.58-2.03 16.67-1.88 2.01.05 3.9.1 5.37.04 5.63-.22 10.34-1.3 15.06-5.85 5.07-4.87 7.91-5.69 8.22-5.76.03-.01.06-.01.08-.02a16.265 16.265 0 0 0 1.8-5.57c.06-4.2 2.35-5.13 2.62-5.23a1.128 1.128 0 0 1 1.07.21 7.275 7.275 0 0 1 2.25 5.59c-.03 1.43-.1 2.21-.17 3.46h.02a5.619 5.619 0 0 1 3.23.85c1.7 1.12 2.8 3.05 3.26 5.91l5.58 1.46a1.167 1.167 0 0 1 .84 1.34c-.06.32-1.49 5.87-6.94 6.62a38.91 38.91 0 0 1-3.95.64c-1.97 0-3 1.17-4.68.53-.75 3.73-3.84 15.19-14.06 19.85-.22 1.36-.38 2.56-.42 3.27-.03.47-.08 1.11-.14 1.84-.15 1.82-.53 6.54-.1 7.72 1.74.66 3 3.73 3.48 5.08a1.144 1.144 0 0 1-.14 1.06 1.131 1.131 0 0 1-.93.5 37.792 37.792 0 0 1-3.92-.54c-3.03-.5-4.64-2.76-4.77-6.74-.02-.35-.02-.92-.03-1.64-.01-2.18-.05-6.79-.45-10.19-.4.03-.8.05-1.23.05-7.69 0-19.86-5.05-23.45-6.62a45.886 45.886 0 0 1-4.08 6.22 26.245 26.245 0 0 0-3.31 5.18c-.97 2.65-.72 6.68-.58 8.18 1.46 1.05 2.38 3.57 2.65 4.42a1.205 1.205 0 0 1-.08.93 1.131 1.131 0 0 1-.72.56 6.636 6.636 0 0 1-1.67.19 6.171 6.171 0 0 1-3.4-.94c-2.69-1.76-2.61-10.91-2.27-12.96a23.363 23.363 0 0 0 .09-3.62zm6.3-41.52c-2.71 2.56-5.48 6.02-6.53 10.06-1.76 6.81 3.24 9.83 5.14 10.71.08-.09.17-.18.25-.27-5.14-6.81-2.2-14.93 1.14-20.5zm65.39 12.31a5.555 5.555 0 0 0 .67.99q.135-.405.24-.75zM8.26 63.12a3.847 3.847 0 0 0 1.95.56 4.491 4.491 0 0 0-1.34-1.93 1.156 1.156 0 0 1-.8-.96c-.03-.24-.76-6.04.65-9.88a26.822 26.822 0 0 1 3.62-5.76 36.661 36.661 0 0 0 4.3-6.81 9.406 9.406 0 0 0 .48-1.48 1.13 1.13 0 0 1 1.36-.87 1.161 1.161 0 0 1 .85 1.39c-.06.27-.14.54-.22.8 3.6 1.57 16.4 6.88 23.41 6.42a4.61 4.61 0 0 0-.5-1.37c-1.78-2.85-2.58-9.78-2.67-10.56a1.166 1.166 0 0 1 1-1.29 1.146 1.146 0 0 1 1.26 1.03c.21 1.97 1.05 7.54 2.32 9.57 1.41 2.26 1.65 8.59 1.7 15.09.01.7.01 1.24.02 1.58.1 2.86.96 4.21 2.87 4.53.7.11 1.27.2 1.73.27a5.064 5.064 0 0 0-1.33-1.9c-1.89-.39-1.96-3.29-1.41-10.1.06-.7.11-1.31.14-1.77.15-2.68 1.78-11.11 1.85-11.47a1.137 1.137 0 0 1 1.34-.91 1.156 1.156 0 0 1 .89 1.36c-.01.05-.47 2.44-.93 5.06 8.59-4.88 11.02-15.64 11.46-18.04-.17-.1-.33-.19-.5-.29a1.173 1.173 0 0 1-.39-1.59 1.114 1.114 0 0 1 1.55-.4c2.9 1.77 5.74.38 9.8-.18a4.773 4.773 0 0 0 3.06-1.12 5.068 5.068 0 0 1-1.73-3.47l-1.8-.47a1.156 1.156 0 0 1-.85-.99c-.3-2.56-1.08-4.28-2.33-5.12a3.9 3.9 0 0 0-3.01-.47 1.113 1.113 0 0 1-1.09-.24 1.151 1.151 0 0 1-.36-1.08 33.407 33.407 0 0 0 .32-4.52 5.228 5.228 0 0 0-.8-2.97 4.791 4.791 0 0 0-.61 2.56c-.05 3.72-3.85 10.1-4.28 10.81a1.113 1.113 0 0 1-1.56.38 1.172 1.172 0 0 1-.37-1.59c.11-.18.23-.39.36-.62a33.079 33.079 0 0 0-4.96 4.04c-5.54 5.34-11.21 6.27-16.52 6.48-1.54.06-3.47.01-5.51-.04-5.5-.13-12.35-.3-15.48 1.56-4.37 2.6-6.01 5.21-7.32 11.61a45.428 45.428 0 0 0-.75 10.49 24.879 24.879 0 0 1-.12 4.04c-.54 3.31.24 9.97 1.25 10.63z"/></svg>