<svg xmlns="http://www.w3.org/2000/svg"><symbol id="icon_dog-bg" viewBox="0 0 1740 1620" preserveAspectRatio="xMidYMid meet"><path d="M737 1585c-354-67-611-278-707-580C3 920-9 688 9 600c16-75 52-150 96-199 84-92 448-293 630-347 130-38 317-45 434-16 276 70 485 284 552 567 29 124 23 306-16 445-76 277-234 450-475 521-99 28-373 36-493 14z" id="layer101" stroke-width="20"/></symbol><symbol id="icon_facebook" viewBox="0 0 7 13"><g id="Page-1" fill-rule="evenodd"><g id="Desktop-v1" transform="translate(-225 -4659)"><g id="подвал" transform="translate(0 4498)"><path d="M229.29 173.039h-2.25v-5.834c0-.021-.004-.041-.008-.07H225v-1.962l.116-.005h1.924v-.119c0-.326.003-.653 0-.98-.004-.509.088-1 .304-1.462.323-.691.825-1.199 1.553-1.455.212-.073.44-.103.662-.152h2.114v2.096l-1.893-.001a.38.38 0 0 0-.284.138c-.152.166-.204.366-.205.583-.002.424 0 .847 0 1.27 0 .023.004.049.006.082h2.224c.051 0 .102.004.152.005v1.962h-2.382v.138l-.002 5.766" id="Fill-1"/></g></g></g></symbol><symbol id="icon_odnoklassniki" viewBox="0 0 10 16"><g id="Page-1" fill-rule="evenodd"><g id="Desktop-v1" transform="translate(-304 -4657)" stroke-width=".5"><g id="подвал" transform="translate(0 4498)"><g id="Fill-1" transform="translate(305 160)"><path d="M1.448 14.194c-.128-.066-.269-.115-.381-.2-.503-.382-.543-.934-.1-1.38.775-.784 1.558-1.562 2.34-2.34.073-.074.16-.136.3-.256-.379-.067-.668-.115-.956-.172a4.778 4.778 0 0 1-2.34-1.16c-.237-.214-.378-.468-.278-.811.206-.705.81-.899 1.463-.51.465.276.95.555 1.462.699 1.439.399 2.8.196 4.044-.678.64-.449 1.277-.222 1.478.5.097.343-.053.593-.29.808a4.78 4.78 0 0 1-2.31 1.149c-.285.057-.574.102-.901.159.082.093.144.17.214.24.741.744 1.457 1.52 2.237 2.22.718.643.495 1.444-.368 1.732h-.189c-.232-.153-.492-.277-.69-.465-.579-.549-1.134-1.125-1.7-1.687-.07-.07-.146-.135-.236-.216-.65.654-1.27 1.297-1.914 1.915-.197.188-.462.305-.696.453h-.19z"/><path d="M4.246 5.361a1.764 1.764 0 0 0 1.777-1.744A1.775 1.775 0 0 0 4.25 1.832a1.77 1.77 0 0 0-1.76 1.765 1.76 1.76 0 0 0 1.756 1.764zm.166-5.36c.603.09 1.19.218 1.72.55 1.41.882 2.054 2.63 1.52 4.167-.553 1.597-2.097 2.62-3.696 2.45C2.218 6.984.898 5.706.696 4.014A3.57 3.57 0 0 1 3.887.047c.072-.008.14-.03.211-.047h.315z" id="Fill-4"/></g></g></g></g></symbol><symbol id="icon_refresh" viewBox="0 0 612.035 612.035"><path d="M323.128 56.236l5.646-9.57 40.17-40.169C271.247-13.921 165.482 13.786 89.65 89.646-16.421 195.717-28.355 360.261 53.875 479.49L10.98 522.386l137.7 19.667-19.667-137.7-34.968 34.967c-60.978-96.724-49.322-226.078 34.94-310.34 53.244-53.243 124.486-77.501 194.143-72.744zm258.264 13.743l-137.7-19.667 19.668 137.7 38.25-38.25c78.726 98.31 72.521 242.186-18.583 333.317-61.116 61.117-145.989 84.039-224.882 68.739l-45.65 45.649c105.654 33.799 226.05 8.791 309.895-75.054 112.858-112.858 119.146-291.979 18.805-412.209l40.197-40.225z"/></symbol><symbol id="icon_star" viewBox="0 0 39 37"><path fill-rule="evenodd" d="M19.5 2.501l5.603 10.056 11.395 2.166-7.933 8.382 1.44 11.394L19.5 29.623 8.995 34.499l1.439-11.394-7.932-8.382 11.395-2.166L19.5 2.501"/></symbol><symbol id="icon_telegram" viewBox="0 0 1682.02 1401.65"><g id="Слой_2"><path class="cls-1" d="M1662.59 13.33a56.11 56.11 0 0 0-55.85-9.82C1312.88 112.28 407.91 451.83 38 588.7a57.63 57.63 0 0 0 3.58 109.54c165.88 49.62 383.63 118.65 383.63 118.65S527 1124.2 580 1280.49c6.66 19.62 22 35 42.26 40.36a60 60 0 0 0 56.84-14.5l217-204.85s250.34 183.54 392.32 284.67a83.34 83.34 0 0 0 77.58 10.16 81.31 81.31 0 0 0 50.74-58.87c60.91-286.21 208.64-1010.66 264.07-1271a54.7 54.7 0 0 0-18.22-53.13zm-288.18 263.3C1115.25 510.35 660.62 920.4 660.62 920.4l-26.14 245.78-117.66-388.11S1050 437.53 1350.38 245.72a19.92 19.92 0 0 1 26.35 4.48 19.47 19.47 0 0 1-2.32 26.43z" id="svg5607"/></g></symbol><symbol id="icon_twitter" viewBox="0 0 14 12"><g id="Page-1" fill-rule="evenodd"><g id="Desktop-v1" transform="translate(-249 -4659)"><g id="подвал" transform="translate(0 4498)"><path d="M253.853 172.505h-1.024c-.008-.014-.021-.01-.033-.009l-.12-.011a8.08 8.08 0 0 1-3.45-1.096c-.076-.045-.15-.092-.226-.139l.004-.014a5.747 5.747 0 0 0 4.18-1.182c-.09-.006-.166-.009-.242-.018a2.816 2.816 0 0 1-1.214-.423 2.83 2.83 0 0 1-1.178-1.483c-.019-.052-.015-.058.04-.048.366.065.73.054 1.092-.025.036-.008.073-.013.114-.035l-.051-.014a2.76 2.76 0 0 1-1.297-.685 2.814 2.814 0 0 1-.917-2.08c-.001-.04.013-.04.044-.024.305.164.63.268.973.312.082.01.164.023.258.015l-.052-.04c-.967-.739-1.347-1.71-1.138-2.908.05-.283.158-.548.296-.8.023-.042.036-.04.063-.006a8.068 8.068 0 0 0 5.77 2.93c.064.005.064.004.052-.056a2.843 2.843 0 0 1 2.997-3.425 2.78 2.78 0 0 1 1.79.81c.063.062.116.076.2.056a5.858 5.858 0 0 0 1.638-.638c.011-.006.022-.02.038-.013.006.02-.005.037-.011.053a2.845 2.845 0 0 1-1.123 1.441c-.026.017-.057.027-.074.055-.003.001-.01-.003-.006.006l.005-.007c.026 0 .052.002.077-.002a5.823 5.823 0 0 0 1.363-.363c.048-.02.093-.05.147-.052l-.001-.001-.022.038a5.694 5.694 0 0 1-1.319 1.368.13.13 0 0 0-.059.122 7.705 7.705 0 0 1-.22 2.154c-.447 1.797-1.356 3.309-2.788 4.495-.603.5-1.273.89-2 1.179a8.083 8.083 0 0 1-2.404.545c-.057.004-.116-.003-.172.018" id="Fill-1"/></g></g></g></symbol></svg>