<svg xmlns="http://www.w3.org/2000/svg" viewBox="0 0 88 46" width="88" height="46"><path fill="#fff" class="cls-1" d="M2.5 31.23c.32-.2.68-.43 1.1-.7 1.69-1.1 1.68-1.26 1.62-2.13a10.184 10.184 0 0 1 .69-4.74 4.386 4.386 0 0 1 .73-1.28c-2.06-1.31-5.19-4.58-4.37-12.17a1.111 1.111 0 0 1 2.21.23c-.83 7.63 2.82 9.92 4.05 10.48 3.6-1.86 9.87-1.73 14.79-1.63 1.9.04 3.54.07 4.52-.03 5.02-.51 23.91-2.84 27.58-4.48a5.731 5.731 0 0 0 3.48-4.32 8.91 8.91 0 0 1-.2-.55c-.17-.44-.31-.82-.41-1.07a4.121 4.121 0 0 1 1.13-4.59 6.925 6.925 0 0 1 7.21-1.31c3.17-1.96 10.78-.33 12.23.21a20.347 20.347 0 0 0 5.9.5 1.1 1.1 0 0 1 1.09.72c.13.33.45 1.62-.66 4.18-1.05 2.41-8.92 3.48-14.18 3.94.01 2.94.08 8.39.3 9.85a7.353 7.353 0 0 0 .5 1.71 5.86 5.86 0 0 1 .54 2.96c-.18 2.84-7.31 9.54-12.67 10.36-.11.75-.19 1.42-.24 1.91 2.34 1.01 3.49 3.87 3.55 4.01a1.106 1.106 0 0 1-.09.97 1.08 1.08 0 0 1-.84.52c-.06.01-.96.09-2.5.09-.78 0-1.72-.02-2.8-.09-2.18-.13-3.37-3.47-4.02-7.04-6.12-2.56-27.19-5.49-31.38-5.26a11.364 11.364 0 0 0-5.57 1.75 15.9 15.9 0 0 1-2.65 1.24 10.412 10.412 0 0 1-3.68.43c-1.08-.02-1.66-.02-2.08.36a3.611 3.611 0 0 0-.62 2.67 2.6 2.6 0 0 0 .73 1.87 3.441 3.441 0 0 1 1.61 3.93 2.185 2.185 0 0 1-2.17 1.26 4.742 4.742 0 0 1-1.21-.16c-3.17-.8-4.05-4.59-4.76-7.64-.13-.55-.26-1.08-.39-1.58-.11-.41-.21-.75-.3-1.04-.72-2.35-.18-2.81 2.23-4.34z"/><path d="M4.5 29.23c.32-.2.68-.43 1.1-.7 1.69-1.1 1.68-1.26 1.62-2.13a10.184 10.184 0 0 1 .69-4.74 4.386 4.386 0 0 1 .73-1.28C6.58 19.07 3.45 15.8 4.27 8.21a1.111 1.111 0 0 1 2.21.23c-.83 7.63 2.82 9.93 4.06 10.48 3.59-1.86 9.86-1.73 14.78-1.63 1.9.04 3.54.07 4.52-.03 5.02-.51 23.91-2.84 27.58-4.48a5.731 5.731 0 0 0 3.48-4.32c-.07-.18-.14-.36-.21-.55-.16-.45-.3-.82-.4-1.07a4.121 4.121 0 0 1 1.13-4.59A6.925 6.925 0 0 1 68.63.94c3.17-1.96 10.78-.33 12.23.21a20.347 20.347 0 0 0 5.9.5 1.107 1.107 0 0 1 1.09.71c.13.34.45 1.63-.66 4.19-1.05 2.41-8.92 3.48-14.18 3.93.01 2.95.08 8.4.3 9.86a7.353 7.353 0 0 0 .5 1.71 5.86 5.86 0 0 1 .54 2.96c-.18 2.84-7.31 9.54-12.67 10.36-.11.75-.19 1.42-.24 1.91 2.34 1.01 3.49 3.87 3.55 4.01a1.1 1.1 0 0 1-.93 1.49c-.06.01-.96.09-2.5.09-.78 0-1.72-.02-2.8-.09-2.18-.13-3.37-3.47-4.02-7.04-6.12-2.56-27.19-5.49-31.38-5.26a11.364 11.364 0 0 0-5.57 1.75 15.9 15.9 0 0 1-2.65 1.24 10.412 10.412 0 0 1-3.68.43c-1.08-.02-1.66-.02-2.08.36a3.611 3.611 0 0 0-.62 2.67 2.6 2.6 0 0 0 .73 1.87 3.441 3.441 0 0 1 1.61 3.93 2.185 2.185 0 0 1-2.17 1.26 4.742 4.742 0 0 1-1.21-.16c-3.17-.8-4.05-4.59-4.76-7.64-.13-.55-.26-1.08-.39-1.58-.11-.41-.21-.75-.3-1.04-.72-2.35-.18-2.81 2.23-4.34zM62.97 3.82a2.026 2.026 0 0 0-.62 2.2c.11.27.25.66.43 1.14 2.02 5.45 3.12 7.09 3.71 7.43.39-.8.35-3.65.33-5.41a23.147 23.147 0 0 1 .42-6.37 4.568 4.568 0 0 0-4.27 1.01zM4.39 32.93c.1.31.21.68.33 1.12.13.52.27 1.07.4 1.65.6 2.59 1.29 5.53 3.15 6a2.028 2.028 0 0 0 .8.08 1.721 1.721 0 0 0-.77-1.13 4.523 4.523 0 0 1-1.75-3.53c-.12-1.48.16-3.43 1.34-4.49a4.75 4.75 0 0 1 3.61-.93 8.7 8.7 0 0 0 2.93-.31 14.416 14.416 0 0 0 2.28-1.08 13.605 13.605 0 0 1 6.53-2.02c4.42-.26 23.46 2.35 31.13 4.97-.2-1.68-.31-3.25-.36-4.4a1.1 1.1 0 0 1 1.06-1.14 1.086 1.086 0 0 1 1.16 1.04c.29 6.48 1.7 11.77 2.67 11.83 1.29.08 2.38.09 3.21.08a3.46 3.46 0 0 0-2.04-1.51 1.1 1.1 0 0 1-.93-1.18c.02-.25.53-6.18 1.88-9.17a1.12 1.12 0 0 1 1.46-.56 1.1 1.1 0 0 1 .56 1.46 16.969 16.969 0 0 0-.96 3.34c4.57-1.16 9.93-6.82 10.05-8.17a3.774 3.774 0 0 0-.37-2.01 8.307 8.307 0 0 1-.64-2.2c-.33-2.15-.34-10.83-.34-11.2a1.1 1.1 0 0 1 1.03-1.09c6.58-.51 12.7-1.76 13.34-2.7a7.5 7.5 0 0 0 .57-1.81 18.122 18.122 0 0 1-5.64-.66c-2.18-.81-9.07-1.64-10.47-.25-.65.63-.6 4.11-.57 6.2.05 3.83.09 6.86-1.74 7.55a2.011 2.011 0 0 1-1.61-.07c-1.34-.6-2.51-2.64-3.59-5.14a8.116 8.116 0 0 1-3.77 3.29c-4.25 1.9-24.46 4.27-28.26 4.65a45 45 0 0 1-4.79.04c-4.34-.08-11.06-.22-13.97 1.5a1.054 1.054 0 0 0-.11.07 2.745 2.745 0 0 0-1.2 1.34 8.14 8.14 0 0 0-.57 3.84c.13 1.74-.23 2.59-2.62 4.14-.42.27-.79.51-1.11.71a12.853 12.853 0 0 0-1.53 1.05c.03.16.13.5.22.8zM72.43 4.75a1.115 1.115 0 0 0 1 .62 1.023 1.023 0 0 0 .48-.11l1.73-.82a1.1 1.1 0 0 0 .52-1.47 1.123 1.123 0 0 0-1.48-.51l-1.73.82a1.106 1.106 0 0 0-.52 1.47z"/></svg>