<svg width="525" height="71" viewBox="0 0 525 71" xmlns="http://www.w3.org/2000/svg" xmlns:xlink="http://www.w3.org/1999/xlink"><title>Group 28</title><defs><path id="a" d="M0 .143h99.878V42H0z"/></defs><g fill="none" fill-rule="evenodd"><path d="M42.615 41.56C32.573 44.444 18.022 29.7 18.022 29.7s8.088-9.473 23.083-20.733C54.845-1.357 58.63-4.522 79.94 9.503c10.615 6.987 37.963 26.373 37.963 26.373s-1.25 2.025-2.886 3.582c-1.915 1.831-4.19 1.785-6.776.034-3.784-2.57-23.205-21.55-35.52-19.345C60.402 22.362 56.39 37.62 42.615 41.56" fill="#E5B522"/><g transform="translate(0 28.16)" fill="#fff"><mask id="b"><use xlink:href="#a"/></mask><path d="M75.289.516C85.33-2.364 99.878 12.38 99.878 12.38s-8.08 9.468-23.083 20.732c-13.741 10.324-17.526 13.485-38.832-.535C27.343 25.581 0 6.191 0 6.191s1.24-2.02 2.877-3.578C4.802.786 7.076.833 9.657 2.588c3.785 2.57 23.205 21.551 35.525 19.336C57.502 19.714 61.518 4.456 75.289.516" mask="url(#b)"/></g><path d="M477.106 42.835c0 3.578 4.144 4.139 6.928 4.139 2.468 0 4.852-.241 7.249-.878 0 0 0-1.194.23-2.468l1.912-8.915c-3.822 2.949-16.32 2.072-16.32 8.122m27.543-15.041l-4.146 19.1c-.393 1.67-.47 5.569-.47 5.569-3.657 1.189-10.11 2.388-16.31 2.388-8.76 0-17.041-2.388-17.041-10.907 0-17.272 28.575-11.454 28.575-19.095 0-2.865-3.742-3.265-5.89-3.265-4.058 0-8.273 1.033-12.015 2.463l-2.63-7.4c4.938-1.831 10.663-3.265 15.92-3.265 6.995 0 14.403 2.708 14.403 10.902 0 1.198-.16 2.388-.396 3.51m6.419-13.574h-2.595v-.924h6.194v.924h-2.608v8.337h-.991zm5.276-.926h1.033l2.815 4.962 2.831-4.962h1.033v9.261h-.991v-7.46l-2.857 4.946h-.042l-2.856-4.946v7.46h-.966zM164.579 10.93c-1.466-1.102-3.74-1.908-6.674-1.908-11.223 0-15.771 15.917-15.771 24.867 0 7.773 3.52 11.736 8.875 11.736 2.936 0 5.797-1.027 7.555-2.276l1.616 8.658c-2.79 1.612-6.677 2.86-11.518 2.86-9.753 0-17.237-6.895-17.237-19.658 0-14.376 7.334-35.21 26.7-35.21 4.695 0 8.729 1.175 11.148 2.862l-4.694 8.069zm91.661 43.056h-9.168l1.834-24.792c.215-2.568.514-4.77.657-5.647h-.143c-.299.806-1.028 3.08-2.348 5.647l-12.62 24.792h-7.776l-3.297-24.792c-.293-2.126-.293-4.916-.293-5.647h-.149a86.356 86.356 0 0 1-1.392 5.647l-7.41 24.792H204.6l12.686-39.536h11.957l3.01 22.738c.221 1.834.221 4.623.221 5.208h.143c.222-.66 1.1-3.007 2.205-5.208l11.365-22.738h12.03l-1.978 39.536zm109.216-32.64c-1.762 0-3.738.44-4.694.878l-4.402 23.84c.806.367 2.79.734 4.551.734 8.726 0 12.25-10.34 12.25-16.872 0-5.205-2.718-8.58-7.705-8.58m-4.622 33.08c-2.419 0-4.767-.44-5.938-.879l-2.938 16.21h-10.046l9.902-53.327c3.89-1.758 8.798-2.86 14.377-2.86 10.852 0 16.795 6.235 16.795 16.137 0 12.836-7.406 24.718-22.152 24.718m91.297-22.224c3.446 1.541 5.716 4.62 6.893 8.583l3.96 13.202h-10.637l-3.375-12.103c-1.022-3.667-3.446-6.382-7.698-6.382l-3.447 18.485h-9.831l7.334-39.535h9.831l-3.153 17.383h.144l15.844-17.383h11.737l-17.602 17.75zM204.87 14.45h-9.975l-5.46 29.42.015-.002s-2.677 2.392-6.08 2.392c-3.762 0-5.789-1.295-5.789-4.523 0-.585 0-1.245.15-1.834l4.694-25.452h-9.974l-4.773 25.673c-.215 1.099-.292 2.273-.292 3.447 0 5.499 3.198 9.477 9.996 10.777a.067.067 0 0 0-.01.007c.03.006 2.165.229 3.213.142 3.85-.318 6.516-1.837 8.25-3.882.021 1.297.081 2.59.216 3.882 3.66-.462 6.993-1.161 9.252-1.895 0 0 .043-1.84.195-3.56l1.351-7.315-.016.005 5.037-27.281zm220.155 0h-9.974l-5.461 29.42.015-.002s-2.677 2.392-6.08 2.392c-3.762 0-5.79-1.295-5.79-4.523 0-.585 0-1.245.15-1.834l4.695-25.452h-9.974l-4.772 25.673c-.215 1.099-.293 2.273-.293 3.447 0 5.499 3.198 9.477 9.997 10.777a.075.075 0 0 0-.012.007c.03.006 2.166.229 3.215.142 3.849-.318 6.515-1.837 8.248-3.882.022 1.297.083 2.59.218 3.882 3.66-.462 6.992-1.161 9.252-1.895 0 0 .043-1.84.195-3.56l1.35-7.315-.015.005 5.036-27.281zM263.567 54.252h9.974l5.46-29.42c-.004.001-.01.001-.014.003 0 0 2.677-2.392 6.08-2.392 3.762 0 5.789 1.294 5.789 4.523 0 .585 0 1.245-.15 1.833l-4.694 25.453h9.974l4.772-25.673c.215-1.099.293-2.273.293-3.447 0-5.499-3.198-9.477-9.997-10.777l.012-.007c-.031-.006-2.166-.229-3.215-.142-3.85.318-6.515 1.837-8.25 3.881a44.14 44.14 0 0 0-.216-3.88c-3.66.461-6.992 1.16-9.252 1.894 0 0-.043 1.84-.195 3.56l-1.35 7.315.015-.005-5.036 27.281zm50.45-11.312c0 3.579 2.849 4.811 5.634 4.811 2.47 0 4.986-.034 7.384-.671 0 0-.06-2.072.17-3.347l1.914-8.917c-4.23 2.177-15.102 2.072-15.102 8.124m25.787-15.237L336.196 47c-.393 1.671-.468 5.571-.468 5.571-3.66 1.19-10.112 2.389-16.316 2.389-8.762 0-15.824-2.389-15.824-10.91 0-17.278 27.195-10.494 27.195-18.137 0-4.932-3.592-5.035-5.741-5.035-4.06 0-8.46.943-12.202 2.374l-1.326-6.906c4.939-1.832 9.56-2.868 14.819-2.868 6.997 0 13.868 2.517 13.868 10.713 0 1.199-.161 2.389-.397 3.512" fill="#fff"/></g></svg>