<svg width="27" height="26" viewBox="0 0 27 26" xmlns="http://www.w3.org/2000/svg"><title>74993027-3094-407B-AA2A-9F565F6E2317</title><g fill="none" fill-rule="evenodd"><path d="M0 0h26.765v26H0z"/><path d="M22.96 18.721c-.054-.161-.396-.4-1.026-.715a32.7 32.7 0 0 0-.728-.404 65.41 65.41 0 0 1-.857-.473 28.626 28.626 0 0 1-.722-.418 17.723 17.723 0 0 0-.338-.236 3.793 3.793 0 0 0-.479-.29.884.884 0 0 0-.385-.095c-.18 0-.404.128-.674.385a6.57 6.57 0 0 0-.742.837c-.225.301-.463.58-.715.836-.252.257-.46.385-.62.385a.918.918 0 0 1-.305-.068 3.147 3.147 0 0 1-.277-.114 5.043 5.043 0 0 1-.323-.19 8.333 8.333 0 0 0-.257-.155c-1.232-.683-2.29-1.466-3.17-2.347-.882-.882-1.665-1.94-2.349-3.172a7.816 7.816 0 0 0-.155-.256 4.866 4.866 0 0 1-.19-.324 2.924 2.924 0 0 1-.114-.277.913.913 0 0 1-.067-.303c0-.162.128-.37.384-.621.257-.252.536-.49.837-.715.302-.225.58-.472.837-.742.256-.27.384-.495.384-.675a.881.881 0 0 0-.094-.384c-.063-.13-.16-.29-.29-.48-.13-.188-.21-.3-.237-.337a29.64 29.64 0 0 1-.418-.722 68.125 68.125 0 0 1-.472-.856 32.457 32.457 0 0 0-.405-.729c-.315-.63-.553-.972-.715-1.025A.756.756 0 0 0 7.995 4c-.243 0-.56.045-.952.135-.391.09-.7.184-.924.283-.45.19-.927.738-1.43 1.646C4.228 6.91 4 7.747 4 8.574c0 .243.016.479.047.709.032.229.088.488.169.776.08.287.146.501.196.64.049.14.141.39.276.75.135.36.216.58.243.66.315.882.688 1.67 1.12 2.362.71 1.151 1.68 2.341 2.908 3.57 1.228 1.227 2.418 2.197 3.57 2.907.692.432 1.48.805 2.361 1.12.081.027.301.108.661.243.36.135.61.228.749.277.14.05.353.115.64.196.29.081.548.137.777.169.23.031.466.047.708.047.828 0 1.665-.23 2.51-.688.909-.504 1.458-.98 1.647-1.43.099-.226.193-.534.283-.925.09-.391.135-.708.135-.951a.752.752 0 0 0-.04-.285z" fill="#2D2D2D"/></g></svg>