<svg width="46" height="60" viewBox="0 0 46 60" xmlns="http://www.w3.org/2000/svg"><title>BA791D96-38D2-40A3-9736-F5D1E3D535A3</title><g fill="none" fill-rule="evenodd"><path d="M23 56.71C31.383 49 44 34.946 44 23.224 44 11.502 34.598 2 23 2S2 11.502 2 23.224 14 49 23 56.71z" fill="#FFF" stroke="#B13B5F" stroke-linecap="round" stroke-width="4"/><path d="M39 26.482c-.232.134-.438.202-.618.202h-.095c-.135 0-.23-.404-.286-1.211h-.05c-.295.503-.58.873-.854 1.11h-.144l-.428-.101c.222-1.206.332-1.962.332-2.27.19-.132.366-.199.526-.199h.046l.05.2h-.05l.05.1a.403.403 0 0 1-.05.202l.05.101c-.034.321-.065.507-.096.557h.095l.428-.658c.165-.436.355-.654.571-.654.205-.068.348-.101.428-.101l.095.153v.1c-.118.154-.213.59-.286 1.31.064.451.159.838.286 1.159zm-.186-2.469v-.1h-.1c.012.067.045.1.1.1zm-2.956 2.67c-.072-.009-.17-.166-.294-.47h.05c-.066-.142-.099-.246-.099-.314h.05c-.034-.052-.05-.156-.05-.314h-.052c-.217.629-.398.943-.541.943-.12 0-.285-.279-.493-.836h-.098c0 .41-.116.723-.346.94h-.15c-.35-.043-.543-.144-.583-.303-.235.236-.428.355-.58.355h-.048c-.066 0-.098-.087-.098-.26h-.05l-.389.208c-.488-.104-.732-.448-.732-1.033.142-.23.32-.402.536-.516h.245c.23.07.36.104.39.104v-.26c0-.034.016-.051.049-.051-.067-.206-.133-.309-.196-.309-.19.225-.353.345-.488.36v-.051l-.098.052c-.194 0-.291-.103-.291-.309.185-.517.428-.776.73-.776 0-.069.065-.103.196-.103.488 0 .732.31.732.928v.052a.425.425 0 0 1-.049.208c0 .034.016.051.05.051l-.05.36v.208c.08.34.128.576.142.706.272-.352.5-.923.683-1.712 0-.488.049-.732.147-.732h.346c.198.05.297.242.297.576 0 .093.065.389.196.889.065 0 .196-.506.394-1.517l.098-.052h.297l.297.21a.396.396 0 0 1-.05.156c0 .829.181 1.508.543 2.039v.052c0 .248-.197.422-.591.522h-.052zm-3.673-1.136c-.196.035-.294.087-.294.156 0 .206.098.309.294.309h.047c.047 0 .096-.052.147-.156 0-.171-.065-.274-.194-.309zm-.49-1.032v.052h.098l.05-.208c-.048 0-.097.052-.148.156zm1.222-.415l-.1-.052v.052l.1.052V24.1zm1.66-.029l-.1-.052a.39.39 0 0 1 .05.156h.05v-.104zm1.332-.052h-.1v.104h.1v-.104zm.344 2.298h.052l.049-.207h-.101v.207zm-5.949.367h-.289c-.337 0-.66-.205-.966-.615-.129-.328-.193-.601-.193-.818 0-.698.274-1.159.822-1.382l.386-.1c.525 0 .895.17 1.111.51l.05.357v.052c-.057.41-.138.614-.243.614h-.242c-.16-.09-.24-.158-.243-.204.033-.189.05-.325.05-.41 0-.17-.081-.256-.243-.256-.289 0-.466.29-.53.87.135.477.345.716.628.716h.193l.387-.306h.095c.16.088.24.157.243.205v.1c-.273.445-.611.667-1.016.667zm.485-2.509h.049v-.101h-.147c.01.067.043.101.098.101zm-1.258.614v.205h.049c0-.052.033-.12.098-.205h-.147zm1.402 1.18h.144l.05-.104h-.05a.33.33 0 0 1-.144.052v.052zm-3.409.715c-.154 0-.286-.209-.394-.626.384-.313.598-.47.64-.47v-.052c-.002-.035-.347-.278-1.035-.73-.164-.15-.245-.288-.245-.415.39-.417.62-.626.689-.626.127.364.422.728.884 1.093h.05c.145-.659.227-.989.247-.989.214 0 .378.07.49.208 0 .684-.262 1.397-.787 2.137-.174.21-.354.366-.539.47zm-.492-2.659l-.05.104h.148c0-.07-.033-.104-.098-.104zm1.622.21h.05c0-.07-.033-.106-.099-.106h-.049c.011.07.044.106.098.106zm-4.634 2.449h-.288c-.338 0-.66-.205-.967-.615-.129-.328-.193-.601-.193-.818 0-.698.274-1.159.822-1.382l.387-.1c.524 0 .895.17 1.11.51l.05.357v.052c-.057.41-.137.614-.243.614h-.242c-.16-.09-.24-.158-.242-.204.032-.189.049-.325.049-.41 0-.17-.081-.256-.243-.256-.288 0-.465.29-.53.87.136.477.345.716.628.716h.194l.386-.306h.096c.16.088.24.157.242.205v.1c-.272.445-.61.667-1.016.667zm.485-2.509h.049v-.101h-.147c.01.067.044.101.098.101zm-1.258.614v.205h.05c0-.052.032-.12.097-.205h-.147zm1.402 1.18h.145l.049-.104h-.05a.33.33 0 0 1-.144.052v.052zm-4.103.715h-.095c-.134 0-.23-.404-.286-1.211h-.049c-.296.503-.58.873-.855 1.11h-.144l-.427-.101c.221-1.206.332-1.962.332-2.27.19-.132.365-.199.525-.199h.047l.049.2h-.05l.05.1a.403.403 0 0 1-.05.202l.05.101c-.033.321-.065.507-.096.557h.096l.427-.658c.165-.436.356-.654.572-.654.205-.068.347-.101.427-.101l.095.153v.1c-.118.154-.213.59-.285 1.31.063.451.158.838.285 1.159-.232.134-.438.202-.618.202zm.433-2.67v-.101h-.1c.011.067.044.1.1.1zm-2.956 2.67c-.073-.01-.171-.167-.295-.47h.05c-.066-.143-.099-.247-.099-.315h.05c-.033-.052-.05-.156-.05-.314h-.051c-.218.629-.399.943-.542.943-.12 0-.284-.279-.493-.836h-.098c0 .41-.115.723-.346.94H16c-.393-.048-.59-.17-.59-.366.276-.352.506-.927.691-1.725 0-.488.05-.732.147-.732h.346c.198.05.297.242.297.576 0 .093.065.389.196.889.065 0 .197-.506.395-1.517l.098-.052h.297l.296.21a.396.396 0 0 1-.049.156c0 .829.18 1.508.542 2.039v.052c0 .248-.197.422-.59.522h-.052zm-1.28-2.613l-.1-.052a.39.39 0 0 1 .05.156h.05v-.104zm1.33-.052h-.1v.104h.1v-.104zm.344 2.298h.052l.05-.207h-.102v.207zm-3.106-1.323l-.05.36v.208c.099.413.148.672.148.776-.238.24-.433.36-.585.36h-.05c-.065 0-.098-.087-.098-.26h-.048l-.39.208c-.488-.104-.732-.448-.732-1.032.141-.23.32-.403.536-.516h.245c.23.069.36.103.39.103v-.26c0-.034.016-.05.048-.05-.067-.207-.132-.31-.196-.31-.19.225-.353.346-.487.36v-.05l-.098.05c-.194 0-.291-.102-.291-.308.185-.517.428-.775.73-.775 0-.07.065-.104.195-.104.489 0 .733.31.733.928v.052a.425.425 0 0 1-.05.208c0 .035.017.052.05.052zm-.975.568c-.196.035-.294.086-.294.156 0 .205.098.308.294.308h.046c.048 0 .097-.052.147-.156 0-.17-.064-.273-.193-.308zm-.49-1.032v.052h.098l.05-.208c-.048 0-.097.052-.148.156zm1.222-.416l-.1-.052v.052l.1.052v-.052zM10.983 27C8.717 27 7 25.268 7 23.018c0-2.098 1.522-3.837 3.528-4.017.093-.009.18.05.212.142l.127.356c.047.134-.037.28-.171.295a3 3 0 0 0-1.496.617c-2.06 1.556-.934 4.208-.549 4.63.36.395 1.742 1.993 4.24.57a.11.11 0 0 1 .162.062l.108.304a.388.388 0 0 1-.15.456c-.54.338-1.21.567-2.028.567zm-2.989-2.112s-.438-.498-.58-1.283c0 0 .024.944.58 1.283zm.946-4.587c-.042.025-1.517.885-1.207 2.742-.01-.122-.124-1.729 1.207-2.742z" fill="#C02355"/><path d="M13 25.257a3.131 3.131 0 0 1-2.043.743h-.01c-.036 0-.073 0-.11-.003a1.68 1.68 0 0 1-.156-.009 1.985 1.985 0 0 1-.184-.02l-.063-.01a3.234 3.234 0 0 1-.434-.1v-.002l.925-2.087c.145.137.426.353.795.415a1.872 1.872 0 0 0 .854-.071c.023.039.17.282.233.414.078.162.164.46.169.478l-.119-.046.143.298zm-.33-1.564c-.112.03-.157.079-.161.167 0 .018 0 .038.003.06-.04.015-.377.13-.754.067-.374-.063-.652-.326-.743-.422L11.707 22l.222.53c.045.006.342.053.49.119.162.07.135.28.216.334.08.055.152.071.192.092.04.02.095.2.085.321a.38.38 0 0 1-.241.297z" fill="#30559A"/><path d="M10.563 22.34a.844.844 0 0 1-.372.11c-.143.003-.296-.084-.388-.15a.59.59 0 0 0 .064-.076c.023-.036-.003-.082-.056-.132-.155-.15-.537-.337-.577-.432-.053-.127-.05-.641.054-.69a.4.4 0 0 1 .148-.02c.145 0 .337.03.405.04h.01c.08 0 .16-.128.27-.145.131-.02.208.004.242-.041.059-.076.028-.12.028-.268 0-.1.017-.186.042-.257A.618.618 0 0 1 10.62 20l.38 1.12-.437 1.22zm-1.302 1.09c.005-.014.084-.234.119-.306.036-.074.2-.324.2-.324l-.08-.003-.054-.002s.077-.153.188-.303l.03-.07.016.012c.101.077.299.204.5.204h.016a.917.917 0 0 0 .281-.057l-.037.105L9.612 25A2.3 2.3 0 0 1 9 24.537l.423-1.186-.162.078z" fill="#A3CD3A"/><path d="M9.473 23.151l-.193.31.142.004a.872.872 0 0 0-.042.062 4.883 4.883 0 0 0-.178.37l-.21.477.192-.075-.378.701A2.906 2.906 0 0 1 8 23.004c0-1.6 1.323-2.905 2.993-3.004l.007.065a.93.93 0 0 0-.248.637c0 .05.003.093.006.126-.048.001-.11.003-.184.012a.724.724 0 0 0-.303.127l-.055.034a5.3 5.3 0 0 0-.562-.042.839.839 0 0 0-.288.037.348.348 0 0 0-.197.206c-.092.223-.09.684.003.865.058.114.196.19.477.339.086.045.222.117.315.176a2.38 2.38 0 0 0-.197.185c-.17.186-.29.377-.294.384z" fill="#FECF0A"/></g></svg>