<svg width="46" height="60" viewBox="0 0 46 60" xmlns="http://www.w3.org/2000/svg"><title>5EEA58A3-9B1D-4FF5-AFBD-D95F4167C4E7</title><g fill="none" fill-rule="evenodd"><path d="M23 56.71C31.383 49 44 34.946 44 23.224 44 11.502 34.598 2 23 2S2 11.502 2 23.224 14 49 23 56.71z" stroke="#F95E1A" stroke-width="4" fill="#FFF" stroke-linecap="round"/><path d="M33.57 19.982a.557.557 0 0 0 .423-.62c-.047-.276-.282-.413-.563-.344a.557.557 0 0 0-.423.62c.047.276.282.413.563.344zm-15.74 8.636c-.043.485-.128.97-.596.926 0 0-.298-.088-.553-.088-.553 0-.681.309-.681.573 0 .75.766.971 1.234.971a2.24 2.24 0 0 0 1.362-.485c.723-.53 1.191-1.72 1.404-2.25-.213-.089-.468-.177-.68-.265a2.087 2.087 0 0 1-1.49.618z" fill="#FFF"/><path d="M25.342 25.397c.087.306.217.918.305 1.18 0 0-.436.176-.48.22-.13.043-.13.174-.087.305.044.132.175.132.305.088.566-.306 2.178-1.006 2.875-.306.392.35.74 1.53.479 2.318-.131.48-.48.743-1.046.787-.304.044-.566-.044-.74-.219-.479-.437-.479-1.312-.479-1.312 0-.087-.043-.131-.13-.175-.044-.043-.131-.043-.218 0 0 0-1.22.875-2.221.394-1.438-.7-1.09-2.58-1.09-2.624 0-.131-.043-.219-.173-.219-.131 0-.218.044-.218.175 0 0-.087.525 0 1.093-1.045-.13-1.96-.306-2.744-.612.436-.48.653-1.093.653-1.793 0-.131-.087-.219-.217-.219-.131 0-.218.088-.218.22a2.282 2.282 0 0 1-2.265 2.273c-.914 0-1.742-.568-2.134-1.443.044-.131-.043-.131-.174-.131-.13.044-.13.175-.13.262.13.306.304.569.522.831-.48 1.05-1.35 2.23-2.83 1.793-.48-.131-.785-.437-.872-.83-.043-.307 0-.613.218-.744a.655.655 0 0 1 .697-.044c.74.263 1.176-.962 1.611-2.143.218-.656.523-1.4.74-1.53.262-.175.915-.175 1.263.306.044.13.088.437.088.437 0 .087.13.175.217.131.131 0 .175-.131.175-.219-.218-1.268.13-2.055.435-2.449 0 0-2.265-1.705-1.916-3.98 0-.13.087-.218.13-.218.044 0 .131.131.131.306.13.437.349 1.093.958 1.793.566.7 1.045 1.094 1.524 1.268.044 0 1.133.22 3.18.22 1.176 0 2.7-.132 2.787-.176a4.46 4.46 0 0 0 1.045 2.187c.653.743 1.35 1.05 1.873 1.268.74.306 1.393.437 1.829.525 0 .044-.044.044-.044.087-.26.656-.696 1.225-1.306 1.706-.523-.044-1.132.088-1.611.262-.044-.13-.131-.48-.305-1.093-.044-.131-.131-.175-.262-.131-.087-.044-.13.087-.13.175zm3.524-9.396c-.339-.05-.715 1.2-.866 1.65.301.05.603.15.904.349.075-.15.188-1.999-.038-1.999z" fill="#FFF"/><path d="M29.153 22.995s-.131-.04-.306 0c.175.41.568.696 1.092.819.873.204 1.878.163 2.926-.737.524-.45 1.048-1.268 1.135-2.004-.087.122-.218.163-.35.245-.567.164-1.266-.082-1.44-.573-.131-.286 0-.531.218-.736-.175.041-.35.082-.568.123-.567.123-1.004.204-1.222.04-.175-.163-.219-.408-.35-.695-.13-.409-.262-.859-.698-1.104-.918-.532-1.966-.368-2.01-.368-.087 0-.13 0-.174-.082-.044-.041-.175-1.146-.393-1.473-.218-.41-.393-.45-.437-.45-.436 0-1.135 1.023-1.397 2.495 0 .041-.044.041-.044.082C24.611 19.11 24 20.95 24 21.564v.081c.044.614 1.135 3.273 4.41 3.355h.088c1.179-.082 2.445-.573 3.013-.86-.393.124-1.092.165-1.703.042-.655-.164-1.092-.532-1.354-1.023-.087.041-.13.123-.175.246-.043.081-.174.122-.262.081-.13-.04-.13-.163-.087-.245.35-.614 1.004-.696 1.31-.655.131 0 .175.123.175.205-.044.164-.131.204-.262.204zm.917-3.109c.13 0 .218.123.218.328 0 .163-.13.327-.218.327-.131 0-.218-.123-.218-.327-.044-.164.087-.328.218-.328zm-3.1-1.8c-.088.041-.263.123-.525.123-.218.041-.218-.123-.043-.573.174-.409.305-.613.305-.613.175-.164.306 1.063.262 1.063zm2.052 3.11c-.219 0-.393-.246-.393-.532 0-.287.174-.573.393-.573.218 0 .393.245.393.532 0 .286-.175.572-.393.572z" fill="#FFF" fill-rule="nonzero"/><path d="M28.552 26.204c-.138.243-.31.446-.552.689.104.04.207.122.31.203.139.162.277.405.38.689.311-.122.553-.284.553-.284a.094.094 0 0 1 .138 0c.034.04.069.081.103.162.138 1.136.553 1.46.932 1.298.311-.122.484-.365.553-.69.138-.73-.207-1.662-.518-1.986-.38-.446-1.243-.284-1.899-.081z" fill="#FFF"/><path d="M27.983 24.458l-.254.5-.042.042c-.887-.083-3.97-.75-4.687-3.792 0 0 0-.041.042-.041l.465-.167c.042 0 .042 0 .042.042.127.708 1.393 3.25 4.391 3.375.043 0 .085 0 .043.041z" fill="#1F9E38"/><g transform="translate(9 9)"><circle fill="#16932B" cx="14.125" cy="13.916" r="13.791"/><circle fill="#FF6927" cx="14.125" cy="13.916" r="12.287"/><path d="M24.197 10.113c.25-.041.418-.209.376-.376-.042-.167-.25-.25-.501-.209-.251.042-.418.21-.376.376.041.168.25.251.501.21zM8.65 18.137c-.041.46-.125.92-.584.878 0 0-.293-.084-.544-.084-.543 0-.668.293-.668.544 0 .71.752.919 1.212.919.46 0 .96-.167 1.337-.46.71-.501 1.17-1.63 1.38-2.131-.21-.084-.46-.167-.67-.25a2.09 2.09 0 0 1-1.462.584z" fill="#FFF"/><path d="M15.88 16.299c.084.292.21.877.293 1.128 0 0-.418.167-.46.209-.125.042-.125.167-.083.292.042.126.167.126.292.084.544-.293 2.09-.961 2.759-.293.376.335.71 1.463.46 2.215-.126.46-.46.71-1.004.753-.292.041-.543-.042-.71-.21-.46-.417-.46-1.253-.46-1.253 0-.084-.042-.125-.125-.167-.042-.042-.126-.042-.21 0 0 0-1.17.836-2.13.376-1.38-.669-1.045-2.466-1.045-2.508 0-.125-.042-.209-.167-.209-.126 0-.21.042-.21.168 0 0-.083.501 0 1.044-1.002-.125-1.88-.292-2.632-.585.418-.46.627-1.044.627-1.713 0-.126-.084-.21-.21-.21-.125 0-.208.084-.208.21a2.185 2.185 0 0 1-2.173 2.173c-.878 0-1.672-.543-2.048-1.38.042-.124-.042-.124-.167-.124-.126.041-.126.167-.126.25.126.293.293.544.502.794-.46 1.003-1.296 2.132-2.717 1.714-.46-.126-.752-.418-.835-.794-.042-.293 0-.585.208-.71a.63.63 0 0 1 .67-.043c.71.251 1.128-.919 1.545-2.047.21-.627.502-1.338.71-1.463.252-.167.878-.167 1.213.293.042.125.083.417.083.417 0 .084.126.168.21.126.125 0 .167-.126.167-.21-.21-1.211.125-1.963.417-2.34 0 0-2.173-1.63-1.838-3.802 0-.126.083-.21.125-.21.042 0 .125.126.125.293.126.418.335 1.045.92 1.714.543.668 1.003 1.044 1.462 1.212.042 0 1.087.208 3.051.208 1.129 0 2.591-.125 2.675-.167a4.254 4.254 0 0 0 1.003 2.09c.627.71 1.295 1.003 1.797 1.212.71.292 1.337.418 1.755.501 0 .042-.042.042-.042.084-.25.627-.668 1.17-1.253 1.63-.502-.042-1.087.083-1.547.25-.042-.125-.125-.46-.292-1.044-.042-.126-.126-.167-.251-.126-.084-.041-.125.084-.125.168zm4.598-10.532c-.377-.042-.794 1.003-.962 1.38.335.041.67.125 1.003.292.084-.126.21-1.672-.041-1.672z" fill="#FFF"/><path d="M20.269 12.62s-.126-.04-.293 0c.167.419.543.711 1.045.837.836.209 1.797.167 2.8-.753.501-.46 1.003-1.295 1.086-2.047-.083.125-.208.167-.334.25-.543.168-1.212-.083-1.379-.585-.125-.292 0-.543.209-.752-.167.042-.334.084-.543.126-.544.125-.961.208-1.17.041-.168-.167-.21-.418-.335-.71-.125-.418-.25-.878-.668-1.128-.878-.544-1.881-.377-1.923-.377-.083 0-.125 0-.167-.083-.042-.042-.167-1.17-.376-1.505-.21-.418-.376-.46-.418-.46-.418 0-1.087 1.045-1.337 2.55 0 .042-.042.042-.042.083-.502.544-1.087 2.424-1.087 3.051v.084c.042.627 1.087 3.343 4.221 3.427h.084c1.128-.084 2.34-.585 2.883-.878-.376.125-1.044.167-1.63.042a1.95 1.95 0 0 1-1.295-1.045c-.084.042-.125.125-.167.25-.042.084-.167.126-.25.084-.126-.041-.126-.167-.084-.25.334-.627.96-.71 1.253-.669.126 0 .167.125.167.209-.041.167-.125.209-.25.209zm.877-3.175c.126 0 .21.125.21.334 0 .167-.126.334-.21.334-.125 0-.209-.125-.209-.334-.041-.167.084-.334.21-.334zM18.18 7.606c-.083.042-.25.125-.501.125-.21.042-.21-.125-.042-.585.167-.418.292-.627.292-.627.168-.167.293 1.087.251 1.087zm1.964 3.176c-.209 0-.376-.25-.376-.543 0-.293.167-.585.376-.585.21 0 .376.25.376.543 0 .293-.167.585-.376.585z" fill="#FFF" fill-rule="nonzero"/><path d="M19.224 16.466c-.167.25-.376.46-.669.71.126.042.251.125.376.21.168.166.335.417.46.71.376-.126.669-.293.669-.293a.127.127 0 0 1 .167 0 .577.577 0 0 1 .125.167c.167 1.17.669 1.505 1.129 1.337.376-.125.585-.376.668-.71.167-.752-.25-1.713-.627-2.048-.46-.46-1.504-.292-2.298-.083z" fill="#FFF"/><path d="M19.684 14.752l-.251.502-.042.042c-.878-.084-3.928-.753-4.639-3.803 0 0 0-.042.042-.042l.46-.167c.042 0 .042 0 .042.041.125.71 1.379 3.26 4.346 3.385.042 0 .083 0 .042.042z" fill="#1F9E38"/></g></g></svg>