<svg width="56" height="56" viewBox="0 0 56 56" xmlns="http://www.w3.org/2000/svg"><title>61309CFA-4565-4740-A5B9-75C45BB96120</title><g fill="none" fill-rule="evenodd"><circle fill="#16932B" cx="28.251" cy="27.833" r="27.582"/><circle fill="#FF6927" cx="28.251" cy="27.833" r="24.573"/><path d="M48.394 20.227c.502-.084.836-.418.752-.752-.083-.335-.501-.502-1.003-.418-.501.083-.836.418-.752.752.084.334.502.501 1.003.418zM17.301 36.275c-.083.919-.25 1.838-1.17 1.755 0 0-.585-.167-1.086-.167-1.087 0-1.338.585-1.338 1.086 0 1.421 1.505 1.84 2.424 1.84.92 0 1.923-.335 2.675-.92 1.42-1.003 2.34-3.26 2.758-4.263-.418-.167-.92-.334-1.337-.502-.752.753-1.839 1.17-2.926 1.17z" fill="#FFF"/><path d="M31.761 32.597c.167.585.418 1.755.585 2.257 0 0-.836.334-.92.418-.25.083-.25.334-.166.585.083.25.334.25.585.167 1.086-.585 4.179-1.923 5.516-.585.752.668 1.421 2.925.92 4.43-.251.92-.92 1.42-2.006 1.504-.585.084-1.087-.083-1.421-.418-.92-.836-.92-2.507-.92-2.507 0-.167-.083-.251-.25-.335-.084-.083-.251-.083-.418 0 0 0-2.34 1.672-4.263.753-2.758-1.338-2.09-4.932-2.09-5.015 0-.251-.083-.418-.334-.418-.25 0-.418.083-.418.334 0 0-.167 1.003 0 2.09-2.006-.251-3.761-.585-5.265-1.17.835-.92 1.253-2.09 1.253-3.427 0-.251-.167-.418-.418-.418-.25 0-.418.167-.418.418 0 2.424-2.006 4.346-4.346 4.346-1.755 0-3.343-1.087-4.095-2.758.083-.251-.084-.251-.335-.251-.25.084-.25.334-.25.502.25.585.585 1.086 1.003 1.588-.92 2.006-2.591 4.262-5.433 3.426-.92-.25-1.505-.835-1.672-1.588-.084-.585 0-1.17.418-1.42.334-.251.836-.335 1.337-.084 1.421.501 2.257-1.839 3.093-4.096.418-1.253 1.003-2.674 1.42-2.925.502-.334 1.756-.334 2.425.585.083.25.167.836.167.836 0 .167.25.334.418.25.25 0 .334-.25.334-.417-.418-2.424.25-3.929.836-4.68 0 0-4.346-3.26-3.678-7.607 0-.25.167-.418.251-.418.084 0 .25.251.25.585.251.836.67 2.09 1.84 3.427 1.086 1.338 2.005 2.09 2.925 2.424.083 0 2.173.418 6.101.418 2.257 0 5.182-.25 5.35-.334a8.508 8.508 0 0 0 2.006 4.179c1.253 1.42 2.59 2.006 3.594 2.424 1.42.585 2.674.835 3.51 1.003 0 .083-.083.083-.083.167-.502 1.254-1.338 2.34-2.508 3.26-1.003-.084-2.173.167-3.092.501-.084-.25-.251-.92-.586-2.09-.083-.25-.25-.334-.501-.25-.167-.084-.25.167-.25.334zm9.194-21.063c-.752-.083-1.588 2.006-1.922 2.759.668.083 1.337.25 2.006.585.167-.251.418-3.344-.084-3.344z" fill="#FFF"/><path d="M40.537 25.242s-.25-.084-.585 0c.335.836 1.087 1.42 2.09 1.671 1.671.418 3.594.335 5.6-1.504 1.003-.92 2.006-2.591 2.173-4.096-.167.251-.418.335-.669.502-1.086.334-2.424-.167-2.758-1.17-.25-.585 0-1.087.418-1.505-.334.084-.669.167-1.087.251-1.086.25-1.922.418-2.34.084-.334-.335-.418-.836-.669-1.421-.25-.836-.501-1.755-1.337-2.257-1.755-1.087-3.761-.752-3.845-.752-.167 0-.25 0-.334-.167-.084-.084-.334-2.34-.752-3.01-.418-.835-.752-.919-.836-.919-.836 0-2.173 2.09-2.675 5.099 0 .083-.083.083-.083.167-1.003 1.086-2.173 4.848-2.173 6.101v.168c.083 1.253 2.173 6.686 8.441 6.853h.168c2.256-.167 4.68-1.17 5.767-1.755-.752.25-2.09.334-3.26.084-1.254-.335-2.09-1.087-2.591-2.09-.167.084-.25.25-.334.502-.084.167-.335.25-.502.167-.25-.084-.25-.335-.167-.502a2.507 2.507 0 0 1 2.507-1.337c.251 0 .335.25.335.418-.084.334-.25.418-.502.418zm1.756-6.352c.25 0 .417.25.417.668 0 .335-.25.669-.417.669-.251 0-.418-.25-.418-.669-.084-.334.167-.668.418-.668zm-5.935-3.678c-.167.084-.501.25-1.003.25-.418.084-.418-.25-.083-1.17.334-.835.585-1.253.585-1.253.334-.335.585 2.173.501 2.173zm3.929 6.352c-.418 0-.753-.501-.753-1.086 0-.585.335-1.17.753-1.17.417 0 .752.501.752 1.086 0 .585-.335 1.17-.752 1.17z" fill="#FFF" fill-rule="nonzero"/><path d="M38.448 32.931c-.335.502-.752.92-1.338 1.421.251.084.502.251.753.418.334.334.668.836.92 1.421.751-.25 1.336-.585 1.336-.585a.254.254 0 0 1 .335 0c.083.084.167.167.25.334.335 2.34 1.338 3.01 2.257 2.675.752-.25 1.17-.752 1.338-1.421.334-1.504-.502-3.427-1.254-4.095-.92-.92-3.01-.586-4.597-.168z" fill="#FFF"/><path d="M39.367 29.504l-.501 1.003-.084.084c-1.755-.167-7.857-1.504-9.278-7.606 0 0 0-.084.084-.084l.92-.334c.083 0 .083 0 .083.084.25 1.42 2.758 6.52 8.693 6.77.083 0 .167 0 .083.083z" fill="#1F9E38"/></g></svg>