<svg width="84" height="58" viewBox="0 0 84 58" xmlns="http://www.w3.org/2000/svg"><title>240726D8-3D93-4894-9EB5-9DCABEE44630</title><path d="M63.909 23.566v-.733c2.652-.195 11.453 3.126 16.42 7.59a38.091 38.091 0 0 0-2.116-4.61c-4.652-2.182-10.274-3.696-14.304-3.045v-.798c2.49-.178 8.668.847 14.077 3.436a35.54 35.54 0 0 0-2.182-3.436c-3.848-.977-8.126-1.416-11.894-.505v-.863c2.586-.391 7.21-.05 11.667 1.042-3.163-4.349-7.161-7.865-11.667-10.552v-7.23c1.867.438 3.292.863 3.753.977 1.556-.83 5.847-2.558 7.423-3.388.67-.359 1.083-.244.934.292L72.873 8.73c-.377.977.818 3.73 1.08 5.943a39.202 39.202 0 0 1 4.885 7.931c1.934.669 3.72 1.483 5.162 2.476-1.36-.733-3.083-1.498-5.032-2.166a37.25 37.25 0 0 1 1.506 3.827c.868.538 1.706 1.108 2.459 1.743a25.914 25.914 0 0 0-2.36-1.465 43.27 43.27 0 0 1 1.28 4.95c.787.927 1.358 1.874 1.686 2.85-.277-.83-.852-1.71-1.639-2.59.411 2.248.607 4.396.591 6.32a41.588 41.588 0 0 0-2.017-7.754c-4.539-4.085-12.65-7.88-16.565-7.229zm0-7.05a5.58 5.58 0 0 0 .458-.18c1.54-.7 2.459-2.345 2.358-2.67-.097-.293-1.422-.733-2.815-.31v.31c.243.163.489.52.654.976.23.733.13 1.465-.212 1.629-.15.065-.295.033-.442-.065v.31h-.001zm0-.815c.165.374.343.603.425.57.148-.065.064-.717-.182-1.449a4.334 4.334 0 0 0-.243-.65V15.7zm0-11.84v7.232a44.42 44.42 0 0 0-5.703-2.868v-5.39c2.013.211 4.049.62 5.703 1.027zm0 9.494v.31c-.148-.098-.296-.13-.441-.065-.348.163-.446.894-.216 1.628.165.456.412.814.657.977v.31c-1.394.422-2.722-.017-2.822-.31-.097-.326.821-1.97 2.362-2.67.149-.066.31-.13.46-.18zm0 .815c-.164-.374-.345-.603-.426-.57-.148.065-.066.717.181 1.45.065.243.163.472.246.65v-1.53h-.001zm0 6.433v.863c-.523.114-1.017.276-1.524.439-.214-.146-.525-.066-.31-.668.325-.292.966-.504 1.834-.634zm0 1.367v.799a7.671 7.671 0 0 0-.868.194c-.183-.21-.508-.21-.165-.747.181-.132.523-.213 1.033-.246zm0 .864a2.495 2.495 0 0 0-.41.066c-.458.455-.147.52-.016.749.13-.033.277-.066.425-.082v-.733zm-5.703.814v-3.68c.063.05.13.114.212.196.557.618 1.574.227 2.474.227.18.423.216.407.018.88-2.589-.05-1.673 1.774-2.131 1.807-.181.325-.38.505-.573.57zm0-20.813v5.39a52.964 52.964 0 0 0-3.145-1.171V2.087c.653.211 1.292.406 1.914.634.395.033.82.065 1.231.114zm0 17.132v3.681c-.295.082-.573-.115-.853-.57-.74-.033.623-1.824-1.835-1.808-.164-.472-.263-.293 0-.88.688 0 1.425.261 1.852-.226.277-.31.556-.375.836-.197zm-3.145-3.403v-1.628c.439.57.668 1.107.604 1.27-.033.114-.262.244-.604.358zm-2.199 4.869c.279.082.556.18.836.276.23-.162.541-.08.33-.683-.246-.211-.64-.375-1.166-.505v.912zm2.2-19.346v4.967a82.06 82.06 0 0 0-2.2-.669V1.483c.753.196 1.477.391 2.2.604zm0 12.849v1.628a4.058 4.058 0 0 1-2.2-.049v-.309c.248-.163.493-.52.64-.977.246-.733.146-1.465-.211-1.629-.133-.065-.28-.032-.429.066v-.31c.148.05.296.114.46.179.738.325 1.327.88 1.74 1.401zm-2.2 8.746v-.75c.052.017.1.017.148.05.426.471.1.52-.032.749-.052-.017-.081-.034-.116-.05zm0-.978v-.847c.148.049.279.098.345.162.363.538.016.521-.147.733l-.198-.048zm0-7.003c.082-.18.166-.408.248-.651.245-.733.327-1.385.18-1.45-.098-.033-.262.195-.429.57v1.53h.001zm-9.584 5.44c3.244-.538 6.619-.57 9.584.292v-.912c-1.934-.455-5.653-.357-9.584.342v.277zm9.584-19.658v4.902a49.986 49.986 0 0 0-9.584-1.66V.084c3.472.194 6.667.684 9.584 1.4zm0 11.872v.31c-.26.164-.506.52-.654.977-.23.732-.132 1.465.214 1.628.13.066.294.033.44-.065v.31a5.788 5.788 0 0 1-.457-.18c-1.522-.7-2.443-2.344-2.345-2.67.098-.293 1.41-.733 2.802-.31zm0 .815c-.098.213-.185.43-.26.652-.23.732-.312 1.384-.164 1.448.08.033.244-.195.423-.57v-1.53h.001zm0 7.687v.847c-2.64-.636-6.112-.18-9.584.847v-.342c4.342-1.303 8.258-1.694 9.584-1.352zm0 1.074c-1.375-.39-5.39.472-9.584 2.134v.211c3.752-1.497 7.489-2.28 9.584-1.594v-.75zM32.117 24.87c2.671-1.45 6.801-3.03 11.16-3.729v-.277c-4.015.718-8.291 2.037-11.16 4.006zM43.277.084v4.642a53.123 53.123 0 0 0-3.605-.131 47.388 47.388 0 0 0-8.472.749V.654A53.796 53.796 0 0 1 39.918 0c1.146 0 2.261.033 3.36.083zm0 23.125v.34c-3.736 1.108-7.455 2.9-10.095 4.724 2.836-2.345 6.588-4.005 10.096-5.064zm0 1.856c-4.752 1.905-9.686 4.869-11.127 8.322 1.246-2.867 6.194-6.123 11.128-8.11v-.212zM31.2.653v4.69c-4.26.749-8.373 2.084-12.126 4.006V4.513c3.441-1.775 7.44-3.127 12.126-3.86zm-12.126 3.86V9.35C8.7 14.66.983 24.38 0 38.55c0-9.87 3.898-26.17 19.074-34.037zM4.448 47.14l1.928 6.772 1.928-6.772h4.324V58H9.41v-3.318c0-1.222.092-2.398.228-3.65h-.03L7.62 58H5.13l-1.988-6.969h-.031c.107.95.228 2.414.228 3.288V58H.123V47.14h4.325zm16.966 0L25.328 58h-3.566l-.426-1.435H17.77L17.361 58h-3.505l3.914-10.86h3.644zm-.698 7.164l-1.153-3.89-1.108 3.89h2.26zm9.424 3.695h-3.581V47.14h5.265c3.141 0 4.66 1.432 4.66 3.665 0 2.337-1.397 3.816-4.539 3.816H30.14V58zm0-5.912h1.486c.835 0 1.442-.333 1.442-1.267 0-1.01-1.152-1.147-1.912-1.147H30.14v2.414zm11.578-1.435l3.14-3.512h4.206l-3.992 4.087 4.416 6.772h-4.294l-2.626-4.328-.85.889V58h-3.58V47.14h3.58v3.512zm8.984-3.512h5.22c2.458 0 4.416.574 4.416 2.731 0 1.115-.73 1.93-1.427 2.367 1.184.3 1.822 1.312 1.822 2.489 0 2.428-1.866 3.273-4.704 3.273h-5.327V47.14zm3.58 4.343h1.489c.712 0 1.228-.316 1.228-.95 0-.845-.697-.86-1.456-.86h-1.26v1.81zm0 3.983h1.562c.882 0 1.55-.18 1.55-.996 0-.95-.836-1.011-1.973-1.011h-1.138v2.007zm17.104-8.326v2.533H66.06v1.554h4.507v2.534H66.06v1.705h5.54v2.533h-9.121V47.14h8.908zM79.55 58h-3.583v-8.327h-3.215V47.14h10.015v2.533H79.55V58zm3.14-15.491H.137v-2.35H82.69v2.35zm0 3.07H.137v-2.351H82.69v2.35z" fill="#047BE1" fill-rule="evenodd"/></svg>