<svg width="99" height="23" viewBox="0 0 99 23" xmlns="http://www.w3.org/2000/svg"><title>0F85B2EA-615C-4395-A26A-99EE7E5B2E47</title><path d="M99 21.51c-.719.387-1.356.58-1.912.58h-.295c-.415 0-.71-1.16-.884-3.481h-.152c-.915 1.448-1.797 2.512-2.645 3.191h-.446l-1.323-.29c.686-3.465 1.028-5.64 1.028-6.524.59-.382 1.132-.572 1.626-.572h.143l.152.572h-.152l.152.29c0 .221-.051.415-.152.58l.152.29c-.102.923-.2 1.457-.295 1.6h.295l1.322-1.89c.51-1.254 1.1-1.882 1.769-1.882.634-.193 1.075-.29 1.322-.29l.295.44v.29c-.365.442-.66 1.697-.884 3.763.196 1.3.49 2.41.884 3.333zm-.59-7.096v-.29h-.294c.033.193.132.29.294.29zm-9.13 7.676c-.225-.027-.528-.477-.91-1.35h.152c-.202-.41-.303-.711-.303-.904h.151c-.1-.15-.151-.45-.151-.904h-.16c-.674 1.807-1.233 2.71-1.677 2.71-.37 0-.879-.8-1.524-2.403h-.304c0 1.177-.356 2.078-1.07 2.702h-.462c-1.082-.122-1.682-.413-1.804-.87-.727.68-1.325 1.02-1.793 1.02h-.152c-.202 0-.303-.25-.303-.747h-.151l-1.205.597c-1.51-.298-2.266-1.287-2.266-2.968a4.16 4.16 0 0 1 1.66-1.484h.758c.713.2 1.114.299 1.204.299v-.746c0-.1.05-.15.152-.15-.208-.59-.41-.887-.607-.887-.59.647-1.092.993-1.507 1.037v-.15l-.304.15c-.6 0-.9-.296-.9-.887.572-1.487 1.324-2.23 2.256-2.23 0-.2.203-.299.607-.299 1.51 0 2.266.89 2.266 2.67v.149c0 .227-.05.425-.152.597 0 .1.05.149.152.149l-.152 1.036v.597c.25.979.397 1.655.44 2.03.842-1.014 1.546-2.655 2.112-4.923 0-1.404.152-2.106.455-2.106h1.07c.612.144.918.696.918 1.658 0 .265.202 1.117.606 2.554.202 0 .61-1.454 1.222-4.361l.303-.15h.918l.918.606c0 .105-.05.254-.152.448 0 2.382.56 4.335 1.677 5.86v.15c0 .713-.61 1.213-1.828 1.5h-.16zm-11.363-3.266c-.606.1-.91.249-.91.448 0 .591.304.887.91.887h.143c.146 0 .298-.15.455-.448 0-.492-.199-.787-.598-.887zm-1.516-2.968v.15h.303l.152-.598c-.146 0-.298.15-.455.448zm3.774-1.193l-.304-.15v.15l.304.149v-.15zm5.138-.083l-.304-.15c.102.194.152.343.152.448h.152v-.298zm3.967-.15h-.152v.299h.152v-.299zm1.221 6.608h.16l.152-.597H90.5v.597zM72.097 22.09h-.893c-1.044 0-2.041-.588-2.99-1.765-.399-.945-.598-1.73-.598-2.355 0-2.006.848-3.33 2.544-3.97l1.196-.291c1.623 0 2.768.49 3.436 1.468l.152 1.027v.15c-.174 1.177-.424 1.765-.75 1.765h-.75c-.494-.26-.743-.456-.749-.588.101-.542.152-.934.152-1.177 0-.492-.25-.738-.75-.738-.893 0-1.44.834-1.643 2.503.422 1.371 1.07 2.056 1.946 2.056h.598l1.196-.878h.295c.494.254.744.45.75.588v.29c-.842 1.277-1.89 1.915-3.142 1.915zm1.5-7.212h.15v-.29h-.454c.034.193.135.29.303.29zm-3.892 1.766v.588h.152c0-.149.1-.345.303-.588h-.455zm4.338 3.39h.446l.152-.298h-.152c-.19.1-.34.15-.446.15v.149zM63.497 22.09c-.477 0-.884-.6-1.221-1.799 1.19-.9 1.85-1.35 1.98-1.35v-.15c-.006-.1-1.073-.799-3.202-2.097-.505-.432-.757-.83-.757-1.194 1.207-1.2 1.917-1.8 2.13-1.8.393 1.045 1.306 2.093 2.738 3.143h.152c.449-1.896.704-2.844.766-2.844.662 0 1.168.2 1.516.597 0 1.968-.811 4.015-2.434 6.143-.54.603-1.095 1.053-1.668 1.351zm-1.524-7.643l-.152.298h.455c0-.199-.101-.298-.303-.298zm5.02.605h.151c0-.204-.1-.307-.303-.307h-.152c.034.205.135.307.304.307zM52.657 22.09h-.893c-1.045 0-2.041-.588-2.99-1.765-.399-.945-.598-1.73-.598-2.355 0-2.006.848-3.33 2.543-3.97l1.197-.291c1.622 0 2.768.49 3.436 1.468l.152 1.027v.15c-.174 1.177-.424 1.765-.75 1.765h-.75c-.494-.26-.744-.456-.75-.588.102-.542.152-.934.152-1.177 0-.492-.25-.738-.75-.738-.892 0-1.44.834-1.642 2.503.422 1.371 1.07 2.056 1.946 2.056h.598l1.196-.878h.295c.494.254.744.45.75.588v.29c-.843 1.277-1.89 1.915-3.142 1.915zm1.5-7.212h.15v-.29h-.454c.034.193.135.29.303.29zm-3.892 1.766v.588h.151c0-.149.101-.345.303-.588h-.454zm4.337 3.39h.447l.152-.298h-.152c-.191.1-.34.15-.447.15v.149zM41.91 22.09h-.295c-.415 0-.71-1.16-.884-3.481h-.152c-.915 1.448-1.797 2.512-2.645 3.191h-.446l-1.322-.29c.685-3.465 1.027-5.64 1.027-6.524.59-.382 1.132-.572 1.626-.572h.143l.152.572h-.152l.152.29c0 .221-.05.415-.152.58l.152.29c-.101.923-.2 1.457-.295 1.6h.295l1.322-1.89c.511-1.254 1.1-1.882 1.769-1.882.634-.193 1.075-.29 1.322-.29l.295.44v.29c-.365.442-.66 1.697-.884 3.763.196 1.3.491 2.41.884 3.333-.719.387-1.356.58-1.912.58zm1.323-7.676v-.29h-.295c.033.193.132.29.295.29zM34.1 22.09c-.225-.027-.528-.477-.91-1.35h.152c-.202-.41-.303-.711-.303-.904h.151c-.1-.15-.151-.45-.151-.904h-.16c-.674 1.807-1.233 2.71-1.676 2.71-.371 0-.88-.8-1.525-2.403h-.303c0 1.177-.357 2.078-1.07 2.702h-.463c-1.219-.138-1.828-.489-1.828-1.053.853-1.011 1.567-2.663 2.14-4.957 0-1.404.15-2.106.454-2.106h1.07c.612.144.918.696.918 1.658 0 .265.202 1.117.607 2.554.202 0 .609-1.454 1.22-4.361l.304-.15h.918l.918.606c0 .105-.05.254-.151.448 0 2.382.558 4.335 1.676 5.86v.15c0 .713-.61 1.213-1.828 1.5h-.16zm-3.967-7.51l-.304-.15c.102.194.152.343.152.448h.152v-.298zm3.967-.15h-.152v.299h.152v-.299zm1.221 6.608h.16l.152-.597h-.312v.597zm-9.61-3.806l-.152 1.037v.597c.303 1.188.455 1.931.455 2.23-.736.69-1.34 1.036-1.811 1.036h-.152c-.202 0-.303-.249-.303-.746h-.151l-1.205.597c-1.51-.299-2.266-1.288-2.266-2.968.438-.663.991-1.158 1.66-1.484h.758c.713.199 1.114.298 1.204.298v-.746c0-.1.05-.15.152-.15-.208-.59-.41-.886-.607-.886-.59.647-1.092.992-1.507 1.036v-.15l-.304.15c-.6 0-.901-.295-.901-.887.573-1.487 1.325-2.23 2.257-2.23 0-.199.203-.298.607-.298 1.51 0 2.266.89 2.266 2.669v.15c0 .226-.05.425-.152.596 0 .1.05.15.152.15zm-3.016 1.634c-.606.099-.91.248-.91.447 0 .592.304.887.91.887h.143c.146 0 .298-.149.455-.447 0-.492-.199-.788-.598-.887zm-1.516-2.968v.149h.303l.152-.597c-.146 0-.298.149-.455.448zm3.774-1.194l-.304-.15v.15l.304.15v-.15zM12.324 23C5.312 23 0 18.02 0 11.552 0 5.52 4.709.522 10.915.002a.642.642 0 0 1 .656.408l.391 1.025a.63.63 0 0 1-.527.848c-1.48.151-3.056.669-4.63 1.775C.434 8.529 3.918 16.155 5.109 17.37c1.11 1.131 5.387 5.727 13.117 1.637a.352.352 0 0 1 .501.178l.334.873a1.075 1.075 0 0 1-.463 1.312c-1.67.972-3.745 1.629-6.274 1.629zm-9.248-6.07s-1.355-1.433-1.794-3.69c0 0 .073 2.713 1.794 3.69zM6.002 3.741c-.129.069-4.694 2.541-3.735 7.88-.032-.348-.382-4.968 3.735-7.88z" fill="#C02355" fill-rule="evenodd"/></svg>