<svg preserveAspectRatio="none" width="695" height="251" viewBox="0 0 695 251" xmlns="http://www.w3.org/2000/svg"><title>4EEDBE0A-81A6-4B9E-910C-D9A22E33998A</title><g fill="none" fill-rule="evenodd"><path d="M96.64 11.449l545.428-8.434c22.79-.352 41.552 17.838 41.904 40.628a41.27 41.27 0 0 1-3.392 17.035l-14.16 32.706a88 88 0 0 0-5.251 53.577l6.13 28.322c5.176 23.921-10.019 47.51-33.94 52.688a44.316 44.316 0 0 1-11.154.967l-527.739-21.21C47.278 205.833 10 167.027 10 119.8V99.438c0-48.07 38.575-87.246 86.64-87.99z" fill="#005260"/><path d="M594.866 250c55.128 0 74.374-6.475 86.064-39.684 11.611-32.983-6.883-65.51-6.883-89.266 0-28.488 27.114-73.954 18.128-99.178-8.55-23.995-36.47-20.722-47.212-20.722-18.56 0-366.903 7.993-385.444 7.993-51.899 0-224.577 5.567-239.679 24.397-4.351 5.426-8.392 47.377-11.325 94.404-2.405 38.566-28.713 80.893 33.93 88.533 43.473 5.302 187.972 14.5 254.82 17.54C446.81 240.818 575.182 250 594.866 250z" stroke="#3A3A3A" stroke-width="2"/></g></svg>