<svg preserveAspectRatio="none" width="1308" height="472" viewBox="0 0 1308 472" xmlns="http://www.w3.org/2000/svg"><title>2005B54D-6197-4410-BD78-C0A139414B52</title><g fill="none" fill-rule="evenodd"><path d="M101.64 28.119l1104.921-17.09c42.982-.664 78.364 33.64 79.029 76.621a77.834 77.834 0 0 1-6.394 32.12l-36.644 84.665a88 88 0 0 0-5.249 53.563l16.853 77.893c9.761 45.114-18.898 89.598-64.011 99.359a83.575 83.575 0 0 1-21.031 1.823L99.465 394.072C52.277 392.175 15 353.369 15 306.142V116.109c0-48.07 38.574-87.246 86.64-87.99z" fill="#005260"/><path d="M1119.573 470.492c103.836 0 140.086-12.209 162.105-74.825 21.87-62.19-12.965-123.52-12.965-168.312 0-53.714 51.07-139.441 34.145-187-16.102-45.243-68.691-39.072-88.926-39.072-34.957 0-691.077 15.07-726 15.07-97.754 0-423 10.498-451.445 46.002-8.197 10.23-15.808 89.328-21.332 178-4.53 72.716-54.083 152.523 63.91 166.928 81.883 9.998 354.052 27.34 479.965 33.072 281.671 12.824 523.464 30.137 560.543 30.137z" stroke="#3A3A3A" stroke-width="2"/></g></svg>