<svg width="754" height="15" viewBox="0 0 754 15" xmlns="http://www.w3.org/2000/svg"><title>ИМЕЮТСЯ ПРОТИВОПОКАЗ</title><path d="M.487.295h1.185v6.06c0 1.117-.035 2.128-.105 3.033h.06L7.74.295h1.386v10.896H7.932v-6c0-.998.043-2.047.127-3.145h-.067l-6.119 9.145H.487V.295zm16.868 10.896L13.66 1.532h-.06c.07.765.104 1.675.104 2.728v6.931h-1.17V.295h1.908l3.451 8.988h.06l3.48-8.988h1.893v10.896h-1.267v-7.02c0-.805.035-1.68.105-2.624h-.06l-3.727 9.644h-1.02zm15.46 0h-6.074V.295h6.074V1.42h-4.807v3.51h4.517v1.12h-4.517v4.01h4.807v1.132zm16.422-5.463c0 1.759-.424 3.134-1.271 4.125-.847.992-2.026 1.487-3.536 1.487-1.496 0-2.667-.456-3.515-1.367-.847-.912-1.298-2.215-1.352-3.91h-2.639v5.128h-1.267V.295h1.267v4.636h2.654c.114-1.546.59-2.733 1.427-3.563C41.842.538 42.974.124 44.4.124c1.525 0 2.713.498 3.562 1.494.85.996 1.275 2.366 1.275 4.11zm-8.348 0c0 1.47.296 2.589.887 3.354.592.765 1.461 1.148 2.609 1.148 1.162 0 2.038-.38 2.627-1.14.589-.76.883-1.881.883-3.362 0-1.48-.292-2.596-.876-3.346-.583-.75-1.452-1.126-2.604-1.126-1.158 0-2.035.38-2.631 1.137-.596.758-.895 1.87-.895 3.335zm14.119 5.463H53.74v-9.77h-3.45V.294h8.168V1.42h-3.451v9.771zm9.878-9.92c-1.198 0-2.143.399-2.836 1.196-.693.798-1.04 1.89-1.04 3.276 0 1.426.334 2.528 1.002 3.305.669.778 1.621 1.167 2.859 1.167.76 0 1.627-.137 2.6-.41v1.11c-.755.284-1.686.425-2.794.425-1.605 0-2.843-.487-3.715-1.46-.872-.974-1.308-2.358-1.308-4.152 0-1.123.21-2.107.63-2.951A4.521 4.521 0 0 1 62.101.824C62.894.367 63.827.138 64.9.138c1.143 0 2.142.21 2.996.626l-.536 1.089c-.825-.388-1.65-.582-2.474-.582zm8.625 5.374l-2.854 4.546h-1.498l3.055-4.762c-.8-.254-1.381-.638-1.744-1.152-.362-.514-.544-1.164-.544-1.949 0-.974.337-1.723 1.01-2.247.673-.524 1.693-.786 3.06-.786h2.996v10.896h-1.267V6.645H73.51zm2.214-5.254h-1.692c-.91 0-1.6.156-2.072.47-.472.312-.708.821-.708 1.527 0 1.446.941 2.169 2.825 2.169h1.647V1.39zm17.214 9.8h-1.267v-9.77h-5.598v9.77h-1.267V.295h8.132v10.896zM103.27 3.47c0 1.103-.376 1.951-1.13 2.545-.752.594-1.829.89-3.23.89h-1.282v4.286h-1.267V.295h2.825c2.723 0 4.084 1.058 4.084 3.175zm-5.642 2.348h1.14c1.123 0 1.936-.182 2.437-.544.502-.363.753-.945.753-1.744 0-.72-.236-1.258-.708-1.61-.472-.353-1.207-.53-2.206-.53H97.63v4.428zm17.808-.09c0 1.744-.441 3.115-1.323 4.114-.882.999-2.108 1.498-3.678 1.498-1.605 0-2.844-.49-3.716-1.472-.872-.981-1.308-2.366-1.308-4.155 0-1.774.438-3.149 1.312-4.125.875-.976 2.117-1.464 3.727-1.464 1.565 0 2.787.496 3.666 1.49.88.994 1.32 2.365 1.32 4.114zm-8.683 0c0 1.476.314 2.595.943 3.358.628.762 1.541 1.144 2.739 1.144 1.207 0 2.119-.38 2.735-1.14.616-.76.924-1.881.924-3.362 0-1.466-.307-2.577-.92-3.335-.614-.758-1.522-1.137-2.724-1.137-1.208 0-2.126.382-2.754 1.144-.629.763-.943 1.872-.943 3.328zm14.439 5.463h-1.267v-9.77h-3.45V.294h8.168V1.42h-3.451v9.771zM126.726.295h1.185v6.06c0 1.117-.035 2.128-.105 3.033h.06l6.111-9.093h1.386v10.896h-1.192v-6c0-.998.042-2.047.127-3.145h-.067l-6.12 9.145h-1.385V.295zm12.046 0h3.078c1.446 0 2.492.216 3.138.648.646.433.969 1.116.969 2.05 0 .646-.18 1.179-.54 1.599-.36.42-.886.691-1.577.816v.074c1.655.283 2.482 1.153 2.482 2.609 0 .974-.33 1.734-.988 2.28-.658.547-1.578.82-2.761.82h-3.801V.295zm1.267 4.665h2.087c.894 0 1.538-.14 1.93-.42.393-.281.589-.755.589-1.42 0-.612-.219-1.052-.656-1.323-.437-.271-1.133-.406-2.087-.406h-1.863v3.57zm0 1.074v4.076h2.273c.88 0 1.542-.17 1.986-.51.445-.34.667-.873.667-1.599 0-.675-.227-1.172-.682-1.49-.454-.318-1.146-.477-2.075-.477h-2.169zm18.508-.306c0 1.744-.44 3.115-1.323 4.114-.882.999-2.108 1.498-3.678 1.498-1.605 0-2.843-.49-3.715-1.472-.872-.981-1.308-2.366-1.308-4.155 0-1.774.437-3.149 1.312-4.125.874-.976 2.116-1.464 3.726-1.464 1.565 0 2.788.496 3.667 1.49.88.994 1.32 2.365 1.32 4.114zm-8.682 0c0 1.476.314 2.595.942 3.358.629.762 1.542 1.144 2.74 1.144 1.207 0 2.118-.38 2.735-1.14.616-.76.924-1.881.924-3.362 0-1.466-.307-2.577-.92-3.335-.614-.758-1.522-1.137-2.725-1.137-1.207 0-2.125.382-2.754 1.144-.628.763-.942 1.872-.942 3.328zm19.67 5.463h-1.267v-9.77h-5.597v9.77h-1.267V.295h8.131v10.896zm12.882-5.463c0 1.744-.441 3.115-1.323 4.114-.882.999-2.108 1.498-3.678 1.498-1.605 0-2.844-.49-3.716-1.472-.872-.981-1.308-2.366-1.308-4.155 0-1.774.438-3.149 1.312-4.125.875-.976 2.117-1.464 3.727-1.464 1.565 0 2.787.496 3.666 1.49.88.994 1.32 2.365 1.32 4.114zm-8.683 0c0 1.476.314 2.595.943 3.358.628.762 1.541 1.144 2.739 1.144 1.207 0 2.119-.38 2.735-1.14.616-.76.924-1.881.924-3.362 0-1.466-.307-2.577-.92-3.335-.614-.758-1.522-1.137-2.724-1.137-1.208 0-2.126.382-2.754 1.144-.629.763-.943 1.872-.943 3.328zm19.38 5.463h-1.535L186.54 5.67v5.522h-1.267V.295h1.267v5.277l4.911-5.277h1.453l-4.822 5.292 5.031 5.604zm8.775 0l-1.357-3.465h-4.367l-1.342 3.465h-1.281l4.307-10.94h1.066l4.286 10.94h-1.312zm-1.752-4.606L198.87 3.21a18.085 18.085 0 0 1-.506-1.573c-.11.477-.266 1.002-.47 1.573l-1.282 3.376h3.525zm11.309-3.741c0 .715-.227 1.297-.682 1.744-.455.447-1.082.73-1.882.85v.06c.91.123 1.599.409 2.068.856.47.447.705 1.031.705 1.752 0 1.018-.38 1.812-1.14 2.38-.76.57-1.834.854-3.22.854-1.267 0-2.306-.196-3.116-.589V9.574c.477.228.993.405 1.547.529a7.304 7.304 0 0 0 1.599.186c.983 0 1.727-.186 2.232-.559.504-.372.756-.909.756-1.61 0-.665-.28-1.17-.838-1.512-.56-.343-1.393-.515-2.5-.515h-1.625V5.028h1.557c1.019 0 1.808-.183 2.366-.548.56-.365.839-.876.839-1.532 0-.531-.201-.956-.604-1.274-.402-.318-.944-.477-1.624-.477-.547 0-1.041.062-1.484.186-.442.124-.954.37-1.535.738l-.626-.85a5.525 5.525 0 0 1 1.688-.846 6.582 6.582 0 0 1 1.942-.287c1.118 0 1.993.245 2.627.735.633.489.95 1.146.95 1.97zm9.826 8.347l-1.357-3.465h-4.367l-1.342 3.465h-1.282l4.308-10.94h1.066l4.285 10.94h-1.311zm-1.752-4.606l-1.267-3.376a18.084 18.084 0 0 1-.507-1.573 13.985 13.985 0 0 1-.47 1.573l-1.281 3.376h3.525zm13.261 4.606h-1.267V6.064h-5.738v5.127h-1.267V.295h1.267v4.636h5.738V.295h1.267v10.896zM236.212.295h1.185v6.06c0 1.117-.034 2.128-.104 3.033h.06l6.111-9.093h1.386v10.896h-1.192v-6c0-.998.042-2.047.127-3.145h-.068l-6.118 9.145h-1.387V.295zm15.281 6.35l-2.854 4.546h-1.498l3.056-4.762c-.8-.254-1.382-.638-1.744-1.152-.363-.514-.544-1.164-.544-1.949 0-.974.336-1.723 1.01-2.247.673-.524 1.692-.786 3.059-.786h2.996v10.896h-1.267V6.645h-2.214zm2.214-5.254h-1.692c-.91 0-1.6.156-2.072.47-.472.312-.708.821-.708 1.527 0 1.446.942 2.169 2.825 2.169h1.647V1.39zm4.325 9.01c0-.333.076-.585.228-.756.151-.172.368-.257.652-.257.288 0 .513.085.674.257.162.171.242.423.242.756 0 .323-.082.572-.246.745-.164.174-.387.261-.67.261a.883.883 0 0 1-.63-.235c-.167-.156-.25-.413-.25-.77zm17.52.79h-1.267V6.064h-5.739v5.127h-1.267V.295h1.267v4.636h5.739V.295h1.267v10.896zm9.49 0h-6.074V.295h6.074V1.42h-4.807v3.51h4.516v1.12h-4.516v4.01h4.807v1.132zm12.3-5.463c0 1.744-.441 3.115-1.323 4.114-.882.999-2.108 1.498-3.678 1.498-1.605 0-2.843-.49-3.715-1.472-.872-.981-1.308-2.366-1.308-4.155 0-1.774.437-3.149 1.311-4.125.875-.976 2.117-1.464 3.727-1.464 1.565 0 2.787.496 3.667 1.49.879.994 1.319 2.365 1.319 4.114zm-8.683 0c0 1.476.314 2.595.943 3.358.628.762 1.541 1.144 2.739 1.144 1.207 0 2.119-.38 2.735-1.14.616-.76.924-1.881.924-3.362 0-1.466-.307-2.577-.92-3.335-.614-.758-1.522-1.137-2.724-1.137-1.208 0-2.126.382-2.754 1.144-.629.763-.943 1.872-.943 3.328zm18.605 2.288c0 1.083-.322 1.883-.965 2.4-.643.517-1.614.775-2.91.775h-3.19V.295h6.424V1.42h-5.157v3.526h1.692c.959 0 1.739.11 2.34.331.601.221 1.046.548 1.334.98.288.433.432 1.019.432 1.76zm-5.798 2.08h1.781c.944 0 1.631-.162 2.06-.485.43-.323.645-.854.645-1.595 0-.705-.218-1.207-.655-1.505-.438-.298-1.2-.447-2.288-.447h-1.543v4.032zm15.765 1.095h-1.438l-2.93-4.792-2.98 4.792h-1.342l3.622-5.694-3.376-5.202h1.401l2.706 4.315L315.62.295h1.35l-3.377 5.157 3.637 5.74zm11.138-5.463c0 1.744-.441 3.115-1.323 4.114-.882.999-2.108 1.498-3.678 1.498-1.605 0-2.844-.49-3.716-1.472-.872-.981-1.308-2.366-1.308-4.155 0-1.774.438-3.149 1.312-4.125.875-.976 2.117-1.464 3.727-1.464 1.565 0 2.787.496 3.666 1.49.88.994 1.32 2.365 1.32 4.114zm-8.683 0c0 1.476.314 2.595.943 3.358.628.762 1.541 1.144 2.739 1.144 1.207 0 2.119-.38 2.735-1.14.616-.76.924-1.881.924-3.362 0-1.466-.307-2.577-.92-3.335-.614-.758-1.522-1.137-2.724-1.137-1.208 0-2.126.382-2.754 1.144-.629.763-.943 1.872-.943 3.328zm19.827 8.303h-1.207v-2.84h-7.572v2.84h-1.208v-3.988h.842c.766-1.286 1.42-2.852 1.964-4.695.544-1.843.846-3.528.906-5.053h4.896v9.748h1.38v3.988zm-2.646-3.988V1.435h-2.481c-.09 1.203-.39 2.647-.902 4.334-.512 1.687-1.108 3.112-1.789 4.274h5.172zM341.79.295h1.185v6.06c0 1.117-.035 2.128-.104 3.033h.06l6.11-9.093h1.387v10.896h-1.193v-6c0-.998.043-2.047.127-3.145h-.067l-6.119 9.145h-1.386V.295zm16.868 10.896l-3.696-9.659h-.06c.07.765.105 1.675.105 2.728v6.931h-1.17V.295h1.907l3.451 8.988h.06l3.48-8.988h1.893v10.896h-1.267v-7.02c0-.805.035-1.68.105-2.624h-.06l-3.726 9.644h-1.022zm18.844-5.463c0 1.744-.44 3.115-1.323 4.114-.882.999-2.108 1.498-3.678 1.498-1.605 0-2.843-.49-3.715-1.472-.872-.981-1.308-2.366-1.308-4.155 0-1.774.437-3.149 1.312-4.125.874-.976 2.116-1.464 3.726-1.464 1.565 0 2.787.496 3.667 1.49.88.994 1.32 2.365 1.32 4.114zm-8.683 0c0 1.476.315 2.595.943 3.358.629.762 1.542 1.144 2.74 1.144 1.207 0 2.118-.38 2.734-1.14.616-.76.925-1.881.925-3.362 0-1.466-.307-2.577-.92-3.335-.615-.758-1.523-1.137-2.725-1.137-1.207 0-2.125.382-2.754 1.144-.628.763-.943 1.872-.943 3.328zm24.064 5.463h-1.267v-9.77h-5.598v9.77h-1.267V.295h8.132v10.896zm10.332-7.721c0 1.103-.376 1.951-1.13 2.545-.752.594-1.829.89-3.23.89h-1.282v4.286h-1.267V.295h2.825c2.723 0 4.084 1.058 4.084 3.175zm-5.642 2.348h1.14c1.123 0 1.936-.182 2.437-.544.502-.363.753-.945.753-1.744 0-.72-.236-1.258-.708-1.61-.472-.353-1.207-.53-2.206-.53h-1.416v4.428zm17.808-.09c0 1.744-.441 3.115-1.323 4.114-.882.999-2.108 1.498-3.678 1.498-1.605 0-2.844-.49-3.716-1.472-.872-.981-1.308-2.366-1.308-4.155 0-1.774.438-3.149 1.312-4.125.875-.976 2.117-1.464 3.727-1.464 1.565 0 2.787.496 3.666 1.49.88.994 1.32 2.365 1.32 4.114zm-8.683 0c0 1.476.314 2.595.943 3.358.628.762 1.541 1.144 2.739 1.144 1.207 0 2.119-.38 2.735-1.14.616-.76.924-1.881.924-3.362 0-1.466-.307-2.577-.92-3.335-.614-.758-1.522-1.137-2.724-1.137-1.208 0-2.126.382-2.754 1.144-.629.763-.943 1.872-.943 3.328zm19.38 5.463h-1.535l-5.038-5.522v5.522h-1.267V.295h1.267v5.277l4.911-5.277h1.453l-4.822 5.292 5.031 5.604zm11.078-5.463c0 1.744-.441 3.115-1.323 4.114-.882.999-2.108 1.498-3.678 1.498-1.605 0-2.843-.49-3.715-1.472-.872-.981-1.308-2.366-1.308-4.155 0-1.774.437-3.149 1.311-4.125.875-.976 2.117-1.464 3.727-1.464 1.565 0 2.787.496 3.667 1.49.88.994 1.319 2.365 1.319 4.114zm-8.683 0c0 1.476.314 2.595.943 3.358.628.762 1.541 1.144 2.739 1.144 1.207 0 2.119-.38 2.735-1.14.616-.76.924-1.881.924-3.362 0-1.466-.307-2.577-.92-3.335-.614-.758-1.522-1.137-2.724-1.137-1.208 0-2.126.382-2.754 1.144-.629.763-.943 1.872-.943 3.328zm19.813 5.463h-1.267V6.064h-5.74v5.127h-1.266V.295h1.267v4.636h5.739V.295h1.267v10.896zm8.081-9.92c-1.197 0-2.143.399-2.836 1.196-.693.798-1.04 1.89-1.04 3.276 0 1.426.335 2.528 1.003 3.305.668.778 1.621 1.167 2.858 1.167.76 0 1.627-.137 2.601-.41v1.11c-.755.284-1.687.425-2.795.425-1.604 0-2.843-.487-3.715-1.46-.872-.974-1.308-2.358-1.308-4.152 0-1.123.21-2.107.63-2.951a4.521 4.521 0 0 1 1.818-1.953c.793-.457 1.726-.686 2.799-.686 1.143 0 2.142.21 2.996.626l-.536 1.089c-.825-.388-1.65-.582-2.475-.582zm6.077 10.07c-.552 0-1.036-.075-1.453-.224V9.879c.462.214.931.32 1.408.32.547 0 .985-.125 1.316-.375.33-.251.66-.722.987-1.413l-4.24-8.116h1.4l3.22 6.193c.124.244.221.482.29.716h.06c.14-.418.236-.68.291-.79l2.676-6.119h1.341l-3.48 7.796c-.418.929-.794 1.605-1.13 2.027-.335.422-.712.732-1.132.928-.42.196-.938.294-1.554.294zm16.213-.15h-1.267v-9.77h-3.54l-.232 1.788c-.303 2.38-.57 4.12-.8 5.22-.232 1.101-.536 1.868-.914 2.3-.377.432-.88.643-1.505.634-.368 0-.698-.063-.992-.187V10.11c.269.13.55.194.843.194.263 0 .493-.108.689-.324.196-.216.37-.591.522-1.125.151-.534.343-1.548.574-3.041.23-1.493.485-3.333.764-5.519h5.858v10.896zM489.6 8.016c0 1.009-.337 1.79-1.01 2.344-.673.554-1.633.831-2.88.831h-3.63V.295h1.267v4.65h2.169c1.326 0 2.339.263 3.037.787s1.047 1.285 1.047 2.284zm-6.253 2.08h2.228c1.809 0 2.713-.694 2.713-2.08 0-.67-.232-1.164-.697-1.48-.464-.315-1.208-.472-2.232-.472h-2.012v4.032zm11.57 1.095h-1.268v-9.77h-3.45V.294h8.168V1.42h-3.45v9.771zm5.53-10.896h1.185v6.06c0 1.117-.035 2.128-.104 3.033h.06l6.11-9.093h1.387v10.896h-1.192v-6c0-.998.042-2.047.126-3.145h-.067l-6.119 9.145h-1.386V.295zm18.955 3.175c0 1.103-.376 1.951-1.129 2.545-.752.594-1.83.89-3.23.89h-1.282v4.286h-1.267V.295h2.824c2.723 0 4.084 1.058 4.084 3.175zm-5.641 2.348h1.14c1.123 0 1.935-.182 2.437-.544.502-.363.753-.945.753-1.744 0-.72-.236-1.258-.708-1.61-.472-.353-1.208-.53-2.206-.53h-1.416v4.428zm17.807-.09c0 1.744-.44 3.115-1.323 4.114-.882.999-2.108 1.498-3.678 1.498-1.605 0-2.843-.49-3.715-1.472-.872-.981-1.308-2.366-1.308-4.155 0-1.774.437-3.149 1.312-4.125.874-.976 2.116-1.464 3.726-1.464 1.565 0 2.788.496 3.667 1.49.88.994 1.32 2.365 1.32 4.114zm-8.682 0c0 1.476.314 2.595.942 3.358.629.762 1.542 1.144 2.74 1.144 1.207 0 2.118-.38 2.735-1.14.616-.76.924-1.881.924-3.362 0-1.466-.307-2.577-.92-3.335-.614-.758-1.522-1.137-2.725-1.137-1.207 0-2.125.382-2.754 1.144-.628.763-.942 1.872-.942 3.328zm11.54-5.433h3.077c1.446 0 2.492.216 3.138.648.646.433.969 1.116.969 2.05 0 .646-.18 1.179-.54 1.599-.36.42-.886.691-1.577.816v.074c1.655.283 2.482 1.153 2.482 2.609 0 .974-.33 1.734-.987 2.28-.659.547-1.58.82-2.762.82h-3.8V.295zm1.266 4.665h2.087c.894 0 1.538-.14 1.93-.42.393-.281.59-.755.59-1.42 0-.612-.22-1.052-.657-1.323-.437-.271-1.133-.406-2.086-.406h-1.864v3.57zm0 1.074v4.076h2.273c.88 0 1.542-.17 1.987-.51.444-.34.667-.873.667-1.599 0-.675-.228-1.172-.682-1.49-.455-.318-1.147-.477-2.076-.477h-2.169zm15.9 5.157l-1.356-3.465h-4.368l-1.341 3.465h-1.282l4.307-10.94h1.066l4.286 10.94h-1.312zm-1.751-4.606l-1.267-3.376a18.085 18.085 0 0 1-.507-1.573c-.11.477-.266 1.002-.47 1.573l-1.282 3.376h3.525zm7.276 4.606h-1.267v-9.77h-3.45V.294h8.168V1.42h-3.45v9.771zm13.038-3.175c0 1.009-.337 1.79-1.01 2.344-.673.554-1.633.831-2.88.831h-3.63V.295h1.267v4.65h2.169c1.326 0 2.339.263 3.037.787s1.047 1.285 1.047 2.284zm-6.253 2.08h2.228c1.809 0 2.713-.694 2.713-2.08 0-.67-.232-1.164-.697-1.48-.464-.315-1.208-.472-2.232-.472h-2.012v4.032zm13.641-8.825c-1.197 0-2.142.399-2.836 1.196-.693.798-1.04 1.89-1.04 3.276 0 1.426.335 2.528 1.003 3.305.668.778 1.621 1.167 2.858 1.167.76 0 1.628-.137 2.601-.41v1.11c-.755.284-1.686.425-2.794.425-1.605 0-2.844-.487-3.716-1.46-.872-.974-1.308-2.358-1.308-4.152 0-1.123.21-2.107.63-2.951A4.521 4.521 0 0 1 574.76.824c.792-.457 1.725-.686 2.798-.686 1.143 0 2.142.21 2.996.626l-.536 1.089c-.825-.388-1.65-.582-2.475-.582zm8.626 5.374l-2.855 4.546h-1.498l3.056-4.762c-.8-.254-1.381-.638-1.744-1.152-.363-.514-.544-1.164-.544-1.949 0-.974.337-1.723 1.01-2.247.673-.524 1.693-.786 3.06-.786h2.995v10.896h-1.267V6.645h-2.213zm2.213-5.254h-1.691c-.91 0-1.6.156-2.072.47-.472.312-.708.821-.708 1.527 0 1.446.941 2.169 2.824 2.169h1.647V1.39zm13.749-.12c-1.198 0-2.143.399-2.836 1.196-.693.798-1.04 1.89-1.04 3.276 0 1.426.334 2.528 1.003 3.305.668.778 1.62 1.167 2.858 1.167.76 0 1.627-.137 2.6-.41v1.11c-.754.284-1.686.425-2.794.425-1.605 0-2.843-.487-3.715-1.46-.872-.974-1.308-2.358-1.308-4.152 0-1.123.21-2.107.63-2.951a4.521 4.521 0 0 1 1.818-1.953c.793-.457 1.725-.686 2.799-.686 1.142 0 2.141.21 2.996.626l-.537 1.089c-.825-.388-1.65-.582-2.474-.582zm14.543 4.457c0 1.744-.441 3.115-1.323 4.114-.882.999-2.108 1.498-3.678 1.498-1.605 0-2.843-.49-3.715-1.472-.872-.981-1.308-2.366-1.308-4.155 0-1.774.437-3.149 1.311-4.125.875-.976 2.117-1.464 3.727-1.464 1.565 0 2.787.496 3.667 1.49.88.994 1.319 2.365 1.319 4.114zm-8.683 0c0 1.476.315 2.595.943 3.358.629.762 1.542 1.144 2.74 1.144 1.206 0 2.118-.38 2.734-1.14.616-.76.924-1.881.924-3.362 0-1.466-.306-2.577-.92-3.335-.614-.758-1.522-1.137-2.724-1.137-1.207 0-2.125.382-2.754 1.144-.628.763-.943 1.872-.943 3.328zm20.598-4.457c-1.198 0-2.143.399-2.836 1.196-.693.798-1.04 1.89-1.04 3.276 0 1.426.334 2.528 1.003 3.305.668.778 1.62 1.167 2.858 1.167.76 0 1.627-.137 2.601-.41v1.11c-.755.284-1.687.425-2.795.425-1.605 0-2.843-.487-3.715-1.46-.872-.974-1.308-2.358-1.308-4.152 0-1.123.21-2.107.63-2.951a4.521 4.521 0 0 1 1.818-1.953c.793-.457 1.726-.686 2.799-.686 1.143 0 2.141.21 2.996.626l-.537 1.089c-.825-.388-1.65-.582-2.474-.582zm13.522 9.92h-1.267v-9.77h-5.597v9.77h-1.267V.295h8.131v10.896zm9.498 0h-6.074V.295h6.074V1.42h-4.807v3.51h4.516v1.12h-4.516v4.01h4.807v1.132zm10.973-1.148h1.282v3.988h-1.2v-2.84h-8.213V.295h1.267v9.748h5.597V.295h1.267v9.748zM666.14.295h1.185v6.06c0 1.117-.035 2.128-.105 3.033h.06l6.111-9.093h1.386v10.896h-1.192v-6c0-.998.042-2.047.127-3.145h-.067l-6.12 9.145h-1.385V.295zm18.895 10.896l-1.356-3.465h-4.368l-1.341 3.465h-1.282l4.308-10.94h1.066l4.285 10.94h-1.312zm-1.751-4.606l-1.267-3.376a18.084 18.084 0 0 1-.507-1.573c-.11.477-.266 1.002-.47 1.573l-1.281 3.376h3.525zm12.74 4.606h-1.268v-9.77h-3.54l-.23 1.788c-.304 2.38-.57 4.12-.802 5.22-.23 1.101-.535 1.868-.913 2.3-.377.432-.88.643-1.505.634-.368 0-.698-.063-.992-.187V10.11c.269.13.55.194.843.194.263 0 .493-.108.689-.324.196-.216.37-.591.522-1.125.151-.534.343-1.548.574-3.041.23-1.493.485-3.333.763-5.519h5.858v10.896zM699.462.295h1.185v6.06c0 1.117-.035 2.128-.104 3.033h.06l6.11-9.093h1.387v10.896h-1.193v-6c0-.998.043-2.047.127-3.145h-.067l-6.119 9.145h-1.386V.295zm16.712.976c-1.198 0-2.143.399-2.836 1.196-.693.798-1.04 1.89-1.04 3.276 0 1.426.334 2.528 1.003 3.305.668.778 1.62 1.167 2.858 1.167.76 0 1.627-.137 2.601-.41v1.11c-.755.284-1.687.425-2.795.425-1.605 0-2.843-.487-3.715-1.46-.872-.974-1.308-2.358-1.308-4.152 0-1.123.21-2.107.63-2.951A4.521 4.521 0 0 1 713.39.824c.793-.457 1.726-.686 2.799-.686 1.143 0 2.141.21 2.996.626l-.537 1.089c-.825-.388-1.65-.582-2.474-.582zm8.745 9.92h-1.267v-9.77h-3.451V.294h8.168V1.42h-3.45v9.771zm14.67-5.463c0 1.744-.441 3.115-1.323 4.114-.882.999-2.108 1.498-3.678 1.498-1.605 0-2.844-.49-3.716-1.472-.872-.981-1.308-2.366-1.308-4.155 0-1.774.438-3.149 1.312-4.125.875-.976 2.117-1.464 3.727-1.464 1.565 0 2.787.496 3.666 1.49.88.994 1.32 2.365 1.32 4.114zm-8.683 0c0 1.476.314 2.595.943 3.358.628.762 1.541 1.144 2.739 1.144 1.207 0 2.119-.38 2.735-1.14.616-.76.924-1.881.924-3.362 0-1.466-.307-2.577-.92-3.335-.614-.758-1.522-1.137-2.724-1.137-1.208 0-2.126.382-2.754 1.144-.629.763-.943 1.872-.943 3.328zm16.362 5.463l-3.697-9.659h-.06c.07.765.105 1.675.105 2.728v6.931h-1.17V.295h1.908l3.45 8.988h.06l3.48-8.988h1.894v10.896h-1.267v-7.02c0-.805.034-1.68.104-2.624h-.06l-3.726 9.644h-1.021z" fill="#FFF" fill-rule="evenodd"/></svg>