<svg width="1260" height="24" viewBox="0 0 1260 24" xmlns="http://www.w3.org/2000/svg"><title>ИМЕЮТСЯ ПРОТИВОПОКАЗ</title><path d="M.487.41h1.981v10.132c0 1.87-.058 3.56-.174 5.073h.1L12.614.41h2.317v18.22h-1.994V8.599c0-1.67.07-3.423.212-5.26h-.112L2.805 18.632H.487V.41zm28.207 18.22L22.513 2.48h-.1c.116 1.28.175 2.8.175 4.561v11.59H20.63V.41h3.19l5.77 15.03h.1L35.511.41h3.166v18.22h-2.119V6.89c0-1.345.059-2.807.175-4.386h-.1L30.402 18.63h-1.708zm25.852 0H44.39V.41h10.157v1.882h-8.038v5.87h7.552v1.87h-7.552v6.704h8.038v1.895zm27.46-9.134c0 2.94-.708 5.24-2.125 6.898-1.416 1.657-3.387 2.486-5.913 2.486-2.501 0-4.46-.762-5.876-2.287-1.417-1.525-2.171-3.703-2.262-6.537h-4.412v8.575h-2.119V.41h2.119v7.751h4.436c.192-2.584.987-4.57 2.387-5.957 1.4-1.387 3.292-2.08 5.677-2.08 2.55 0 4.536.832 5.957 2.498 1.42 1.666 2.131 3.957 2.131 6.874zm-13.958 0c0 2.459.494 4.328 1.483 5.608.989 1.28 2.443 1.92 4.362 1.92 1.944 0 3.409-.637 4.393-1.908.985-1.271 1.477-3.145 1.477-5.62 0-2.476-.488-4.342-1.464-5.596-.977-1.255-2.429-1.882-4.356-1.882-1.936 0-3.403.633-4.4 1.9-.997 1.268-1.495 3.127-1.495 5.578zm23.609 9.135h-2.119V2.292h-5.77V.41h13.659v1.882h-5.77v16.339zm16.517-16.588c-2.002 0-3.583.667-4.742 2-1.159 1.334-1.738 3.16-1.738 5.477 0 2.385.558 4.227 1.676 5.528 1.117 1.3 2.71 1.95 4.78 1.95 1.27 0 2.72-.228 4.349-.685v1.857c-1.263.473-2.821.71-4.674.71-2.683 0-4.754-.814-6.212-2.443-1.459-1.628-2.188-3.942-2.188-6.941 0-1.878.351-3.523 1.053-4.936.702-1.412 1.716-2.5 3.041-3.265 1.326-.764 2.885-1.147 4.68-1.147 1.911 0 3.581.35 5.01 1.047l-.897 1.82c-1.38-.648-2.759-.972-4.138-.972zm14.424 8.985l-4.773 7.603h-2.505l5.11-7.964c-1.338-.424-2.31-1.066-2.917-1.925-.606-.86-.91-1.947-.91-3.26 0-1.628.563-2.88 1.689-3.757C119.418.848 121.123.41 123.408.41h5.01v18.22h-2.119v-7.602h-3.701zm3.701-8.786h-2.829c-1.52 0-2.675.262-3.464.785-.79.524-1.184 1.375-1.184 2.555 0 2.418 1.574 3.627 4.723 3.627h2.754V2.242zm28.785 16.389h-2.118V2.292h-9.36v16.339h-2.118V.41h13.596v18.22zm17.278-12.912c0 1.845-.63 3.263-1.888 4.256-1.259.993-3.06 1.49-5.403 1.49h-2.143v7.166h-2.119V.41h4.724c4.553 0 6.83 1.769 6.83 5.308zm-9.434 3.926h1.907c1.877 0 3.236-.303 4.075-.91.84-.606 1.259-1.578 1.259-2.916 0-1.205-.395-2.102-1.184-2.692-.79-.59-2.02-.885-3.69-.885h-2.367v7.403zm29.778-.15c0 2.917-.738 5.21-2.212 6.88-1.475 1.67-3.525 2.505-6.15 2.505-2.684 0-4.755-.82-6.214-2.461-1.458-1.641-2.187-3.957-2.187-6.948 0-2.967.731-5.266 2.194-6.899 1.462-1.632 3.54-2.448 6.231-2.448 2.617 0 4.661.83 6.132 2.492 1.47 1.662 2.206 3.955 2.206 6.88zm-14.52 0c0 2.468.526 4.34 1.577 5.615 1.051 1.275 2.578 1.913 4.58 1.913 2.02 0 3.544-.636 4.574-1.907 1.03-1.271 1.545-3.145 1.545-5.62 0-2.451-.513-4.31-1.539-5.578-1.026-1.267-2.544-1.9-4.555-1.9-2.019 0-3.554.638-4.605 1.913-1.05 1.275-1.576 3.13-1.576 5.565zm24.145 9.136h-2.118V2.292h-5.77V.41h13.659v1.882h-5.77v16.339zM211.583.41h1.982v10.131c0 1.87-.059 3.56-.175 5.073h.1L223.71.41h2.317v18.22h-1.994V8.599c0-1.67.07-3.423.212-5.26h-.112L213.9 18.632h-2.318V.41zm20.144 0h5.147c2.418 0 4.167.36 5.247 1.083s1.62 1.866 1.62 3.428c0 1.08-.301 1.97-.903 2.673-.603.702-1.481 1.157-2.636 1.365v.124c2.766.474 4.15 1.928 4.15 4.362 0 1.629-.55 2.9-1.651 3.814-1.101.914-2.64 1.37-4.618 1.37h-6.356V.41zm2.119 7.8h3.49c1.495 0 2.57-.234 3.227-.703.657-.47.985-1.261.985-2.374 0-1.022-.366-1.76-1.097-2.213-.731-.452-1.894-.679-3.49-.679h-3.115v5.97zm0 1.796v6.817h3.8c1.471 0 2.579-.285 3.322-.854.744-.57 1.116-1.46 1.116-2.673 0-1.13-.38-1.961-1.14-2.493-.761-.532-1.918-.797-3.472-.797h-3.626zm30.95-.511c0 2.916-.738 5.209-2.213 6.879s-3.525 2.505-6.15 2.505c-2.684 0-4.755-.82-6.213-2.461-1.458-1.641-2.187-3.957-2.187-6.948 0-2.967.73-5.266 2.193-6.899 1.462-1.632 3.54-2.448 6.231-2.448 2.618 0 4.662.83 6.132 2.492 1.47 1.662 2.206 3.955 2.206 6.88zm-14.52 0c0 2.467.525 4.339 1.576 5.614 1.052 1.275 2.578 1.913 4.58 1.913 2.02 0 3.544-.636 4.574-1.907 1.03-1.271 1.546-3.145 1.546-5.62 0-2.451-.513-4.31-1.54-5.578-1.025-1.267-2.544-1.9-4.555-1.9-2.018 0-3.553.638-4.605 1.913-1.05 1.275-1.576 3.13-1.576 5.565zm32.894 9.135h-2.12V2.292h-9.359v16.339h-2.118V.41h13.597v18.22zm21.54-9.135c0 2.916-.738 5.209-2.213 6.879-1.474 1.67-3.525 2.505-6.15 2.505-2.684 0-4.755-.82-6.213-2.461-1.458-1.641-2.187-3.957-2.187-6.948 0-2.967.731-5.266 2.193-6.899C291.603.94 293.68.124 296.372.124c2.617 0 4.66.83 6.132 2.492 1.47 1.662 2.205 3.955 2.205 6.88zm-14.52 0c0 2.467.526 4.339 1.577 5.614 1.05 1.275 2.578 1.913 4.58 1.913 2.019 0 3.544-.636 4.574-1.907 1.03-1.271 1.545-3.145 1.545-5.62 0-2.451-.513-4.31-1.539-5.578-1.026-1.267-2.544-1.9-4.555-1.9-2.02 0-3.554.638-4.605 1.913-1.051 1.275-1.577 3.13-1.577 5.565zm32.408 9.135h-2.567l-8.425-9.235v9.235h-2.119V.41h2.119v8.823L319.819.41h2.43l-8.064 8.849 8.413 9.372zm14.673 0l-2.268-5.795h-7.304l-2.243 5.795h-2.143L330.516.335h1.782l7.166 18.296h-2.193zm-2.929-7.702l-2.119-5.646a30.238 30.238 0 0 1-.847-2.63 23.613 23.613 0 0 1-.785 2.63l-2.144 5.646h5.895zm18.91-6.257c0 1.197-.38 2.169-1.14 2.917-.76.748-1.81 1.221-3.147 1.42v.1c1.52.208 2.673.686 3.459 1.433.785.748 1.177 1.724 1.177 2.93 0 1.702-.635 3.03-1.906 3.981-1.272.951-3.066 1.427-5.384 1.427-2.12 0-3.856-.328-5.21-.985v-1.969c.798.383 1.66.677 2.586.885.927.208 1.818.312 2.673.312 1.646 0 2.89-.312 3.733-.935s1.265-1.52 1.265-2.692c0-1.113-.467-1.957-1.402-2.53-.935-.573-2.328-.86-4.181-.86h-2.717V8.324h2.605c1.703 0 3.022-.305 3.956-.916.935-.61 1.403-1.464 1.403-2.561 0-.89-.337-1.6-1.01-2.131-.673-.532-1.579-.798-2.717-.798-.914 0-1.74.104-2.48.312-.74.207-1.595.619-2.567 1.234L341.2 2.043a9.238 9.238 0 0 1 2.823-1.415 11 11 0 0 1 3.246-.48c1.87 0 3.334.41 4.393 1.228 1.06.818 1.59 1.917 1.59 3.296zm16.43 13.959l-2.268-5.795h-7.303l-2.243 5.795h-2.144L362.928.335h1.782l7.166 18.296h-2.193zm-2.928-7.702l-2.119-5.646a30.238 30.238 0 0 1-.847-2.63 23.613 23.613 0 0 1-.785 2.63l-2.144 5.646h5.895zm22.175 7.702h-2.118v-8.575h-9.597v8.575h-2.118V.41h2.118v7.751h9.597V.41h2.118v18.22zM394.667.41h1.981v10.131c0 1.87-.058 3.56-.174 5.073h.1L406.792.41h2.318v18.22h-1.994V8.599c0-1.67.07-3.423.212-5.26h-.112l-10.232 15.293h-2.318V.41zm25.553 10.617l-4.774 7.603h-2.505l5.11-7.964c-1.338-.424-2.31-1.066-2.916-1.925-.607-.86-.91-1.947-.91-3.26 0-1.628.563-2.88 1.689-3.757C417.039.848 418.744.41 421.03.41h5.01v18.22h-2.119v-7.602h-3.701zm3.701-8.786h-2.829c-1.52 0-2.675.262-3.465.785-.789.524-1.184 1.375-1.184 2.555 0 2.418 1.575 3.627 4.724 3.627h2.754V2.242zm7.233 15.068c0-.557.126-.979.38-1.265.253-.287.617-.43 1.09-.43.482 0 .858.143 1.128.43.27.286.405.708.405 1.265 0 .54-.137.955-.411 1.246-.274.29-.648.436-1.122.436-.423 0-.774-.13-1.053-.392-.278-.262-.417-.692-.417-1.29zm29.296 1.32h-2.119v-8.574h-9.596v8.575h-2.119V.41h2.119v7.751h9.596V.41h2.119v18.22zm15.87 0h-10.158V.41h10.157v1.882h-8.038v5.87h7.552v1.87h-7.552v6.704h8.038v1.895zm20.567-9.134c0 2.916-.737 5.209-2.212 6.879s-3.525 2.505-6.15 2.505c-2.684 0-4.755-.82-6.213-2.461-1.458-1.641-2.187-3.957-2.187-6.948 0-2.967.73-5.266 2.193-6.899C483.78.94 485.858.124 488.55.124c2.618 0 4.662.83 6.132 2.492 1.47 1.662 2.206 3.955 2.206 6.88zm-14.52 0c0 2.467.526 4.339 1.577 5.614 1.052 1.275 2.578 1.913 4.58 1.913 2.02 0 3.544-.636 4.574-1.907 1.03-1.271 1.546-3.145 1.546-5.62 0-2.451-.513-4.31-1.54-5.578-1.025-1.267-2.544-1.9-4.555-1.9-2.018 0-3.553.638-4.605 1.913-1.05 1.275-1.576 3.13-1.576 5.565zm31.112 3.826c0 1.81-.538 3.149-1.614 4.013-1.076.864-2.698 1.296-4.866 1.296h-5.334V.41h10.743v1.881h-8.625v5.895h2.83c1.603 0 2.907.185 3.913.555 1.005.37 1.749.916 2.23 1.638.482.723.723 1.704.723 2.942zm-9.696 3.477h2.979c1.579 0 2.727-.27 3.446-.81.719-.54 1.078-1.43 1.078-2.667 0-1.18-.366-2.02-1.097-2.518-.731-.498-2.006-.748-3.826-.748h-2.58V16.8zm26.363 1.832h-2.405l-4.898-8.014-4.985 8.014h-2.243l6.057-9.522L516.026.41h2.343l4.524 7.216L527.454.41h2.256l-5.645 8.624 6.081 9.597zm18.624-9.135c0 2.916-.737 5.209-2.212 6.879s-3.525 2.505-6.15 2.505c-2.684 0-4.755-.82-6.213-2.461-1.458-1.641-2.187-3.957-2.187-6.948 0-2.967.73-5.266 2.193-6.899 1.462-1.632 3.54-2.448 6.231-2.448 2.618 0 4.661.83 6.132 2.492 1.47 1.662 2.206 3.955 2.206 6.88zm-14.52 0c0 2.467.526 4.339 1.577 5.614 1.051 1.275 2.578 1.913 4.58 1.913 2.02 0 3.544-.636 4.574-1.907 1.03-1.271 1.546-3.145 1.546-5.62 0-2.451-.513-4.31-1.54-5.578-1.026-1.267-2.544-1.9-4.555-1.9-2.019 0-3.554.638-4.605 1.913-1.05 1.275-1.576 3.13-1.576 5.565zm33.156 13.883h-2.019V18.63h-12.662v4.748h-2.019V16.71h1.408c1.28-2.151 2.374-4.769 3.284-7.851.91-3.083 1.415-5.9 1.514-8.45h8.189V16.71h2.305v6.668zm-4.424-6.668V2.317h-4.15c-.15 2.01-.652 4.426-1.508 7.247-.856 2.82-1.853 5.203-2.991 7.147h8.649zm8.23-16.3h1.981v10.131c0 1.87-.058 3.56-.174 5.073h.1L583.337.41h2.318v18.22h-1.994V8.599c0-1.67.07-3.423.212-5.26h-.112L573.53 18.632h-2.318V.41zm28.207 18.22l-6.181-16.152h-.1c.116 1.28.174 2.8.174 4.561v11.59h-1.956V.41h3.19l5.77 15.03h.1l5.82-15.03h3.166v18.22h-2.119V6.89c0-1.345.058-2.807.175-4.386h-.1l-6.231 16.127h-1.708zm31.51-9.135c0 2.916-.737 5.209-2.212 6.879s-3.525 2.505-6.15 2.505c-2.684 0-4.755-.82-6.213-2.461-1.458-1.641-2.187-3.957-2.187-6.948 0-2.967.731-5.266 2.193-6.899C617.823.94 619.9.124 622.592.124c2.617 0 4.66.83 6.131 2.492s2.206 3.955 2.206 6.88zm-14.519 0c0 2.467.526 4.339 1.577 5.614 1.05 1.275 2.577 1.913 4.58 1.913 2.019 0 3.543-.636 4.574-1.907 1.03-1.271 1.545-3.145 1.545-5.62 0-2.451-.513-4.31-1.54-5.578-1.025-1.267-2.544-1.9-4.554-1.9-2.02 0-3.554.638-4.605 1.913-1.051 1.275-1.577 3.13-1.577 5.565zm40.239 9.135h-2.12V2.292h-9.359v16.339h-2.118V.41h13.597v18.22zm17.277-12.912c0 1.845-.63 3.263-1.888 4.256-1.259.993-3.06 1.49-5.402 1.49h-2.144v7.166h-2.119V.41h4.724c4.553 0 6.83 1.769 6.83 5.308zm-9.434 3.926h1.907c1.878 0 3.236-.303 4.075-.91.84-.606 1.259-1.578 1.259-2.916 0-1.205-.395-2.102-1.184-2.692-.79-.59-2.02-.885-3.69-.885h-2.367v7.403zm29.778-.15c0 2.917-.738 5.21-2.212 6.88-1.475 1.67-3.525 2.505-6.15 2.505-2.684 0-4.755-.82-6.213-2.461-1.459-1.641-2.188-3.957-2.188-6.948 0-2.967.732-5.266 2.194-6.899C681.163.94 683.24.124 685.932.124c2.617 0 4.661.83 6.132 2.492 1.47 1.662 2.206 3.955 2.206 6.88zm-14.52 0c0 2.468.526 4.34 1.577 5.615 1.051 1.275 2.578 1.913 4.58 1.913 2.02 0 3.544-.636 4.574-1.907 1.03-1.271 1.546-3.145 1.546-5.62 0-2.451-.514-4.31-1.54-5.578-1.026-1.267-2.544-1.9-4.555-1.9-2.019 0-3.554.638-4.605 1.913-1.05 1.275-1.576 3.13-1.576 5.565zm32.408 9.136h-2.567l-8.425-9.235v9.235h-2.119V.41h2.119v8.823L709.379.41h2.43l-8.063 8.849 8.412 9.372zm18.524-9.135c0 2.916-.737 5.209-2.212 6.879s-3.525 2.505-6.15 2.505c-2.684 0-4.755-.82-6.213-2.461-1.458-1.641-2.187-3.957-2.187-6.948 0-2.967.73-5.266 2.193-6.899 1.463-1.632 3.54-2.448 6.232-2.448 2.617 0 4.66.83 6.131 2.492 1.47 1.662 2.206 3.955 2.206 6.88zm-14.519 0c0 2.467.526 4.339 1.577 5.614 1.05 1.275 2.577 1.913 4.58 1.913 2.019 0 3.543-.636 4.574-1.907 1.03-1.271 1.545-3.145 1.545-5.62 0-2.451-.513-4.31-1.54-5.578-1.025-1.267-2.544-1.9-4.554-1.9-2.02 0-3.554.638-4.605 1.913-1.051 1.275-1.577 3.13-1.577 5.565zm33.13 9.135h-2.118v-8.575h-9.597v8.575h-2.118V.41h2.118v7.751h9.597V.41h2.118v18.22zm13.514-16.588c-2.002 0-3.583.667-4.742 2-1.159 1.334-1.738 3.16-1.738 5.477 0 2.385.558 4.227 1.676 5.528 1.117 1.3 2.71 1.95 4.78 1.95 1.27 0 2.72-.228 4.349-.685v1.857c-1.263.473-2.82.71-4.674.71-2.683 0-4.754-.814-6.212-2.443-1.458-1.628-2.188-3.942-2.188-6.941 0-1.878.352-3.523 1.054-4.936.702-1.412 1.715-2.5 3.04-3.265 1.326-.764 2.886-1.147 4.68-1.147 1.911 0 3.581.35 5.01 1.047l-.897 1.82c-1.38-.648-2.758-.972-4.138-.972zM772.97 18.88c-.922 0-1.733-.125-2.43-.374v-2.069a5.561 5.561 0 0 0 2.355.536c.914 0 1.647-.21 2.2-.63.552-.419 1.103-1.206 1.651-2.36L769.654.41h2.343l5.384 10.357c.207.407.37.806.486 1.196h.1c.232-.698.394-1.138.485-1.32L782.927.41h2.243l-5.82 13.036c-.698 1.554-1.328 2.684-1.888 3.39-.561.706-1.193 1.224-1.895 1.552-.702.328-1.568.492-2.598.492zm27.11-.25h-2.118V2.293h-5.92l-.386 2.991c-.507 3.98-.954 6.89-1.34 8.73-.386 1.84-.895 3.122-1.527 3.845-.631.723-1.47 1.076-2.517 1.06-.615 0-1.167-.104-1.658-.312v-1.782a3.21 3.21 0 0 0 1.409.324c.44 0 .824-.181 1.152-.542.329-.362.62-.99.873-1.882.253-.893.573-2.588.96-5.085a355.28 355.28 0 0 0 1.275-9.23h9.796v18.22zm18.3-5.308c0 1.686-.563 2.993-1.688 3.92-1.126.926-2.732 1.389-4.817 1.389h-6.07V.41h2.119v7.776h3.627c2.218 0 3.91.438 5.078 1.315 1.168.876 1.751 2.15 1.751 3.82zm-10.456 3.477h3.726c3.025 0 4.537-1.16 4.537-3.477 0-1.122-.389-1.947-1.165-2.474-.777-.528-2.021-.792-3.733-.792h-3.365V16.8zm19.347 1.832h-2.12V2.292h-5.77V.41h13.66v1.882h-5.77v16.339zM836.52.41h1.982v10.131a66.3 66.3 0 0 1-.175 5.073h.1L848.648.41h2.318v18.22h-1.995V8.599c0-1.67.071-3.423.212-5.26h-.112L838.84 18.632h-2.318V.41zm31.697 5.308c0 1.845-.63 3.263-1.888 4.256-1.259.993-3.06 1.49-5.402 1.49h-2.144v7.166h-2.119V.41h4.724c4.553 0 6.83 1.769 6.83 5.308zm-9.434 3.926h1.907c1.878 0 3.236-.303 4.075-.91.84-.606 1.259-1.578 1.259-2.916 0-1.205-.395-2.102-1.184-2.692-.79-.59-2.02-.885-3.69-.885h-2.367v7.403zm29.778-.15c0 2.917-.738 5.21-2.212 6.88-1.475 1.67-3.525 2.505-6.15 2.505-2.684 0-4.755-.82-6.213-2.461-1.459-1.641-2.188-3.957-2.188-6.948 0-2.967.732-5.266 2.194-6.899 1.462-1.632 3.54-2.448 6.231-2.448 2.617 0 4.661.83 6.132 2.492 1.47 1.662 2.206 3.955 2.206 6.88zm-14.52 0c0 2.468.526 4.34 1.577 5.615 1.051 1.275 2.578 1.913 4.58 1.913 2.02 0 3.544-.636 4.574-1.907 1.03-1.271 1.546-3.145 1.546-5.62 0-2.451-.514-4.31-1.54-5.578-1.026-1.267-2.544-1.9-4.555-1.9-2.019 0-3.554.638-4.605 1.913-1.05 1.275-1.576 3.13-1.576 5.565zM893.34.41h5.147c2.418 0 4.167.362 5.247 1.084 1.08.723 1.62 1.866 1.62 3.428 0 1.08-.3 1.97-.903 2.673-.602.702-1.481 1.157-2.636 1.365v.124c2.767.474 4.15 1.928 4.15 4.362 0 1.629-.55 2.9-1.651 3.814-1.101.914-2.64 1.37-4.618 1.37h-6.356V.41zm2.119 7.802h3.49c1.495 0 2.571-.235 3.227-.704.657-.47.985-1.261.985-2.374 0-1.022-.366-1.76-1.097-2.213-.73-.452-1.894-.679-3.49-.679h-3.115v5.97zm0 1.795v6.817h3.801c1.47 0 2.578-.285 3.322-.854.743-.57 1.115-1.46 1.115-2.673 0-1.13-.38-1.961-1.14-2.493-.76-.532-1.918-.797-3.471-.797h-3.627zm26.587 8.624l-2.268-5.795h-7.303l-2.243 5.795h-2.144L915.291.335h1.782l7.166 18.296h-2.194zm-2.928-7.702l-2.119-5.646a30.236 30.236 0 0 1-.847-2.63 23.614 23.614 0 0 1-.786 2.63l-2.143 5.646h5.895zm12.168 7.702h-2.119V2.292h-5.77V.41h13.659v1.882h-5.77v16.339zm21.801-5.31c0 1.687-.563 2.994-1.688 3.92-1.126.927-2.732 1.39-4.817 1.39h-6.07V.41h2.12v7.776h3.626c2.218 0 3.911.438 5.078 1.315 1.168.876 1.751 2.15 1.751 3.82zM942.63 16.8h3.726c3.025 0 4.537-1.16 4.537-3.477 0-1.122-.389-1.947-1.165-2.474-.777-.528-2.021-.792-3.733-.792h-3.365V16.8zm22.811-14.756c-2.002 0-3.583.667-4.742 2-1.159 1.334-1.738 3.16-1.738 5.477 0 2.385.558 4.227 1.676 5.528 1.117 1.3 2.71 1.95 4.78 1.95 1.27 0 2.72-.228 4.349-.685v1.857c-1.263.473-2.82.71-4.674.71-2.683 0-4.754-.814-6.212-2.443-1.459-1.628-2.188-3.942-2.188-6.941 0-1.878.351-3.523 1.053-4.936.703-1.412 1.716-2.5 3.041-3.265 1.326-.764 2.885-1.147 4.68-1.147 1.911 0 3.581.35 5.01 1.047l-.897 1.82c-1.38-.648-2.759-.972-4.138-.972zm14.424 8.985l-4.773 7.603h-2.505l5.11-7.964c-1.338-.424-2.31-1.066-2.917-1.925-.606-.86-.91-1.947-.91-3.26 0-1.628.563-2.88 1.69-3.757C976.684.848 978.39.41 980.674.41h5.01v18.22h-2.119v-7.602h-3.701zm3.701-8.786h-2.829c-1.52 0-2.675.262-3.464.785-.79.524-1.184 1.375-1.184 2.555 0 2.418 1.574 3.627 4.723 3.627h2.754V2.242zm22.99-.2c-2.002 0-3.583.668-4.742 2.001-1.159 1.334-1.738 3.16-1.738 5.477 0 2.385.558 4.227 1.676 5.528 1.117 1.3 2.71 1.95 4.78 1.95 1.27 0 2.72-.228 4.349-.685v1.857c-1.263.473-2.82.71-4.674.71-2.683 0-4.754-.814-6.212-2.443-1.458-1.628-2.188-3.942-2.188-6.941 0-1.878.351-3.523 1.054-4.936.702-1.412 1.715-2.5 3.04-3.265 1.326-.764 2.886-1.147 4.68-1.147 1.911 0 3.581.35 5.01 1.047l-.897 1.82c-1.38-.648-2.758-.972-4.138-.972zm24.32 7.454c0 2.916-.738 5.209-2.213 6.879-1.474 1.67-3.525 2.505-6.15 2.505-2.684 0-4.755-.82-6.213-2.461-1.458-1.641-2.187-3.957-2.187-6.948 0-2.967.731-5.266 2.193-6.899 1.463-1.632 3.54-2.448 6.232-2.448 2.617 0 4.66.83 6.132 2.492 1.47 1.662 2.205 3.955 2.205 6.88zm-14.52 0c0 2.467.526 4.339 1.577 5.614 1.05 1.275 2.578 1.913 4.58 1.913 2.019 0 3.544-.636 4.574-1.907 1.03-1.271 1.545-3.145 1.545-5.62 0-2.451-.513-4.31-1.539-5.578-1.026-1.267-2.544-1.9-4.555-1.9-2.02 0-3.554.638-4.605 1.913-1.051 1.275-1.577 3.13-1.577 5.565zm34.444-7.453c-2.003 0-3.583.667-4.743 2-1.159 1.334-1.738 3.16-1.738 5.477 0 2.385.559 4.227 1.676 5.528 1.118 1.3 2.71 1.95 4.78 1.95 1.27 0 2.72-.228 4.35-.685v1.857c-1.264.473-2.822.71-4.674.71-2.684 0-4.755-.814-6.213-2.443-1.458-1.628-2.187-3.942-2.187-6.941 0-1.878.35-3.523 1.053-4.936.702-1.412 1.716-2.5 3.04-3.265 1.326-.764 2.886-1.147 4.68-1.147 1.911 0 3.581.35 5.01 1.047l-.897 1.82c-1.379-.648-2.758-.972-4.137-.972zm22.611 16.588h-2.118V2.292h-9.36v16.339h-2.119V.41h13.597v18.22zm15.882 0h-10.157V.41h10.157v1.881h-8.038v5.87h7.552v1.87h-7.552v6.704h8.038v1.895zm18.35-1.92h2.143v6.668h-2.006v-4.748h-13.734V.41h2.118v16.3h9.36V.411h2.119v16.3zm5.949-16.3h1.981v10.131c0 1.87-.058 3.56-.174 5.073h.1L1125.718.41h2.318v18.22h-1.994V8.599c0-1.67.07-3.423.212-5.26h-.112l-10.232 15.293h-2.318V.41zm31.597 18.22l-2.268-5.795h-7.303l-2.244 5.795h-2.143l7.203-18.296h1.783l7.166 18.296h-2.194zm-2.929-7.702l-2.118-5.646a30.236 30.236 0 0 1-.848-2.63 23.614 23.614 0 0 1-.785 2.63l-2.143 5.646h5.894zm21.304 7.702h-2.12V2.292h-5.919l-.386 2.991c-.507 3.98-.954 6.89-1.34 8.73-.386 1.84-.895 3.122-1.527 3.845-.631.723-1.47 1.076-2.517 1.06-.615 0-1.168-.104-1.658-.312v-1.782a3.21 3.21 0 0 0 1.409.324c.44 0 .824-.181 1.152-.542.329-.362.62-.99.873-1.882.253-.893.573-2.588.96-5.085.386-2.497.812-5.573 1.277-9.229h9.796v18.22zm5.75-18.22h1.98v10.131c0 1.87-.057 3.56-.174 5.073h.1L1181.44.41h2.318v18.22h-1.994V8.599c0-1.67.07-3.423.211-5.26h-.112l-10.232 15.293h-2.318V.41zm27.945 1.632c-2.002 0-3.583.667-4.742 2-1.16 1.334-1.739 3.16-1.739 5.477 0 2.385.56 4.227 1.677 5.528 1.117 1.3 2.71 1.95 4.78 1.95 1.27 0 2.72-.228 4.349-.685v1.857c-1.263.473-2.821.71-4.674.71-2.684 0-4.754-.814-6.213-2.443-1.458-1.628-2.187-3.942-2.187-6.941 0-1.878.351-3.523 1.053-4.936.702-1.412 1.716-2.5 3.041-3.265 1.325-.764 2.885-1.147 4.68-1.147 1.91 0 3.58.35 5.01 1.047l-.897 1.82c-1.38-.648-2.759-.972-4.138-.972zm14.623 16.588h-2.119V2.292h-5.77V.41h13.66v1.882h-5.77v16.339zm24.531-9.135c0 2.916-.737 5.209-2.212 6.879s-3.525 2.505-6.15 2.505c-2.684 0-4.755-.82-6.213-2.461-1.458-1.641-2.187-3.957-2.187-6.948 0-2.967.73-5.266 2.193-6.899 1.463-1.632 3.54-2.448 6.232-2.448 2.617 0 4.66.83 6.131 2.492 1.47 1.662 2.206 3.955 2.206 6.88zm-14.519 0c0 2.467.526 4.339 1.577 5.614 1.05 1.275 2.577 1.913 4.58 1.913 2.019 0 3.543-.636 4.573-1.907 1.03-1.271 1.546-3.145 1.546-5.62 0-2.451-.513-4.31-1.54-5.578-1.025-1.267-2.544-1.9-4.554-1.9-2.02 0-3.554.638-4.605 1.913-1.051 1.275-1.577 3.13-1.577 5.565zm27.36 9.135l-6.181-16.152h-.1c.116 1.28.174 2.8.174 4.561v11.59h-1.956V.41h3.19l5.77 15.03h.1l5.82-15.03h3.166v18.22h-2.119V6.89c0-1.345.058-2.807.175-4.386h-.1l-6.231 16.127h-1.708z" fill="#FFF" fill-rule="evenodd"/></svg>