<svg width="286" height="25" viewBox="0 0 286 25" xmlns="http://www.w3.org/2000/svg"><title>Group 47</title><path d="M0 .13h.897v4.588c0 .847-.026 1.613-.079 2.297h.046L5.492.13h1.05v8.25h-.904V3.838c0-.756.032-1.55.096-2.382h-.05L1.05 8.381H0V.13zm12.774 8.25l-2.8-7.314H9.93c.052.58.079 1.268.079 2.065v5.25h-.886V.13h1.444l2.613 6.806h.046L15.86.13h1.434v8.25h-.96V3.065c0-.61.027-1.272.08-1.987h-.046l-2.822 7.303h-.773zm11.708 0h-4.6V.13h4.6v.852h-3.64V3.64h3.42v.847h-3.42v3.036h3.64v.858zm12.435-4.137c0 1.332-.32 2.373-.962 3.124-.642.75-1.534 1.126-2.678 1.126-1.133 0-2.02-.345-2.661-1.036-.642-.69-.983-1.677-1.025-2.96h-1.998V8.38h-.96V.13h.96v3.51h2.01c.086-1.17.446-2.07 1.08-2.697C31.317.314 32.174 0 33.254 0c1.155 0 2.054.377 2.698 1.132.643.754.965 1.792.965 3.112zm-6.321 0c0 1.114.224 1.96.671 2.54.448.58 1.107.87 1.976.87.88 0 1.543-.289 1.99-.864.445-.576.668-1.425.668-2.546 0-1.121-.22-1.966-.663-2.534-.442-.568-1.1-.852-1.973-.852-.876 0-1.54.287-1.992.86-.451.574-.677 1.416-.677 2.526zM41.287 8.38h-.96V.982h-2.612V.13H43.9v.852h-2.613v7.4zm7.48-7.51c-.906 0-1.622.302-2.147.906-.525.604-.787 1.43-.787 2.48 0 1.08.253 1.915.759 2.504.506.588 1.227.883 2.164.883.576 0 1.232-.104 1.97-.31v.84c-.572.215-1.277.322-2.117.322-1.215 0-2.153-.369-2.813-1.106-.66-.738-.99-1.785-.99-3.144 0-.85.158-1.595.476-2.235A3.424 3.424 0 0 1 46.66.531c.6-.347 1.307-.52 2.12-.52.865 0 1.621.158 2.269.474l-.407.824a4.373 4.373 0 0 0-1.874-.44zM55.3 4.94l-2.162 3.44h-1.135l2.314-3.606c-.605-.192-1.046-.483-1.32-.872-.275-.39-.412-.882-.412-1.476 0-.738.255-1.305.764-1.702.51-.397 1.283-.595 2.317-.595h2.27V8.38h-.96V4.938h-1.677zM56.977.96h-1.282c-.688 0-1.211.119-1.569.356-.357.237-.536.623-.536 1.157 0 1.095.713 1.642 2.14 1.642h1.247V.96zM70.01 8.381h-.96V.982h-4.238v7.4h-.96V.13h6.158v8.25zm7.825-5.847c0 .835-.285 1.478-.855 1.928-.57.45-1.386.674-2.447.674h-.97v3.245h-.96V.13h2.139c2.062 0 3.093.801 3.093 2.404zm-4.273 1.778h.864c.85 0 1.465-.137 1.845-.412.38-.275.57-.715.57-1.32 0-.546-.178-.953-.536-1.22-.357-.267-.914-.4-1.67-.4h-1.073v3.352zm13.486-.068c0 1.32-.334 2.36-1.002 3.116-.668.756-1.597 1.134-2.786 1.134-1.215 0-2.153-.371-2.813-1.115-.66-.743-.99-1.792-.99-3.146 0-1.343.33-2.385.993-3.124C81.113.369 82.054 0 83.273 0c1.185 0 2.11.376 2.777 1.129.666.752.999 1.79.999 3.115zm-6.576 0c0 1.118.238 1.965.714 2.543.476.577 1.168.866 2.074.866.915 0 1.605-.288 2.072-.863.466-.576.7-1.425.7-2.546 0-1.11-.233-1.952-.697-2.525-.465-.574-1.153-.861-2.063-.861-.915 0-1.61.289-2.086.866-.476.578-.714 1.418-.714 2.52zm10.935 4.137h-.96V.982h-2.613V.13h6.186v.852h-2.613v7.4zM95.598.13h.897v4.588c0 .847-.027 1.613-.08 2.297h.046L101.089.13h1.05v8.25h-.903V3.838c0-.756.032-1.55.096-2.382h-.051l-4.634 6.925h-1.05V.13zm9.122 0h2.33c1.096 0 1.888.163 2.377.49.489.328.734.846.734 1.553 0 .489-.137.893-.41 1.21-.272.318-.67.524-1.193.619v.056c1.253.214 1.88.873 1.88 1.975 0 .738-.25 1.313-.749 1.727-.498.414-1.195.621-2.09.621h-2.88V.13zm.96 3.533h1.58c.677 0 1.164-.106 1.461-.319.298-.213.446-.571.446-1.075 0-.463-.165-.797-.496-1.002-.332-.205-.858-.308-1.58-.308h-1.412v2.704zm0 .813v3.087h1.72c.667 0 1.168-.129 1.505-.387.337-.258.505-.661.505-1.21 0-.512-.172-.888-.516-1.13-.345-.24-.869-.36-1.572-.36h-1.643zm14.015-.232c0 1.32-.334 2.36-1.002 3.116-.668.756-1.596 1.134-2.785 1.134-1.215 0-2.153-.371-2.813-1.115-.66-.743-.991-1.792-.991-3.146 0-1.343.331-2.385.993-3.124C113.76.369 114.7 0 115.92 0c1.186 0 2.111.376 2.777 1.129.666.752 1 1.79 1 3.115zm-6.575 0c0 1.118.238 1.965.714 2.543.476.577 1.167.866 2.074.866.914 0 1.605-.288 2.071-.863.467-.576.7-1.425.7-2.546 0-1.11-.232-1.952-.697-2.525-.465-.574-1.152-.861-2.063-.861-.914 0-1.61.289-2.085.866-.476.578-.714 1.418-.714 2.52zm14.896 4.137h-.96V.982h-4.238v7.4h-.96V.13h6.158v8.25zm9.755-4.137c0 1.32-.334 2.36-1.002 3.116-.668.756-1.596 1.134-2.785 1.134-1.216 0-2.153-.371-2.814-1.115-.66-.743-.99-1.792-.99-3.146 0-1.343.33-2.385.993-3.124.662-.74 1.603-1.109 2.822-1.109 1.185 0 2.11.376 2.777 1.129.666.752.999 1.79.999 3.115zm-6.575 0c0 1.118.238 1.965.714 2.543.476.577 1.167.866 2.074.866.914 0 1.604-.288 2.071-.863.467-.576.7-1.425.7-2.546 0-1.11-.232-1.952-.697-2.525-.465-.574-1.152-.861-2.063-.861-.914 0-1.61.289-2.085.866-.476.578-.714 1.418-.714 2.52zm14.676 4.137h-1.163L140.894 4.2v4.182h-.96V.13h.96v3.996l3.72-3.996h1.1l-3.652 4.007 3.81 4.244zm6.645 0l-1.028-2.624h-3.307l-1.016 2.624h-.97l3.262-8.285h.807l3.245 8.285h-.993zm-1.327-3.488l-.96-2.556a14.343 14.343 0 0 1-.383-1.191c-.083.36-.201.758-.356 1.19l-.97 2.557h2.67zm8.564-2.833c0 .542-.172.982-.516 1.32-.345.34-.82.554-1.426.644v.045c.689.094 1.211.31 1.567.65.355.338.533.78.533 1.326 0 .771-.288 1.372-.863 1.803-.576.43-1.389.646-2.439.646-.96 0-1.746-.149-2.359-.446v-.892a5.47 5.47 0 0 0 1.171.401c.42.094.823.141 1.21.141.746 0 1.31-.14 1.691-.423.382-.282.573-.689.573-1.22 0-.503-.212-.885-.635-1.145-.423-.26-1.054-.39-1.893-.39h-1.23v-.806h1.179c.771 0 1.368-.139 1.792-.415.423-.277.635-.663.635-1.16 0-.403-.153-.724-.457-.965-.305-.24-.715-.361-1.23-.361a4.15 4.15 0 0 0-1.124.14c-.335.095-.722.281-1.163.56l-.474-.644c.38-.282.806-.496 1.279-.64a4.985 4.985 0 0 1 1.47-.218c.847 0 1.51.186 1.99.556.48.37.719.868.719 1.493zm7.44 6.321l-1.027-2.624h-3.307l-1.016 2.624h-.97l3.262-8.285h.807l3.245 8.285h-.993zm-1.326-3.488l-.96-2.556a14.343 14.343 0 0 1-.383-1.191c-.083.36-.201.758-.356 1.19l-.97 2.557h2.67zm10.043 3.488h-.96V4.498h-4.346v3.883h-.959V.13h.96v3.51h4.345V.13h.96v8.25zM178.509.13h.897v4.588c0 .847-.026 1.613-.079 2.297h.045L184 .13h1.05v8.25h-.903V3.838c0-.756.032-1.55.096-2.382h-.05l-4.634 6.925h-1.05V.13zm11.572 4.808l-2.162 3.443h-1.134l2.314-3.606c-.606-.192-1.046-.483-1.32-.872-.276-.39-.413-.882-.413-1.476 0-.738.255-1.305.765-1.702s1.282-.595 2.317-.595h2.269v8.25h-.96V4.938h-1.676zM191.757.96h-1.281c-.689 0-1.212.119-1.57.356-.357.237-.535.623-.535 1.157 0 1.095.713 1.642 2.139 1.642h1.247V.96zm3.276 6.824c0-.252.057-.443.172-.573.114-.13.279-.195.493-.195.219 0 .389.065.511.195.123.13.184.32.184.573 0 .245-.062.433-.187.564-.124.132-.293.198-.508.198a.669.669 0 0 1-.476-.178c-.126-.118-.19-.313-.19-.584zm13.267.598h-.96V4.498h-4.346v3.883h-.96V.13h.96v3.51h4.346V.13h.96v8.25zm7.186 0h-4.6V.13h4.6v.852h-3.64V3.64h3.42v.847h-3.42v3.036h3.64v.858zm9.315-4.137c0 1.32-.334 2.36-1.002 3.116-.668.756-1.596 1.134-2.785 1.134-1.216 0-2.154-.371-2.814-1.115-.66-.743-.99-1.792-.99-3.146 0-1.343.33-2.385.993-3.124.662-.74 1.603-1.109 2.822-1.109 1.185 0 2.11.376 2.777 1.129.666.752.999 1.79.999 3.115zm-6.576 0c0 1.118.238 1.965.714 2.543.476.577 1.168.866 2.075.866.914 0 1.604-.288 2.07-.863.467-.576.7-1.425.7-2.546 0-1.11-.232-1.952-.696-2.525-.465-.574-1.153-.861-2.063-.861-.914 0-1.61.289-2.086.866-.476.578-.714 1.418-.714 2.52zm14.09 1.733c0 .82-.244 1.426-.731 1.817-.488.392-1.222.587-2.204.587h-2.416V.13h4.865v.852h-3.905v2.67h1.28c.727 0 1.318.083 1.773.25.455.168.792.416 1.01.743.219.327.328.771.328 1.332zm-4.391 1.575h1.349c.714 0 1.235-.123 1.56-.367.326-.245.488-.647.488-1.208 0-.534-.165-.914-.496-1.14-.331-.226-.909-.339-1.733-.339h-1.168v3.054zm11.938.83h-1.089l-2.218-3.63-2.257 3.63h-1.016l2.743-4.313-2.557-3.94h1.061l2.049 3.269L238.643.13h1.022l-2.557 3.905 2.754 4.346zm8.434-4.138c0 1.32-.334 2.36-1.001 3.116-.668.756-1.597 1.134-2.786 1.134-1.215 0-2.153-.371-2.813-1.115-.66-.743-.99-1.792-.99-3.146 0-1.343.33-2.385.993-3.124C242.36.369 243.302 0 244.52 0c1.185 0 2.11.376 2.776 1.129.666.752 1 1.79 1 3.115zm-6.575 0c0 1.118.238 1.965.714 2.543.476.577 1.168.866 2.074.866.915 0 1.605-.288 2.072-.863.466-.576.7-1.425.7-2.546 0-1.11-.233-1.952-.698-2.525-.464-.574-1.152-.861-2.062-.861-.915 0-1.61.289-2.086.866-.476.578-.714 1.418-.714 2.52zm15.015 6.288h-.914v-2.15h-5.735v2.15h-.914v-3.02h.638c.58-.974 1.075-2.16 1.487-3.556.412-1.396.64-2.671.686-3.826h3.708v7.382h1.044v3.02zm-2.004-3.02V.993h-1.879c-.068.91-.295 2.005-.683 3.282-.387 1.278-.839 2.357-1.354 3.237h3.916zM258.46.13h.898v4.588c0 .847-.027 1.613-.08 2.297h.046L263.95.13H265v8.25h-.903V3.838c0-.756.032-1.55.096-2.382h-.051l-4.634 6.925h-1.05V.13zm12.774 8.251l-2.799-7.314h-.045c.053.58.079 1.268.079 2.065v5.25h-.886V.13h1.445l2.613 6.806h.045L274.321.13h1.433v8.25h-.96V3.065c0-.61.027-1.272.08-1.987h-.045l-2.822 7.303h-.774zm14.27-4.137c0 1.32-.334 2.36-1.002 3.116-.667.756-1.596 1.134-2.785 1.134-1.215 0-2.153-.371-2.813-1.115-.66-.743-.99-1.792-.99-3.146 0-1.343.33-2.385.992-3.124.663-.74 1.603-1.109 2.822-1.109 1.186 0 2.111.376 2.777 1.129.666.752 1 1.79 1 3.115zm-6.575 0c0 1.118.238 1.965.714 2.543.476.577 1.167.866 2.074.866.914 0 1.605-.288 2.071-.863.467-.576.7-1.425.7-2.546 0-1.11-.232-1.952-.697-2.525-.464-.574-1.152-.861-2.063-.861-.914 0-1.609.289-2.085.866-.476.578-.714 1.418-.714 2.52zM6.331 22.15h-.986v-7.61H.987v7.609H0v-8.485h6.331v8.485zm8.046-6.013c0 .86-.293 1.52-.88 1.982-.585.462-1.424.694-2.515.694h-.998v3.337h-.987v-8.485h2.2c2.12 0 3.18.824 3.18 2.472zm-4.393 1.828h.888c.874 0 1.507-.14 1.897-.423.391-.283.587-.735.587-1.358 0-.561-.184-.98-.552-1.254-.367-.275-.94-.412-1.718-.412H9.984v3.447zm13.866-.07c0 1.359-.343 2.426-1.03 3.204s-1.641 1.167-2.864 1.167c-1.25 0-2.214-.382-2.893-1.147-.679-.764-1.018-1.842-1.018-3.235 0-1.381.34-2.452 1.02-3.212.682-.76 1.649-1.14 2.903-1.14 1.218 0 2.17.386 2.855 1.16.685.774 1.027 1.842 1.027 3.204zm-6.76 0c0 1.15.244 2.021.733 2.615.49.594 1.2.89 2.133.89.94 0 1.65-.295 2.13-.887.48-.592.72-1.464.72-2.617 0-1.142-.24-2.007-.717-2.597-.478-.59-1.185-.885-2.121-.885-.94 0-1.655.297-2.145.89-.49.594-.734 1.458-.734 2.592zm15.09 4.255h-1.196l-3.923-4.3v4.3h-.986v-8.485h.986v4.109l3.825-4.109h1.131l-3.754 4.12 3.917 4.365zm8.626-4.254c0 1.358-.344 2.425-1.03 3.203-.687.778-1.642 1.167-2.864 1.167-1.25 0-2.214-.382-2.893-1.147-.68-.764-1.019-1.842-1.019-3.235 0-1.381.34-2.452 1.022-3.212.68-.76 1.648-1.14 2.901-1.14 1.219 0 2.17.386 2.855 1.16.685.774 1.028 1.842 1.028 3.204zm-6.761 0c0 1.149.244 2.02.734 2.614.49.594 1.2.89 2.133.89.94 0 1.65-.295 2.13-.887.48-.592.72-1.464.72-2.617 0-1.142-.24-2.007-.718-2.597-.477-.59-1.185-.885-2.12-.885-.94 0-1.656.297-2.145.89-.49.594-.734 1.458-.734 2.592zm15.427 4.254h-.986v-3.993h-4.47v3.993h-.986v-8.485h.987v3.61h4.469v-3.61h.986v8.485zm6.293-7.725c-.932 0-1.669.31-2.208.932-.54.62-.81 1.47-.81 2.55 0 1.11.26 1.969.78 2.574.521.606 1.263.908 2.226.908.592 0 1.267-.106 2.026-.319v.865c-.588.22-1.314.33-2.177.33-1.25 0-2.214-.379-2.893-1.137-.679-.758-1.018-1.836-1.018-3.232 0-.875.163-1.64.49-2.298a3.52 3.52 0 0 1 1.416-1.52c.617-.357 1.344-.535 2.18-.535.89 0 1.667.163 2.333.488l-.418.847a4.497 4.497 0 0 0-1.927-.453zm4.732 7.84a3.36 3.36 0 0 1-1.132-.173v-.964c.36.167.725.25 1.097.25.425 0 .767-.098 1.024-.293.257-.196.514-.562.77-1.1l-3.303-6.32h1.091l2.507 4.823c.097.19.172.375.226.557h.047a6.32 6.32 0 0 1 .226-.615l2.084-4.765h1.044l-2.71 6.07c-.325.724-.618 1.25-.88 1.579-.26.329-.554.57-.881.722-.327.153-.73.23-1.21.23zm12.624-.115h-.987v-7.61h-2.756l-.18 1.393c-.236 1.853-.444 3.208-.624 4.065-.18.857-.417 1.454-.71 1.79-.295.337-.686.502-1.173.494a1.96 1.96 0 0 1-.772-.145v-.83c.209.1.428.15.656.15a.704.704 0 0 0 .537-.252c.152-.168.288-.46.406-.876.118-.416.267-1.205.447-2.368.18-1.162.378-2.595.595-4.297h4.561v8.485zm8.521-2.473c0 .786-.262 1.394-.786 1.825-.524.432-1.272.648-2.243.648h-2.826v-8.485h.986v3.621h1.69c1.032 0 1.82.204 2.364.613.544.408.815 1 .815 1.778zm-4.869 1.62h1.736c1.408 0 2.112-.54 2.112-1.62 0-.522-.18-.906-.543-1.152-.361-.245-.94-.368-1.738-.368h-1.567v3.14zm9.01.853h-.987v-7.61h-2.687v-.876h6.36v.876h-2.687v7.609zm4.307-8.485h.923v4.718c0 .87-.027 1.658-.081 2.362h.046l4.759-7.08h1.08v8.485h-.93v-4.672c0-.778.034-1.594.1-2.45h-.053L91.17 22.15h-1.08v-8.485zm14.76 2.472c0 .86-.293 1.52-.879 1.982-.586.462-1.425.694-2.516.694h-.998v3.337h-.987v-8.485h2.2c2.12 0 3.18.824 3.18 2.472zm-4.393 1.828h.888c.874 0 1.507-.14 1.898-.423.39-.283.586-.735.586-1.358 0-.561-.184-.98-.552-1.254-.367-.275-.94-.412-1.717-.412h-1.103v3.447zm13.866-.07c0 1.359-.343 2.426-1.03 3.204s-1.641 1.167-2.864 1.167c-1.25 0-2.214-.382-2.893-1.147-.679-.764-1.018-1.842-1.018-3.235 0-1.381.34-2.452 1.021-3.212.681-.76 1.648-1.14 2.902-1.14 1.219 0 2.17.386 2.855 1.16.685.774 1.027 1.842 1.027 3.204zm-6.76 0c0 1.15.244 2.021.733 2.615.49.594 1.2.89 2.133.89.94 0 1.65-.295 2.13-.887.48-.592.72-1.464.72-2.617 0-1.142-.24-2.007-.717-2.597-.478-.59-1.185-.885-2.121-.885-.94 0-1.655.297-2.145.89-.489.594-.734 1.458-.734 2.592zm8.985-4.23h2.397c1.126 0 1.94.168 2.443.505.503.337.754.868.754 1.596 0 .503-.14.918-.42 1.245-.28.327-.69.538-1.228.635v.058c1.289.22 1.933.898 1.933 2.031 0 .759-.257 1.35-.77 1.776-.512.426-1.228.639-2.15.639h-2.959v-8.485zm.987 3.633h1.624c.697 0 1.198-.11 1.504-.328.305-.219.458-.587.458-1.106 0-.475-.17-.819-.51-1.03-.341-.21-.883-.316-1.626-.316h-1.45v2.78zm0 .836v3.174h1.77c.684 0 1.2-.132 1.546-.397.346-.265.52-.68.52-1.245 0-.526-.177-.913-.531-1.161-.354-.248-.893-.371-1.617-.371h-1.688zm12.38 4.016l-1.056-2.699h-3.4l-1.045 2.699h-.999l3.355-8.52h.83l3.337 8.52h-1.022zm-1.364-3.587l-.986-2.629c-.128-.333-.26-.74-.395-1.224-.085.371-.207.78-.365 1.224l-.999 2.63h2.745zm5.666 3.587h-.986v-7.61h-2.687v-.876h6.36v.876h-2.687v7.609zm10.153-2.473c0 .786-.263 1.394-.787 1.825-.524.432-1.272.648-2.243.648h-2.826v-8.485h.986v3.621h1.69c1.032 0 1.82.204 2.364.613.544.408.816 1 .816 1.778zm-4.87 1.62h1.736c1.408 0 2.112-.54 2.112-1.62 0-.522-.18-.906-.542-1.152-.362-.245-.942-.368-1.739-.368H139.5v3.14zm10.623-6.872c-.933 0-1.669.31-2.209.932-.54.62-.81 1.47-.81 2.55 0 1.11.261 1.969.781 2.574.52.606 1.263.908 2.226.908.592 0 1.267-.106 2.025-.319v.865c-.588.22-1.313.33-2.176.33-1.25 0-2.214-.379-2.893-1.137-.679-.758-1.018-1.836-1.018-3.232 0-.875.163-1.64.49-2.298a3.52 3.52 0 0 1 1.416-1.52c.617-.357 1.344-.535 2.18-.535.89 0 1.667.163 2.332.488l-.418.847a4.497 4.497 0 0 0-1.926-.453zm6.716 4.184l-2.223 3.54h-1.166l2.38-3.708c-.624-.197-1.076-.496-1.359-.896-.282-.4-.423-.907-.423-1.518 0-.758.262-1.342.786-1.75.524-.408 1.318-.612 2.382-.612h2.333v8.485h-.986v-3.54h-1.724zm1.724-4.09h-1.318c-.708 0-1.245.121-1.613.365-.368.243-.551.64-.551 1.19 0 1.125.733 1.688 2.2 1.688h1.282v-3.244zm13.511-.105c-.932 0-1.669.31-2.208.931-.54.621-.81 1.471-.81 2.55 0 1.111.26 1.969.78 2.574.521.606 1.263.909 2.226.909.592 0 1.267-.107 2.026-.32v.865c-.588.22-1.314.331-2.177.331-1.25 0-2.214-.38-2.893-1.137-.679-.759-1.018-1.836-1.018-3.233 0-.874.163-1.64.49-2.298a3.52 3.52 0 0 1 1.416-1.52c.618-.356 1.344-.534 2.18-.534.89 0 1.667.162 2.333.487l-.418.847a4.497 4.497 0 0 0-1.927-.452zm85.893 0c-.933 0-1.669.31-2.209.931s-.81 1.471-.81 2.55c0 1.111.261 1.969.781 2.574.52.606 1.263.909 2.226.909.592 0 1.267-.107 2.025-.32v.865c-.588.22-1.313.331-2.176.331-1.25 0-2.214-.38-2.893-1.137-.679-.759-1.018-1.836-1.018-3.233 0-.874.163-1.64.49-2.298a3.52 3.52 0 0 1 1.416-1.52c.617-.356 1.344-.534 2.18-.534.89 0 1.667.162 2.332.487l-.418.847a4.497 4.497 0 0 0-1.926-.452zm-74.954 3.482c0 1.358-.344 2.425-1.03 3.203-.687.778-1.642 1.167-2.864 1.167-1.25 0-2.214-.382-2.893-1.147-.68-.764-1.019-1.842-1.019-3.235 0-1.381.34-2.452 1.022-3.212.68-.76 1.648-1.14 2.901-1.14 1.219 0 2.17.386 2.856 1.16.684.774 1.027 1.842 1.027 3.204zm-6.761 0c0 1.149.244 2.02.734 2.614.49.594 1.2.89 2.133.89.94 0 1.65-.295 2.13-.887.48-.592.72-1.464.72-2.617 0-1.142-.24-2.007-.718-2.597-.477-.59-1.184-.885-2.12-.885-.94 0-1.656.297-2.145.89-.49.594-.734 1.458-.734 2.592zm15.459-3.47c-.933 0-1.669.31-2.209.93-.54.622-.81 1.472-.81 2.551 0 1.11.261 1.969.781 2.574.52.606 1.263.908 2.226.908.592 0 1.267-.106 2.025-.319v.865c-.588.22-1.313.33-2.176.33-1.25 0-2.214-.379-2.893-1.137-.679-.758-1.018-1.836-1.018-3.232 0-.875.163-1.64.49-2.298a3.52 3.52 0 0 1 1.416-1.52c.617-.357 1.344-.535 2.18-.535.89 0 1.667.163 2.332.488l-.418.847a4.497 4.497 0 0 0-1.926-.453zm9.529 7.724h-.987v-7.61h-4.358v7.609h-.987v-8.485h6.332v8.485zm7.395 0h-4.73v-8.485h4.73v.876h-3.743v2.734h3.517v.87h-3.517v3.122h3.743v.883zm8.545-.894h.998v3.105h-.934V22.15h-6.395v-8.485h.986v7.59h4.358v-7.59h.987v7.59zm2.77-7.591h.923v4.718c0 .87-.027 1.658-.081 2.362h.046l4.759-7.08h1.08v8.485h-.93v-4.672c0-.778.034-1.594.1-2.45h-.053l-4.764 7.122h-1.08v-8.485zm14.714 8.485l-1.056-2.699h-3.401l-1.045 2.699h-.998l3.354-8.52h.83l3.337 8.52h-1.021zm-1.364-3.587l-.987-2.629c-.127-.333-.259-.74-.394-1.224-.085.371-.207.78-.366 1.224l-.998 2.63h2.745zm10.92 3.587h-.987v-7.61h-2.756l-.18 1.393c-.236 1.853-.444 3.208-.624 4.065-.18.857-.417 1.454-.71 1.79-.295.337-.686.502-1.173.494a1.96 1.96 0 0 1-.772-.145v-.83c.209.1.427.15.656.15a.704.704 0 0 0 .537-.252c.152-.168.288-.46.406-.876.118-.416.267-1.205.447-2.368.18-1.162.378-2.595.594-4.297h4.562v8.485zm1.677-8.485h.923v4.718c0 .87-.027 1.658-.081 2.362h.046l4.759-7.08h1.08v8.485h-.93v-4.672c0-.778.034-1.594.1-2.45h-.053l-4.764 7.122h-1.08v-8.485zm18.992 8.485h-.987v-7.61h-2.687v-.876h6.361v.876h-2.687v7.609zm11.423-4.254c0 1.358-.343 2.425-1.03 3.203s-1.641 1.167-2.864 1.167c-1.25 0-2.214-.382-2.893-1.147-.679-.764-1.018-1.842-1.018-3.235 0-1.381.34-2.452 1.02-3.212.682-.76 1.649-1.14 2.903-1.14 1.218 0 2.17.386 2.855 1.16.685.774 1.027 1.842 1.027 3.204zm-6.76 0c0 1.149.244 2.02.733 2.614.49.594 1.2.89 2.133.89.94 0 1.65-.295 2.13-.887.48-.592.72-1.464.72-2.617 0-1.142-.24-2.007-.717-2.597-.478-.59-1.185-.885-2.121-.885-.94 0-1.655.297-2.145.89-.49.594-.734 1.458-.734 2.592zm11.74 4.254l-2.879-7.522h-.046a24 24 0 0 1 .08 2.124v5.398h-.91v-8.485h1.485l2.687 6.999h.047l2.71-6.999h1.474v8.485h-.987v-5.467c0-.627.028-1.308.082-2.043h-.047l-2.901 7.51h-.795z" fill="#FFF" fill-rule="evenodd"/></svg>