<svg version="1" xmlns="http://www.w3.org/2000/svg" width="360" height="138" viewBox="0 0 3600 1380"><g fill="#fff"><path d="M857 1364c-98-22-157-51-295-143-178-120-230-138-419-148l-121-6-12-64-11-64 225-232 224-232-169-3-169-2v-24c0-12 5-48 11-79l12-57h597v24c0 14-5 48-12 76-11 48-25 65-231 276-214 219-218 224-185 224 85 0 196 49 330 146 118 85 198 129 278 149 156 41 339-15 485-147 29-27 55-48 58-48 7 0 87 118 87 129 0 5-28 32-62 60-73 60-216 134-303 156-90 23-237 28-318 9z"/><path d="M923 1076c-162-51-237-196-203-395 25-151 117-279 245-342 60-29 82-34 157-37 108-5 169 13 232 69 26 23 56 64 72 97 23 49 27 70 27 147 1 226-130 408-328 460-71 18-145 18-202 1zm194-162c63-40 116-135 133-238 21-135-31-226-130-226-192 0-295 429-116 479 37 10 82 4 113-15zm603 159c-76-23-152-99-174-173-18-60-21-172-6-240 34-155 150-293 285-341 73-26 188-26 247 0 151 66 174 271 41 365-25 17-61 37-81 44-52 19-197 42-264 42h-57l6 33c9 49 40 93 77 111 48 23 149 21 225-5 34-12 64-19 67-16s9 33 14 68c10 73 13 70-80 100-90 28-228 34-300 12zm212-474c44-11 76-37 79-64 5-65-14-85-85-85-66 0-108 26-153 94-51 74-47 80 45 71 42-3 93-11 114-16zm476 477c-77-27-108-61-121-133-7-35 20-206 69-440l7-33h-46c-25 0-48-4-52-9-5-8 0-41 20-128 4-19 13-22 57-25l52-3 11-62c7-35 13-64 16-66 6-5 192-57 195-54 1 1-6 44-15 95l-18 92h166l-6 37c-3 21-11 56-17 78l-12 40-82 3-81 3-7 37c-3 20-19 103-35 184-45 231-42 245 61 235l60-7v148l-50 11c-67 14-126 13-172-3zm734 5c-61-16-122-43-122-54 0-6 10-39 22-74 17-51 24-63 37-57 46 19 136 44 160 44 51 0 92-21 106-53 22-52 3-82-91-142-93-61-134-111-141-177-11-100 45-189 152-240 51-24 72-28 146-28 81 0 189 22 189 38 0 9-40 123-46 134-3 4-20 0-39-8s-63-14-98-14c-77 0-107 21-107 75 0 37 12 49 116 115 85 52 117 97 122 169 2 31-1 76-8 100-15 57-91 133-157 156-55 19-192 28-241 16zm-422-26c0-9 6-48 14-88s26-135 41-212c48-257 66-350 77-397l10-48h94c52 0 94 4 94 9 0 7-9 57-37 201-15 81-33 176-48 255-9 50-25 134-36 189-10 54-19 100-19 102s-43 4-95 4c-79 0-95-3-95-15zm204-853c-55-44-59-106-10-160 30-33 40-37 81-37 40 0 51 5 76 33 33 37 37 77 14 122-29 55-117 78-161 42z"/></g></svg>