<?xml version="1.0" encoding="UTF-8"?>
<svg width="463px" height="190px" viewBox="0 0 463 190" version="1.1" xmlns="http://www.w3.org/2000/svg" xmlns:xlink="http://www.w3.org/1999/xlink">
    <!-- Generator: sketchtool 52.4 (67378) - http://www.bohemiancoding.com/sketch -->
    <title>0AA39FCF-ED1B-4A30-A64F-E0681B3F477A</title>
    <desc>Created with sketchtool.</desc>
    <g id="Page-1" stroke="none" stroke-width="1" fill="none" fill-rule="evenodd" stroke-linecap="round">
        <g id="404" transform="translate(0.000000, -792.000000)" stroke="#000000" stroke-width="4">
            <path d="M-6,793 C81.7597525,808.978809 45.4371982,867.969128 64.9748583,890.647654 C76.6844818,904.239712 93.4871679,908.708507 106.580355,906.849017 C116.676145,905.415217 127.650041,898.107633 134.754443,893.161368 C151.072513,881.800312 179.526674,844.475891 197.679663,831.88482 C215.832653,819.293748 264.872012,816.775534 273.303849,862.103391 C281.735686,907.431249 270.370936,943.860382 245.95327,966.189583 C221.535605,988.518783 193.839393,980.400424 186.228741,965.538885 C178.618088,950.677345 175.973067,914.994893 204.608704,890.647654 C233.244341,866.300415 261.536185,860.833711 301.720864,869.530631 C341.905543,878.227552 352.709902,931.427766 381.374087,942.686249 C410.038273,953.944732 430.684995,947.035049 447.389104,932.765167 C464.093212,918.495286 467.877854,889.803749 444.676147,867.13982 C421.47444,844.475891 417.222667,862.103391 421.47444,866.300415" id="Path-34"></path>
        </g>
    </g>
</svg>