<?xml version="1.0" encoding="UTF-8"?>
<svg width="424px" height="552px" viewBox="0 0 424 552" version="1.1" xmlns="http://www.w3.org/2000/svg" xmlns:xlink="http://www.w3.org/1999/xlink">
    <!-- Generator: sketchtool 52.4 (67378) - http://www.bohemiancoding.com/sketch -->
    <title>E736ECD2-3309-4FB3-8159-7B9C474D4710</title>
    <desc>Created with sketchtool.</desc>
    <g id="Page-1" stroke="none" stroke-width="1" fill="none" fill-rule="evenodd">
        <g id="404" transform="translate(-508.000000, -715.000000)">
            <g id="Group" transform="translate(509.000000, 717.000000)">
                <path d="M281,150 L281,191 L325.556178,191 L325.556178,150 C302.496359,151.333333 289.305374,151.333333 285.983225,150" id="Path-36" stroke="#E87C7C" stroke-width="3" stroke-linecap="round"></path>
                <path d="M115.47428,62 C113.411368,77.2920479 118.078035,98.9587145 129.47428,127 C150.140946,139 162.140946,145 165.47428,145 C168.807613,145 173.807613,140.333333 180.47428,131 L172.47428,91 L165.47428,78 L176.47428,82 L174.47428,57 L165.47428,54 C158.850889,48.6656706 153.850889,45.3323373 150.47428,44 C145.008532,41.8433334 137.146859,41.960206 134.47428,42 C117.966662,42.2457938 116.879638,51.5822916 115.47428,62 Z" id="Path-99" fill="#FFFFFF"></path>
                <path d="M52,496 C50.6666667,492 50.6666667,487.333333 52,482 C53.3333333,476.666667 54.6666667,471.666667 56,467 L66,459 L72,455 L77,448 L81,440 L83,437 C87,433.666667 90.6666667,434 94,438 C97.3333333,442 98.6666667,443.333333 98,442 L106,451 L113,457 C121,462.575758 126,465.363636 128,465.363636 C131,465.363636 130,462.636364 133,464 C135,464.909091 136.666667,466.242424 138,468 C140.666667,464 142.333333,462 143,462 C143.666667,462 146,464.666667 150,470 L156,466 L159,471 L161,466 L178,470 L188,467 L194,462 L209,471 L227,474 L233,472 L240,468 L245,461 L244,455 L236,437 L233,421 L235,409.5 L242,395 L249,383 L247,376 L258,366 L259,362 L259,328 L257,319 L240,305 L212,282 L197,266 L192,260 L192,248 L185,242 L182,232 L179,225 L182,212.963351 C187.333333,206.561203 190,203.300107 190,203.180064 C190,203.060021 193.333333,200.170993 200,194.512978 L214,188 L224,188 L239,198.22481 L255,209 L266,211 L267,254 L279,276 C281.399233,281.964173 283.065899,286.464173 284,289.5 C284.934101,292.535827 285.934101,296.702493 287,302 L289,313 L302,323 L316,327 L327,315.610385 L330,305 L327,296 L327,292 L313,262 L340,257 L342,262 L344,268 L342,278 L337,289 L341,292 L348,315.610385 L350,349 L348,372 L348,387 L342,383 L342,395 L316,437 L298,461 L301,464 L298,478 L296,498 L296,506 L298,512 L309,519 L310,523 L309,529.5 L302,535 L289,536 L282,535 L277,529.383513 L275,519 C270.333333,516.333333 268.666667,514 270,512 C271.333333,510 270.333333,504.333333 267,495 C265.666667,493 264.333333,492 263,492 C261.666667,492 259.666667,494 257,498 L257,503 C259.666667,517.666667 261,524.333333 261,523 C261,521.666667 262.666667,521.666667 266,523 L275,536 L272,538 L272,543 L267,546 L255,547 L240,547 L233,533 L227,533 L227,524 L224,508 L214,512 L209,510 L209,514 L203,519 L200,519 L174,514 L154,516 L128,512 L130,516 L130,519 L126,523 L122,524 L120,528 L115,529.5 L106,529.5 L103,533 L89,535 L77,527 L66,519 L67,508" id="Path-93" fill="#FFFFFF"></path>
                <path d="M167.156353,206 C152.489686,195.886368 143.823019,187.829552 141.156353,181.829552 C137.156353,172.829552 122.156353,151.770526 116.156353,138.300039 C110.156353,124.829552 94.1563525,78.8295518 94.1563525,74.8295518 C94.1563525,74.4291934 87.1584269,55.6272413 90.1563525,50.3295518 C91.9052803,47.2389894 89.742718,39.8504866 90.1563525,33.8295518 C90.6457379,26.705975 93.5728178,19.6925216 94.1563525,19.8295518 C96.062343,20.2771312 108.051505,21.0551219 112.156353,36.7264669 C115.568826,49.7544927 111.248456,77.5546372 112.156353,82.8295518 C114.156353,94.4496337 117.156353,105.897038 120.156353,110.279469 C125.820646,118.55393 156.156353,138.829552 163.156353,136.829552 C170.156353,134.829552 173.156353,133.829552 167.156353,118.829552 C161.156353,103.829552 163.156353,83.8295518 151.156353,74.8295518 C139.156353,65.8295518 135.156353,64.8295518 131.156353,62.8295518 C128.489686,61.4962184 140.489686,66.4962184 167.156353,77.8295518 C167.156353,63.8295518 165.156353,55.4962184 161.156353,52.8295518 C160.739577,52.5517017 144.31726,42.8210534 135.156353,40.8295518 C112.156353,35.8295518 96.0993846,19.144774 95.6596924,16.7264669 C94.6278659,11.051421 103.678663,0.403211241 123.156353,1.82955176 C141.432469,3.16790174 168.516275,17.7896833 173.156353,21.8295518 C189.156353,35.7599 199.156353,45.7599 203.156353,51.8295518 L234.156353,92.8295518 L245.156353,108.829552" id="Path-98" stroke="#000000" fill="#FFFFFF" stroke-linecap="round"></path>
                <path d="M265.024862,251 C270.358196,259.666667 273.691529,265.333333 275.024862,268 C276.358196,270.666667 279.358196,277.666667 284.024862,289 C286.691529,295.666667 288.024862,300.666667 288.024862,304 C288.024862,307.333333 288.024862,310.666667 288.024862,314 L303.024862,323 L316.024862,326 L324.024862,317 L330.024862,307 L324.024862,282 L312.024862,262 C303.424602,265.263769 296.424602,266.263769 291.024862,265 C285.625122,263.736231 276.958456,259.069564 265.024862,251 Z" id="Path-97" fill="#FF9AA7"></path>
                <path d="M252,243.700743 L295.024862,266.24197 L326.024862,260.24197 L348.024862,255.24197 L365.024862,255.24197 L372.024862,257.24197 L380.024862,248.24197 L384.024862,235.820666 L363,239.869161 L348.024862,232.24197 L348.024862,224 L351,215 C358.364854,214.578224 361.364854,213.578224 360,212 C358.635146,210.421776 358.301813,210.421776 359,212 L372.024862,198 L348.024862,197.295484 L340.024862,195.58598 L336.024862,194.754949 L329.024862,188.24197 L323.024862,179.24197 L320.024862,171.24197 L319.024862,164.24197 L319.024862,153.24197 L319.024862,143.24197 L319.024862,138.24197 L320.024862,135.24197 C309.018625,132.805283 301.426605,132.354832 297.2488,133.890619 C296.487952,134.170312 295.024862,134.851491 295.024862,134.851491 C295.024862,134.851491 296.024862,137.314984 298.024862,142.24197 L299.024862,149.24197 C299.024862,158.575304 299.024862,164.575304 299.024862,167.24197 C299.024862,169.908637 298.691529,174.908637 298.024862,182.24197 L291.024862,191.486106 L252,212 L252,243.700743 Z" id="Path-94" fill="#FFFFFF"></path>
                <path d="M53.0248624,498 L53.0248624,482 L58.0248624,468 L69.0248624,460 L76.0248624,453 L81.0248624,442 L84.0248624,438 C86.0248624,436.666667 88.0248624,436.666667 90.0248624,438 C93.0248624,440 97.0248624,439.654072 100.024862,444.327036 C103.024862,449 120.024862,463 123.024862,464 C125.024862,464.666667 128.024862,465.833333 132.024862,467.5 C132.691529,465.5 133.691529,465 135.024862,466 C137.024862,467.5 139.024862,469 139.024862,469 C139.024862,469 142.024862,463 144.024862,463 C145.358196,463 147.691529,465.666667 151.024862,471 L156.024862,466 L161.024862,473 L161.024862,466 C170.358196,468.666667 176.691529,470 180.024862,470 C185.024862,470 193.024862,466 195.024862,464 C196.358196,462.666667 198.024862,463.833333 200.024862,467.5 C211.358196,472.5 219.024862,475 223.024862,475 C229.024862,475 238.024862,474 238.024862,472 C238.024862,471.03789 240.900774,469.044836 244.024862,466 C244.828467,465.216781 245.828467,463.883448 247.024862,462 L238.024862,440 C234.024862,425 233.358196,415.166667 236.024862,410.5 C238.691529,405.833333 243.358196,397.333333 250.024862,385 L248.024862,377 C255.358196,371 259.024862,367.666667 259.024862,367 C259.024862,366 261.024862,354 261.024862,352 C261.024862,350 260.024862,326 259.024862,323 C258.358196,321 242.024862,306.666667 210.024862,280 L195.024862,263 L193.024862,259 L193.024862,250 L187.024862,244.458773 L182.024862,231 L180.024862,226 L182.024862,216.276498 L195.024862,199.22481 L210.024862,190 L223.024862,188 L236.024862,195.512978 L248.024862,205.170448 L261.024862,212 L267.024862,213 L280.024862,201 L299.024862,185 L300.024862,178 L301.024862,164 L298.024862,141 L290.024862,130 L280.024862,123 L265.024862,120 L252.024862,109.016491 C233.358196,109.051497 222.024862,110.724167 218.024862,114.0345 C214.024862,117.344833 210.358196,122.333333 207.024862,129 C202.493526,141.396007 198.493526,151.062674 195.024862,158 C191.556199,164.937326 187.222866,171.937326 182.024862,179 L161.024862,221 L161.024862,236.578696 L168.024862,244.458773 L175.024862,250 C174.268309,253.260297 173.601642,256.260297 173.024862,259 C172.448083,261.739703 171.781416,265.739703 171.024862,271 L173.024862,285.033989 L175.024862,290 L151.024862,316.610385 L106.024862,366 L88.0248624,388 L69.0248624,402 L50.0248624,417 L33.0248624,438 L33.0248624,454 L37.0248624,480 L42.0248624,490" id="Path-91" fill="#FFFFFF"></path>
                <path d="M291.024862,135.369097 C300.55386,134.198016 307.203807,133.776665 310.974703,134.105046 C314.110616,134.378131 317.127336,134.929641 320.024862,135.759577 L319.024862,137.343938 L319.024862,145.759577 L319.024862,160.759577 L320.024862,171.759577 L325.024862,182.759577 L331.024862,191.412676 L339.024862,196.103587 L347.024862,197.14483 L355.024862,199.759577 L359.024862,197.813091 L345.024862,188.759577 L340.024862,151.759577 L344.024862,143.759577 L346.024862,144.759577 L346.024862,142.703025 L344.024862,137.343938 L300.024862,111.759577 L284.024862,107 L260.024862,107 L246.024862,108.776068 L291.024862,135.369097 Z" id="Path-92" fill="#FFFFFF"></path>
                <path d="M363,243 C363.666667,243.058053 374.333333,239.391387 395,232 L404,210 L398,207.273227 L392,205.170448 L379,202.092523 L369,201 L363,203 L356,207.692458 L347,218 L344,213 L343,219 L345,230 L356,239 C360,241.608613 362.333333,242.941947 363,243 Z" id="Path-95" fill="#FFFFFF"></path>
                <path d="M40,455 C41.8947368,451 38,449.25 44,440.25 C50,431.25 43,427.25 55,421.25 C67,415.25 71,409.25 71,405.75 C71,403.416667 70.6666667,401.833333 70,401 L53,415 L40,427.25 L33,436.804196 L33,448 L35,459.25 C37.0701754,459.083333 38.7368421,457.666667 40,455 Z" id="Path-112" fill="#FFFFFF"></path>
                <path d="M406,207.692458 L407,199.22481 L385,191 L371,195.512978 L347,207.692458 L345,212 L349,218 C353.666667,212.666667 356,210 356,210 C356,210 359,207.666667 365,203 L371,201 L380,202.092523 C387.333333,203.484217 391,204.180064 391,204.180064 C391,204.180064 396.058918,205.061975 401,207.274035 C402.068549,207.752411 403.068549,208.661066 404,210 L406,207.692458 Z" id="Path-96" fill="#FFFFFF"></path>
                <path d="M338,153 C339.333333,153 352.333333,144.666667 377,128 L395,79 L390,24 L375,30 L328,102.267154 C333.333333,136.089051 336.666667,153 338,153 Z" id="Path-102" fill="#FFFFFF"></path>
                <path d="M338,136.470487 L338,112 L338,107 L370,61 C375.333333,43 379.333333,34 382,34 C386,34 388,65 387,72 C386,79 384,105.005362 372,119 C360,132.994638 354,142 338,152 C327.333333,158.666667 328.666667,168.333333 342,181 L367,157 L392,119 L398,59 L398,19.4149254 L398,14 L387,8 L359,26 L321,61 L284,112.736115 L338,136.470487 Z" id="Path-101" fill="#FFFFFF"></path>
                <polygon id="Path-89" fill="#FFFFFF" points="24.0248624 498 16.0248624 495 7.02486239 487 5.02486239 476 6.02486239 469 14.5248624 473 20.0248624 475 24.0248624 483.5 27.0248624 495"></polygon>
                <path d="M230.094123,295.471804 C248.4392,310.037005 268.554435,276.641637 279.722116,268.942302 C290.889797,261.242967 300.5346,269.7386 312.958054,261.205689 C317.387719,258.163222 328.222969,249.937044 335.879432,241.140534 C340.951507,235.313229 363.768745,231.263062 367.48176,251.028664 C372.613127,278.344617 392.411253,235.389779 360.51088,245.754839 C352.902427,248.226975 358.839181,274.963898 351.185619,276.127489" id="Path-34-Copy" stroke="#000000" stroke-width="3" stroke-linecap="round" transform="translate(304.179263, 267.732464) scale(-1, 1) rotate(18.000000) translate(-304.179263, -267.732464) "></path>
                <path d="M338.16772,189.610385 C340.376859,189.610385 341.024862,187.138717 341.024862,185.721955 C341.024862,184.305193 339.136488,180.811061 338.16772,179.889309 C336.249902,178.064567 334.472096,179.559798 334.16772,179.889309 C333.262278,180.86952 333.024862,184.043213 333.024862,185.721955 C333.024862,188.674796 335.958581,189.610385 338.16772,189.610385 Z" id="Oval" stroke="#2D2D2D" fill="#7F6E5D"></path>
                <path d="M265.292682,196 C268.78782,196 272.107997,192.773491 272.107997,188.5 C272.107997,184.226509 272.195477,181 268.700339,181 C265.205202,181 263.345449,184.86892 261.398216,187.190272 C260.231415,188.58125 259.543317,191.923539 260.4246,193.25316 C261.58485,195.00367 263.306315,196 265.292682,196 Z" id="Oval" stroke="#2D2D2D" fill="#7F6E5D"></path>
                <path d="M22.0248624,491 C22.5229093,487.74707 22.5229093,485.74707 22.0248624,485 C21.5268155,484.25293 20.8601489,483.919596 20.0248624,484 L17.0248624,481 L16.0248624,480 L17.0248624,479 L20.0248624,479 L21.0248624,478 L20.0248624,476 L16.0248624,471 L35.0248624,474 L39.0248624,484 L34.0248624,489 C30.6915291,491 28.5248624,492 27.5248624,492 C26.5248624,492 24.6915291,491.666667 22.0248624,491 Z" id="Path-87" fill="#E6B520"></path>
                <path d="M266.420646,191.869224 C264.657239,191.588816 263.644523,189.607347 264.15868,187.443488 C264.672837,185.27963 266.519168,183.752791 268.282574,184.033199 C270.045981,184.313606 271.058697,186.295076 270.54454,188.458934 C270.030383,190.622793 268.184053,192.149632 266.420646,191.869224 Z" id="Oval" fill="#383838"></path>
                <path d="M94.5970823,377.583333 C98.529519,372.031243 101.529519,368.031243 103.597082,365.583333 C112.081453,355.538189 118.620665,349.047959 119.597082,347.583333 C121.597082,344.583333 148.597082,315.583333 151.597082,311.583333 C153.597082,308.916667 160.597082,301.916667 172.597082,290.583333 C174.500789,292.537956 174.500789,295.537956 172.597082,299.583333 C169.741522,305.651399 164.597082,303.583333 164.597082,307.583333 C164.597082,311.583333 166.597082,317.583333 161.597082,317.583333 C156.597082,317.583333 153.597082,319.583333 153.597082,322.583333 C153.597082,325.583333 157.597082,329.583333 153.597082,331.583333 C149.597082,333.583333 144.597082,321.583333 143.597082,325.583333 C142.597082,329.583333 143.597082,329.583333 143.597082,335.583333 C143.597082,341.583333 144.597082,344.583333 139.597082,347.583333 C134.597082,350.583333 130.597082,352.583333 129.597082,350.583333 C128.597082,348.583333 124.597082,348.583333 120.597082,355.583333 C116.597082,362.583333 121.597082,363.583333 115.597082,365.583333 C109.597082,367.583333 112.597082,363.583333 106.597082,369.583333 C100.597082,375.583333 98.5970823,380.583333 96.5970823,383.583333 C95.2637489,385.583333 94.5970823,383.583333 94.5970823,377.583333 Z" id="Path-113" fill="#FFFFFF"></path>
                <path d="M338.01682,187.74974 C336.777648,187.954623 335.480204,186.839021 335.118898,185.257972 C334.757592,183.676924 335.469243,182.22914 336.708415,182.024257 C337.947587,181.819374 339.245031,182.934976 339.606337,184.516025 C339.967642,186.097073 339.255991,187.544857 338.01682,187.74974 Z" id="Oval-Copy-2" fill="#2D2D2D"></path>
                <path d="M223,352.256006 C220,357.256006 211,361.546709 205,356.546709 C199,351.546709 200.62132,374.546709 192.62132,379.546709 C184.62132,384.546709 178,375.546709 173,366.546709 C168,357.546709 161,363.256006 161,362.256006 C161,361.256006 161,353.51084 161,345.383423 C161,337.256006 168,333.256006 173,333.256006 C178,333.256006 175,323.256006 180,318.256006 C183.897852,314.358154 205,310.546709 213,328.546709 C214.728514,332.435866 223.661289,351.153858 223,352.256006 Z" id="Path-106-Copy" fill="#FFFFFF"></path>
                <path d="M291.024862,107 C308.358196,78.3333333 324.358196,57.6666667 339.024862,45 C353.691529,32.3333333 369.691529,20 387.024862,8 C396.358196,11.8865672 401.024862,15.6915423 401.024862,19.4149254 C401.024862,25 399.024862,109.39048 393.024862,122 C388.095756,132.358945 366.294362,159.442349 353.124708,172.106779 C351.217223,173.941087 348.183941,176.905494 344.024862,181" id="Path-2" stroke="#000000" stroke-width="4"></path>
                <path d="M245.905766,106.271784 C204.572433,47.4448352 173.905766,15.0313609 153.905766,9.03136091 C123.905766,0.0313609088 120.905766,-2.57735031 109.905766,2.7270053 C98.9057661,8.03136091 84.9057661,22.0313609 91.9057661,59.0313609 C98.9057661,96.0313609 116.385491,144.938838 136.905766,173.031361 C150.58595,191.75971 160.939132,201.819731 167.965314,203.211425 C165.258949,209.592384 162.572433,216.328108 159.905766,223.418595 C155.905766,234.054327 165.905766,246.031361 186.905766,253.031361" id="Path-6" stroke="#000000" stroke-width="3" stroke-linecap="round"></path>
                <path d="M174.108196,248 C169.441529,264.666667 168.774862,276.666667 172.108196,284 C177.108196,295 181.108196,301 181.108196,309" id="Path-7" stroke="#2D2D2D" stroke-width="3" stroke-linecap="round"></path>
                <path d="M175.024862,305 C177.691529,307.813847 179.024862,311.350642 179.024862,315.610385" id="Path-8" stroke="#2D2D2D" stroke-width="2" stroke-linecap="round"></path>
                <path d="M173.024862,316 C175.691529,318.813847 177.024862,322.350642 177.024862,326.610385 C177.024862,330.870128 178.358196,333.666667 181.024862,335" id="Path-8-Copy" stroke="#2D2D2D" stroke-width="2" stroke-linecap="round"></path>
                <path d="M173.85329,289 C115.85329,349.666667 86.1866229,384.333333 84.8532895,393 C82.8532895,406 80.8532895,409 82.8532895,417" id="Path-9" stroke="#000000" stroke-width="2"></path>
                <path d="M89.0248624,384 C72.2993234,397.062246 60.2993234,406.728913 53.0248624,413 C45.7504014,419.271087 38.4170681,426.937754 31.0248624,436 C32.7004898,459.901533 34.7122528,475.185035 37.0601515,481.850504 C37.8323133,484.0426 39.1538836,486.759099 41.0248624,490 C56.3377682,499.096304 64.6711016,504.429637 66.0248624,506 C68.0555036,508.355544 63.9942212,517 66.0248624,519 C68.0555036,521 84.0248624,535 89.0248624,535 C94.0248624,535 105.024862,532 106.024862,531 C107.024862,530 108.024862,513 94.0248624,506" id="Path-10" stroke="#000000" stroke-width="3" stroke-linecap="round"></path>
                <path d="M107.024862,529.5 C112.828966,530.041234 116.668168,529.746958 118.542468,528.617174 C119.967199,527.758379 122.024862,526 122.024862,524.961894 C122.024862,523.923789 119.024862,504 102.024862,504" id="Path-11" stroke="#2D2D2D" stroke-width="3" stroke-linecap="round"></path>
                <path d="M122.024862,524.242499 C126.691529,522.267903 129.358196,520.613938 130.024862,519.280605 C131.024862,517.280605 128.024862,495.280605 106.024862,498.280605" id="Path-12" stroke="#2D2D2D" stroke-width="3" stroke-linecap="round"></path>
                <path d="M35.9660389,478 C21.5990019,476.077721 11.8722398,473.194303 6.78575266,469.349746 C6.13636249,468.858912 5.19645789,468.075664 3.96603886,467 C1.2993722,479 4.2993722,487.666667 12.9660389,493 C25.9660389,501 34.9660389,493 39.9660389,489" id="Path-13" stroke="#2D2D2D" stroke-width="3" fill="#E6B520"></path>
                <path d="M41.0248624,489 C31.0248624,494 26.0248624,497 16.0248624,494 C6.02486239,491 4.52001243,482.44665 4.02486239,477 C3.69476237,473.3689 3.69476237,469.702233 4.02486239,466 C4.02603636,467.799601 6.07603636,469.799601 10.1748624,472 C16.3231014,475.300598 16.7070107,475.734478 24.515279,477 C29.7207912,477.843681 35.2239857,477.843681 41.0248624,477 L43,484 C48.3499083,484 47.6915291,485.666667 41.0248624,489 Z" id="Path-115" fill="#FFFFFF"></path>
                <path d="M0.0248623921,495 C4.69152906,501 12.3581957,504 23.0248624,504" id="Path-14" stroke="#000000" stroke-width="2" stroke-linecap="round"></path>
                <path d="M10.0248624,459 C12.6915291,463.666667 16.6915291,465.666667 22.0248624,465" id="Path-15" stroke="#000000" stroke-width="2" stroke-linecap="round"></path>
                <path d="M19.2234922,479 C21.2234922,481.666667 21.5568255,483 20.2234922,483 C18.2234922,483 15.2234922,482 16.2234922,484 C17.2234922,486 18.2234922,487 22.2234922,489" id="Path-16" stroke="#000000" stroke-linecap="round"></path>
                <path d="M52.0248624,491 C52.0248624,476.333333 55.0248624,467 61.0248624,463 C70.0248624,457 73.0248624,456 77.0248624,447 C79.6915291,441 82.0248624,437.666667 84.0248624,437" id="Path-17" stroke="#000000" stroke-width="2" stroke-linecap="round"></path>
                <path d="M85.0248624,421 L86.0248624,429" id="Path-18" stroke="#000000" stroke-width="2" stroke-linecap="round"></path>
                <path d="M88.0248624,439 C91.3581957,455.666667 96.0248624,467.333333 102.024862,474 C111.024862,484 113.024862,493 112.024862,497" id="Path-19" stroke="#2D2D2D" stroke-width="3" stroke-linecap="round"></path>
                <path d="M96.0248624,440 C98.0248624,441 101.024862,447 104.024862,449 C107.024862,451 118.024862,464 131.024862,466" id="Path-20" stroke="#000000" stroke-linecap="round"></path>
                <path d="M133.024862,464 C133.024862,464 137.024862,468 138.024862,468" id="Path-21" stroke="#2D2D2D" stroke-linecap="round"></path>
                <path d="M143.024862,462 C147.691529,468 150.358196,470.666667 151.024862,470 C152.024862,469 155.024862,465 155.024862,465 C155.024862,465 156.691529,467 160.024862,471 L160.024862,465 C174.691529,470.333333 184.358196,470.833333 189.024862,466.5 C193.691529,462.166667 195.358196,460.666667 194.024862,462 C196.024862,464 198.024862,465.5 200.024862,466.5 C207.48147,470.228304 216.447229,473.41446 221.808338,473.862636 C223.567634,474.009709 226.306475,474.055497 230.024862,474 C235.269318,472.162939 239.414628,469.407347 242.460793,465.733224 C243.234572,464.799933 244.422595,463.222191 246.024862,461 C234.691529,437 230.691529,420.666667 234.024862,412 C237.358196,403.333333 242.358196,393.666667 249.024862,383 L247.024862,376 C255.024862,369.333333 259.024862,365 259.024862,363 C259.024862,360 261.024862,322.389615 257.024862,319 C253.024862,315.610385 192.024862,268.000818 192.024862,258 C192.024862,251.332788 191.691529,247.999455 191.024862,248 C186.358196,244.104928 183.691529,239.964493 183.024862,235.578696 C182.024862,229 178.024862,228.723502 179.024862,222 C180.024862,215.276498 187.024862,205.107028 196.024862,197.053514 C205.024862,189 217.024862,186 224.024862,188 C229.901222,189.67896 241.415394,203.143416 256.792567,209.361174 C258.752784,210.153788 261.830216,211.033396 266.024862,212 L298.024862,184 C300.691529,158.146027 299.358196,141.682534 294.024862,134.60952 C286.024862,124 275.024862,120 265.024862,120" id="Path-22" stroke="#000000" stroke-width="2" stroke-linecap="round"></path>
                <path d="M279.024862,126 C269.691529,123.333333 262.024862,122 256.024862,122" id="Path-23" stroke="#000000"></path>
                <path d="M293.024862,134.679683 C270.358196,124.940003 247.024862,130.403496 223.024862,151.070162" id="Path-24" stroke="#000000" stroke-width="2" stroke-linecap="round"></path>
                <path d="M295.024862,130 L292.024862,125" id="Path-26" stroke="#000000" stroke-linecap="round"></path>
                <path d="M299.024862,130 C298.358196,126.666667 297.024862,124 295.024862,122" id="Path-32" stroke="#000000" stroke-linecap="round"></path>
                <path d="M303.024862,128 C304.024862,128 299.024862,120 298.024862,119" id="Path-35" stroke="#000000" stroke-linecap="round"></path>
                <path d="M309.024862,129 C307.024862,125 305.358196,122.333333 304.024862,121" id="Path-38" stroke="#000000"></path>
                <path d="M314.024862,130 C312.424862,127 311.091529,125 310.024862,124" id="Path-38-Copy" stroke="#000000"></path>
                <path d="M318.024862,131 C316.824862,129 315.824862,127.666667 315.024862,127" id="Path-38-Copy-2" stroke="#2D2D2D"></path>
                <path d="M129.024862,511 C141.024862,516.333333 156.024862,517.666667 174.024862,515 C201.024862,511 222.024862,512 224.024862,509" id="Path-39" stroke="#000000" stroke-width="3" stroke-linecap="round"></path>
                <path d="M201.024862,467 C218.494024,487.821749 227.043755,507.046047 226.674057,524.672893 C226.638865,526.350819 226.7558,528.793188 227.024862,532 C230.358196,533.333333 232.358196,534.333333 233.024862,535 C234.024862,536 238.024862,543 239.024862,546 C256.669679,547.269353 267.177621,546.972103 270.548691,545.10825 C271.261389,544.714201 272.08678,544.011451 273.024862,543 L272.024862,539 L276.024862,536 C271.908498,527.215991 267.564557,522.582802 262.993039,522.100431 C262.570014,522.055795 261.913955,522.022318 261.024862,522 C258.52087,512.578364 256.854203,504.911698 256.024862,499 C252.858961,476.432852 252.067655,454.136265 253.024862,446" id="Path-40" stroke="#000000" stroke-width="3"></path>
                <path d="M259.024862,546 C255.024862,532.666667 252.024862,526 250.024862,526 C248.024862,526 244.358196,527.166667 239.024862,529.5" id="Path-41" stroke="#2D2D2D" stroke-width="3" stroke-linecap="round"></path>
                <path d="M272.024862,539.805099 C267.511199,532.346081 264.511199,528.012748 263.024862,526.805099 C260.795357,524.993626 257.024862,526.805099 256.024862,526.805099" id="Path-42" stroke="#2D2D2D" stroke-width="3" stroke-linecap="round"></path>
                <path d="M178.024862,515 C193.358196,519 202.358196,520.333333 205.024862,519 C207.691529,517.666667 208.691529,515.333333 208.024862,512" id="Path-43" stroke="#000000" stroke-width="3" stroke-linecap="round"></path>
                <path d="M256.024862,497 C274.859476,483.193062 288.526143,471.526396 297.024862,462 C317.728204,438.793184 336.884959,406.783378 339.993125,397.170613 C340.776212,394.748726 341.453457,391.358522 342.024862,387 L344.024862,382 L348.024862,389 C351.263539,341.129538 349.197497,309.209959 341.826739,293.241263 C341.436104,292.394954 340.168811,290.647866 338.024862,288" id="Path-44" stroke="#000000" stroke-width="4"></path>
                <path d="M301.024862,459 C297.859261,479.333496 296.068064,492.484803 295.651272,498.453921 C295.363358,502.577302 296.098555,507.092662 297.856864,512 C305.302196,516 309.024862,518.333333 309.024862,519 C309.024862,520 311.024862,523 309.024862,528 C307.024862,533 304.807456,535.570804 295.651272,536 C286.495088,536.429196 277.024862,533 277.024862,529.5 C277.024862,526.37957 276.229998,519.682253 271.805622,517.557661 C271.26744,517.299225 269.879407,516.975757 270.024862,517 C270.170317,517.024243 273.024862,498 263.024862,492" id="Path-45" stroke="#000000" stroke-width="3"></path>
                <path d="M289.024862,535 C293.024862,529 293.358196,523.666667 290.024862,519" id="Path-46" stroke="#000000" stroke-width="3" stroke-linecap="round"></path>
                <path d="M304.024862,534 C304.691529,527.974596 304.691529,523.974596 304.024862,522 C303.024862,519.038106 300.024862,519 295.024862,517" id="Path-47" stroke="#000000" stroke-width="3" stroke-linecap="round"></path>
                <path d="M161.024862,378 C161.024862,393.292669 163.691529,407.292669 169.024862,420" id="Path-48" stroke="#000000" stroke-width="2" stroke-linecap="round"></path>
                <path d="M265.024862,252 C277.7849,271.684515 285.238668,287.400218 287.386166,299.14711 C288.207687,303.64086 289.024862,313 289.024862,313 C289.024862,313 293.43953,318.029828 303.024862,323 C305.391504,324.227148 309.724838,325.560481 316.024862,327 C326.024862,319 330.358196,312 329.024862,306 C327.024862,297 324.024862,280.533992 312.024862,262" id="Path-55" stroke="#2D2D2D" stroke-width="3" fill="#FFFFFF"></path>
                <path d="M162.024862,409 C162.691529,418 165.024862,424.833333 169.024862,429.5" id="Path-49" stroke="#000000" stroke-width="2" stroke-linecap="round"></path>
                <path d="M217.024862,282 L231.024862,289" id="Path-50" stroke="#2D2D2D" stroke-width="2" stroke-linecap="round"></path>
                <path d="M206.024862,269 L220.024862,276" id="Path-50-Copy" stroke="#2D2D2D" stroke-width="2" stroke-linecap="round"></path>
                <path d="M192.024862,256 L203.024862,265" id="Path-50-Copy-2" stroke="#2D2D2D" stroke-width="2" stroke-linecap="round"></path>
                <path d="M209.024862,219 C213.691529,215 220.691529,215 230.024862,219" id="Path-51" stroke="#2D2D2D" stroke-width="2" stroke-linecap="round"></path>
                <path d="M226.024862,209 L231.024862,212" id="Path-52" stroke="#2D2D2D" stroke-width="2" stroke-linecap="round"></path>
                <path d="M223.024862,217 C245.392212,238.405139 264.486486,252.719922 280.307683,259.94435 C283.45576,261.381855 288.361487,263.400405 295.024862,266 C329.892271,258.286897 351.684192,254.590583 360.400626,254.911057 C363.493068,255.024756 367.03448,255.72107 371.024862,257 C380.358196,249.104928 384.358196,241.964493 383.024862,235.578696" id="Path-53" stroke="#000000" stroke-width="3"></path>
                <path d="M239.024862,244 C258.26506,267.131931 269.843343,282.147535 273.759714,289.046814 C275.282114,291.728752 276.70383,294.713147 278.024862,298 C280.691529,300 283.358196,301 286.024862,301" id="Path-54" stroke="#2D2D2D" stroke-width="2" stroke-linecap="round"></path>
                <path d="M259.024862,248 C275.691529,276 284.358196,291.666667 285.024862,295" id="Path-56" stroke="#2D2D2D"></path>
                <path d="M320.774862,261 C320.108196,271 320.108196,276.666667 320.774862,278" id="Path-57" stroke="#2D2D2D"></path>
                <path d="M324.024862,260 L328.024862,294" id="Path-58" stroke="#2D2D2D" stroke-width="3" stroke-linecap="round"></path>
                <path d="M338.274862,257 C342.941529,262.333333 344.274862,268.666667 342.274862,276 C339.963855,284.473694 337.05943,287.606633 334.93298,291.341513 C334.29901,292.455012 333.274862,295 333.274862,295 C333.274862,295 332.274862,298 334.274862,302" id="Path-59" stroke="#2D2D2D" stroke-width="2"></path>
                <path d="M337.057718,289 C335.829921,292.995406 335.163255,295.662073 335.057718,297 C334.808561,300.158678 336.058257,301.51459 336.057718,303 C336.055101,310.22334 336.943982,313.737525 336.057718,315.547368 C334.057718,319.631579 340.843433,331.884211 339.057718,343.115789 C337.272004,354.347368 339.987629,354.347368 337.522674,361.494737 C335.057718,368.642105 341.057718,368.642105 341.057718,373.747368 C341.057718,378.852632 341.057718,382.936842 341.057718,386" id="Path-60" stroke="#000000"></path>
                <path d="M293.024862,272 C294.024862,272 308.024862,272 310.024862,275 C312.024862,278 295.024862,277 298.024862,280" id="Path-61" stroke="#2D2D2D" stroke-linecap="round"></path>
                <path d="M300.024862,281.25 C301.024862,281.25 305.024862,280.25 310.024862,282.25" id="Path-62" stroke="#2D2D2D" stroke-linecap="round"></path>
                <path d="M305.024862,287 C309.691529,293.666667 312.691529,302.333333 314.024862,313" id="Path-63" stroke="#2D2D2D" stroke-linecap="round"></path>
                <path d="M359.345394,254.046819 L363.345394,244.046819 L396.345394,231.046819 C399.970183,223.824643 402.303517,218.824643 403.345394,216.046819 C407.285694,205.541303 407.763636,200.045668 407.345394,199.046819 C406.469204,196.954296 385.782604,189.334483 383.126644,190.046819 C380.470683,190.759156 365.396038,194.551396 350.620813,204.529641 C348.601541,205.893328 346.27529,208.100373 346.345394,208.046819 C346.415498,207.993266 341.345394,225.046819 350.620813,232.046819 C356.804426,236.713486 361.712619,240.380153 365.345394,243.046819" id="Path-64" stroke="#2D2D2D" stroke-width="3"></path>
                <path d="M364.024862,217 L358.024862,216 L349.024862,225 C351.691529,229.666667 353.024862,232 353.024862,232 C353.024862,232 356.691529,227 364.024862,217 Z" id="Path-65" stroke="#2D2D2D" fill="#383838"></path>
                <path d="M380.024862,233.316996 C386.691529,225.983662 390.024862,221.650329 390.024862,220.316996 C390.024862,218.316996 394.024862,226.316996 391.024862,229.316996 C389.024862,231.316996 385.358196,232.650329 380.024862,233.316996 Z" id="Path-66" stroke="#2D2D2D" fill="#383838"></path>
                <path d="M346.024862,212.062216 L349.024862,217.062216 C359.024862,205.000533 367.024862,199.333867 373.024862,200.062216 C382.024862,201.154739 404.024862,205.096092 405.024862,210.029436" id="Path-67" stroke="#000000"></path>
                <path d="M357.515279,197.053514 L344.515279,187 C341.636379,170.612407 340.141569,160.148715 340.030848,155.608923 C339.961649,152.771588 340.515279,149 340.515279,149 C340.515279,149 341.181946,147 342.515279,143" id="Path-68" stroke="#000000" stroke-width="2" stroke-linecap="round"></path>
                <path d="M168.024862,204.465557 L186.024862,170.529513 C163.358196,167.862846 152.024862,165.862846 152.024862,164.529513 C152.024862,162.529513 138.024862,139.470487 133.024862,136" id="Path-69" stroke="#000000" stroke-width="3" stroke-linecap="round"></path>
                <path d="M127.416167,128 C114.082833,98.3960199 108.416167,72.3960199 110.416167,50" id="Path-70" stroke="#000000" stroke-linecap="round"></path>
                <path d="M115.024862,40.7362736 C117.024862,38.7362736 133.024862,35.7362736 145.024862,40.7362736" id="Path-71" stroke="#000000" fill="#FFFFFF" stroke-linecap="round"></path>
                <path d="M146.024862,39 C163.358196,52.3333333 172.024862,59.6666667 172.024862,61 C172.024862,62.3333333 172.691529,61.6666667 174.024862,59 C186.024862,74.3333333 192.691529,84 194.024862,88" id="Path-72" stroke="#000000" stroke-linecap="round"></path>
                <path d="M226.024862,110.542851 C256.725976,105.179159 279.510272,104.565104 294.377749,108.700686 C298.274872,109.784722 305.704538,112.453084 306.024862,112.577351 C306.238412,112.660196 319.571745,120.982029 346.024862,137.542851" id="Path-75" stroke="#000000" stroke-width="3" stroke-linecap="round"></path>
                <path d="M384.024862,35 C387.358196,47.860114 388.691529,59.1934473 388.024862,69" id="Path-76" stroke="#000000" stroke-linecap="round"></path>
                <path d="M385.024862,79 C386.358196,96.5936531 382.358196,110.26032 373.024862,120" id="Path-77" stroke="#000000" stroke-linecap="round"></path>
                <path d="M379.024862,33 C364.358196,47 353.358196,62.3333333 346.024862,79" id="Path-78" stroke="#000000" stroke-linecap="round"></path>
                <path d="M342.024862,83 C334.691529,99 330.691529,114 330.024862,128" id="Path-79" stroke="#000000"></path>
                <polyline id="Path-80" stroke="#000000" stroke-width="3" stroke-linecap="round" points="372.024862 48 360.44248 68.0227494 337.024862 108.505362 337.024862 131.5 338.024862 131.5 339.024862 132.5 339.024862 106.5"></polyline>
                <path d="M371.024862,61 L338.849862,110" id="Path-81" stroke="#000000" stroke-width="2" stroke-linecap="round"></path>
                <polyline id="Path-82" stroke="#000000" stroke-width="2" stroke-linecap="round" points="370.024862 138 366.024862 148 342.024862 162"></polyline>
                <path d="M355.024862,198.230769 C351.691529,196.689449 346.691529,195.470786 340.024862,194.574779 C330.024862,193.230769 319.024862,176.230769 319.024862,160.230769 C319.024862,149.564103 319.024862,142.230769 319.024862,138.230769 C326.358196,135.564103 335.358196,137.230769 346.024862,143.230769" id="Path-83" stroke="#000000" stroke-linecap="round"></path>
                <path d="M319.024862,138.419964 C327.024862,135.232657 333.691529,133.769164 339.024862,134.029484" id="Path-84" stroke="#000000"></path>
                <path d="M319.024862,139 C319.024862,134.333333 323.024862,131.333333 331.024862,130" id="Path-85" stroke="#000000"></path>
                <path d="M343.024862,136 C344.623857,137.952521 345.623857,139.424401 346.024862,140.415639 C346.425868,141.406877 346.425868,142.406877 346.024862,143.415639" id="Path-86" stroke="#2D2D2D"></path>
                <path d="M336.866639,182.012128 C337.486225,181.909687 338.134946,182.467488 338.315599,183.258012 C338.496252,184.048537 338.140427,184.772429 337.520841,184.87487 C336.901255,184.977312 336.252533,184.41951 336.07188,183.628986 C335.891227,182.838462 336.247053,182.11457 336.866639,182.012128 Z" id="Oval-Copy-3" fill="#FFFFFF"></path>
                <path d="M268.226718,185.01633 C269.111338,184.878404 270.037558,185.629417 270.295487,186.693763 C270.553416,187.75811 270.045383,188.732744 269.160762,188.870669 C268.276141,189.008594 267.349922,188.257582 267.091993,187.193235 C266.834063,186.128889 267.342097,185.154255 268.226718,185.01633 Z" id="Oval-Copy-4" fill="#FFFFFF" transform="translate(268.693740, 186.943499) scale(-1, 1) translate(-268.693740, -186.943499) "></path>
                <path d="M22.0248624,496 C21.3581957,496 16.6915291,493.333333 8.02486239,488" id="Path-88"></path>
                <path d="M51.0248624,497 L53.0248624,481" id="Path-90" fill="#D8D8D8"></path>
                <path d="M112.024862,73.5940299 C110.691529,64.2606965 111.358196,55.7606965 114.024862,48.0940299 C116.691529,40.4273632 124.358196,37.2606965 137.024862,38.5940299 L103.024862,19.5940299 L97.0248624,16 L95.0248624,21.5940299 L101.024862,41.5940299 L112.024862,75.5940299 L112.024862,73.5940299 Z" id="Path-100" fill="#FFFFFF"></path>
                <path d="M119.041391,114.555556 C124.374725,111.888889 128.374725,111.222222 131.041391,112.555556 C135.041391,114.555556 125.041391,97.5555556 128.041391,95.5555556 C131.041391,93.5555556 130.041391,82.5555556 135.041391,83.5555556 C140.041391,84.5555556 135.041391,75.5555556 135.041391,72.5555556 C135.041391,69.5555556 135.041391,65.5555556 140.041391,62.5555556 C145.041391,59.5555556 145.041391,56.5555556 145.041391,51.5555556 C145.041391,46.5555556 136.041391,40.5555556 132.041391,40.5555556 C128.041391,40.5555556 120.041391,37.0555556 114.041391,40.5555556 C108.041391,44.0555556 104.041391,50.5555556 106.041391,56.5555556 C108.041391,62.5555556 104.041391,75.5555556 109.041391,84.5555556 C114.041391,93.5555556 114.041391,96.5210555 114.041391,102.555556 C114.041391,106.578556 115.708058,110.578556 119.041391,114.555556 Z" id="Path-109" fill="#FFFFFF"></path>
                <path d="M414.040434,404 C401.040434,429.93073 403.040434,427 414.040434,444 C425.040434,461 424.024862,472 409.532648,472" id="Path-103" stroke="#000000" stroke-width="3" stroke-linecap="round"></path>
                <path d="M368.324402,548 C355.674632,548 353.144678,525 368.324402,525 C378.444217,525 382.449978,529.259259 380.341683,537.777778 L343.024862,548" id="Path-104" stroke="#000000" stroke-width="3" stroke-linecap="round"></path>
                <path d="M292.729815,342.882353 C310.729815,352.882353 312.729815,352.882353 322.729815,342.882353 C329.396481,336.215686 333.729815,335.215686 335.729815,339.882353 C333.729815,348.54902 333.729815,353.54902 335.729815,354.882353 C338.729815,356.882353 335.729815,357.882353 335.729815,364.882353 C335.729815,371.882353 334.729815,386.882353 326.729815,390.882353 C318.729815,394.882353 322.729815,406.882353 303.729815,403.382353 C284.729815,399.882353 271.729815,394.882353 274.729815,379.882353 C277.729815,364.882353 265.729815,345.882353 271.729815,342.882353 C277.729815,339.882353 274.729815,332.882353 292.729815,342.882353 Z" id="Path-105" fill="#FFFFFF"></path>
                <path d="M299.278715,345.951243 C311.371643,352.668356 312.715301,352.668356 319.433594,345.951243 C323.912457,341.473168 326.823717,340.801456 328.167376,343.936109 C326.823717,349.757607 326.823717,353.116164 328.167376,354.011779 C330.182863,355.355202 328.167376,356.026913 328.167376,360.728892 C328.167376,365.430872 327.495546,375.506542 322.120912,378.193387 C316.746277,380.880232 319.433594,388.940768 306.668837,386.589779 C293.90408,384.238789 285.170299,380.880232 287.185787,370.804562 C289.201275,360.728892 281.139323,347.966377 285.170299,345.951243 C289.201275,343.936109 287.185787,339.23413 299.278715,345.951243 Z" id="Path-105" fill="#FFFFFF"></path>
                <path d="M146.024862,392.709297 C144.024862,396.04263 144.024862,400.209297 146.024862,405.209297 C149.024862,412.709297 152.024862,411.709297 149.024862,416.709297 C146.024862,421.709297 142.024862,426.709297 136.024862,421.709297 C130.024862,416.709297 124.024862,411.709297 116.024862,416.709297 C108.024862,421.709297 99.0248624,417.709297 99.0248624,421.709297 C99.0248624,425.709297 87.0248624,427.709297 87.0248624,426.709297 C87.0248624,425.709297 87.0248624,417.964131 87.0248624,409.836714 C87.0248624,401.709297 94.0248624,397.709297 99.0248624,397.709297 C104.024862,397.709297 119.024862,402.709297 124.024862,397.709297 C129.024862,392.709297 143.024862,378.709297 146.024862,382.709297 C148.024862,385.375964 148.024862,388.709297 146.024862,392.709297 Z" id="Path-106" fill="#FFFFFF"></path>
                <path d="M220.302789,240.170332 C215.302789,235.169514 207.302789,231.942408 203.302789,226.170332 C199.302789,220.398256 195.302789,209.961598 199.302789,205.170332 C203.302789,200.379066 208.302789,189.934033 214.302789,190.350396 C220.302789,190.766759 225.302789,185.53046 235.302789,190.350396 C245.302789,195.170332 249.302789,203.170332 255.302789,206.170332 C261.302789,209.170332 279.302789,212.170332 282.302789,209.170332 C285.302789,206.170332 277.302789,218.170332 266.302789,217.170332 C255.302789,216.170332 245.281535,206.170332 240.292162,206.170332 C235.302789,206.170332 218.302789,195.723327 214.302789,202.446829 C210.302789,209.170332 214.302789,214.626179 214.302789,220.398256 C214.302789,226.170332 225.302789,245.17115 220.302789,240.170332 Z" id="Path-107" fill="#FFFFFF"></path>
                <path d="M313.312749,143 C307.789007,145 305.693804,149.333333 307.027137,156 C309.027137,166 311.027137,177 307.027137,177 C303.027137,177 303.027137,188.91182 297.027137,194.092523 C291.027137,199.273227 294.027137,200.130839 289.027137,204 C284.027137,207.869161 280.027137,218.096927 287.027137,221.548464 C294.027137,225 297.027137,230.929468 307.027137,228.578696 C317.027137,226.227924 324.027137,222 329.027137,222 C334.027137,222 330.027137,216.248497 334.027137,211 C338.027137,205.751503 340.027137,198.700822 343.027137,197.936044 C346.027137,197.171266 328.027137,196.960237 324.027137,194.092523 C320.027137,191.22481 316.027137,184 316.027137,177 C316.027137,172.333333 315.122341,161 313.312749,143 Z" id="Path-108" fill="#FFFFFF"></path>
                <path d="M131.024862,61 C143.691529,63.6966385 161.358196,71.7442576 184.024862,85.1428571 C218.024862,105.240756 203.024862,130.642857 203.024862,133.428571 C203.024862,135.285714 200.024862,141.47619 194.024862,152" id="Path-74" stroke="#000000" stroke-width="4" stroke-linecap="round"></path>
                <path d="M132.024862,55 C151.358196,62.3333333 165.691529,71 175.024862,81" id="Path-73" stroke="#2D2D2D" stroke-width="2" stroke-linecap="round"></path>
                <path d="M371.024862,45.363961 C375.024862,46.6972944 376.358196,49.363961 375.024862,53.363961 C373.024862,59.363961 371.024862,62.363961 375.024862,62.363961 C379.024862,62.363961 379.024862,59.363961 383.024862,59.363961 C387.024862,59.363961 383.024862,43.863961 383.024862,39.363961 C383.024862,34.863961 380.80264,30.363961 377.913751,34.863961 C375.987825,37.863961 373.691529,41.363961 371.024862,45.363961 Z" id="Path-110" fill="#FFFFFF"></path>
                <path d="M315.80264,187 C310.469307,189.741974 307.80264,192.068866 307.80264,193.980675 C307.80264,196.848388 303.80264,203.755865 307.80264,203.755865 C311.80264,203.755865 311.80264,198.43293 319.80264,202.029091 C327.80264,205.625253 335.80264,203.439959 335.80264,202.448323 C335.80264,201.456687 336.691529,201.02347 328.80264,198.935929 C323.543381,197.544235 319.210048,193.565592 315.80264,187 Z" id="Path-111" fill="#FFFFFF"></path>
                <path d="M220.024862,115 C232.024862,112.333333 238.024862,111 238.024862,111 C238.024862,111 247.691529,110 267.024862,108 C277.662409,108.54365 285.995743,109.222848 292.024862,110.037594 C298.053982,110.85234 302.720649,112.506475 306.024862,115 C298.691529,113.666667 294.024862,113.666667 292.024862,115 C289.024862,117 288.024862,116 286.024862,115 C284.024862,114 273.024862,111 270.024862,112 C267.024862,113 263.024862,114 258.024862,114 C253.024862,114 240.024862,111 238.024862,113" id="Path-114" fill="#FFFFFF"></path>
            </g>
        </g>
    </g>
</svg>