<?xml version="1.0" encoding="UTF-8"?>
<svg width="341px" height="417px" viewBox="0 0 341 417" version="1.1" xmlns="http://www.w3.org/2000/svg" xmlns:xlink="http://www.w3.org/1999/xlink">
    <!-- Generator: sketchtool 52.4 (67378) - http://www.bohemiancoding.com/sketch -->
    <title>F1D191AC-2419-4F70-A21D-9948C0A7398C</title>
    <desc>Created with sketchtool.</desc>
    <g id="Page-1" stroke="none" stroke-width="1" fill="none" fill-rule="evenodd">
        <g id="404" transform="translate(-1099.000000, -702.000000)">
            <g id="Group-2" transform="translate(1101.000000, 637.000000)">
                <path d="M402,83 C382,-4.37079359 368.333333,-22.6214052 361,28.2481652 C350,104.552521 192.721438,127.71507 169.494807,163.193968 C146.268176,198.672865 149.979288,273.709829 189.792362,290 C229.605435,306.290171 248.792362,270.829936 240.792362,245.736115 C232.792362,220.642294 179.288405,160.958414 118.494807,171.193968 C57.7012098,181.429521 14.4948073,233.379014 2.49480727,303.286491 C-9.50519273,373.193968 35.6795006,412.222866 40,420 C44.3204994,427.777134 77.4707831,446.609423 79,441 C80.5292169,435.390577 74.375,424 67,424 C59.625,424 51.4948073,440.949832 51.4948073,448.193968" id="Path-37" stroke="#000000" stroke-width="4" stroke-linecap="round"></path>
                <path d="M64,463.843574 C64,453.98884 58.1797017,446 51,446 C43.8202983,446 38,453.98884 38,463.843574 C38,469.306523 50.8176207,471.954289 51,471.954289 C57.8095238,471.954289 64,473.698307 64,463.843574 Z" id="Oval" fill="#000000"></path>
                <path d="M55,468 L53,480" id="Line" stroke="#000000" stroke-width="3" stroke-linecap="round"></path>
                <path d="M45,466 L43,478" id="Line-Copy" stroke="#000000" stroke-width="3" stroke-linecap="round"></path>
            </g>
        </g>
    </g>
</svg>