<?xml version="1.0" encoding="UTF-8"?>
<svg width="337px" height="849px" viewBox="0 0 337 849" version="1.1" xmlns="http://www.w3.org/2000/svg" xmlns:xlink="http://www.w3.org/1999/xlink">
    <!-- Generator: sketchtool 52.4 (67378) - http://www.bohemiancoding.com/sketch -->
    <title>62E03C33-7F2D-4A8B-942D-110C3DAE8231</title>
    <desc>Created with sketchtool.</desc>
    <g id="Page-1" stroke="none" stroke-width="1" fill="none" fill-rule="evenodd" stroke-linecap="round">
        <g id="404" transform="translate(0.000000, -509.000000)" stroke="#000000" stroke-width="4">
            <path d="M-507.642751,932.707912 C-563.644577,866.690084 -569.978117,806.00703 -526.64337,750.65875 C-461.641251,667.63633 -298.635934,935.708723 -207.632966,950.712774 C-116.629998,965.716826 -103.629574,918.70413 -116.629998,879.693596 C-129.630422,840.683061 -189.632379,839.682791 -215.633227,849.685492 C-241.634075,859.688193 -307.292894,918.70413 -318.636587,991.723849 C-326.199048,1040.40366 -316.86541,1095.41852 -290.635673,1156.76842 L-36.6648667,1355.82217 C67.4039965,1358.48956 130.418544,1331.14884 152.378775,1273.80002 C172.751834,1220.59608 425.950857,1000.72629 300.052749,610.620932 C293.513986,590.360052 301.180902,557.153075 323.053499,511" id="Path-33-Copy"></path>
        </g>
    </g>
</svg>