<?xml version="1.0" encoding="UTF-8"?>
<svg width="11px" height="6px" viewBox="0 0 11 6" version="1.1" xmlns="http://www.w3.org/2000/svg" xmlns:xlink="http://www.w3.org/1999/xlink">
    <!-- Generator: sketchtool 52.4 (67378) - http://www.bohemiancoding.com/sketch -->
    <title>9E98A6A7-C6BF-4F3D-9704-7389456BC67A</title>
    <desc>Created with sketchtool.</desc>
    <g id="Page-1" stroke="none" stroke-width="1" fill="none" fill-rule="evenodd">
        <g id="Главная-моб" transform="translate(-190.000000, -857.000000)" fill="#E6B51F" stroke="#F0B400">
            <g id="Group-3" transform="translate(110.000000, 845.000000)">
                <g id="Group-11-Copy" transform="translate(10.000000, 6.000000)">
                    <g id="Group-10">
                        <g id="left-arrow-3" transform="translate(75.500000, 9.000000) scale(-1, 1) rotate(270.000000) translate(-75.500000, -9.000000) translate(72.500000, 3.500000)">
                            <path d="M4.93729904,10.3965517 C5.00160772,10.4655172 5.08199357,10.5 5.17041801,10.5 C5.25884244,10.5 5.3392283,10.4655172 5.40353698,10.3965517 C5.53215434,10.2586207 5.53215434,10.0344828 5.40353698,9.89655172 L1.30385852,5.5 L5.40353698,1.10344828 C5.53215434,0.965517241 5.53215434,0.74137931 5.40353698,0.603448276 C5.27491961,0.465517241 5.0659164,0.465517241 4.93729904,0.603448276 L0.596463023,5.25 C0.467845659,5.38793103 0.467845659,5.61206897 0.596463023,5.75 L4.93729904,10.3965517 Z" id="Path"></path>
                        </g>
                    </g>
                </g>
            </g>
        </g>
    </g>
</svg>