<?xml version="1.0" encoding="UTF-8"?>
<svg width="21px" height="22px" viewBox="0 0 21 22" version="1.1" xmlns="http://www.w3.org/2000/svg" xmlns:xlink="http://www.w3.org/1999/xlink">
    <!-- Generator: sketchtool 52.4 (67378) - http://www.bohemiancoding.com/sketch -->
    <title>7C855B31-79FB-4F58-BA1B-3146E6861BBA</title>
    <desc>Created with sketchtool.</desc>
    <g id="Page-1" stroke="none" stroke-width="1" fill="none" fill-rule="evenodd">
        <g id="-g-1-Где-купить-список-комп" transform="translate(-1330.000000, -494.000000)" fill="#000000">
            <g id="Group-21" transform="translate(1330.000000, 494.000000)">
                <g id="Group-4">
                    <path d="M19.5797101,0 L1.38647343,0 C0.608695652,0 0,0.658536585 0,1.5 C0,2.34146341 0.608695652,3 1.38647343,3 L19.6135266,3 C20.3913043,3 21,2.34146341 21,1.5 C20.9661836,0.658536585 20.3574879,0 19.5797101,0 Z" id="Path"></path>
                    <path d="M19.5797101,19 L1.38647343,19 C0.608695652,19 0,19.6585366 0,20.5 C0,21.3414634 0.608695652,22 1.38647343,22 L19.6135266,22 C20.3913043,22 21,21.3414634 21,20.5 C20.9661836,19.6585366 20.3574879,19 19.5797101,19 Z" id="Path"></path>
                    <path d="M19.5797101,10 L1.38647343,10 C0.608695652,10 0,10.6585366 0,11.5 C0,12.3414634 0.608695652,13 1.38647343,13 L19.6135266,13 C20.3913043,13 21,12.3414634 21,11.5 C20.9661836,10.6585366 20.3574879,10 19.5797101,10 Z" id="Path"></path>
                </g>
            </g>
        </g>
    </g>
</svg>