<?xml version="1.0" encoding="UTF-8"?>
<svg width="24px" height="24px" viewBox="0 0 24 24" version="1.1" xmlns="http://www.w3.org/2000/svg" xmlns:xlink="http://www.w3.org/1999/xlink">
    <!-- Generator: sketchtool 52.4 (67378) - http://www.bohemiancoding.com/sketch -->
    <title>0108DC97-6814-4A1E-8C2A-94130D8C45A7</title>
    <desc>Created with sketchtool.</desc>
    <g id="Page-1" stroke="none" stroke-width="1" fill="none" fill-rule="evenodd">
        <g id="-g-1-Где-купить-список-комп" transform="translate(-102.000000, -287.000000)" fill="#E6B51F">
            <path d="M121.990474,306.513705 C121.934977,309.83894 120.150071,311.041844 118.254171,310.930853 C116.358271,310.819862 115.039841,309.946931 113.694412,309.946931 L113.638915,309.978429 C112.288986,309.978429 110.975056,310.878357 109.079156,310.992348 C107.183256,311.106339 105.39685,309.96043 105.342853,306.635195 C105.452347,303.582939 107.796723,303.359457 109.793118,299.752244 C111.551025,296.576997 113.638915,296.834977 113.638915,296.834977 L113.700412,296.834977 C113.700412,296.834977 115.800301,296.591996 117.546209,299.752244 C119.527604,303.363956 121.88098,303.461448 121.990474,306.513705 Z M110.253594,295.464086 C111.933505,295.338096 113.149941,293.341755 112.97145,291.006441 C112.79296,288.671128 111.287039,286.88027 109.607128,287.00626 C107.927217,287.13225 106.712281,289.128591 106.890771,291.463905 C107.069262,293.799219 108.575182,295.591576 110.250594,295.464086 L110.253594,295.464086 Z M116.617758,295.504583 C118.258671,295.954547 120.097574,294.454667 120.724541,292.176348 C121.351508,289.89803 120.529551,287.676707 118.888638,287.240242 C117.247724,286.803777 115.408821,288.290158 114.781855,290.568476 C114.154888,292.846795 114.976844,295.062118 116.617758,295.504583 Z M124.219356,293.677728 C122.789932,293.290759 121.189516,294.589656 120.643545,296.576997 C120.097574,298.564339 120.813036,300.488685 122.240961,300.875655 C123.668885,301.262624 125.270801,299.963727 125.816772,297.976386 C126.362743,295.989044 125.647281,294.064698 124.219356,293.677728 Z M107.357247,296.576997 C106.811275,294.589656 105.21086,293.290759 103.781435,293.677728 C102.352011,294.064698 101.636549,295.989044 102.18402,297.976386 C102.731491,299.963727 104.330407,301.261124 105.759831,300.875655 C107.189256,300.490185 107.903218,298.564339 107.357247,296.576997 Z" id="Forma_1_copy_2"></path>
        </g>
    </g>
</svg>