<svg xmlns="http://www.w3.org/2000/svg" viewBox="0 0 64 46" width="64" height="46">
  <path fill="white" transform="translate(0, 4)" class="cls-1" d="M.54 16.07C-.98 21.29 1.82 27.86 3.67 32.2a22.364 22.364 0 0 1 1.44 3.88c.55 3.47 1.79 5.23 3.67 5.23h3.69a.9.9 0 0 0 .72-.37.916.916 0 0 0 .14-.8 5.176 5.176 0 0 0-1.67-2.37 45.28 45.28 0 0 0 4.46-6.3c3.25 2.26 7.34 2.84 10.63 2.84a29.693 29.693 0 0 0 5.49-.51c.07.21.15.42.23.63a7.848 7.848 0 0 0 4.68 4.14 4.341 4.341 0 0 0 3.82 2.24h2.82a.847.847 0 0 0 .64-.3.833.833 0 0 0 .17-.68 4.715 4.715 0 0 0-1.63-2.61 19.646 19.646 0 0 0 3.64-5.29 8.165 8.165 0 0 0 .66-1.95c.01-.01.02-.01.03-.02.39-.28 9.16-6.77 9.62-12.82a7.869 7.869 0 0 0 5.3-8.08.84.84 0 0 0-.66-.75l-4.31-.9a7.373 7.373 0 0 0-2.83-5.62c-2.1-1.57-4.68-3.01-8.69-.29a3.072 3.072 0 0 0-1.97.34 2.237 2.237 0 0 0-.66.61.935.935 0 0 0-.44.04 11.533 11.533 0 0 0-2.63 1.37c-.58-.05-1.64.18-3.9 1.98C33.3 8.1 23.79 7.42 18.1 7.01a26.125 26.125 0 0 0-5.42.18c-2.54-1.87-7.48-2.6-10.43.12S-.2 14.61.71 15.55c-.06.17-.12.34-.17.52z"></path>

  <path class="cls-1" transform="translate(0)" d="M53.94 9.78a.9.9 0 0 0 .02.91l.72 1.18a1.4 1.4 0 1 0 1.12-2.55h-1.08a.888.888 0 0 0-.78.46zM2.29 18.76C.77 23.98 3.57 30.55 5.42 34.89a22.364 22.364 0 0 1 1.44 3.88C7.41 42.24 8.65 44 10.53 44h3.69a.9.9 0 0 0 .72-.37.916.916 0 0 0 .14-.8 5.176 5.176 0 0 0-1.67-2.37 45.28 45.28 0 0 0 4.46-6.3C21.12 36.42 25.21 37 28.5 37a29.693 29.693 0 0 0 5.49-.51c.07.21.15.42.23.63a7.848 7.848 0 0 0 4.68 4.14 4.341 4.341 0 0 0 3.82 2.24h2.82a.847.847 0 0 0 .64-.3.833.833 0 0 0 .17-.68 4.715 4.715 0 0 0-1.63-2.61 19.646 19.646 0 0 0 3.64-5.29 8.165 8.165 0 0 0 .66-1.95c.01-.01.02-.01.03-.02.39-.28 9.16-6.77 9.62-12.82a7.88 7.88 0 0 0 5.3-8.08.84.84 0 0 0-.66-.75L59 10.1a7.373 7.373 0 0 0-2.83-5.62c-2.1-1.57-4.68-3.01-8.69-.29a3.072 3.072 0 0 0-1.97.34 2.112 2.112 0 0 0-.66.61.935.935 0 0 0-.44.04 11.533 11.533 0 0 0-2.63 1.37c-.59-.05-1.64.18-3.9 1.98-2.83 2.26-12.34 1.58-18.03 1.17-6.02-.43-13.55 1.19-16.65 6.85A8.339 8.339 0 0 1 2.05 9.1a.84.84 0 0 0-.6-1.02.83.83 0 0 0-1.01.6c-1.43 5.43 1.11 8.62 2.02 9.56-.06.17-.12.34-.17.52zM48.6 6.43a.767.767 0 0 0 .31.16 9.952 9.952 0 0 0-1.79 2.99 6.769 6.769 0 0 1-.97 1.78 2.545 2.545 0 0 1-.57-1.67c-.17-1.78.33-3.47.74-3.7.99-.55 2.27.43 2.28.44zM4.02 19.26c1.75-6.01 9.15-8.23 15.7-7.76 8.05.57 16.16.93 19.28-1.56a7.22 7.22 0 0 1 2.57-1.58 1.191 1.191 0 0 0 .32.1.9.9 0 0 0 .73-.26 5.9 5.9 0 0 1 1.41-.9 9.8 9.8 0 0 0-.1 2.55c.16 1.69.78 2.8 1.73 3.11a1.784 1.784 0 0 0 .53.09c1.2 0 1.86-1.47 2.45-2.78.53-1.18 1.19-2.64 2.05-2.88a.833.833 0 1 0-.43-1.61c-.11.03-.21.06-.32.1a.828.828 0 0 0-.3-.75c-.02-.01-.1-.08-.22-.16 2.5-1.3 4.05-.42 5.76.85a5.929 5.929 0 0 1 2.16 4.88.829.829 0 0 0 .66.89l3.19.67a2.7 2.7 0 0 0 .96 1.75c-.85 3.32-4.35 4.36-4.52 4.4a.846.846 0 0 0-.61.83c.1 4.2-5.4 9.19-7.83 11.18a10.9 10.9 0 0 0-1.35-4.65.849.849 0 0 0-1.15-.28.84.84 0 0 0-.27 1.15c.03.05 2.17 3.7.44 7.25a16.152 16.152 0 0 1-3.96 5.43.828.828 0 0 0 .1 1.39 4.439 4.439 0 0 1 1.26 1.13h-1.54a2.7 2.7 0 0 1-2.43-1.51l-.06-.13a.844.844 0 0 0-.53-.43c-.03-.01-2.97-.85-3.94-3.27a8.865 8.865 0 0 1 .31-7.54.832.832 0 1 0-1.43-.85 10.252 10.252 0 0 0-1.05 6.76c-2 .36-9.84 1.47-14.92-2.19a17.827 17.827 0 0 0 1.72-4.9.891.891 0 0 0-.73-1.04.91.91 0 0 0-1.04.74c-.95 5.64-7.23 12.56-7.29 12.63a.92.92 0 0 0-.21.84.9.9 0 0 0 .59.62 2.361 2.361 0 0 1 .94.63h-2.12c-.83 0-1.52-1.36-1.89-3.72a22.641 22.641 0 0 0-1.57-4.29c-1.75-4.11-4.4-10.33-3.05-14.93zm3 8.14a.821.821 0 0 1 1.05.53c.11.32.19.5.19.51a.825.825 0 0 1-.42 1.1.8.8 0 0 1-.34.07.839.839 0 0 1-.76-.49c-.01-.03-.11-.26-.24-.66a.83.83 0 0 1 .52-1.06zm6.54-13.58a.84.84 0 0 1 .93.73.831.831 0 0 1-.73.92c-.05.01-5.23.68-6.11 4.86a14.731 14.731 0 0 0-.16 5.05.828.828 0 0 1-.71.94.448.448 0 0 1-.11.01.839.839 0 0 1-.83-.72 16.288 16.288 0 0 1 .19-5.62c1.11-5.34 7.27-6.14 7.53-6.17zM9.59 1.54c-5.52 3.97-4.74 10.61-4.71 10.9a.835.835 0 0 1-.71.94c-.04 0-.08.01-.11.01a.848.848 0 0 1-.83-.73c-.04-.32-.96-7.91 5.39-12.48a.832.832 0 0 1 1.16.19.843.843 0 0 1-.19 1.17zm6.72.69C9.79 4.21 9.49 8.31 9.48 8.49a.855.855 0 0 1-.83.83h-.03a.843.843 0 0 1-.8-.89c.01-.22.29-5.46 8-7.81a.838.838 0 0 1 1.04.56.852.852 0 0 1-.55 1.05zm4.39 2.73c-4.63.82-6.31 3.16-6.35 3.21a.825.825 0 0 1-.69.37.789.789 0 0 1-.46-.15.833.833 0 0 1-.23-1.15c.08-.12 2.04-2.96 7.44-3.92a.833.833 0 0 1 .29 1.64zm2.34 3.13a5.5 5.5 0 0 0-5.07 1.1.833.833 0 0 1-1.17 0 .836.836 0 0 1-.01-1.18 7.169 7.169 0 0 1 6.63-1.54.832.832 0 0 1 .62 1 .823.823 0 0 1-1 .62zM44.21 22.5l2.56-1.99a.831.831 0 0 1 1.01 1.32l-2.55 1.99a.857.857 0 0 1-.51.18.839.839 0 0 1-.51-1.5zm-6.19-2.21a32.374 32.374 0 0 1 6.46-2.23.832.832 0 0 1 .38 1.62 32.6 32.6 0 0 0-6.07 2.09.809.809 0 0 1-.39.1.836.836 0 0 1-.38-1.58zm-2.76-3.46c2.08-.37 6.42-1.81 6.47-1.82a.829.829 0 0 1 1.05.53.845.845 0 0 1-.53 1.05 67.846 67.846 0 0 1-6.69 1.88.757.757 0 0 1-.15.01.832.832 0 0 1-.15-1.65z"></path>
</svg>
