<svg xmlns="http://www.w3.org/2000/svg" viewBox="0 0 86 67" width="86" height="67">
  <path fill="white" transform="translate(0, 2)" class="cls-1" d="M34.3 39.18a35.2 35.2 0 0 0 13.46 2.58c.15 0 .29 0 .42-.01.03.11.07.22.1.33 1.27 4.03 1.19 12.09 1.12 13.51-.01.15-.02.33-.03.52-.13 2.01-.38 5.74 1.92 7.45a7.058 7.058 0 0 0 4.01 1.29 3.8 3.8 0 0 0 1.95-.45 1.772 1.772 0 0 0 .92-1.85 5.742 5.742 0 0 0-2.24-3.15c-.21-2.17-.81-12.21 5.71-18.27 6.99-6.49 6.92-14.84 6.89-18.86-.01-.63-.01-1.17.02-1.51a5.83 5.83 0 0 1 1.4-3.21 23.917 23.917 0 0 0 4.4.4c2.69 0 5.3-.43 6.73-1.39 2.92-1.95 2.95-6.67 2.95-6.87a1.063 1.063 0 0 0-.97-1.05c-1.03-.1-3.99-.54-5.36-1.42a3.12 3.12 0 0 1-1.02-1.67c-.42-1.11-.98-2.62-3.03-2.97a55.186 55.186 0 0 0-6.44-.51 4.68 4.68 0 0 0-3.5-1.81 6.912 6.912 0 0 1-1.13-.12 3.291 3.291 0 0 0-2.73.33 2.56 2.56 0 0 0-.88 2.01l-.03.36c-.03.54-.06 1.05-.07 1.51a45.364 45.364 0 0 0-6.49 8.84 13.4 13.4 0 0 0-5.24 2.36c-2.95 2.09-8.86 4.3-11.11 4.43-.39.02-.98.03-1.71.04-3.97.05-11.06.15-14.92 2.39-.91-1.24-2.93-3.27-7.01-4.89-5.91-2.34-9.22-6.15-9.79-8.71a1.077 1.077 0 0 0-1.97-.3c-.03.05-2.99 5.26 4.21 9.87 5.66 3.63 8.36 6.4 8.5 8.71a12.874 12.874 0 0 1-.98 3.41c-1.11 3.04-2.62 7.15-1.49 10.84a38.95 38.95 0 0 0-4.08 5.97c-1.35 2.86.63 10.32 1.84 12.7.29.58.52 1.12.72 1.59.65 1.54 1.21 2.86 3.25 3.24a10.422 10.422 0 0 0 1.75.16 3.407 3.407 0 0 0 2.92-1.11 2.117 2.117 0 0 0-.22-2.49 6.827 6.827 0 0 0-2.45-2.08c-.87-.51-1.03-.65-1.03-.94 0-1.38.1-6.14.14-7.95.72-.28 1.89-.77 3.19-1.36a27.557 27.557 0 0 1 1.26 4.76c.08.58.12 1.33.17 2.12.16 2.98.34 6.36 2.82 6.99a4.2 4.2 0 0 0 1.1.14A3.709 3.709 0 0 0 24.91 62a2.944 2.944 0 0 0 .89-2.74 3.249 3.249 0 0 0-1.3-1.65 1.71 1.71 0 0 1-.92-1.3c-.02-.43-.07-.92-.12-1.44-.16-1.64-.36-3.68.31-5.16.4-.86 1.83-1.94 3.21-2.98 1.64-1.25 3.34-2.53 4.08-3.99.26-.52 2.39-3.94 3.24-3.56zM63.81 2.37a8.762 8.762 0 0 1-1.58-.14 5.688 5.688 0 0 0-1.02-.13 1 1 0 0 0-.11.5l-.02.38a9.835 9.835 0 0 0 .01 2.39c.04-.01.09-.01.16-.03a1.324 1.324 0 0 0 .69-.76 4.557 4.557 0 0 1 2.33-2.13 1.041 1.041 0 0 0-.46-.08zm5.82 5.98a1.068 1.068 0 0 0 1.04.83 1.641 1.641 0 0 0 .23-.02l2.03-.44a1.061 1.061 0 0 0 .82-1.26 1.083 1.083 0 0 0-1.28-.81l-2.02.44a1.056 1.056 0 0 0-.82 1.26z"></path>

  <path transform="translate(2)" d="M.6 8.51a1.077 1.077 0 0 1 1.97.3c.57 2.56 3.88 6.37 9.79 8.71 4.08 1.62 6.1 3.65 7.01 4.89 3.86-2.24 10.95-2.34 14.92-2.39.73-.01 1.32-.02 1.71-.04 2.25-.13 8.16-2.34 11.11-4.43a13.4 13.4 0 0 1 5.24-2.36 45.364 45.364 0 0 1 6.49-8.84c.01-.46.04-.97.07-1.51l.03-.36a2.56 2.56 0 0 1 .88-2.01 3.291 3.291 0 0 1 2.73-.33 6.912 6.912 0 0 0 1.13.12 4.68 4.68 0 0 1 3.5 1.81 55.186 55.186 0 0 1 6.44.51c2.05.35 2.61 1.86 3.03 2.97a3.12 3.12 0 0 0 1.02 1.67c1.37.88 4.33 1.32 5.36 1.42A1.063 1.063 0 0 1 84 9.69c0 .2-.03 4.92-2.95 6.87-1.43.96-4.04 1.39-6.73 1.39a23.917 23.917 0 0 1-4.4-.4 5.83 5.83 0 0 0-1.4 3.21c-.03.34-.03.88-.02 1.51.03 4.02.1 12.37-6.89 18.86-6.52 6.06-5.92 16.1-5.71 18.27a5.742 5.742 0 0 1 2.24 3.15 1.772 1.772 0 0 1-.92 1.85 3.8 3.8 0 0 1-1.95.45 7.058 7.058 0 0 1-4.01-1.29c-2.3-1.71-2.05-5.44-1.92-7.44.01-.2.02-.38.03-.53.07-1.42.15-9.48-1.12-13.51-.03-.11-.07-.22-.1-.33-.13.01-.27.01-.42.01-3.35 0-12.45-.5-18.3-5.59a36.637 36.637 0 0 1-6.24 9.13 17.269 17.269 0 0 1-4.38 2.84 30.374 30.374 0 0 1 1.44 5.4c.1.67.14 1.46.18 2.3.1 1.8.26 4.81 1.22 5.05a1.706 1.706 0 0 0 1.7-.37 1.014 1.014 0 0 0 .36-.71 2.6 2.6 0 0 0-.58-.55 3.714 3.714 0 0 1-1.72-2.86 27 27 0 0 0-.11-1.32c-.18-1.89-.42-4.25.49-6.24.62-1.35 2.2-2.54 3.86-3.8 1.45-1.09 2.95-2.22 3.46-3.24a1.079 1.079 0 0 1 1.44-.48 1.056 1.056 0 0 1 .48 1.42c-.74 1.46-2.44 2.74-4.08 3.99-1.38 1.04-2.81 2.12-3.21 2.98-.67 1.48-.47 3.52-.31 5.16.05.52.1 1.01.12 1.44a1.71 1.71 0 0 0 .92 1.3 3.2 3.2 0 0 1 1.3 1.65 2.944 2.944 0 0 1-.89 2.74 3.709 3.709 0 0 1-2.66 1.08 4.33 4.33 0 0 1-1.11-.14c-2.47-.63-2.65-4.01-2.81-6.99-.05-.79-.09-1.54-.17-2.12a27.557 27.557 0 0 0-1.26-4.76c-1.3.59-2.47 1.08-3.19 1.37-.04 1.8-.14 6.56-.14 7.94 0 .29.16.43 1.03.94a6.827 6.827 0 0 1 2.45 2.08 2.117 2.117 0 0 1 .22 2.49A3.407 3.407 0 0 1 14.32 65a10.422 10.422 0 0 1-1.75-.16c-2.04-.38-2.6-1.7-3.25-3.24-.2-.47-.43-1.01-.72-1.59-1.21-2.38-3.19-9.84-1.84-12.7a38.95 38.95 0 0 1 4.08-5.97c-1.13-3.69.38-7.8 1.49-10.84a12.874 12.874 0 0 0 .98-3.41c-.14-2.31-2.84-5.08-8.5-8.71C-2.39 13.77.57 8.56.6 8.51zm63.18-6.14a8.762 8.762 0 0 1-1.58-.14 5.688 5.688 0 0 0-1.02-.13 1 1 0 0 0-.11.5l-.02.38a9.835 9.835 0 0 0 .01 2.39c.04-.01.09-.01.16-.03a1.324 1.324 0 0 0 .69-.76 4.557 4.557 0 0 1 2.33-2.13 1.041 1.041 0 0 0-.46-.08zM5.97 16.61c6.46 4.13 9.29 7.23 9.47 10.36a12.327 12.327 0 0 1-1.1 4.25c-1.12 3.05-2.51 6.85-1.3 9.95a1.08 1.08 0 0 1-.17 1.05 40.911 40.911 0 0 0-4.17 5.99c-.86 1.82.56 8.37 1.81 10.85.33.65.57 1.22.78 1.72.62 1.46.8 1.82 1.67 1.98a5.419 5.419 0 0 0 2.38 0 1.8 1.8 0 0 0-.1-.18 4.935 4.935 0 0 0-1.76-1.44c-.92-.54-2.07-1.21-2.07-2.76 0-1.72.14-8.4.14-8.69a1.056 1.056 0 0 1 .69-.96c.99-.38 2.83-1.13 4.64-1.99a.65.65 0 0 1 .22-.11.257.257 0 0 1 .05-.02 18.062 18.062 0 0 0 4.47-2.73c1.91-2.02 5.19-6.18 6.32-9.78a.615.615 0 0 1 .07-.23 7.145 7.145 0 0 0 .33-2.16 1.031 1.031 0 0 1 1.06-1.04h.01a1.032 1.032 0 0 1 1.07 1 8.388 8.388 0 0 1-.29 2.3c5.05 5.01 13.93 5.62 17.32 5.66-.81-2.78-1.07-4.36-.64-5.64.1-.3.27-.76.49-1.32.65-1.72 1.86-4.93 1.86-6.15a1.07 1.07 0 0 1 2.14 0c0 1.48-.99 4.22-2 6.89-.2.53-.37.97-.46 1.25-.33.97.17 2.88 1.39 6.79 1.36 4.31 1.3 12.46 1.22 14.24-.01.17-.02.35-.04.56-.09 1.49-.3 4.6 1.07 5.62a4.636 4.636 0 0 0 3.42.79 5.515 5.515 0 0 0-1.68-1.83 1.02 1.02 0 0 1-.44-.71c-.08-.53-1.82-12.99 6.31-20.53 6.31-5.86 6.24-13.59 6.21-17.3-.01-.71-.01-1.27.03-1.71a7.645 7.645 0 0 1 1.3-3.61 9.86 9.86 0 0 1-.79-.34 3.818 3.818 0 0 1-2.27-2.57 4.2 4.2 0 0 1 .9-3.3 1.065 1.065 0 0 1 1.5-.16 1.054 1.054 0 0 1 .16 1.49 2.159 2.159 0 0 0-.47 1.52 1.891 1.891 0 0 0 1.14 1.13c2.92 1.45 9.87 1.49 11.99.07 1.28-.86 1.78-2.85 1.94-4.19a14.82 14.82 0 0 1-5.29-1.63 5 5 0 0 1-1.86-2.71c-.42-1.11-.62-1.48-1.38-1.61a55.614 55.614 0 0 0-6.62-.49c-1.98 0-2.39.66-2.91 1.5a3.173 3.173 0 0 1-2.02 1.72 2.2 2.2 0 0 1-2.03-.36 1.985 1.985 0 0 1-.2-.21c-1.95 2.22-5.7 6.91-6.91 11.37a1.068 1.068 0 0 1-1.03.78 1.265 1.265 0 0 1-.28-.03 1.068 1.068 0 0 1-.76-1.3 19.539 19.539 0 0 1 .65-1.91 13.4 13.4 0 0 0-2.8 1.53c-3.07 2.18-9.36 4.66-12.23 4.82-.43.02-1.03.03-1.79.04-3.8.06-11.69.17-14.59 2.6a1.1 1.1 0 0 1-.94.22 1.07 1.07 0 0 1-.74-.63c-.02-.02-1.24-2.75-6.49-4.83a22.656 22.656 0 0 1-8.77-5.92 9.652 9.652 0 0 0 3.17 3.04zM69.6 8.34a1.067 1.067 0 0 0 1.04.84 1.641 1.641 0 0 0 .23-.02l2.03-.44a1.061 1.061 0 0 0 .82-1.26 1.078 1.078 0 0 0-1.27-.81l-2.03.44a1.051 1.051 0 0 0-.82 1.25z"></path>
</svg>
