<svg xmlns="http://www.w3.org/2000/svg" viewBox="0 0 76.03 64" width="76" height="64">
  <path fill="white" transform="translate(0, 2)" class="cls-1" d="M.46 48.75a8.312 8.312 0 0 1 .22 2.39c-.14 2.27-.59 9.16 3.57 9.81a11.772 11.772 0 0 0 1.72.17 2.223 2.223 0 0 0 2.01-.83c.62-.96.1-2.19-.89-3.75a6.607 6.607 0 0 1-.46-5.04c2.02-.69 9.15-3.46 11.1-8.95a63.529 63.529 0 0 0 10.18 1.17 1.178 1.178 0 0 0 .25-.04 16.021 16.021 0 0 0 10.12 3.36 16.918 16.918 0 0 0 2.38-.16 3.756 3.756 0 0 1 .04 1.49 12.506 12.506 0 0 0 .02 2.87 41.569 41.569 0 0 1 .14 5.1 5.619 5.619 0 0 0 1.8 4.2 5.489 5.489 0 0 0 3.74 1.47 4.844 4.844 0 0 0 .53-.03c1.89-.19 2.91-.87 3.02-2.03a3.473 3.473 0 0 0-1.59-3.28c.26-1.74.89-6.22 1.12-9.33.03-.37.07-.78.12-1.2a16.209 16.209 0 0 0 11.41-12.67 4.776 4.776 0 0 0 2.64-2.34 4.585 4.585 0 0 0 1.9.62c1.91.19 4.06-.71 6.39-2.65a5.439 5.439 0 0 0 2.08-3.77 8.073 8.073 0 0 0-1.58-5.02 2.355 2.355 0 0 0-1.65-4 7.881 7.881 0 0 0-3.24-4.86 8.643 8.643 0 0 0-2.59-1.15c.06-1.9.08-7.89-1.68-9.74A1.839 1.839 0 0 0 61.79 0h-.02a3.187 3.187 0 0 0-3.04 2.24 2.465 2.465 0 0 0-1.2-1.92 2.428 2.428 0 0 0-2.5.68c-1.36 1.16-2.17 6.35-2.63 10.92-.9.46-6.34 3.28-9.3 6-1.72 1.58-4.64 2.17-7.74 2.79a34.911 34.911 0 0 0-5.63 1.45 32.633 32.633 0 0 1-6.94 1.14c-4.61.46-10.29 1.04-14.38 3.38-.85-.58-2.43-1.41-3.89-.86a2.6 2.6 0 0 0-1.69 1.93 3.493 3.493 0 0 0 .75 2.75A27.633 27.633 0 0 0 .46 48.75z"></path>

  <path transform="translate(2)" d="M61.23 17.85a1.06 1.06 0 0 0 0 .82l.31.74a1.023 1.023 0 0 0 .93.61 1.1 1.1 0 0 0 .4-.08 1.016 1.016 0 0 0 .61-1.05l.26-.08a1.022 1.022 0 0 0 .64-1.29 1 1 0 0 0-1.28-.64l-1.26.42a1.034 1.034 0 0 0-.61.55zM.46 48.75a7.974 7.974 0 0 1 .22 2.39c-.14 2.27-.59 9.16 3.57 9.81a10.537 10.537 0 0 0 1.72.17 2.223 2.223 0 0 0 2.01-.83c.62-.96.1-2.19-.89-3.75a6.608 6.608 0 0 1-.46-5.04c2.02-.69 9.15-3.46 11.1-8.95a63.529 63.529 0 0 0 10.18 1.17 1 1 0 0 0 .24-.04 16.063 16.063 0 0 0 10.13 3.36 16.918 16.918 0 0 0 2.38-.16 3.756 3.756 0 0 1 .04 1.49 12.506 12.506 0 0 0 .02 2.87 41.569 41.569 0 0 1 .14 5.1 5.619 5.619 0 0 0 1.8 4.2 5.489 5.489 0 0 0 3.74 1.47 4.844 4.844 0 0 0 .53-.03c1.89-.19 2.91-.87 3.02-2.03a3.5 3.5 0 0 0-1.59-3.29c.26-1.73.89-6.21 1.12-9.32.03-.37.07-.78.12-1.2a16.209 16.209 0 0 0 11.41-12.67 4.776 4.776 0 0 0 2.64-2.34 4.585 4.585 0 0 0 1.9.62c1.91.19 4.06-.71 6.39-2.65a5.439 5.439 0 0 0 2.08-3.77 8.073 8.073 0 0 0-1.58-5.02 2.355 2.355 0 0 0-1.65-4 7.881 7.881 0 0 0-3.24-4.86 8.643 8.643 0 0 0-2.59-1.15c.06-1.9.08-7.89-1.68-9.74A1.839 1.839 0 0 0 61.79 0h-.02a3.187 3.187 0 0 0-3.04 2.24 2.465 2.465 0 0 0-1.2-1.92 2.428 2.428 0 0 0-2.5.68c-1.35 1.16-2.17 6.35-2.63 10.92-.9.46-6.34 3.28-9.3 6-1.72 1.58-4.64 2.17-7.74 2.79a34.524 34.524 0 0 0-5.62 1.45 32.859 32.859 0 0 1-6.95 1.14c-4.61.46-10.29 1.04-14.38 3.38-.85-.58-2.43-1.41-3.88-.86a2.589 2.589 0 0 0-1.7 1.93 3.493 3.493 0 0 0 .75 2.75A27.633 27.633 0 0 0 .46 48.75zm62.48-38.8a14.5 14.5 0 0 0-3.54.13 12.425 12.425 0 0 1-.45-4.02c.01-1.01 0-1.88-.06-2.62a1 1 0 0 0 .52.27 1.084 1.084 0 0 0 1.2-.87 1.436 1.436 0 0 1 1.16-1.19h.01c.72.52 1.26 4.28 1.16 8.3zm8.14 8.71a.313.313 0 0 1-.29.33.306.306 0 0 1-.28-.33.325.325 0 0 1 .11-.25c.05-.02.09-.04.14-.06.01 0 .02-.01.03-.01a.311.311 0 0 1 .29.32zM2.23 41.15c.62-6.6 3.4-10.03 3.43-10.06a1.02 1.02 0 0 0-.09-1.39 1.929 1.929 0 0 1-.76-1.55.573.573 0 0 1 .43-.43c.7-.26 1.98.54 2.45.95a.993.993 0 0 0 1.2.08c3.72-2.38 9.23-2.94 14.1-3.44a31.874 31.874 0 0 0 7.47-1.26 35.066 35.066 0 0 1 5.3-1.35c3.23-.65 6.57-1.32 8.71-3.29a43.169 43.169 0 0 1 7.71-5.08c-.1 1.18-.17 2.24-.22 3.08a1.012 1.012 0 0 0 2.02.12c.39-6.51 1.41-14.08 2.37-14.99a2.906 2.906 0 0 1 .32-.24 13.6 13.6 0 0 1 .26 3.73c-.05 4.21.87 5.56 1.15 5.87a1.018 1.018 0 0 0 .99.3c.04-.01 4.43-1.03 7.36.94a5.924 5.924 0 0 1 2.38 3.63c-3.67 1.49-4.87 7.78-4.93 8.08a1.012 1.012 0 0 0 .81 1.18 1.225 1.225 0 0 0 .19.02 1.006 1.006 0 0 0 .99-.83c.26-1.38 1.15-4.44 2.71-5.91a2.319 2.319 0 0 0 1.84 1.67 1.3 1.3 0 0 0 .1.15A6.5 6.5 0 0 1 72 25.16a3.415 3.415 0 0 1-1.35 2.38c-1.87 1.56-3.57 2.32-4.9 2.19a2.54 2.54 0 0 1-1.78-.97 1.015 1.015 0 0 0-1.79.52 3.057 3.057 0 0 1-2.32 2.43 1.022 1.022 0 0 0-.78.92c-.02.34-.62 7.9-9.15 11.23.58-3.53 1.48-7.41 1.5-7.46a1.016 1.016 0 0 0-1.98-.46 100.684 100.684 0 0 0-1.99 11.25c-.27 3.77-1.2 9.82-1.21 9.88a1.021 1.021 0 0 0 .67 1.11 1.555 1.555 0 0 1 1.02 1.49 3.15 3.15 0 0 1-1.21.29 3.41 3.41 0 0 1-2.7-.91 3.568 3.568 0 0 1-1.14-2.68 43.513 43.513 0 0 0-.16-5.38 10.616 10.616 0 0 1-.01-2.46 4.544 4.544 0 0 0-1.07-3.9 12.071 12.071 0 0 1-2.67-8 1.014 1.014 0 0 0-2.02-.17 14.085 14.085 0 0 0 2.43 8.53c-2.95.25-11.21.03-14.47-9.8a1.012 1.012 0 1 0-1.92.64 17.8 17.8 0 0 0 3.1 5.8 81 81 0 0 1-8.88-1.24 1.024 1.024 0 0 0-1.19.77c-1.34 5.78-10.41 8.53-10.5 8.56a1 1 0 0 0-.66.61c-.06.17-1.52 4.08.51 7.3a7.176 7.176 0 0 1 .78 1.46 9.061 9.061 0 0 1-1.59-.14c-.88-.14-2.28-1.32-1.87-7.67a9.8 9.8 0 0 0-.26-2.93 21.315 21.315 0 0 1-.21-7.2z"></path></svg>
