<?xml version="1.0" encoding="UTF-8"?>
<svg width="525px" height="71px" viewBox="0 0 525 71" version="1.1" xmlns="http://www.w3.org/2000/svg" xmlns:xlink="http://www.w3.org/1999/xlink">
    <!-- Generator: Sketch 52.4 (67378) - http://www.bohemiancoding.com/sketch -->
    <title>Group 28</title>
    <desc>Created with Sketch.</desc>
    <defs>
        <polygon id="path-1" points="0 0.142999086 99.8778 0.142999086 99.8778 42 0 42"></polygon>
    </defs>
    <g id="Page-1" stroke="none" stroke-width="1" fill="none" fill-rule="evenodd">
        <g id="Group-28">
            <path d="M42.6149,41.5592 C32.5729,44.4452 18.0219,29.6992 18.0219,29.6992 C18.0219,29.6992 26.1099,20.2272 41.1049,8.9672 C54.8459,-1.3568 58.6309,-4.5218 79.9409,9.5032 C90.5559,16.4902 117.9039,35.8762 117.9039,35.8762 C117.9039,35.8762 116.6549,37.9012 115.0179,39.4582 C113.1029,41.2892 110.8279,41.2432 108.2419,39.4922 C104.4579,36.9222 85.0369,17.9412 72.7219,20.1472 C60.4029,22.3622 56.3899,37.6192 42.6149,41.5592" id="Fill-1" fill="#E5B522"></path>
            <g id="Group-5" transform="translate(0.000000, 28.159700)">
                <mask id="mask-2" fill="white">
                    <use xlink:href="#path-1"></use>
                </mask>
                <g id="Clip-4"></g>
                <path d="M75.2888,0.5162 C85.3308,-2.3648 99.8778,12.3802 99.8778,12.3802 C99.8778,12.3802 91.7978,21.8482 76.7948,33.1122 C63.0538,43.4362 59.2688,46.5972 37.9628,32.5772 C27.3438,25.5812 -0.0002,6.1912 -0.0002,6.1912 C-0.0002,6.1912 1.2408,4.1702 2.8768,2.6132 C4.8018,0.7862 7.0758,0.8322 9.6578,2.5882 C13.4418,5.1572 32.8618,24.1392 45.1818,21.9242 C57.5018,19.7132 61.5178,4.4562 75.2888,0.5162" id="Fill-3" fill="white" mask="url(#mask-2)"></path>
            </g>
            <path d="M477.1057,42.8346 C477.1057,46.4126 481.2497,46.9736 484.0337,46.9736 C486.5017,46.9736 488.8857,46.7326 491.2827,46.0956 C491.2827,46.0956 491.2827,44.9016 491.5137,43.6276 L493.4247,34.7126 C489.6027,37.6616 477.1057,36.7846 477.1057,42.8346 M504.6477,27.7936 L500.5017,46.8936 C500.1087,48.5636 500.0327,52.4626 500.0327,52.4626 C496.3747,53.6516 489.9227,54.8506 483.7217,54.8506 C474.9627,54.8506 466.6807,52.4626 466.6807,43.9436 C466.6807,26.6716 495.2557,32.4896 495.2557,24.8486 C495.2557,21.9836 491.5137,21.5836 489.3667,21.5836 C485.3077,21.5836 481.0927,22.6166 477.3507,24.0466 L474.7217,16.6476 C479.6587,14.8156 485.3837,13.3816 490.6407,13.3816 C497.6357,13.3816 505.0437,16.0896 505.0437,24.2836 C505.0437,25.4816 504.8837,26.6716 504.6477,27.7936" id="Fill-6" fill="white"></path>
            <polygon id="Fill-8" fill="white" points="511.0666 14.2198 508.4716 14.2198 508.4716 13.2958 514.6656 13.2958 514.6656 14.2198 512.0576 14.2198 512.0576 22.5568 511.0666 22.5568"></polygon>
            <polygon id="Fill-10" fill="white" points="516.343 13.2945 517.376 13.2945 520.191 18.2555 523.022 13.2945 524.055 13.2945 524.055 22.5555 523.064 22.5555 523.064 15.0955 520.207 20.0405 520.165 20.0405 517.309 15.0955 517.309 22.5555 516.343 22.5555"></polygon>
            <path d="M164.5788,10.9298 C163.1128,9.8278 160.8398,9.0218 157.9048,9.0218 C146.6818,9.0218 142.1338,24.9388 142.1338,33.8888 C142.1338,41.6618 145.6548,45.6248 151.0088,45.6248 C153.9448,45.6248 156.8058,44.5978 158.5638,43.3488 L160.1798,52.0068 C157.3908,53.6188 153.5028,54.8678 148.6618,54.8678 C138.9088,54.8678 131.4248,47.9718 131.4248,35.2088 C131.4248,20.8328 138.7588,-0.0002 158.1248,-0.0002 C162.8198,-0.0002 166.8538,1.1738 169.2728,2.8608 L164.5788,10.9298 Z" id="Fill-12" fill="white"></path>
            <path d="M256.2404,53.9864 L247.0724,53.9864 L248.9064,29.1944 C249.1214,26.6264 249.4204,24.4244 249.5634,23.5474 L249.4204,23.5474 C249.1214,24.3534 248.3924,26.6264 247.0724,29.1944 L234.4524,53.9864 L226.6764,53.9864 L223.3794,29.1944 C223.0864,27.0684 223.0864,24.2784 223.0864,23.5474 L222.9374,23.5474 C222.7164,24.5714 222.2744,26.6264 221.5454,29.1944 L214.1344,53.9864 L204.6014,53.9864 L217.2874,14.4504 L229.2444,14.4504 L232.2544,37.1884 C232.4754,39.0224 232.4754,41.8114 232.4754,42.3964 L232.6184,42.3964 C232.8404,41.7364 233.7184,39.3894 234.8234,37.1884 L246.1884,14.4504 L258.2184,14.4504 L256.2404,53.9864 Z" id="Fill-14" fill="white"></path>
            <path d="M365.4562,21.3463 C363.6942,21.3463 361.7182,21.7853 360.7622,22.2243 L356.3602,46.0643 C357.1662,46.4313 359.1492,46.7983 360.9112,46.7983 C369.6372,46.7983 373.1612,36.4573 373.1612,29.9263 C373.1612,24.7213 370.4432,21.3463 365.4562,21.3463 M360.8342,54.4253 C358.4152,54.4253 356.0672,53.9863 354.8962,53.5473 L351.9582,69.7573 L341.9122,69.7573 L351.8142,16.4303 C355.7032,14.6723 360.6122,13.5703 366.1912,13.5703 C377.0432,13.5703 382.9862,19.8053 382.9862,29.7073 C382.9862,42.5433 375.5802,54.4253 360.8342,54.4253" id="Fill-16" fill="white"></path>
            <path d="M452.131,32.2013 C455.577,33.7423 457.847,36.8213 459.024,40.7843 L462.984,53.9863 L452.347,53.9863 L448.972,41.8833 C447.95,38.2163 445.526,35.5013 441.274,35.5013 L437.827,53.9863 L427.996,53.9863 L435.33,14.4513 L445.161,14.4513 L442.008,31.8343 L442.152,31.8343 L457.996,14.4513 L469.733,14.4513 L452.131,32.2013 Z" id="Fill-18" fill="white"></path>
            <path d="M204.8703,14.4508 L194.8953,14.4508 L189.4353,43.8708 C189.4403,43.8688 189.4453,43.8688 189.4503,43.8678 C189.4503,43.8678 186.7733,46.2598 183.3703,46.2598 C179.6083,46.2598 177.5813,44.9648 177.5813,41.7368 C177.5813,41.1518 177.5813,40.4918 177.7303,39.9028 L182.4253,14.4508 L172.4513,14.4508 L167.6783,40.1238 C167.4633,41.2228 167.3863,42.3968 167.3863,43.5708 C167.3863,49.0698 170.5843,53.0478 177.3823,54.3478 C177.3783,54.3498 177.3753,54.3518 177.3713,54.3548 C177.4023,54.3608 179.5373,54.5838 180.5853,54.4968 C184.4353,54.1788 187.1013,52.6598 188.8343,50.6148 C188.8563,51.9118 188.9163,53.2058 189.0513,54.4968 C192.7113,54.0348 196.0443,53.3358 198.3033,52.6018 C198.3033,52.6018 198.3463,50.7628 198.4983,49.0428 L199.8493,41.7268 C199.8443,41.7288 199.8393,41.7298 199.8333,41.7318 L204.8703,14.4508 Z" id="Fill-20" fill="white"></path>
            <path d="M425.0246,14.4508 L415.0506,14.4508 L409.5896,43.8708 C409.5946,43.8688 409.5996,43.8688 409.6046,43.8678 C409.6046,43.8678 406.9276,46.2598 403.5246,46.2598 C399.7626,46.2598 397.7356,44.9648 397.7356,41.7368 C397.7356,41.1518 397.7356,40.4918 397.8846,39.9028 L402.5796,14.4508 L392.6056,14.4508 L387.8336,40.1238 C387.6186,41.2228 387.5406,42.3968 387.5406,43.5708 C387.5406,49.0698 390.7386,53.0478 397.5376,54.3478 C397.5336,54.3498 397.5296,54.3518 397.5256,54.3548 C397.5566,54.3608 399.6916,54.5838 400.7406,54.4968 C404.5896,54.1788 407.2556,52.6598 408.9886,50.6148 C409.0106,51.9118 409.0716,53.2058 409.2066,54.4968 C412.8666,54.0348 416.1986,53.3358 418.4586,52.6018 C418.4586,52.6018 418.5016,50.7628 418.6536,49.0428 L420.0036,41.7268 C419.9996,41.7288 419.9936,41.7298 419.9886,41.7318 L425.0246,14.4508 Z" id="Fill-22" fill="white"></path>
            <path d="M263.5666,54.2521 L273.5406,54.2521 L279.0016,24.8321 C278.9966,24.8331 278.9916,24.8331 278.9866,24.8351 C278.9866,24.8351 281.6636,22.4431 285.0666,22.4431 C288.8286,22.4431 290.8556,23.7371 290.8556,26.9661 C290.8556,27.5511 290.8556,28.2111 290.7066,28.7991 L286.0116,54.2521 L295.9856,54.2521 L300.7576,28.5791 C300.9726,27.4801 301.0506,26.3061 301.0506,25.1321 C301.0506,19.6331 297.8526,15.6551 291.0536,14.3551 C291.0576,14.3531 291.0616,14.3501 291.0656,14.3481 C291.0346,14.3421 288.8996,14.1191 287.8506,14.2061 C284.0006,14.5241 281.3356,16.0431 279.6016,18.0871 C279.5806,16.7911 279.5196,15.4961 279.3846,14.2061 C275.7246,14.6681 272.3926,15.3661 270.1326,16.1011 C270.1326,16.1011 270.0896,17.9401 269.9376,19.6601 L268.5876,26.9761 C268.5916,26.9741 268.5976,26.9731 268.6026,26.9711 L263.5666,54.2521 Z" id="Fill-24" fill="white"></path>
            <path d="M314.0168,42.94 C314.0168,46.519 316.8658,47.751 319.6508,47.751 C322.1208,47.751 324.6368,47.717 327.0348,47.08 C327.0348,47.08 326.9748,45.008 327.2058,43.733 L329.1188,34.816 C324.8888,36.993 314.0168,36.888 314.0168,42.94 M339.8038,27.703 L336.1958,47 C335.8028,48.671 335.7278,52.571 335.7278,52.571 C332.0688,53.761 325.6158,54.96 319.4118,54.96 C310.6498,54.96 303.5878,52.571 303.5878,44.05 C303.5878,26.772 330.7828,33.556 330.7828,25.913 C330.7828,20.981 327.1908,20.878 325.0418,20.878 C320.9828,20.878 316.5828,21.821 312.8398,23.252 L311.5138,16.346 C316.4528,14.514 321.0748,13.478 326.3328,13.478 C333.3298,13.478 340.2008,15.995 340.2008,24.191 C340.2008,25.39 340.0398,26.58 339.8038,27.703" id="Fill-26" fill="white"></path>
        </g>
    </g>
</svg>
