<?xml version="1.0" encoding="UTF-8"?>
<svg width="27px" height="26px" viewBox="0 0 27 26" version="1.1" xmlns="http://www.w3.org/2000/svg" xmlns:xlink="http://www.w3.org/1999/xlink">
    <!-- Generator: sketchtool 52.4 (67378) - http://www.bohemiancoding.com/sketch -->
    <title>74993027-3094-407B-AA2A-9F565F6E2317</title>
    <desc>Created with sketchtool.</desc>
    <g id="Page-1" stroke="none" stroke-width="1" fill="none" fill-rule="evenodd">
        <g id="telefon">
            <g id="Group-22">
                <rect id="Rectangle" x="1.08357767e-13" y="0" width="26.7647059" height="26"></rect>
                <g id="telephone-handle-silhouette" transform="translate(4.000000, 4.000000)" fill="#2D2D2D">
                    <path d="M18.9595826,14.7214918 C18.9058403,14.5595661 18.5639128,14.3210257 17.9340364,14.0064378 C17.7634035,13.9072784 17.5202635,13.7725293 17.2056561,13.6015761 C16.8907652,13.430623 16.6049433,13.2730927 16.3487103,13.1291272 C16.0919575,12.9852089 15.8514171,12.8457807 15.6266638,12.7110316 C15.5907411,12.684044 15.4782936,12.6054443 15.2893684,12.4747126 C15.1002543,12.3443591 14.9407763,12.2476101 14.8100838,12.1845129 C14.6796749,12.1217938 14.551393,12.0902216 14.4254272,12.0902216 C14.24553,12.0902216 14.020824,12.2184956 13.7510255,12.4747126 C13.481227,12.7312605 13.2337385,13.0099279 13.0089379,13.3115655 C12.7840901,13.6130612 12.5456294,13.8917286 12.2939814,14.1481347 C12.0419552,14.4046353 11.8348796,14.5327675 11.6731329,14.5327675 C11.5919287,14.5327675 11.4906833,14.5101281 11.3693496,14.4654638 C11.2480632,14.420516 11.1557986,14.381996 11.0924611,14.3509437 C11.0296909,14.3192296 10.9219701,14.2564633 10.7689204,14.1616994 C10.6155871,14.0672191 10.530318,14.0154652 10.5123566,14.0064378 C9.27987667,13.3225779 8.22285084,12.5398894 7.34109003,11.6585613 C6.45961282,10.7767134 5.67678128,9.71984756 4.99306806,8.48730221 C4.98408738,8.4692947 4.93223578,8.38379449 4.83784412,8.23094336 C4.74331067,8.07795044 4.68030412,7.97014172 4.64882448,7.90699728 C4.61734484,7.84408916 4.57910606,7.75183023 4.53420267,7.63040953 C4.48929927,7.50898883 4.46675304,7.4078443 4.46675304,7.32678688 C4.46675304,7.16495563 4.59498768,6.95794019 4.85140968,6.70602414 C5.10778441,6.45424989 5.38675263,6.21575676 5.68803076,5.99101739 C5.98954521,5.76627803 6.26822984,5.51880477 6.52469911,5.24902301 C6.78107384,4.97909945 6.9092612,4.75431282 6.9092612,4.5744268 C6.9092612,4.4485633 6.87778156,4.32024209 6.81486955,4.18984127 C6.75191027,4.05915686 6.65520254,3.89968881 6.52469911,3.71068087 C6.3941484,3.52176747 6.3154493,3.40942142 6.28841273,3.37326461 C6.15360803,3.14852525 6.01431298,2.90790524 5.87019673,2.65149913 C5.72608047,2.39514029 5.5687768,2.10938336 5.39776578,1.79455919 C5.22689656,1.47987682 5.09204459,1.23689362 4.99297353,1.06598773 C4.67827165,0.436386658 4.43990554,0.0943858069 4.27792247,0.0405996035 C4.21491592,0.0136119742 4.12038246,0 3.99455843,0 C3.75151292,0 3.43444771,0.0449006092 3.04312647,0.13498541 C2.65166343,0.22492842 2.34362616,0.319266963 2.11868381,0.41837915 C1.66884636,0.607198028 1.19206688,1.15593074 0.688203557,2.06438822 C0.22938543,2.90984306 0,3.74664862 0,4.57419048 C0,4.81689009 0.0157398204,5.05302003 0.0472194611,5.28262757 C0.0786991018,5.51199879 0.134946508,5.77067356 0.216008946,6.05860462 C0.296929584,6.34644116 0.362204935,6.56026259 0.411551399,6.69950174 C0.46094513,6.83883542 0.553162516,7.08843554 0.68815629,7.44839664 C0.822960998,7.8082632 0.904023436,8.02855977 0.931012738,8.10952266 C1.24585641,8.99118157 1.61921629,9.77826562 2.05099785,10.4710111 C2.76141677,11.6224518 3.73090463,12.8124125 4.95889421,14.0404205 C6.18693107,15.268334 7.37672914,16.2377145 8.5283357,16.948373 C9.22102959,17.3800805 10.008446,17.75337 10.8900178,18.0684305 C10.9710329,18.0952764 11.1913431,18.1761447 11.5510902,18.3114137 C11.9109791,18.4463046 12.1606892,18.5385163 12.3000315,18.5880015 C12.4394211,18.6375339 12.653303,18.7028525 12.9409211,18.7839099 C13.2291536,18.8649673 13.487608,18.9212112 13.7169935,18.9529253 C13.9465207,18.9839776 14.1827125,19 14.4254745,19 C15.2530203,19 16.089925,18.770487 16.935574,18.3117446 C17.8439933,17.8081015 18.3926182,17.331257 18.5815433,16.8811166 C18.680898,16.6564245 18.775006,16.3483118 18.8649546,15.956873 C18.9551868,15.5656233 18.9999956,15.248625 18.9999956,15.0056418 C19.0002792,14.8793057 18.9867137,14.7850144 18.9595826,14.7214918 Z" id="Path"></path>
                </g>
            </g>
        </g>
    </g>
</svg>