<?xml version="1.0" encoding="UTF-8"?>
<svg width="46px" height="59px" viewBox="0 0 46 59" version="1.1" xmlns="http://www.w3.org/2000/svg" xmlns:xlink="http://www.w3.org/1999/xlink">
    <!-- Generator: sketchtool 52.4 (67378) - http://www.bohemiancoding.com/sketch -->
    <title>AB530A3A-1D11-4DB4-8425-53DCDEC60DEF</title>
    <desc>Created with sketchtool.</desc>
    <g id="Page-1" stroke="none" stroke-width="1" fill="none" fill-rule="evenodd">
        <g id="-g-1-Где-купить-комп" transform="translate(-504.000000, -753.000000)">
            <g id="Group-8" transform="translate(506.000000, 755.000000)">
                <g id="Group-17-Copy-3" fill="#FFFFFF" stroke="#FFA20A" stroke-linecap="round" stroke-width="3">
                    <path d="M21,55 C29.3828125,47.2492795 42,33.1206174 42,21.3366893 C42,9.55276118 32.5979797,0 21,0 C9.40202025,0 0,9.55276118 0,21.3366893 C0,33.1206174 12,47.2492795 21,55 Z" id="Oval-Copy-2"></path>
                </g>
                <path d="M28.9904739,29.5137051 C28.9349768,32.8389399 27.1500711,34.041844 25.2541712,33.9308529 C23.3582713,33.8198617 22.039841,32.9469313 20.694412,32.9469313 L20.6389149,32.9784288 C19.2889862,32.9784288 17.9750556,33.8783571 16.0791557,33.992348 C14.1832559,34.1063389 12.3968502,32.9604303 12.342853,29.6351954 C12.4523473,26.5829387 14.7967235,26.3594565 16.793118,22.7522441 C18.5510252,19.5769973 20.6389149,19.8349767 20.6389149,19.8349767 L20.7004117,19.8349767 C20.7004117,19.8349767 22.8003008,19.5919961 24.5462086,22.7522441 C26.527604,26.3639562 28.8809797,26.4614484 28.9904739,29.5137051 Z M17.2535937,18.464086 C18.933505,18.3380961 20.1499408,16.3417552 19.9714502,14.0064414 C19.7929596,11.6711276 18.2870391,9.88027041 16.6071279,10.0062604 C14.9272166,10.1322503 13.7122807,12.1285912 13.8907713,14.463905 C14.0692619,16.7992188 15.5751824,18.5915759 17.2505939,18.464086 L17.2535937,18.464086 Z M23.6177576,18.5045828 C25.258671,18.9545469 27.0975739,17.4546665 27.7245408,15.1763482 C28.3515077,12.8980298 27.5295511,10.6767069 25.8886377,10.2402417 C24.2477244,9.80377651 22.4088215,11.290158 21.7818546,13.5684764 C21.1548877,15.8467947 21.9768443,18.0621181 23.6177576,18.5045828 Z M31.2193562,16.6777285 C29.7899317,16.2907593 28.1895162,17.5896557 27.643545,19.5769973 C27.0975739,21.5643389 27.8130361,23.4886854 29.2409607,23.8756546 C30.6688853,24.2626237 32.2708007,22.9637273 32.8167719,20.9763857 C33.362743,18.9890442 32.6472808,17.0646976 31.2193562,16.6777285 Z M14.3572467,19.5769973 C13.8112755,17.5896557 12.21086,16.2907593 10.7814355,16.6777285 C9.35201098,17.0646976 8.63654877,18.9890442 9.18401986,20.9763857 C9.73149094,22.9637273 11.3304065,24.2611238 12.759831,23.8756546 C14.1892555,23.4901853 14.9032178,21.5643389 14.3572467,19.5769973 Z" id="Forma_1_copy_2-Copy" fill="#FFA20A"></path>
            </g>
        </g>
    </g>
</svg>