<?xml version="1.0" encoding="UTF-8"?>
<svg width="46px" height="60px" viewBox="0 0 46 60" version="1.1" xmlns="http://www.w3.org/2000/svg" xmlns:xlink="http://www.w3.org/1999/xlink">
    <!-- Generator: sketchtool 52.4 (67378) - http://www.bohemiancoding.com/sketch -->
    <title>5EEA58A3-9B1D-4FF5-AFBD-D95F4167C4E7</title>
    <desc>Created with sketchtool.</desc>
    <g id="Page-1" stroke="none" stroke-width="1" fill="none" fill-rule="evenodd">
        <g id="-g-1-Где-купить-комп" transform="translate(-428.000000, -546.000000)">
            <g id="Group-14" transform="translate(-2.000000, 369.000000)">
                <g id="Group-17" transform="translate(432.000000, 179.000000)">
                    <g id="Group-22">
                        <path d="M21,54.709829 C29.3828125,47 42,32.9458784 42,21.2241204 C42,9.50236237 32.5979797,9.59232693e-14 21,9.59232693e-14 C9.40202025,9.59232693e-14 -2.84217094e-14,9.50236237 -2.84217094e-14,21.2241204 C-2.84217094e-14,32.9458784 12,47 21,54.709829 Z" id="Oval-Copy" stroke="#F95E1A" stroke-width="4" fill="#FFFFFF" stroke-linecap="round"></path>
                        <g id="Group-Copy" transform="translate(10.000000, 14.000000)">
                            <path d="M21.5704018,3.98243695 C21.8520088,3.91351739 22.0397468,3.63783913 21.9928123,3.36216087 C21.9458778,3.08648261 21.7112053,2.94864348 21.4295982,3.01756305 C21.1479912,3.08648261 20.9602532,3.36216087 21.0071877,3.63783913 C21.0541222,3.91351739 21.2887947,4.05135652 21.5704018,3.98243695 Z" id="Path" fill="#FFFFFF"></path>
                            <path d="M5.82978723,12.6176471 C5.78723404,13.1029412 5.70212766,13.5882353 5.23404255,13.5441176 C5.23404255,13.5441176 4.93617021,13.4558824 4.68085106,13.4558824 C4.12765957,13.4558824 4,13.7647059 4,14.0294118 C4,14.7794118 4.76595745,15 5.23404255,15 C5.70212766,15 6.21276596,14.8235294 6.59574468,14.5147059 C7.31914894,13.9852941 7.78723404,12.7941176 8,12.2647059 C7.78723404,12.1764706 7.53191489,12.0882353 7.31914894,12 C6.93617021,12.3970588 6.38297872,12.6176471 5.82978723,12.6176471 Z" id="Path" fill="#FFFFFF"></path>
                            <path d="M13.3417302,9.39683569 C13.4288319,9.70297033 13.5594844,10.3152396 13.6465861,10.5776407 C13.6465861,10.5776407 13.2110778,10.7525748 13.1675269,10.7963083 C13.0368744,10.8400418 13.0368744,10.9712424 13.0804253,11.1024429 C13.1239761,11.2336435 13.2546286,11.2336435 13.3852811,11.18991 C13.9514419,10.8837753 15.5628226,10.184039 16.2596359,10.8837753 C16.6515934,11.2336435 17,12.4144485 16.738695,13.2016519 C16.6080425,13.6827206 16.2596359,13.9451217 15.6934751,13.9888552 C15.3886193,14.0325887 15.1273143,13.9451217 14.953111,13.7701876 C14.4740518,13.3328524 14.4740518,12.458182 14.4740518,12.458182 C14.4740518,12.370715 14.430501,12.3269815 14.3433993,12.283248 C14.2998485,12.2395144 14.2127469,12.2395144 14.1256452,12.283248 C14.1256452,12.283248 12.9062219,13.1579183 11.9045528,12.6768496 C10.4673754,11.9771133 10.8157821,10.096572 10.8157821,10.0528385 C10.8157821,9.92163792 10.7722312,9.83417089 10.6415788,9.83417089 C10.5109263,9.83417089 10.4238246,9.8779044 10.4238246,10.009105 C10.4238246,10.009105 10.3367229,10.5339072 10.4238246,11.1024429 C9.37860467,10.9712424 8.46403723,10.7963083 7.68012228,10.4901737 C8.11563059,10.009105 8.33338474,9.39683569 8.33338474,8.69709939 C8.33338474,8.56589883 8.24628308,8.47843179 8.11563059,8.47843179 C7.9849781,8.47843179 7.89787644,8.56589883 7.89787644,8.69709939 C7.89787644,9.96537144 6.85265651,10.9712424 5.63323325,10.9712424 C4.71866581,10.9712424 3.89120003,10.4027066 3.49924256,9.52803625 C3.54279339,9.39683569 3.45569173,9.39683569 3.32503924,9.39683569 C3.19438675,9.44056921 3.19438675,9.57176977 3.19438675,9.65923681 C3.32503924,9.96537144 3.49924256,10.2277726 3.71699671,10.4901737 C3.71699671,10.4901737 3.71699671,10.4901737 3.71699671,10.4901737 C3.23793758,11.5397781 2.36692097,12.7205832 0.886192733,12.283248 C0.407133598,12.1520474 0.102277785,11.8459128 0.0151761243,11.4523111 C-0.0283747062,11.1461765 0.0151761243,10.8400418 0.232930277,10.7088413 C0.407133598,10.5776407 0.668438581,10.5339072 0.929743564,10.6651078 C1.67010768,10.9275089 2.10561599,9.70297033 2.54112429,8.52216531 C2.75887844,7.86616252 3.06373426,7.12269269 3.28148841,6.99149214 C3.54279339,6.81655806 4.19605585,6.81655806 4.54446249,7.29762677 C4.58801332,7.42882733 4.63156415,7.73496196 4.63156415,7.73496196 C4.63156415,7.822429 4.76221664,7.90989604 4.8493183,7.86616252 C4.9799708,7.86616252 5.02352163,7.73496196 5.02352163,7.64749492 C4.80576747,6.37922287 5.15417412,5.59201952 5.45902993,5.19841785 C5.45902993,5.19841785 3.19438675,3.4928106 3.54279339,1.2186676 C3.54279339,1.08746704 3.62989505,1 3.67344588,1 C3.71699671,1 3.80409837,1.13120056 3.80409837,1.30613463 C3.93475086,1.74346983 4.15250502,2.39947262 4.76221664,3.09920892 C5.32837744,3.79894523 5.80743657,4.1925469 6.28649571,4.36748098 C6.33004654,4.36748098 7.4188173,4.58614858 9.46570633,4.58614858 C10.6415788,4.58614858 12.1658578,4.45494802 12.2529595,4.4112145 C12.3400611,4.93601673 12.6013661,5.81068712 13.2981794,6.59789046 C13.9514419,7.34136029 14.6482552,7.64749492 15.1708651,7.86616252 C15.9112292,8.17229715 16.5644917,8.30349771 17,8.39096475 C17,8.39096475 17,8.39096475 17,8.39096475 C17,8.43469827 16.9564492,8.43469827 16.9564492,8.47843179 C16.6951442,9.13443458 16.2596359,9.70297033 15.6499243,10.184039 C15.1273143,10.1403055 14.5176027,10.2715061 14.0385435,10.4464402 C13.9949927,10.3152396 13.907891,9.96537144 13.7336877,9.35310217 C13.6901369,9.22190162 13.6030352,9.1781681 13.4723827,9.22190162 C13.3852811,9.1781681 13.3417302,9.30936865 13.3417302,9.39683569 Z" id="Path" fill="#FFFFFF"></path>
                            <path d="M16.8664636,0.00145654049 C16.5274126,-0.048507046 16.1506893,1.20058262 16,1.65025489 C16.3013786,1.70021848 16.6027573,1.80014565 16.9041359,2 C16.9794806,1.85010924 17.0924976,0.00145654049 16.8664636,0.00145654049 Z" id="Path" fill="#FFFFFF"></path>
                            <path d="M17.1528384,6.99545455 C17.1528384,6.99545455 17.0218341,6.95454545 16.8471616,6.99545455 C17.0218341,7.40454545 17.4148472,7.69090909 17.9388646,7.81363636 C18.8122271,8.01818182 19.8165939,7.97727273 20.8646288,7.07727273 C21.3886463,6.62727273 21.9126638,5.80909091 22,5.07272727 C21.9126638,5.19545455 21.7816594,5.23636364 21.650655,5.31818182 C21.0829694,5.48181818 20.3842795,5.23636364 20.209607,4.74545455 C20.0786026,4.45909091 20.209607,4.21363636 20.4279476,4.00909091 C20.2532751,4.05 20.0786026,4.09090909 19.860262,4.13181818 C19.2925764,4.25454545 18.8558952,4.33636364 18.6375546,4.17272727 C18.4628821,4.00909091 18.419214,3.76363636 18.2882096,3.47727273 C18.1572052,3.06818182 18.0262009,2.61818182 17.5895197,2.37272727 C16.6724891,1.84090909 15.6244541,2.00454545 15.580786,2.00454545 C15.4934498,2.00454545 15.4497817,2.00454545 15.4061135,1.92272727 C15.3624454,1.88181818 15.231441,0.777272727 15.0131004,0.45 C14.7947598,0.0409090909 14.6200873,0 14.5764192,0 C14.139738,0 13.441048,1.02272727 13.1790393,2.49545455 C13.1790393,2.53636364 13.1353712,2.53636364 13.1353712,2.57727273 C12.6113537,3.10909091 12,4.95 12,5.56363636 C12,5.56363636 12,5.60454545 12,5.64545455 C12.0436681,6.25909091 13.1353712,8.91818182 16.4104803,9 C16.4541485,9 16.4541485,9 16.4978166,9 C17.6768559,8.91818182 18.9432314,8.42727273 19.510917,8.14090909 C19.1179039,8.26363636 18.419214,8.30454545 17.8078603,8.18181818 C17.1528384,8.01818182 16.7161572,7.65 16.4541485,7.15909091 C16.3668122,7.2 16.3231441,7.28181818 16.279476,7.40454545 C16.2358079,7.48636364 16.1048035,7.52727273 16.0174672,7.48636364 C15.8864629,7.44545455 15.8864629,7.32272727 15.930131,7.24090909 C16.279476,6.62727273 16.9344978,6.54545455 17.2401747,6.58636364 C17.371179,6.58636364 17.4148472,6.70909091 17.4148472,6.79090909 C17.371179,6.95454545 17.2838428,6.99545455 17.1528384,6.99545455 Z M18.069869,3.88636364 C18.2008734,3.88636364 18.2882096,4.00909091 18.2882096,4.21363636 C18.2882096,4.37727273 18.1572052,4.54090909 18.069869,4.54090909 C17.9388646,4.54090909 17.8515284,4.41818182 17.8515284,4.21363636 C17.8078603,4.05 17.9388646,3.88636364 18.069869,3.88636364 Z M14.9694323,2.08636364 C14.8820961,2.12727273 14.7074236,2.20909091 14.4454148,2.20909091 C14.2270742,2.25 14.2270742,2.08636364 14.4017467,1.63636364 C14.5764192,1.22727273 14.7074236,1.02272727 14.7074236,1.02272727 C14.8820961,0.859090909 15.0131004,2.08636364 14.9694323,2.08636364 Z M17.0218341,5.19545455 C16.8034934,5.19545455 16.628821,4.95 16.628821,4.66363636 C16.628821,4.37727273 16.8034934,4.09090909 17.0218341,4.09090909 C17.2401747,4.09090909 17.4148472,4.33636364 17.4148472,4.62272727 C17.4148472,4.90909091 17.2401747,5.19545455 17.0218341,5.19545455 Z" id="Shape" fill="#FFFFFF" fill-rule="nonzero"></path>
                            <path d="M16.5523156,10.2036671 C16.4142367,10.4469473 16.2416381,10.6496807 16,10.8929609 C16.1035592,10.9335076 16.2071183,11.014601 16.3106775,11.0956944 C16.4487564,11.2578811 16.5868353,11.5011613 16.6903945,11.7849881 C17.001072,11.6633481 17.2427101,11.5011613 17.2427101,11.5011613 C17.2772298,11.4606146 17.3462693,11.4606146 17.380789,11.5011613 C17.4153087,11.541708 17.4498284,11.5822547 17.4843482,11.6633481 C17.6224271,12.7986554 18.0366637,13.123029 18.4163807,12.9608422 C18.7270582,12.8392021 18.8996569,12.595922 18.9686963,12.2715484 C19.1067752,11.541708 18.761578,10.6091341 18.4509004,10.2847605 C18.0711835,9.83874689 17.2081904,10.0009337 16.5523156,10.2036671 Z" id="Path" fill="#FFFFFF"></path>
                            <path d="M15.98251,8.45833333 L15.729162,8.95833333 C15.729162,8.95833333 15.6869373,9 15.6869373,9 C14.8002195,8.91666667 11.7178192,8.25 11,5.20833333 C11,5.20833333 11,5.16666667 11.0422247,5.16666667 L11.5066959,5 C11.5489206,5 11.5489206,5 11.5489206,5.04166667 C11.6755946,5.75 12.9423344,8.29166667 15.9402853,8.41666667 C15.98251,8.41666667 16.0247346,8.41666667 15.98251,8.45833333 Z" id="Path" fill="#1F9E38"></path>
                        </g>
                    </g>
                    <g id="logo-copy" transform="translate(7.000000, 7.000000)">
                        <g id="Group">
                            <circle id="Oval" fill="#16932B" cx="14.1253731" cy="13.9164179" r="13.7910448"></circle>
                            <circle id="Oval" fill="#FF6927" cx="14.1253731" cy="13.9164179" r="12.2865672"></circle>
                            <path d="M24.1970149,10.1134328 C24.4477612,10.0716418 24.6149254,9.90447761 24.5731343,9.73731343 C24.5313433,9.57014925 24.3223881,9.48656716 24.0716418,9.52835821 C23.8208955,9.57014925 23.6537313,9.73731343 23.6955224,9.90447761 C23.7373134,10.0716418 23.9462687,10.1552239 24.1970149,10.1134328 Z" id="Path" fill="#FFFFFF"></path>
                            <path d="M8.65074627,18.1373134 C8.60895522,18.5970149 8.52537313,19.0567164 8.06567164,19.0149254 C8.06567164,19.0149254 7.77313433,18.9313433 7.52238806,18.9313433 C6.97910448,18.9313433 6.85373134,19.2238806 6.85373134,19.4746269 C6.85373134,20.1850746 7.60597015,20.3940299 8.06567164,20.3940299 C8.52537313,20.3940299 9.02686567,20.2268657 9.40298507,19.9343284 C10.1134328,19.4328358 10.5731343,18.3044776 10.7820896,17.8029851 C10.5731343,17.719403 10.3223881,17.6358209 10.1134328,17.5522388 C9.73731343,17.9283582 9.19402985,18.1373134 8.65074627,18.1373134 Z" id="Path" fill="#FFFFFF"></path>
                            <path d="M15.880597,16.2985075 C15.9641791,16.5910448 16.0895522,17.1761194 16.1731343,17.4268657 C16.1731343,17.4268657 15.7552239,17.5940299 15.7134328,17.6358209 C15.5880597,17.6776119 15.5880597,17.8029851 15.6298507,17.9283582 C15.6716418,18.0537313 15.7970149,18.0537313 15.9223881,18.0119403 C16.4656716,17.719403 18.0119403,17.0507463 18.680597,17.719403 C19.0567164,18.0537313 19.3910448,19.1820896 19.1402985,19.9343284 C19.0149254,20.3940299 18.680597,20.6447761 18.1373134,20.6865672 C17.8447761,20.7283582 17.5940299,20.6447761 17.4268657,20.4776119 C16.9671642,20.0597015 16.9671642,19.2238806 16.9671642,19.2238806 C16.9671642,19.1402985 16.9253731,19.0985075 16.841791,19.0567164 C16.8,19.0149254 16.7164179,19.0149254 16.6328358,19.0567164 C16.6328358,19.0567164 15.4626866,19.8925373 14.5014925,19.4328358 C13.1223881,18.7641791 13.4567164,16.9671642 13.4567164,16.9253731 C13.4567164,16.8 13.4149254,16.7164179 13.2895522,16.7164179 C13.1641791,16.7164179 13.080597,16.758209 13.080597,16.8835821 C13.080597,16.8835821 12.9970149,17.3850746 13.080597,17.9283582 C12.0776119,17.8029851 11.2,17.6358209 10.4477612,17.3432836 C10.8656716,16.8835821 11.0746269,16.2985075 11.0746269,15.6298507 C11.0746269,15.5044776 10.9910448,15.4208955 10.8656716,15.4208955 C10.7402985,15.4208955 10.6567164,15.5044776 10.6567164,15.6298507 C10.6567164,16.841791 9.65373134,17.8029851 8.48358209,17.8029851 C7.60597015,17.8029851 6.8119403,17.2597015 6.4358209,16.4238806 C6.47761194,16.2985075 6.39402985,16.2985075 6.26865672,16.2985075 C6.14328358,16.3402985 6.14328358,16.4656716 6.14328358,16.5492537 C6.26865672,16.841791 6.4358209,17.0925373 6.64477612,17.3432836 C6.64477612,17.3432836 6.64477612,17.3432836 6.64477612,17.3432836 C6.18507463,18.3462687 5.34925373,19.4746269 3.92835821,19.0567164 C3.46865672,18.9313433 3.1761194,18.638806 3.09253731,18.2626866 C3.05074627,17.9701493 3.09253731,17.6776119 3.30149254,17.5522388 C3.46865672,17.4268657 3.71940299,17.3850746 3.97014925,17.5104478 C4.68059701,17.761194 5.09850746,16.5910448 5.51641791,15.4626866 C5.72537313,14.8358209 6.01791045,14.1253731 6.22686567,14 C6.47761194,13.8328358 7.10447761,13.8328358 7.43880597,14.2925373 C7.48059701,14.4179104 7.52238806,14.7104478 7.52238806,14.7104478 C7.52238806,14.7940299 7.64776119,14.8776119 7.73134328,14.8358209 C7.85671642,14.8358209 7.89850746,14.7104478 7.89850746,14.6268657 C7.68955224,13.4149254 8.0238806,12.6626866 8.31641791,12.2865672 C8.31641791,12.2865672 6.14328358,10.6567164 6.47761194,8.48358209 C6.47761194,8.35820896 6.56119403,8.27462687 6.60298507,8.27462687 C6.64477612,8.27462687 6.72835821,8.4 6.72835821,8.56716418 C6.85373134,8.98507463 7.06268657,9.6119403 7.64776119,10.280597 C8.19104478,10.9492537 8.65074627,11.3253731 9.11044776,11.4925373 C9.15223881,11.4925373 10.1970149,11.7014925 12.161194,11.7014925 C13.2895522,11.7014925 14.7522388,11.5761194 14.8358209,11.5343284 C14.919403,12.0358209 15.1701493,12.8716418 15.838806,13.6238806 C16.4656716,14.3343284 17.1343284,14.6268657 17.6358209,14.8358209 C18.3462687,15.1283582 18.9731343,15.2537313 19.3910448,15.3373134 C19.3910448,15.3373134 19.3910448,15.3373134 19.3910448,15.3373134 C19.3910448,15.3791045 19.3492537,15.3791045 19.3492537,15.4208955 C19.0985075,16.0477612 18.680597,16.5910448 18.0955224,17.0507463 C17.5940299,17.0089552 17.0089552,17.1343284 16.5492537,17.3014925 C16.5074627,17.1761194 16.4238806,16.841791 16.2567164,16.2567164 C16.2149254,16.1313433 16.1313433,16.0895522 16.0059701,16.1313433 C15.9223881,16.0895522 15.880597,16.2149254 15.880597,16.2985075 Z" id="Path" fill="#FFFFFF"></path>
                            <path d="M20.4776119,5.76716418 C20.1014925,5.72537313 19.6835821,6.77014925 19.5164179,7.14626866 C19.8507463,7.1880597 20.1850746,7.27164179 20.519403,7.43880597 C20.6029851,7.31343284 20.7283582,5.76716418 20.4776119,5.76716418 Z" id="Path" fill="#FFFFFF"></path>
                            <path d="M20.2686567,12.6208955 C20.2686567,12.6208955 20.1432836,12.5791045 19.9761194,12.6208955 C20.1432836,13.038806 20.519403,13.3313433 21.0208955,13.4567164 C21.8567164,13.6656716 22.8179104,13.6238806 23.8208955,12.7044776 C24.3223881,12.2447761 24.8238806,11.4089552 24.9074627,10.6567164 C24.8238806,10.7820896 24.6985075,10.8238806 24.5731343,10.9074627 C24.0298507,11.0746269 23.361194,10.8238806 23.1940299,10.3223881 C23.0686567,10.0298507 23.1940299,9.77910448 23.4029851,9.57014925 C23.2358209,9.6119403 23.0686567,9.65373134 22.8597015,9.69552239 C22.3164179,9.82089552 21.8985075,9.90447761 21.6895522,9.73731343 C21.5223881,9.57014925 21.480597,9.31940299 21.3552239,9.02686567 C21.2298507,8.60895522 21.1044776,8.14925373 20.6865672,7.89850746 C19.8089552,7.35522388 18.8059701,7.52238806 18.7641791,7.52238806 C18.680597,7.52238806 18.638806,7.52238806 18.5970149,7.43880597 C18.5552239,7.39701493 18.4298507,6.26865672 18.2208955,5.93432836 C18.0119403,5.51641791 17.8447761,5.47462687 17.8029851,5.47462687 C17.3850746,5.47462687 16.7164179,6.51940299 16.4656716,8.0238806 C16.4656716,8.06567164 16.4238806,8.06567164 16.4238806,8.10746269 C15.9223881,8.65074627 15.3373134,10.5313433 15.3373134,11.158209 C15.3373134,11.158209 15.3373134,11.2 15.3373134,11.241791 C15.3791045,11.8686567 16.4238806,14.5850746 19.558209,14.6686567 C19.6,14.6686567 19.6,14.6686567 19.641791,14.6686567 C20.7701493,14.5850746 21.9820896,14.0835821 22.5253731,13.7910448 C22.1492537,13.9164179 21.480597,13.958209 20.8955224,13.8328358 C20.2686567,13.6656716 19.8507463,13.2895522 19.6,12.7880597 C19.5164179,12.8298507 19.4746269,12.9134328 19.4328358,13.038806 C19.3910448,13.1223881 19.2656716,13.1641791 19.1820896,13.1223881 C19.0567164,13.080597 19.0567164,12.9552239 19.0985075,12.8716418 C19.4328358,12.2447761 20.0597015,12.161194 20.3522388,12.2029851 C20.4776119,12.2029851 20.519403,12.3283582 20.519403,12.4119403 C20.4776119,12.5791045 20.3940299,12.6208955 20.2686567,12.6208955 Z M21.1462687,9.44477612 C21.2716418,9.44477612 21.3552239,9.57014925 21.3552239,9.77910448 C21.3552239,9.94626866 21.2298507,10.1134328 21.1462687,10.1134328 C21.0208955,10.1134328 20.9373134,9.9880597 20.9373134,9.77910448 C20.8955224,9.6119403 21.0208955,9.44477612 21.1462687,9.44477612 Z M18.1791045,7.60597015 C18.0955224,7.64776119 17.9283582,7.73134328 17.6776119,7.73134328 C17.4686567,7.77313433 17.4686567,7.60597015 17.6358209,7.14626866 C17.8029851,6.72835821 17.9283582,6.51940299 17.9283582,6.51940299 C18.0955224,6.35223881 18.2208955,7.60597015 18.1791045,7.60597015 Z M20.1432836,10.7820896 C19.9343284,10.7820896 19.7671642,10.5313433 19.7671642,10.238806 C19.7671642,9.94626866 19.9343284,9.65373134 20.1432836,9.65373134 C20.3522388,9.65373134 20.519403,9.90447761 20.519403,10.1970149 C20.519403,10.4895522 20.3522388,10.7820896 20.1432836,10.7820896 Z" id="Shape" fill="#FFFFFF" fill-rule="nonzero"></path>
                            <path d="M19.2238806,16.4656716 C19.0567164,16.7164179 18.8477612,16.9253731 18.5552239,17.1761194 C18.680597,17.2179104 18.8059701,17.3014925 18.9313433,17.3850746 C19.0985075,17.5522388 19.2656716,17.8029851 19.3910448,18.0955224 C19.7671642,17.9701493 20.0597015,17.8029851 20.0597015,17.8029851 C20.1014925,17.761194 20.1850746,17.761194 20.2268657,17.8029851 C20.2686567,17.8447761 20.3104478,17.8865672 20.3522388,17.9701493 C20.519403,19.1402985 21.0208955,19.4746269 21.480597,19.3074627 C21.8567164,19.1820896 22.0656716,18.9313433 22.1492537,18.5970149 C22.3164179,17.8447761 21.8985075,16.8835821 21.5223881,16.5492537 C21.0626866,16.0895522 20.0179104,16.2567164 19.2238806,16.4656716 Z" id="Path" fill="#FFFFFF"></path>
                            <path d="M19.6835821,14.7522388 L19.4328358,15.2537313 C19.4328358,15.2537313 19.3910448,15.2955224 19.3910448,15.2955224 C18.5134328,15.2119403 15.4626866,14.5432836 14.7522388,11.4925373 C14.7522388,11.4925373 14.7522388,11.4507463 14.7940299,11.4507463 L15.2537313,11.2835821 C15.2955224,11.2835821 15.2955224,11.2835821 15.2955224,11.3253731 C15.4208955,12.0358209 16.6746269,14.5850746 19.641791,14.7104478 C19.6835821,14.7104478 19.7253731,14.7104478 19.6835821,14.7522388 Z" id="Path" fill="#1F9E38"></path>
                        </g>
                    </g>
                </g>
            </g>
        </g>
    </g>
</svg>