<?xml version="1.0" encoding="UTF-8"?>
<svg width="46px" height="60px" viewBox="0 0 46 60" version="1.1" xmlns="http://www.w3.org/2000/svg" xmlns:xlink="http://www.w3.org/1999/xlink">
    <!-- Generator: sketchtool 52.4 (67378) - http://www.bohemiancoding.com/sketch -->
    <title>BA791D96-38D2-40A3-9736-F5D1E3D535A3</title>
    <desc>Created with sketchtool.</desc>
    <g id="Page-1" stroke="none" stroke-width="1" fill="none" fill-rule="evenodd">
        <g id="-g-1-Где-купить-комп" transform="translate(-668.000000, -425.000000)">
            <g id="Group-14" transform="translate(-2.000000, 369.000000)">
                <g id="Group-23" transform="translate(672.000000, 58.000000)">
                    <g id="Group-21" fill="#FFFFFF" stroke="#B13B5F" stroke-linecap="round" stroke-width="4">
                        <path d="M21,54.709829 C29.3828125,47 42,32.9458784 42,21.2241204 C42,9.50236237 32.5979797,9.59232693e-14 21,9.59232693e-14 C9.40202025,9.59232693e-14 -2.84217094e-14,9.50236237 -2.84217094e-14,21.2241204 C-2.84217094e-14,32.9458784 12,47 21,54.709829 Z" id="Oval-Copy"></path>
                    </g>
                    <g id="sami-logo-2" transform="translate(5.000000, 17.000000)">
                        <path d="M32,7.48177302 C31.7676213,7.61636829 31.5616568,7.68361567 31.3819645,7.68361567 L31.2866746,7.68361567 C31.1523787,7.68361567 31.0570888,7.27993037 31.0008047,6.47255978 L30.9518107,6.47255978 C30.6559527,6.97621147 30.3709822,7.34627308 30.0968994,7.58269435 L29.9526154,7.58269435 L29.5251598,7.48177302 C29.7466036,6.27649699 29.8573254,5.5200394 29.8573254,5.2124505 C30.0479053,5.0797651 30.2230533,5.01347265 30.3828166,5.01347265 L30.4290651,5.01347265 L30.4781065,5.2124505 L30.4290651,5.2124505 L30.4781065,5.31337183 C30.4781065,5.39026905 30.4617278,5.45756669 30.4290651,5.51521447 L30.4781065,5.6161358 C30.4453964,5.93719427 30.4136331,6.12265228 30.3828166,6.17266061 L30.4781065,6.17266061 L30.9055148,5.51521447 C31.0706746,5.07886042 31.2612544,4.86063314 31.4773018,4.86063314 C31.6823195,4.79338576 31.8248047,4.75971181 31.9047101,4.75971181 L32,4.91255133 L32,5.01347265 C31.8819882,5.1672671 31.7867456,5.60367141 31.7141302,6.32258507 C31.7776568,6.77436882 31.8729467,7.16076481 32,7.48177302 Z M31.8141302,5.01347265 L31.8141302,4.91255133 L31.7141302,4.91255133 C31.7255559,4.97989922 31.7588892,5.01347265 31.8141302,5.01347265 Z M28.8581302,7.68361567 C28.7855148,7.67401608 28.6875266,7.5174071 28.564071,7.21358767 L28.6130651,7.21358767 C28.5477396,7.07135294 28.5150769,6.96661188 28.5150769,6.89931425 L28.564071,6.89931425 C28.5314556,6.84744631 28.5150769,6.742655 28.5150769,6.58504082 L28.4633846,6.58504082 C28.2455858,7.21358767 28.0649467,7.52791136 27.9215621,7.52791136 C27.8017988,7.52791136 27.6374911,7.24922174 27.4287811,6.691742 L27.3307456,6.691742 C27.3307456,7.10115689 27.2154793,7.41452565 26.9849941,7.63174774 L26.8352663,7.63174774 C26.4857751,7.58912758 26.2917396,7.48805548 26.252355,7.32888325 C26.0171361,7.56530452 25.8239053,7.68361567 25.6727574,7.68361567 L25.623716,7.68361567 C25.5583432,7.68361567 25.5257278,7.59711886 25.5257278,7.42412523 L25.4767337,7.42412523 L25.0873846,7.63174774 C24.5991006,7.52791136 24.3549822,7.18383397 24.3549822,6.59941507 C24.496568,6.3687234 24.6753609,6.19673497 24.8913609,6.08324874 L25.1363787,6.08324874 C25.3668639,6.1525065 25.4966627,6.18708512 25.5257278,6.18708512 L25.5257278,5.92754442 C25.5257278,5.8929658 25.5420592,5.87562623 25.5747219,5.87562623 C25.5075503,5.66996385 25.4422249,5.56708241 25.3786982,5.56708241 C25.1881183,5.79204448 25.0256568,5.91221524 24.8913609,5.92754442 L24.8913609,5.87562623 L24.7933254,5.92754442 C24.5991006,5.92754442 24.5020118,5.82476349 24.5020118,5.6190006 C24.6871479,5.10192959 24.9303669,4.84334383 25.2316686,4.84334383 C25.2316686,4.77413633 25.2969941,4.7395577 25.4276923,4.7395577 C25.915929,4.7395577 26.1600947,5.04905647 26.1600947,5.66800373 L26.1600947,5.71992192 C26.1600947,5.79882953 26.143716,5.86798677 26.1111006,5.92754442 C26.1111006,5.96217331 26.1273846,5.97946262 26.1600947,5.97946262 L26.1111006,6.33987438 L26.1111006,6.54749688 C26.1918107,6.88785505 26.2391953,7.12301983 26.2534438,7.25349381 C26.5253018,6.90072151 26.7528994,6.33022453 26.9359527,5.54114844 C26.9359527,5.0528762 26.9849941,4.80876521 27.0829822,4.80876521 L27.4287811,4.80876521 C27.6266036,4.85872327 27.7255385,5.05091607 27.7255385,5.38544413 C27.7255385,5.47772079 27.7908639,5.77380024 27.9215621,6.27358193 C27.9868876,6.27358193 28.1184852,5.76802038 28.316355,4.75684701 L28.4143905,4.70492882 L28.7111006,4.70492882 L29.007858,4.91546639 C29.007858,4.95195487 28.991574,5.00387306 28.9588639,5.0711707 C28.9588639,5.89975085 29.1394556,6.57926096 29.5006864,7.10980155 L29.5006864,7.16171974 C29.5006864,7.40970072 29.303716,7.58369954 28.9098698,7.68361567 L28.8581302,7.68361567 Z M25.1854201,6.54749688 C24.9893491,6.58212576 24.8913609,6.63404395 24.8913609,6.70320119 C24.8913609,6.90891383 24.9893491,7.01174502 25.1854201,7.01174502 L25.2316686,7.01174502 C25.2788166,7.01174502 25.327858,6.95987709 25.3786982,6.85604071 C25.3786982,6.68500721 25.3142722,6.58212576 25.1854201,6.54749688 Z M24.6953373,5.51521447 L24.6953373,5.56708241 L24.7933254,5.56708241 L24.8423669,5.3594599 C24.7951243,5.3594599 24.7461302,5.41137809 24.6953373,5.51521447 Z M25.9170414,5.10001972 L25.8170414,5.04810153 L25.8170414,5.10001972 L25.9170414,5.15188766 L25.9170414,5.10001972 Z M27.5777751,5.0711707 L27.4777751,5.01925251 C27.5111407,5.08655014 27.527751,5.13841808 27.527751,5.17495682 L27.5777751,5.17495682 L27.5777751,5.0711707 Z M28.9091361,5.01925251 L28.8091361,5.01925251 L28.8091361,5.12308889 L28.9091361,5.12308889 L28.9091361,5.01925251 Z M29.2529231,7.31742405 L29.3046627,7.31742405 L29.3536568,7.10980155 L29.2529231,7.10980155 L29.2529231,7.31742405 Z M23.3040947,7.68361567 L23.0154793,7.68361567 C22.6778698,7.68361567 22.3556923,7.47890822 22.0489941,7.06944307 C21.9200947,6.74074513 21.8556686,6.46778512 21.8556686,6.25051277 C21.8556686,5.55270815 22.1297041,5.09233 22.6778698,4.86932805 L23.0644734,4.76835647 C23.5890178,4.76835647 23.9592899,4.93848529 24.1752899,5.2787932 L24.224284,5.63634017 L24.224284,5.68825836 C24.1680473,6.09772351 24.0872426,6.30243096 23.9820118,6.30243096 L23.7396923,6.30243096 C23.579929,6.21206415 23.4991716,6.14381158 23.4973728,6.09772351 C23.5300828,5.90935044 23.5463669,5.7728453 23.5463669,5.68825836 C23.5463669,5.5171746 23.4656095,5.43158246 23.3040947,5.43158246 C23.0154793,5.43158246 22.8384852,5.72188205 22.7731598,6.30243096 C22.9093491,6.77919375 23.1189586,7.01752488 23.4020828,7.01752488 L23.5954083,7.01752488 L23.9820118,6.71189611 L24.0773018,6.71189611 C24.2370178,6.80030279 24.3177751,6.86860562 24.319574,6.91660356 L24.319574,7.01752488 C24.0473846,7.46161891 23.7087811,7.68361567 23.3040947,7.68361567 Z M23.7886864,5.17495682 L23.8376805,5.17495682 L23.8376805,5.0740355 L23.6906982,5.0740355 C23.7015858,5.14133313 23.7342959,5.17495682 23.7886864,5.17495682 Z M22.5308876,5.78917968 L22.5308876,5.99388713 L22.5798817,5.99388713 C22.5798817,5.94196894 22.6125444,5.87376663 22.6778698,5.78917968 L22.5308876,5.78917968 Z M23.9329704,6.96852175 L24.0773018,6.96852175 L24.1262959,6.86473562 L24.0773018,6.86473562 C24.015574,6.89931425 23.9674793,6.91660356 23.9329704,6.91660356 L23.9329704,6.96852175 Z M20.524355,7.68361567 C20.3700828,7.68361567 20.2384852,7.47508849 20.1295621,7.05788336 C20.5143669,6.74461512 20.727574,6.58790562 20.7693728,6.58790562 L20.7693728,6.53598743 C20.7675266,6.50135855 20.4226746,6.25820249 19.7347692,5.80646899 C19.5714556,5.65649428 19.4897988,5.51807927 19.4897988,5.39122398 C19.88,4.97411937 20.1095858,4.76549167 20.1785562,4.76549167 C20.3056095,5.12881849 20.600568,5.4931505 21.063432,5.85833692 L21.112426,5.85833692 C21.2576095,5.19903118 21.3401657,4.86932805 21.360142,4.86932805 C21.5742959,4.86932805 21.7377041,4.93848529 21.8502249,5.0769003 C21.8502249,5.76128559 21.587929,6.47351471 21.063432,7.21358767 C20.8891834,7.4231703 20.7094438,7.57982955 20.524355,7.68361567 Z M20.0315266,5.02498211 L19.9825325,5.12881849 L20.1295621,5.12881849 C20.1295621,5.05961099 20.0968994,5.02498211 20.0315266,5.02498211 Z M21.6542012,5.23546941 L21.7031953,5.23546941 C21.7031953,5.1644023 21.6705799,5.12881849 21.6052071,5.12881849 L21.5561657,5.12881849 C21.5671006,5.19993586 21.5997633,5.23546941 21.6542012,5.23546941 Z M17.020355,7.68361567 L16.731787,7.68361567 C16.3941775,7.68361567 16.072,7.47890822 15.7653018,7.06944307 C15.6364024,6.74074513 15.5719763,6.46778512 15.5719763,6.25051277 C15.5719763,5.55270815 15.8460118,5.09233 16.3941775,4.86932805 L16.7807811,4.76835647 C17.3053254,4.76835647 17.6755976,4.93848529 17.8915976,5.2787932 L17.9405917,5.63634017 L17.9405917,5.68825836 C17.884355,6.09772351 17.8035503,6.30243096 17.6982722,6.30243096 L17.456,6.30243096 C17.2962367,6.21206415 17.2154793,6.14381158 17.2136805,6.09772351 C17.2463432,5.90935044 17.2626746,5.7728453 17.2626746,5.68825836 C17.2626746,5.5171746 17.1819172,5.43158246 17.020355,5.43158246 C16.731787,5.43158246 16.5547929,5.72188205 16.4894675,6.30243096 C16.6256568,6.77919375 16.8352663,7.01752488 17.1183905,7.01752488 L17.311716,7.01752488 L17.6982722,6.71189611 L17.7935621,6.71189611 C17.9533254,6.80030279 18.0340828,6.86860562 18.0358817,6.91660356 L18.0358817,7.01752488 C17.763645,7.46161891 17.4250888,7.68361567 17.020355,7.68361567 Z M17.5049941,5.17495682 L17.5539882,5.17495682 L17.5539882,5.0740355 L17.4069586,5.0740355 C17.4178935,5.14133313 17.4505562,5.17495682 17.5049941,5.17495682 Z M16.2471479,5.78917968 L16.2471479,5.99388713 L16.2961893,5.99388713 C16.2961893,5.94196894 16.3288521,5.87376663 16.3941775,5.78917968 L16.2471479,5.78917968 Z M17.6492781,6.96852175 L17.7935621,6.96852175 L17.8426036,6.86473562 L17.7935621,6.86473562 C17.7318817,6.89931425 17.683787,6.91660356 17.6492781,6.91660356 L17.6492781,6.96852175 Z M13.5463669,7.68361567 L13.4510769,7.68361567 C13.3167811,7.68361567 13.2214911,7.27993037 13.1652071,6.47255978 L13.116213,6.47255978 C12.820355,6.97621147 12.5353846,7.34627308 12.2613018,7.58269435 L12.1170178,7.58269435 L11.6896095,7.48177302 C11.9110059,6.27649699 12.0217278,5.5200394 12.0217278,5.2124505 C12.2123077,5.0797651 12.3874556,5.01347265 12.5472189,5.01347265 L12.5935148,5.01347265 L12.6425089,5.2124505 L12.5935148,5.2124505 L12.6425089,5.31337183 C12.6425089,5.39026905 12.6261302,5.45756669 12.5935148,5.51521447 L12.6425089,5.6161358 C12.6097988,5.93719427 12.5780355,6.12265228 12.5472189,6.17266061 L12.6425089,6.17266061 L13.0699172,5.51521447 C13.2350769,5.07886042 13.4256568,4.86063314 13.6417041,4.86063314 C13.8467219,4.79338576 13.9892071,4.75971181 14.0691124,4.75971181 L14.1644024,4.91255133 L14.1644024,5.01347265 C14.0464379,5.1672671 13.9511479,5.60367141 13.8785325,6.32258507 C13.9420592,6.77436882 14.0373491,7.16076481 14.1644024,7.48177302 C13.9320237,7.61636829 13.7260592,7.68361567 13.5463669,7.68361567 Z M13.9785325,5.01347265 L13.9785325,4.91255133 L13.8785325,4.91255133 C13.8899583,4.97989922 13.9232916,5.01347265 13.9785325,5.01347265 Z M11.0225325,7.68361567 C10.9499645,7.67401608 10.851929,7.5174071 10.7284734,7.21358767 L10.7775148,7.21358767 C10.7121893,7.07135294 10.6794793,6.96661188 10.6794793,6.89931425 L10.7284734,6.89931425 C10.695858,6.84744631 10.6794793,6.742655 10.6794793,6.58504082 L10.627787,6.58504082 C10.4099882,7.21358767 10.2293491,7.52791136 10.0860118,7.52791136 C9.96620118,7.52791136 9.80189349,7.24922174 9.59318343,6.691742 L9.49519527,6.691742 C9.49519527,7.10115689 9.37992899,7.41452565 9.14939645,7.63174774 L8.99966864,7.63174774 C8.60577515,7.58369954 8.40885207,7.46161891 8.40885207,7.26550586 C8.68473373,6.91373876 8.91526627,6.3389697 9.10040237,5.54114844 C9.10040237,5.0528762 9.14939645,4.80876521 9.24743195,4.80876521 L9.59318343,4.80876521 C9.79100592,4.85872327 9.88994083,5.05091607 9.88994083,5.38544413 C9.88994083,5.47772079 9.95526627,5.77380024 10.0860118,6.27358193 C10.1513373,6.27358193 10.2828876,5.76802038 10.4807574,4.75684701 L10.5787929,4.70492882 L10.875503,4.70492882 L11.1723077,4.91546639 C11.1723077,4.95195487 11.1559763,5.00387306 11.1232663,5.0711707 C11.1232663,5.89975085 11.303858,6.57926096 11.6650888,7.10980155 L11.6650888,7.16171974 C11.6650888,7.40970072 11.4681183,7.58369954 11.0742722,7.68361567 L11.0225325,7.68361567 Z M9.74217751,5.0711707 L9.64217751,5.01925251 C9.67554304,5.08655014 9.69220166,5.13841808 9.69220166,5.17495682 L9.74217751,5.17495682 L9.74217751,5.0711707 Z M11.0735385,5.01925251 L10.9735385,5.01925251 L10.9735385,5.12308889 L11.0735385,5.12308889 L11.0735385,5.01925251 Z M11.4173254,7.31742405 L11.4690651,7.31742405 L11.5180592,7.10980155 L11.4173254,7.10980155 L11.4173254,7.31742405 Z M8.31086391,5.99383687 L8.26186982,6.35429889 L8.26186982,6.56192139 C8.35985799,6.97525654 8.40889941,7.23379204 8.40889941,7.33757816 C8.17102959,7.57791968 7.97595266,7.69804018 7.82352663,7.69804018 L7.77453254,7.69804018 C7.70915976,7.69804018 7.67649704,7.61149311 7.67649704,7.43849949 L7.62750296,7.43849949 L7.23815385,7.64612199 C6.74986982,7.54233587 6.50579882,7.19820823 6.50579882,6.61378932 C6.64733728,6.38314791 6.82613018,6.21110922 7.04213018,6.09767325 L7.28714793,6.09767325 C7.51763314,6.16688075 7.64743195,6.20145937 7.67649704,6.20145937 L7.67649704,5.94191868 C7.67649704,5.90739032 7.6928284,5.89005075 7.72549112,5.89005075 C7.65831953,5.68438837 7.59299408,5.58150692 7.52946746,5.58150692 C7.33888757,5.80646899 7.17642604,5.92658949 7.04213018,5.94191868 L7.04213018,5.89005075 L6.94409467,5.94191868 C6.74986982,5.94191868 6.65278107,5.83913775 6.65278107,5.63337485 C6.83791716,5.11630384 7.08113609,4.85776834 7.38243787,4.85776834 C7.38243787,4.78851058 7.44776331,4.75393196 7.57846154,4.75393196 C8.06669822,4.75393196 8.31086391,5.06348098 8.31086391,5.68242824 L8.31086391,5.73429617 C8.31086391,5.81320378 8.29448521,5.88241128 8.26186982,5.94191868 C8.26186982,5.97654756 8.27815385,5.99383687 8.31086391,5.99383687 Z M7.33618935,6.56192139 C7.14016568,6.59650001 7.04213018,6.6484182 7.04213018,6.71762571 C7.04213018,6.92333835 7.14016568,7.02616954 7.33618935,7.02616954 L7.38243787,7.02616954 C7.42963314,7.02616954 7.47862722,6.97425134 7.52946746,6.87046522 C7.52946746,6.69938146 7.46504142,6.59650001 7.33618935,6.56192139 Z M6.84610651,5.52958873 L6.84610651,5.58150692 L6.94409467,5.58150692 L6.99313609,5.37388441 C6.94594083,5.37388441 6.89689941,5.42575234 6.84610651,5.52958873 Z M8.06781065,5.11439398 L7.96781065,5.06247579 L7.96781065,5.11439398 L8.06781065,5.16631217 L8.06781065,5.11439398 Z M3.98343195,8 C1.71711243,8 0,6.26760104 0,4.01823159 C0,1.91979179 1.52208284,0.18136167 3.528,0.00082910225 C3.62078107,-0.00771503375 3.70740828,0.0504856103 3.74007101,0.142712019 L3.86650888,0.499253789 C3.91384615,0.632642829 3.83005917,0.779049113 3.69604734,0.79407674 C3.21789349,0.846748825 2.70849704,1.02672854 2.19957396,1.41131518 C0.14016568,2.96675 1.2664142,5.61925189 1.65131361,6.04193533 C2.01017751,6.4355687 3.39261538,8.03407602 5.89136095,6.6115779 C5.95431953,6.57594383 6.02911243,6.60454155 6.05325444,6.67324646 L6.16118343,6.97706588 C6.22134911,7.14759679 6.15928994,7.340644 6.01159763,7.433373 C5.47190533,7.77131871 4.80104142,8 3.98343195,8 Z M0.994224852,5.8884927 C0.994224852,5.8884927 0.556307692,5.39011827 0.414248521,4.60536451 C0.414248521,4.60536451 0.43791716,5.5490392 0.994224852,5.8884927 Z M1.94011834,1.3014979 C1.89846154,1.32557226 0.422769231,2.18551442 0.73287574,4.04275828 C0.722461538,3.92143155 0.609325444,2.31438009 1.94011834,1.3014979 Z" id="Shape" fill="#C02355"></path>
                        <path d="M6,6.25691473 C5.46242434,6.71816725 4.74454979,6.99998824 3.95677326,6.99998824 L3.94750656,6.99998824 C3.91065204,7.00011406 3.8738015,6.99923044 3.83700252,6.99733851 C3.79795952,6.99671379 3.75895511,6.99472928 3.72007071,6.99138912 C3.70651883,6.99068919 3.69371686,6.98938933 3.68086132,6.98803947 C3.64935408,6.98628823 3.61794981,6.98318527 3.58674809,6.97874042 C3.55671147,6.97565608 3.52675988,6.97188868 3.49692003,6.96744159 C3.4755477,6.96409193 3.45487171,6.96144221 3.43419573,6.95814255 C3.33161251,6.94151241 3.2300098,6.91998639 3.12978735,6.89364918 C3.08613512,6.88270723 3.04285237,6.87051944 3,6.85710295 L3.00074991,6.85575309 L3.92468799,4.76866793 C4.07011624,4.90630376 4.3510097,5.12228153 4.71958862,5.18412516 C4.80971601,5.19899007 4.90108488,5.20631839 4.99260807,5.20602291 C5.27639402,5.20602291 5.50093738,5.13757996 5.57437463,5.11298249 C5.59719321,5.15152852 5.74406771,5.39545341 5.80679201,5.52708986 C5.88451444,5.68927316 5.97075366,5.98639258 5.97573518,6.00499066 L5.85741068,5.95914538 C5.85741068,5.95914538 5.9343832,6.11932889 6,6.25691473 Z M5.67063046,4.69292573 C5.55798382,4.72217272 5.51304301,4.77201759 5.5088114,4.86040849 C5.5088114,4.87770671 5.50950774,4.89830459 5.51234667,4.92090226 C5.4717446,4.93485082 5.13450104,5.04983899 4.75810167,4.98669549 C4.38379131,4.92355199 4.10573678,4.66102901 4.01521238,4.56463893 L4.70742943,3 L4.92918742,3.52974547 C4.97407467,3.53639478 5.2706626,3.58289 5.41967968,3.64868322 C5.5808024,3.71917597 5.55439499,3.92855441 5.63495634,3.9830488 C5.7155177,4.03754319 5.78681236,4.05414149 5.827468,4.07473937 C5.86737372,4.09538724 5.92158123,4.2754687 5.91231453,4.39645625 C5.90374417,4.51809373 5.78252718,4.66297881 5.67063046,4.69292573 Z" id="Shape" fill="#30559A"></path>
                        <path d="M3.56304955,3.34070391 C3.49123773,3.38060971 3.35295918,3.44420665 3.19146419,3.44915983 C3.04779974,3.45289808 2.89548524,3.36560999 2.8025787,3.29953646 C2.83281311,3.26771462 2.85660077,3.24154689 2.86737254,3.22407058 C2.89009935,3.18790303 2.86361874,3.14238986 2.81069833,3.09192352 C2.65569088,2.94286088 2.2743538,2.75459337 2.23436767,2.65978206 C2.18091682,2.53258818 2.18360977,2.01881273 2.28838974,1.97082298 C2.32025624,1.95647745 2.37374788,1.95087008 2.43584879,1.95087008 C2.58114532,1.95087008 2.77287472,1.97956113 2.84093274,1.98951421 C2.84415611,1.98951421 2.84742028,1.99016841 2.85121488,1.99016841 C2.93167677,1.99016841 3.01107779,1.86232033 3.12124365,1.84549821 C3.25197381,1.82493785 3.32864108,1.848629 3.36324132,1.80372329 C3.42154763,1.72764995 3.39078279,1.68335171 3.39078279,1.53625166 C3.39078279,1.43583298 3.40804211,1.35041401 3.43289063,1.27934057 C3.49931656,1.08981141 3.62139666,1 3.62139666,1 L4,2.11923142 L3.56304955,3.34070391 Z M2.26084828,4.42932842 C2.26570374,4.41563709 2.34457433,4.19554775 2.379705,4.12382012 C2.41642695,4.05022336 2.58008446,3.80022803 2.58008446,3.80022803 L2.50011221,3.79709725 L2.44613093,3.79462066 C2.44613093,3.79462066 2.52336944,3.64247397 2.63406573,3.49219641 L2.66487137,3.42238463 C2.6691964,3.42546868 2.67458229,3.42986112 2.67996817,3.43420684 C2.78099435,3.51088765 2.97864006,3.63812826 3.18065161,3.63812826 C3.18550707,3.63812826 3.19093376,3.63747407 3.19578922,3.63747407 C3.30109962,3.63434328 3.39722953,3.61004467 3.47716098,3.58135362 L3.4399086,3.68551055 L2.61248138,6 C2.38668217,5.88402086 2.1803864,5.7262668 2,5.5366909 L2.42340413,4.35138596 L2.26084828,4.42932842 Z" id="Shape" fill="#A3CD3A"></path>
                        <path d="M2.4734083,4.15140382 L2.28023637,4.46069628 L2.42178093,4.4649072 C2.40377526,4.48964639 2.38954856,4.51080629 2.37982328,4.52707099 C2.32519497,4.61813224 2.22188467,4.85115432 2.20165608,4.89705341 L1.99203453,5.37441442 L2.18365041,5.29882831 L1.80558694,6 C1.30620751,5.46831805 1,4.77067301 1,4.00381089 C1,2.40376457 2.32291647,1.09885147 3.99322009,1 L4,1.06495352 C3.88396347,1.19207083 3.75214419,1.40251182 3.75214419,1.7019086 C3.75214419,1.75275552 3.75514514,1.79507532 3.75814608,1.82760472 C3.71024211,1.82897327 3.64733342,1.83113137 3.57397699,1.84029013 C3.44293574,1.85723911 3.34340441,1.92077144 3.27077043,1.96740744 C3.25426523,1.97725048 3.23109127,1.99209399 3.21608655,2.00056847 C3.10382898,1.98714615 2.85224978,1.95893295 2.65385399,1.95893295 C2.52431321,1.95893295 2.43522961,1.97019718 2.3663746,1.99562064 C2.2787359,2.02883431 2.21210381,2.09799876 2.16942371,2.20179807 C2.07739474,2.42492447 2.07811719,2.88602078 2.1717022,3.06682738 C2.23010948,3.18120664 2.36787507,3.25747702 2.64863012,3.40575423 C2.73471278,3.4509164 2.8709779,3.52297586 2.9637849,3.58156036 C2.90165422,3.63524966 2.82902025,3.69946627 2.76688958,3.76726216 C2.59766964,3.95296397 2.47790971,4.14361361 2.4734083,4.15140382 Z" id="Path" fill="#FECF0A"></path>
                    </g>
                </g>
            </g>
        </g>
    </g>
</svg>