<?xml version="1.0" encoding="UTF-8"?>
<svg width="27px" height="26px" viewBox="0 0 27 26" version="1.1" xmlns="http://www.w3.org/2000/svg" xmlns:xlink="http://www.w3.org/1999/xlink">
    <!-- Generator: sketchtool 52.4 (67378) - http://www.bohemiancoding.com/sketch -->
    <title>EEA9B2DE-5BCC-45AE-B633-2DE23249D4E6</title>
    <desc>Created with sketchtool.</desc>
    <g id="Page-1" stroke="none" stroke-width="1" fill="none" fill-rule="evenodd">
        <g id="-g-1-Где-купить-отк-список" transform="translate(-473.000000, -287.000000)" fill="#E6B51F" stroke="#E6B51F" stroke-width="3">
            <path d="M496.751801,298.465102 L488.104613,298.465102 L488.104613,290.1938 C488.104613,289.817008 487.569711,289 486.499953,289 C485.430196,289 484.895293,289.817053 484.895293,290.1938 L484.895293,298.465146 L476.248058,298.465146 C475.854188,298.465102 475,298.976749 475,299.999955 C475,301.023161 475.854188,301.534854 476.248058,301.534854 L484.89534,301.534854 L484.89534,309.8062 C484.89534,310.182902 485.430196,311 486.5,311 C487.569804,311 488.10466,310.182902 488.10466,309.8062 L488.10466,301.534854 L496.751942,301.534854 C497.145765,301.534854 498,301.023251 498,299.999955 C498,298.97666 497.145672,298.465102 496.751801,298.465102 Z" id="Path"></path>
        </g>
    </g>
</svg>