<?xml version="1.0" encoding="UTF-8"?>
<svg width="99px" height="23px" viewBox="0 0 99 23" version="1.1" xmlns="http://www.w3.org/2000/svg" xmlns:xlink="http://www.w3.org/1999/xlink">
    <!-- Generator: sketchtool 52.4 (67378) - http://www.bohemiancoding.com/sketch -->
    <title>0F85B2EA-615C-4395-A26A-99EE7E5B2E47</title>
    <desc>Created with sketchtool.</desc>
    <g id="Page-1" stroke="none" stroke-width="1" fill="none" fill-rule="evenodd">
        <g id="-g-1-Где-купить-список-комп" transform="translate(-81.000000, -730.000000)" fill="#C02355">
            <g id="sami-logo-2" transform="translate(81.000000, 730.000000)">
                <path d="M99,21.5100974 C98.2810784,21.8970588 97.6438757,22.0903951 97.0879527,22.0903951 L96.7931494,22.0903951 C96.3776716,22.0903951 96.0828683,20.9297998 95.9087396,18.6086094 L95.7571642,18.6086094 C94.8418536,20.056608 93.9602263,21.1205351 93.1122825,21.8002462 L92.6659038,21.8002462 L91.343463,21.5100974 C92.0285547,18.0449288 92.3711006,15.8701133 92.3711006,14.9857952 C92.9607071,14.6043246 93.502571,14.4137339 93.9968388,14.4137339 L94.1399201,14.4137339 L94.291642,14.9857952 L94.1399201,14.9857952 L94.291642,15.275944 C94.291642,15.4970235 94.2409704,15.6905042 94.1399201,15.8562416 L94.291642,16.1463904 C94.1904453,17.0694335 94.0921775,17.6026253 93.9968388,17.7463993 L94.291642,17.7463993 L95.6139364,15.8562416 C96.1248994,14.6017237 96.7145059,13.9743203 97.3829024,13.9743203 C98.017176,13.7809841 98.4579896,13.6841715 98.7051967,13.6841715 L99,14.1235851 L99,14.4137339 C98.6349009,14.8558929 98.3402441,16.1105553 98.1155902,18.1774321 C98.3121257,19.4763104 98.606929,20.5871988 99,21.5100974 Z M98.4103935,14.4137339 L98.4103935,14.1235851 L98.1155902,14.1235851 C98.1492737,14.3172103 98.2475414,14.4137339 98.4103935,14.4137339 Z M89.2798402,22.0903951 C89.0551864,22.0627962 88.7520355,21.6125454 88.3700947,20.7390646 L88.5216701,20.7390646 C88.3195695,20.3301397 88.2185192,20.0290092 88.2185192,19.8355285 L88.3700947,19.8355285 C88.2691908,19.6864082 88.2185192,19.3851331 88.2185192,18.9319924 L88.0585962,18.9319924 C87.3847811,20.7390646 86.825929,21.6427451 86.3823328,21.6427451 C86.0118151,21.6427451 85.5034882,20.8415125 84.8577914,19.2387583 L84.5544941,19.2387583 C84.5544941,20.4158261 84.1978891,21.3167612 83.4848254,21.9412747 L83.021605,21.9412747 C81.9403669,21.8187418 81.3400695,21.5281595 81.2182234,21.0705393 C80.4905148,21.7502505 79.8927071,22.0903951 79.4250932,22.0903951 L79.2733713,22.0903951 C79.0711243,22.0903951 78.9702204,21.8417167 78.9702204,21.34436 L78.818645,21.34436 L77.6140962,21.9412747 C76.1034675,21.6427451 75.3482263,20.6535227 75.3482263,18.9733183 C75.7862574,18.3100798 76.3393979,17.815613 77.0076479,17.4893401 L77.7656716,17.4893401 C78.4787352,17.6884562 78.8803003,17.7878697 78.9702204,17.7878697 L78.9702204,17.0416902 C78.9702204,16.9422767 79.0207456,16.8924254 79.1217959,16.8924254 C78.9139837,16.3011461 78.7118831,16.0053619 78.5153476,16.0053619 C77.9257411,16.6521279 77.4231257,16.9976188 77.0076479,17.0416902 L77.0076479,16.8924254 L76.7043506,17.0416902 C76.1034675,17.0416902 75.8030991,16.746195 75.8030991,16.1546267 C76.3758639,14.6680476 77.1283225,13.9246135 78.0604749,13.9246135 C78.0604749,13.7256419 78.2625754,13.6262284 78.6669231,13.6262284 C80.1774053,13.6262284 80.9327929,14.5160373 80.9327929,16.2955107 L80.9327929,16.4447755 C80.9327929,16.6716349 80.8821213,16.870462 80.7812175,17.0416902 C80.7812175,17.1412483 80.8315962,17.190955 80.9327929,17.190955 L80.7812175,18.2271388 L80.7812175,18.8240535 C81.0309142,19.8025833 81.1775104,20.478682 81.2215917,20.8537947 C82.0626524,19.8395744 82.7667825,18.1993955 83.3331036,15.9308018 C83.3331036,14.5270191 83.4848254,13.8252 83.7879763,13.8252 L84.8577914,13.8252 C85.4698047,13.9688294 85.7758846,14.5213837 85.7758846,15.4831519 C85.7758846,15.7484473 85.9779852,16.5996757 86.3823328,18.0365481 C86.5844334,18.0365481 86.9915636,16.5830586 87.6037234,13.6759352 L87.9070207,13.5266704 L88.8249675,13.5266704 L89.7430607,14.1319659 C89.7430607,14.2368703 89.692682,14.3861351 89.5914852,14.5796158 C89.5914852,16.9617837 90.1501908,18.9153753 91.2677485,20.4406795 L91.2677485,20.5899443 C91.2677485,21.3028896 90.6583713,21.8031362 89.4399098,22.0903951 L89.2798402,22.0903951 Z M77.9173935,18.8240535 C77.3107988,18.9236116 77.0076479,19.0728764 77.0076479,19.2717034 C77.0076479,19.8631273 77.3107988,20.1587669 77.9173935,20.1587669 L78.0604749,20.1587669 C78.2063388,20.1587669 78.3580607,20.0096466 78.5153476,19.711117 C78.5153476,19.2193957 78.3160296,18.9236116 77.9173935,18.8240535 Z M76.4011997,15.8562416 L76.4011997,16.0053619 L76.7043506,16.0053619 L76.8560725,15.4084472 C76.7099157,15.4084472 76.5583402,15.557712 76.4011997,15.8562416 Z M80.1747692,14.6625567 L79.8714719,14.5132919 L79.8714719,14.6625567 L80.1747692,14.811677 L80.1747692,14.6625567 Z M85.3126642,14.5796158 L85.0093669,14.430351 C85.1105636,14.6238317 85.1609423,14.772952 85.1609423,14.8780009 L85.3126642,14.8780009 L85.3126642,14.5796158 Z M89.2798402,14.430351 L89.1282648,14.430351 L89.1282648,14.7288806 L89.2798402,14.7288806 L89.2798402,14.430351 Z M90.5012308,21.0375942 L90.6613003,21.0375942 L90.8128757,20.4406795 L90.5012308,20.4406795 L90.5012308,21.0375942 Z M72.0970429,22.0903951 L71.2041391,22.0903951 C70.1596598,22.0903951 69.1629231,21.5018611 68.2140754,20.3246488 C67.8152929,19.3796423 67.6159749,18.5948822 67.6159749,17.9702242 C67.6159749,15.9640359 68.4637722,14.6404488 70.1596598,13.9993181 L71.3557145,13.7090248 C72.9785237,13.7090248 74.1240533,14.1981452 74.7923033,15.1765305 L74.9438787,16.204478 L74.9438787,16.3537428 C74.7698964,17.5309551 74.5199068,18.119489 74.1943491,18.119489 L73.4446731,18.119489 C72.9504053,17.8596844 72.7005621,17.6634583 72.694997,17.5309551 C72.7961938,16.9893825 72.8465725,16.5969302 72.8465725,16.3537428 C72.8465725,15.861877 72.5967293,15.6157996 72.0970429,15.6157996 C71.2041391,15.6157996 70.6565636,16.4504109 70.454463,18.119489 C70.8757988,19.490182 71.5242781,20.175384 72.4001938,20.175384 L72.9982944,20.175384 L74.1943491,19.2967013 L74.4891524,19.2967013 C74.9832737,19.5508705 75.2331169,19.7472411 75.238682,19.8852352 L75.238682,20.175384 C74.3965962,21.4521544 73.3490414,22.0903951 72.0970429,22.0903951 Z M73.5962485,14.8780009 L73.747824,14.8780009 L73.747824,14.5878521 L73.2930976,14.5878521 C73.3267811,14.7813328 73.4279778,14.8780009 73.5962485,14.8780009 Z M69.7049334,16.6438916 L69.7049334,17.2324255 L69.8565089,17.2324255 C69.8565089,17.0831607 69.9575592,16.8870791 70.1596598,16.6438916 L69.7049334,16.6438916 Z M74.0426272,20.0345 L74.4891524,20.0345 L74.6407278,19.7361149 L74.4891524,19.7361149 C74.298182,19.8355285 74.1493891,19.8852352 74.0426272,19.8852352 L74.0426272,20.0345 Z M63.4972234,22.0903951 C63.0199438,22.0903951 62.6128136,21.4908794 62.2758328,20.2914147 C63.4663225,19.3907685 64.125932,18.9402287 64.255247,18.9402287 L64.255247,18.7909639 C64.2495355,18.6914058 63.1826494,17.9923322 61.0544423,16.6935984 C60.5491908,16.262421 60.2965651,15.8644779 60.2965651,15.4997689 C61.50375,14.3005932 62.2140311,13.7007886 62.4274083,13.7007886 C62.8204793,14.7453532 63.7330074,15.7928077 65.1649926,16.8427187 L65.316568,16.8427187 C65.7657293,14.9472146 66.0211376,13.9993181 66.0829393,13.9993181 C66.7454778,13.9993181 67.2510222,14.1981452 67.5991331,14.5960884 C67.5991331,16.5636961 66.7876553,18.6113548 65.1649926,20.7390646 C64.6259112,21.3416146 64.0698417,21.7920099 63.4972234,22.0903951 Z M61.9725355,14.4468236 L61.8209601,14.7453532 L62.2758328,14.7453532 C62.2758328,14.5463816 62.1747825,14.4468236 61.9725355,14.4468236 Z M66.9926849,15.0519746 L67.1442604,15.0519746 C67.1442604,14.8476566 67.0433565,14.7453532 66.8411095,14.7453532 L66.6893876,14.7453532 C66.7232175,14.9498156 66.8242678,15.0519746 66.9926849,15.0519746 Z M52.6567234,22.0903951 L51.763966,22.0903951 C50.7194867,22.0903951 49.72275,21.5018611 48.7739024,20.3246488 C48.3751198,19.3796423 48.1758018,18.5948822 48.1758018,17.9702242 C48.1758018,15.9640359 49.0235991,14.6404488 50.7194867,13.9993181 L51.9155414,13.7090248 C53.5383506,13.7090248 54.6838802,14.1981452 55.3521302,15.1765305 L55.5037056,16.204478 L55.5037056,16.3537428 C55.3297234,17.5309551 55.0797337,18.119489 54.7540296,18.119489 L54.0045,18.119489 C53.5102322,17.8596844 53.2603891,17.6634583 53.254824,17.5309551 C53.3558743,16.9893825 53.4063994,16.5969302 53.4063994,16.3537428 C53.4063994,15.861877 53.1565562,15.6157996 52.6567234,15.6157996 C51.763966,15.6157996 51.2163905,16.4504109 51.0142899,18.119489 C51.4356257,19.490182 52.084105,20.175384 52.9600207,20.175384 L53.5581213,20.175384 L54.7540296,19.2967013 L55.0488328,19.2967013 C55.5431006,19.5508705 55.7929438,19.7472411 55.7985089,19.8852352 L55.7985089,20.175384 C54.9562766,21.4521544 53.9088683,22.0903951 52.6567234,22.0903951 Z M54.1560754,14.8780009 L54.3076509,14.8780009 L54.3076509,14.5878521 L53.8527781,14.5878521 C53.886608,14.7813328 53.9876583,14.8780009 54.1560754,14.8780009 Z M50.2646139,16.6438916 L50.2646139,17.2324255 L50.4163358,17.2324255 C50.4163358,17.0831607 50.5173861,16.8870791 50.7194867,16.6438916 L50.2646139,16.6438916 Z M54.6024541,20.0345 L55.0488328,20.0345 L55.2005547,19.7361149 L55.0488328,19.7361149 C54.8580089,19.8355285 54.709216,19.8852352 54.6024541,19.8852352 L54.6024541,20.0345 Z M41.9090725,22.0903951 L41.6142692,22.0903951 C41.1987914,22.0903951 40.9039882,20.9297998 40.7298595,18.6086094 L40.578284,18.6086094 C39.6629734,20.056608 38.7813462,21.1205351 37.9334024,21.8002462 L37.4870237,21.8002462 L36.1647293,21.5100974 C36.8496746,18.0449288 37.1922204,15.8701133 37.1922204,14.9857952 C37.7818269,14.6043246 38.3236908,14.4137339 38.8179586,14.4137339 L38.9611864,14.4137339 L39.1127618,14.9857952 L38.9611864,14.9857952 L39.1127618,15.275944 C39.1127618,15.4970235 39.0620902,15.6905042 38.9611864,15.8562416 L39.1127618,16.1463904 C39.0115651,17.0694335 38.9132973,17.6026253 38.8179586,17.7463993 L39.1127618,17.7463993 L40.4350562,15.8562416 C40.9460192,14.6017237 41.5356257,13.9743203 42.2040222,13.9743203 C42.8382959,13.7809841 43.2791095,13.6841715 43.5263166,13.6841715 L43.8211198,14.1235851 L43.8211198,14.4137339 C43.4561672,14.8558929 43.1613639,16.1105553 42.9367101,18.1774321 C43.1332456,19.4763104 43.4280488,20.5871988 43.8211198,21.5100974 C43.1021982,21.8970588 42.4649956,22.0903951 41.9090725,22.0903951 Z M43.2315133,14.4137339 L43.2315133,14.1235851 L42.9367101,14.1235851 C42.9703935,14.3172103 43.0686612,14.4137339 43.2315133,14.4137339 Z M34.1009601,22.0903951 C33.8764527,22.0627962 33.5731553,21.6125454 33.1912145,20.7390646 L33.3429364,20.7390646 C33.1408358,20.3301397 33.0396391,20.0290092 33.0396391,19.8355285 L33.1912145,19.8355285 C33.0903107,19.6864082 33.0396391,19.3851331 33.0396391,18.9319924 L32.879716,18.9319924 C32.2059009,20.7390646 31.6470488,21.6427451 31.2035991,21.6427451 C30.8329349,21.6427451 30.324608,20.8415125 29.6789112,19.2387583 L29.3757604,19.2387583 C29.3757604,20.4158261 29.0191553,21.3167612 28.3059453,21.9412747 L27.8427249,21.9412747 C26.6241169,21.8031362 26.0148861,21.4521544 26.0148861,20.8883294 C26.868395,19.8769989 27.581605,18.2245379 28.1543698,15.9308018 C28.1543698,14.5270191 28.3059453,13.8252 28.6092426,13.8252 L29.6789112,13.8252 C30.2909246,13.9688294 30.5970044,14.5213837 30.5970044,15.4831519 C30.5970044,15.7484473 30.799105,16.5996757 31.2035991,18.0365481 C31.4056997,18.0365481 31.8126834,16.5830586 32.4248432,13.6759352 L32.7281405,13.5266704 L33.6460873,13.5266704 L34.5643269,14.1319659 C34.5643269,14.2368703 34.5138018,14.3861351 34.412605,14.5796158 C34.412605,16.9617837 34.9713107,18.9153753 36.0888683,20.4406795 L36.0888683,20.5899443 C36.0888683,21.3028896 35.4794911,21.8031362 34.2610296,22.0903951 L34.1009601,22.0903951 Z M30.133784,14.5796158 L29.8304867,14.430351 C29.9316834,14.6238317 29.9822086,14.772952 29.9822086,14.8780009 L30.133784,14.8780009 L30.133784,14.5796158 Z M34.1009601,14.430351 L33.9493846,14.430351 L33.9493846,14.7288806 L34.1009601,14.7288806 L34.1009601,14.430351 Z M35.3223506,21.0375942 L35.4824201,21.0375942 L35.6339956,20.4406795 L35.3223506,20.4406795 L35.3223506,21.0375942 Z M25.7117352,17.232281 L25.5601598,18.2686093 L25.5601598,18.865524 C25.8633107,20.0538625 26.0150325,20.7971521 26.0150325,21.0955372 C25.2791228,21.7865191 24.6756036,22.1318655 24.2040355,22.1318655 L24.0524601,22.1318655 C23.850213,22.1318655 23.7491627,21.8830427 23.7491627,21.385686 L23.5975873,21.385686 L22.3930385,21.9826007 C20.8824098,21.6842156 20.1273151,20.6948487 20.1273151,19.0146443 C20.5651997,18.3515502 21.1183402,17.856939 21.7865902,17.5308106 L22.5446139,17.5308106 C23.2576775,17.7297822 23.6592426,17.8291957 23.7491627,17.8291957 L23.7491627,17.0830162 C23.7491627,16.9837472 23.7996879,16.9338959 23.9007382,16.9338959 C23.692926,16.3426166 23.4908254,16.0468324 23.2942899,16.0468324 C22.7046834,16.6935984 22.202068,17.0389448 21.7865902,17.0830162 L21.7865902,16.9338959 L21.4832929,17.0830162 C20.8824098,17.0830162 20.5820414,16.787521 20.5820414,16.1959527 C21.1548062,14.7093735 21.9072648,13.966084 22.8394172,13.966084 C22.8394172,13.7669679 23.0415178,13.6675544 23.4458654,13.6675544 C24.9563476,13.6675544 25.7117352,14.5575078 25.7117352,16.3369812 L25.7117352,16.4861015 C25.7117352,16.7129609 25.6610636,16.9119324 25.5601598,17.0830162 C25.5601598,17.1825742 25.6105385,17.232281 25.7117352,17.232281 Z M22.6963358,18.865524 C22.0898876,18.9649375 21.7865902,19.1142023 21.7865902,19.3131739 C21.7865902,19.9045977 22.0898876,20.2002374 22.6963358,20.2002374 L22.8394172,20.2002374 C22.9854275,20.2002374 23.137003,20.0509726 23.2942899,19.7525875 C23.2942899,19.2607217 23.0949719,18.9649375 22.6963358,18.865524 Z M21.180142,15.8975676 L21.180142,16.0468324 L21.4832929,16.0468324 L21.6350148,15.4499177 C21.4890044,15.4499177 21.3372825,15.599038 21.180142,15.8975676 Z M24.9537115,14.7038827 L24.6504142,14.5546179 L24.6504142,14.7038827 L24.9537115,14.8531475 L24.9537115,14.7038827 Z M12.3237426,23 C5.31231657,23 0,18.019353 0,11.5524158 C0,5.51940139 4.70894379,0.521414801 10.91475,0.00238366897 C11.2017914,-0.022180722 11.4697944,0.14514613 11.5708447,0.410297056 L11.9620118,1.43535464 C12.1084615,1.81884813 11.8492456,2.2397662 11.4346464,2.28297063 C9.95535799,2.43440287 8.37941272,2.95184454 6.80493195,4.05753113 C0.433637574,8.52940626 3.91796893,16.1553492 5.10875148,17.3705641 C6.21898669,18.50226 10.4959038,23.0979686 18.2263979,19.0082865 C18.421176,18.9058385 18.6525666,18.988057 18.7272559,19.1855836 L19.0611612,20.0590644 C19.2472988,20.5493408 19.0553033,21.1043515 18.5983802,21.3709474 C16.9287071,22.3425413 14.8532219,23 12.3237426,23 Z M3.07588314,16.9294165 C3.07588314,16.9294165 1.72107692,15.49659 1.28158136,13.240423 C1.28158136,13.240423 1.35480621,15.9534877 3.07588314,16.9294165 Z M6.00224112,3.74180646 C5.87336538,3.81102024 1.30794231,6.28335395 2.26733432,11.6229301 C2.23511538,11.2741157 1.88510059,6.65384276 6.00224112,3.74180646 Z" id="Shape"></path>
            </g>
        </g>
    </g>
</svg>