<?xml version="1.0" encoding="UTF-8"?>
<svg width="56px" height="56px" viewBox="0 0 56 56" version="1.1" xmlns="http://www.w3.org/2000/svg" xmlns:xlink="http://www.w3.org/1999/xlink">
    <!-- Generator: sketchtool 52.4 (67378) - http://www.bohemiancoding.com/sketch -->
    <title>61309CFA-4565-4740-A5B9-75C45BB96120</title>
    <desc>Created with sketchtool.</desc>
    <g id="Page-1" stroke="none" stroke-width="1" fill="none" fill-rule="evenodd">
        <g id="-g-1-Где-купить-отк-список" transform="translate(-115.000000, -1770.000000)">
            <g id="logo" transform="translate(115.000000, 1770.000000)">
                <g id="Group">
                    <circle id="Oval" fill="#16932B" cx="28.2507463" cy="27.8328358" r="27.5820896"></circle>
                    <circle id="Oval" fill="#FF6927" cx="28.2507463" cy="27.8328358" r="24.5731343"></circle>
                    <path d="M48.3940299,20.2268657 C48.8955224,20.1432836 49.2298507,19.8089552 49.1462687,19.4746269 C49.0626866,19.1402985 48.6447761,18.9731343 48.1432836,19.0567164 C47.641791,19.1402985 47.3074627,19.4746269 47.3910448,19.8089552 C47.4746269,20.1432836 47.8925373,20.3104478 48.3940299,20.2268657 Z" id="Path" fill="#FFFFFF"></path>
                    <path d="M17.3014925,36.2746269 C17.2179104,37.1940299 17.0507463,38.1134328 16.1313433,38.0298507 C16.1313433,38.0298507 15.5462687,37.8626866 15.0447761,37.8626866 C13.958209,37.8626866 13.7074627,38.4477612 13.7074627,38.9492537 C13.7074627,40.3701493 15.2119403,40.7880597 16.1313433,40.7880597 C17.0507463,40.7880597 18.0537313,40.4537313 18.8059701,39.8686567 C20.2268657,38.8656716 21.1462687,36.6089552 21.5641791,35.6059701 C21.1462687,35.438806 20.6447761,35.2716418 20.2268657,35.1044776 C19.4746269,35.8567164 18.3880597,36.2746269 17.3014925,36.2746269 Z" id="Path" fill="#FFFFFF"></path>
                    <path d="M31.761194,32.5970149 C31.9283582,33.1820896 32.1791045,34.3522388 32.3462687,34.8537313 C32.3462687,34.8537313 31.5104478,35.1880597 31.4268657,35.2716418 C31.1761194,35.3552239 31.1761194,35.6059701 31.2597015,35.8567164 C31.3432836,36.1074627 31.5940299,36.1074627 31.8447761,36.0238806 C32.9313433,35.438806 36.0238806,34.1014925 37.361194,35.438806 C38.1134328,36.1074627 38.7820896,38.3641791 38.280597,39.8686567 C38.0298507,40.7880597 37.361194,41.2895522 36.2746269,41.3731343 C35.6895522,41.4567164 35.1880597,41.2895522 34.8537313,40.9552239 C33.9343284,40.119403 33.9343284,38.4477612 33.9343284,38.4477612 C33.9343284,38.280597 33.8507463,38.1970149 33.6835821,38.1134328 C33.6,38.0298507 33.4328358,38.0298507 33.2656716,38.1134328 C33.2656716,38.1134328 30.9253731,39.7850746 29.0029851,38.8656716 C26.2447761,37.5283582 26.9134328,33.9343284 26.9134328,33.8507463 C26.9134328,33.6 26.8298507,33.4328358 26.5791045,33.4328358 C26.3283582,33.4328358 26.161194,33.5164179 26.161194,33.7671642 C26.161194,33.7671642 25.9940299,34.7701493 26.161194,35.8567164 C24.1552239,35.6059701 22.4,35.2716418 20.8955224,34.6865672 C21.7313433,33.7671642 22.1492537,32.5970149 22.1492537,31.2597015 C22.1492537,31.0089552 21.9820896,30.841791 21.7313433,30.841791 C21.480597,30.841791 21.3134328,31.0089552 21.3134328,31.2597015 C21.3134328,33.6835821 19.3074627,35.6059701 16.9671642,35.6059701 C15.2119403,35.6059701 13.6238806,34.519403 12.8716418,32.8477612 C12.9552239,32.5970149 12.7880597,32.5970149 12.5373134,32.5970149 C12.2865672,32.680597 12.2865672,32.9313433 12.2865672,33.0985075 C12.5373134,33.6835821 12.8716418,34.1850746 13.2895522,34.6865672 C13.2895522,34.6865672 13.2895522,34.6865672 13.2895522,34.6865672 C12.3701493,36.6925373 10.6985075,38.9492537 7.85671642,38.1134328 C6.93731343,37.8626866 6.35223881,37.2776119 6.18507463,36.5253731 C6.10149254,35.9402985 6.18507463,35.3552239 6.60298507,35.1044776 C6.93731343,34.8537313 7.43880597,34.7701493 7.94029851,35.0208955 C9.36119403,35.5223881 10.1970149,33.1820896 11.0328358,30.9253731 C11.4507463,29.6716418 12.0358209,28.2507463 12.4537313,28 C12.9552239,27.6656716 14.2089552,27.6656716 14.8776119,28.5850746 C14.961194,28.8358209 15.0447761,29.4208955 15.0447761,29.4208955 C15.0447761,29.5880597 15.2955224,29.7552239 15.4626866,29.6716418 C15.7134328,29.6716418 15.7970149,29.4208955 15.7970149,29.2537313 C15.3791045,26.8298507 16.0477612,25.3253731 16.6328358,24.5731343 C16.6328358,24.5731343 12.2865672,21.3134328 12.9552239,16.9671642 C12.9552239,16.7164179 13.1223881,16.5492537 13.2059701,16.5492537 C13.2895522,16.5492537 13.4567164,16.8 13.4567164,17.1343284 C13.7074627,17.9701493 14.1253731,19.2238806 15.2955224,20.561194 C16.3820896,21.8985075 17.3014925,22.6507463 18.2208955,22.9850746 C18.3044776,22.9850746 20.3940299,23.4029851 24.3223881,23.4029851 C26.5791045,23.4029851 29.5044776,23.1522388 29.6716418,23.0686567 C29.838806,24.0716418 30.3402985,25.7432836 31.6776119,27.2477612 C32.9313433,28.6686567 34.2686567,29.2537313 35.2716418,29.6716418 C36.6925373,30.2567164 37.9462687,30.5074627 38.7820896,30.6746269 C38.7820896,30.6746269 38.7820896,30.6746269 38.7820896,30.6746269 C38.7820896,30.758209 38.6985075,30.758209 38.6985075,30.841791 C38.1970149,32.0955224 37.361194,33.1820896 36.1910448,34.1014925 C35.1880597,34.0179104 34.0179104,34.2686567 33.0985075,34.6029851 C33.0149254,34.3522388 32.8477612,33.6835821 32.5134328,32.5134328 C32.4298507,32.2626866 32.2626866,32.1791045 32.0119403,32.2626866 C31.8447761,32.1791045 31.761194,32.4298507 31.761194,32.5970149 Z" id="Path" fill="#FFFFFF"></path>
                    <path d="M40.9552239,11.5343284 C40.2029851,11.4507463 39.3671642,13.5402985 39.0328358,14.2925373 C39.7014925,14.3761194 40.3701493,14.5432836 41.038806,14.8776119 C41.2059701,14.6268657 41.4567164,11.5343284 40.9552239,11.5343284 Z" id="Path" fill="#FFFFFF"></path>
                    <path d="M40.5373134,25.241791 C40.5373134,25.241791 40.2865672,25.158209 39.9522388,25.241791 C40.2865672,26.0776119 41.038806,26.6626866 42.041791,26.9134328 C43.7134328,27.3313433 45.6358209,27.2477612 47.641791,25.4089552 C48.6447761,24.4895522 49.6477612,22.8179104 49.8149254,21.3134328 C49.6477612,21.5641791 49.3970149,21.6477612 49.1462687,21.8149254 C48.0597015,22.1492537 46.7223881,21.6477612 46.3880597,20.6447761 C46.1373134,20.0597015 46.3880597,19.558209 46.8059701,19.1402985 C46.4716418,19.2238806 46.1373134,19.3074627 45.719403,19.3910448 C44.6328358,19.641791 43.7970149,19.8089552 43.3791045,19.4746269 C43.0447761,19.1402985 42.961194,18.638806 42.7104478,18.0537313 C42.4597015,17.2179104 42.2089552,16.2985075 41.3731343,15.7970149 C39.6179104,14.7104478 37.6119403,15.0447761 37.5283582,15.0447761 C37.361194,15.0447761 37.2776119,15.0447761 37.1940299,14.8776119 C37.1104478,14.7940299 36.8597015,12.5373134 36.441791,11.8686567 C36.0238806,11.0328358 35.6895522,10.9492537 35.6059701,10.9492537 C34.7701493,10.9492537 33.4328358,13.038806 32.9313433,16.0477612 C32.9313433,16.1313433 32.8477612,16.1313433 32.8477612,16.2149254 C31.8447761,17.3014925 30.6746269,21.0626866 30.6746269,22.3164179 C30.6746269,22.3164179 30.6746269,22.4 30.6746269,22.4835821 C30.758209,23.7373134 32.8477612,29.1701493 39.1164179,29.3373134 C39.2,29.3373134 39.2,29.3373134 39.2835821,29.3373134 C41.5402985,29.1701493 43.9641791,28.1671642 45.0507463,27.5820896 C44.2985075,27.8328358 42.961194,27.9164179 41.7910448,27.6656716 C40.5373134,27.3313433 39.7014925,26.5791045 39.2,25.5761194 C39.0328358,25.6597015 38.9492537,25.8268657 38.8656716,26.0776119 C38.7820896,26.2447761 38.5313433,26.3283582 38.3641791,26.2447761 C38.1134328,26.161194 38.1134328,25.9104478 38.1970149,25.7432836 C38.8656716,24.4895522 40.119403,24.3223881 40.7044776,24.4059701 C40.9552239,24.4059701 41.038806,24.6567164 41.038806,24.8238806 C40.9552239,25.158209 40.7880597,25.241791 40.5373134,25.241791 Z M42.2925373,18.8895522 C42.5432836,18.8895522 42.7104478,19.1402985 42.7104478,19.558209 C42.7104478,19.8925373 42.4597015,20.2268657 42.2925373,20.2268657 C42.041791,20.2268657 41.8746269,19.9761194 41.8746269,19.558209 C41.7910448,19.2238806 42.041791,18.8895522 42.2925373,18.8895522 Z M36.358209,15.2119403 C36.1910448,15.2955224 35.8567164,15.4626866 35.3552239,15.4626866 C34.9373134,15.5462687 34.9373134,15.2119403 35.2716418,14.2925373 C35.6059701,13.4567164 35.8567164,13.038806 35.8567164,13.038806 C36.1910448,12.7044776 36.441791,15.2119403 36.358209,15.2119403 Z M40.2865672,21.5641791 C39.8686567,21.5641791 39.5343284,21.0626866 39.5343284,20.4776119 C39.5343284,19.8925373 39.8686567,19.3074627 40.2865672,19.3074627 C40.7044776,19.3074627 41.038806,19.8089552 41.038806,20.3940299 C41.038806,20.9791045 40.7044776,21.5641791 40.2865672,21.5641791 Z" id="Shape" fill="#FFFFFF" fill-rule="nonzero"></path>
                    <path d="M38.4477612,32.9313433 C38.1134328,33.4328358 37.6955224,33.8507463 37.1104478,34.3522388 C37.361194,34.4358209 37.6119403,34.6029851 37.8626866,34.7701493 C38.1970149,35.1044776 38.5313433,35.6059701 38.7820896,36.1910448 C39.5343284,35.9402985 40.119403,35.6059701 40.119403,35.6059701 C40.2029851,35.5223881 40.3701493,35.5223881 40.4537313,35.6059701 C40.5373134,35.6895522 40.6208955,35.7731343 40.7044776,35.9402985 C41.038806,38.280597 42.041791,38.9492537 42.961194,38.6149254 C43.7134328,38.3641791 44.1313433,37.8626866 44.2985075,37.1940299 C44.6328358,35.6895522 43.7970149,33.7671642 43.0447761,33.0985075 C42.1253731,32.1791045 40.0358209,32.5134328 38.4477612,32.9313433 Z" id="Path" fill="#FFFFFF"></path>
                    <path d="M39.3671642,29.5044776 L38.8656716,30.5074627 C38.8656716,30.5074627 38.7820896,30.5910448 38.7820896,30.5910448 C37.0268657,30.4238806 30.9253731,29.0865672 29.5044776,22.9850746 C29.5044776,22.9850746 29.5044776,22.9014925 29.5880597,22.9014925 L30.5074627,22.5671642 C30.5910448,22.5671642 30.5910448,22.5671642 30.5910448,22.6507463 C30.841791,24.0716418 33.3492537,29.1701493 39.2835821,29.4208955 C39.3671642,29.4208955 39.4507463,29.4208955 39.3671642,29.5044776 Z" id="Path" fill="#1F9E38"></path>
                </g>
            </g>
        </g>
    </g>
</svg>