<?xml version="1.0" encoding="UTF-8"?>
<svg width="84px" height="58px" viewBox="0 0 84 58" version="1.1" xmlns="http://www.w3.org/2000/svg" xmlns:xlink="http://www.w3.org/1999/xlink">
    <!-- Generator: sketchtool 52.4 (67378) - http://www.bohemiancoding.com/sketch -->
    <title>240726D8-3D93-4894-9EB5-9DCABEE44630</title>
    <desc>Created with sketchtool.</desc>
    <g id="Page-1" stroke="none" stroke-width="1" fill="none" fill-rule="evenodd">
        <g id="-g-1-Где-купить-список-комп" transform="translate(-89.000000, -827.000000)" fill="#047BE1">
            <g id="Logo" transform="translate(89.000000, 827.000000)">
                <path d="M63.9088388,23.5661758 L63.9088388,22.8332976 C66.5606647,22.6378089 75.3622246,25.9594812 80.328431,30.4221859 C79.7267461,28.8409984 79.0201246,27.3012421 78.2132254,25.8130691 C73.5605961,23.6307934 67.939252,22.1167783 63.9088388,22.767862 L63.9088388,21.9695483 C66.3985264,21.7920544 72.5770667,22.8169387 77.9860672,25.4057328 C77.3252479,24.2199596 76.5967692,23.0726936 75.8041955,21.9695483 C71.9556736,20.9929227 67.6775262,20.5536865 63.9096619,21.4648766 L63.9096619,20.6019452 C66.4956448,20.2109678 71.1194678,20.5528686 75.5770373,21.6440064 C72.4141053,17.2949959 68.4157906,13.7786529 63.9096619,11.0917054 L63.9096619,3.86107677 C65.7771333,4.30031292 67.2018107,4.72482608 67.6627115,4.83852035 C69.2190749,4.00830677 73.5103908,2.28080815 75.0856841,1.45059456 C75.7556363,1.09233491 76.168801,1.20684713 76.0198313,1.74341867 L72.87336,8.7302999 C72.495586,9.70692554 73.691459,12.4593085 73.9531849,14.6734841 C75.8919195,17.1153602 77.5316684,19.777639 78.8379107,22.6042732 C80.7720481,23.2725338 82.5588619,24.0872064 84,25.0801909 C82.6395195,24.3473127 80.9169026,23.5817167 78.9679505,22.9142741 C79.5402228,24.1615889 80.0430348,25.439239 80.4741086,26.741436 C81.3424129,27.2788255 82.1802647,27.8489328 82.9325207,28.4844756 C82.1730781,27.9544831 81.3856806,27.4652 80.5736961,27.0187192 C81.0974076,28.6424122 81.5244797,30.2953382 81.8526959,31.9689188 C82.6395195,32.8964678 83.2107073,33.8428295 83.5390992,34.8186372 C83.2617356,33.9884236 82.6872557,33.1083154 81.9004321,32.2282072 C82.3111277,34.4767364 82.5070105,36.6254764 82.4913728,38.5484637 C82.0702055,35.9058222 81.3946843,33.3094763 80.4741086,30.7951686 C75.9350584,26.7095362 67.8240268,22.91591 63.9088388,23.5661758 Z M63.9088388,16.5154949 C64.0561625,16.4664182 64.2199469,16.4009827 64.3672706,16.3363651 C65.9071732,15.6362046 66.8256827,13.9913184 66.7252721,13.6657765 C66.6281538,13.3729524 65.3030639,12.9328983 63.9096619,13.3557756 L63.9096619,13.6657765 C64.1532809,13.8293654 64.398546,14.1859892 64.5639764,14.6424022 C64.7936038,15.3752804 64.6940163,16.1073406 64.3524559,16.2709295 C64.2026631,16.3363651 64.0569855,16.3036473 63.9096619,16.2063119 L63.9096619,16.5154949 L63.9088388,16.5154949 Z M63.9088388,15.7008223 C64.0742693,16.0754408 64.2520453,16.3036473 64.3343491,16.2709295 C64.4816727,16.2063119 64.3977229,15.5544102 64.1524578,14.8223499 C64.0888428,14.5992159 64.0073769,14.3814942 63.9088388,14.1712662 L63.9088388,15.7008223 Z M63.9088388,3.86189471 L63.9088388,11.0925234 C62.0798314,10.0014465 60.1739337,9.04304993 58.2060141,8.22481025 L58.2060141,2.83537447 C60.219163,3.04640413 62.2545341,3.45455839 63.9088388,3.86189471 Z M63.9088388,13.3549577 L63.9088388,13.6649586 C63.7606921,13.5668053 63.6133685,13.5340875 63.4676909,13.599523 C63.1203692,13.7631119 63.0224278,14.4943542 63.2520551,15.2280504 C63.4174856,15.6844634 63.6635737,16.0419051 63.9088388,16.205494 L63.9088388,16.514677 C62.5154368,16.9367363 61.1870548,16.4975001 61.0874673,16.205494 C60.9903489,15.8791341 61.9080354,14.2342479 63.448761,13.5340875 C63.5977308,13.4694699 63.7598691,13.4048523 63.9088388,13.3549577 Z M63.9088388,14.1704482 C63.7450544,13.7958297 63.5639862,13.5668053 63.4833286,13.599523 C63.3351819,13.6649586 63.4174856,14.3168603 63.6643968,15.0497385 C63.7285937,15.2934859 63.8273581,15.5216924 63.9096619,15.7008223 L63.9096619,14.1704482 L63.9088388,14.1704482 Z M63.9088388,20.6027632 L63.9088388,21.4656945 C63.3862102,21.5802067 62.8915648,21.7421597 62.3845739,21.9049307 C62.1705843,21.7585186 61.8602992,21.8394951 62.075935,21.237488 C62.4002116,20.9454819 63.0413576,20.7328163 63.9088388,20.6027632 Z M63.9088388,21.9703662 L63.9088388,22.76868 C63.6133685,22.8177567 63.3178981,22.8831922 63.0413576,22.9633508 C62.8578203,22.7523211 62.5327206,22.7523211 62.8759271,22.2157496 C63.0569953,22.0840605 63.3985558,22.003084 63.9088388,21.9703662 Z M63.9088388,22.8341155 C63.7450544,22.8512924 63.6133685,22.8668333 63.4981433,22.8995511 C63.0413576,23.3551461 63.3524657,23.4205817 63.4825056,23.6487882 C63.6125454,23.6160704 63.7598691,23.5833526 63.9080158,23.5669937 L63.9080158,22.8341155 L63.9088388,22.8341155 Z M58.2060141,23.6479702 L58.2060141,19.9672203 C58.2693879,20.017115 58.3352309,20.0817326 58.4175346,20.163527 C58.9747308,20.781893 59.9920048,20.3909156 60.8915844,20.3909156 C61.0718296,20.8137928 61.1080432,20.7982519 60.9096913,21.2702058 C58.3212393,21.2203112 59.2372797,23.0451452 58.7788479,23.077863 C58.5977798,23.4034049 58.3994278,23.5833526 58.2060141,23.6479702 Z M58.2060141,2.83537447 L58.2060141,8.22481025 C57.1705124,7.8013092 56.1217061,7.41067919 55.0611889,7.05351384 L55.0611889,2.08695532 C55.7138574,2.29798498 56.3533573,2.4934737 56.9747504,2.72086225 C57.3698083,2.75358003 57.7953185,2.7862978 58.2060141,2.83537447 Z M58.2060141,19.9672203 L58.2060141,23.6479702 C57.9105437,23.7297647 57.6331802,23.533458 57.3533475,23.077863 C56.6134371,23.0451452 57.9763867,21.2538469 55.5179745,21.2702058 C55.3541901,20.7982519 55.2546026,20.9765638 55.5179745,20.3909156 C56.2060336,20.3909156 56.9426519,20.6510219 57.3698083,20.163527 C57.6471718,19.854344 57.9261814,19.7889085 58.2060141,19.9672203 Z M55.0611889,16.5637536 L55.0611889,14.9360442 C55.4998677,15.5061515 55.7294951,16.042723 55.6652982,16.2063119 C55.6315537,16.3200062 55.4027493,16.4500593 55.0611889,16.5637536 Z M52.8620335,21.4329767 C53.1410431,21.5147712 53.4184066,21.6121066 53.6982393,21.709442 C53.9278667,21.546671 54.2389747,21.6284655 54.0274542,21.0264584 C53.7821891,20.8146108 53.3871312,20.6510219 52.8620335,20.5209687 L52.8620335,21.4329767 Z M55.0611889,2.08695532 L55.0611889,7.05351384 C54.3313288,6.82051553 53.5982044,6.59773993 52.8620335,6.38525325 L52.8620335,1.48331234 C53.6151125,1.67880106 54.3385622,1.87428977 55.0611889,2.08695532 Z M55.0611889,14.9360442 L55.0611889,16.5637536 C54.3377945,16.7504539 53.5764305,16.7337464 52.8620335,16.5154949 L52.8620335,16.2063119 C53.1097677,16.042723 53.3550328,15.6852813 53.5023564,15.2288683 C53.7484446,14.4959901 53.648034,13.7639299 53.2908359,13.600341 C53.1583269,13.5349054 53.0110032,13.5676232 52.8620335,13.6657765 L52.8620335,13.3557756 C53.0101802,13.4056702 53.1575038,13.4702878 53.3212882,13.5349054 C54.0595526,13.8604473 54.6488473,14.4141957 55.0611889,14.9360442 Z M52.8620335,23.681506 L52.8620335,22.9322689 C52.9138848,22.9486278 52.961621,22.9486278 53.0101802,22.9813455 C53.4356904,23.4532995 53.1097677,23.5015582 52.9780817,23.7305826 C52.9262304,23.7142237 52.8966011,23.6970469 52.8620335,23.681506 Z M52.8620335,22.7040624 L52.8620335,21.856672 C53.0101802,21.9057486 53.1410431,21.9548253 53.2068861,22.0194429 C53.5698455,22.5568324 53.2225238,22.5404735 53.0595624,22.7515032 L52.8620335,22.7040624 Z M52.8620335,15.7008223 C52.9443372,15.5216924 53.028287,15.2934859 53.1097677,15.0497385 C53.3550328,14.3168603 53.4365135,13.6649586 53.2900128,13.599523 C53.1920714,13.5668053 53.028287,13.7950118 52.8612105,14.1704482 L52.8612105,15.7008223 L52.8620335,15.7008223 Z M43.2777653,21.1401526 C46.5221779,20.6027632 49.8966304,20.5708633 52.8620335,21.4329767 L52.8620335,20.5209687 C50.9278961,20.0661916 47.209414,20.163527 43.2777653,20.8628695 L43.2777653,21.1401526 Z M52.8620335,1.48331234 L52.8620335,6.38525325 C49.7295974,5.52164424 46.5194689,4.96550532 43.2777653,4.72482608 L43.2777653,0.0838094377 C46.7501592,0.27848021 49.9451896,0.767610973 52.8620335,1.48331234 Z M52.8620335,13.3549577 L52.8620335,13.6649586 C52.6011307,13.8285475 52.3558656,14.1851712 52.2077189,14.6415842 C51.9780915,15.3744624 52.076033,16.1065227 52.4217086,16.2701116 C52.5517485,16.3355471 52.7155329,16.3028293 52.8620335,16.205494 L52.8620335,16.514677 C52.7072815,16.4614394 52.5548815,16.4016753 52.4052478,16.3355471 C50.882629,15.6353867 49.9624734,13.9905005 50.0604148,13.6649586 C50.1583563,13.3721345 51.4702776,12.9320804 52.8620335,13.3549577 Z M52.8620335,14.1704482 C52.7643244,14.3830713 52.6772506,14.6003644 52.6011307,14.821532 C52.3715033,15.5535923 52.2900226,16.2063119 52.4381693,16.2701116 C52.5180039,16.3028293 52.6817883,16.0754408 52.8612105,15.7000043 L52.8612105,14.1704482 L52.8620335,14.1704482 Z M52.8620335,21.856672 L52.8620335,22.7040624 C50.2225532,22.0677016 46.7501592,22.5241146 43.2777653,23.5506349 L43.2777653,23.2087341 C47.6201095,21.9057486 51.5361206,21.5147712 52.8620335,21.856672 Z M52.8620335,22.9314509 C51.4867383,22.5412914 47.4727859,23.4034049 43.2777653,25.06465 L43.2777653,25.2764976 C47.0299919,23.7788413 50.7665808,22.9960685 52.8620335,23.681506 L52.8620335,22.9314509 Z M32.1173808,24.8691613 C34.7881365,23.4197637 38.9181372,21.8394951 43.2777653,21.1401526 L43.2777653,20.8628695 C39.2621667,21.5810247 34.9856654,22.8995511 32.1173808,24.8691613 Z M43.2777653,0.0838094377 L43.2777653,4.72564402 C42.0802461,4.64384958 40.8687354,4.59477292 39.6720393,4.59477292 C36.8309671,4.59007542 33.9952933,4.8408433 31.1996943,5.34401 L31.1996943,0.653098754 C34.0830735,0.199757299 36.9989533,-0.0182712167 39.9181274,0.00119705121 C41.0637952,0.00119705121 42.1790106,0.033914828 43.2777653,0.0838094377 Z M43.2777653,23.2087341 L43.2777653,23.5498169 C39.5411764,24.6573137 35.8218712,26.4494299 33.1823909,28.2734459 C36.0177541,25.9275813 39.7699807,24.2679721 43.2777653,23.2087341 Z M43.2777653,25.06465 C38.5247254,26.9704605 33.5914404,29.9338731 32.1503023,33.3872345 C33.3955576,30.5203393 38.3444803,27.2641025 43.2777653,25.2764976 L43.2777653,25.06465 Z M31.1996943,0.653098754 L31.1996943,5.34319206 C26.9404768,6.0916112 22.8269368,7.42731444 19.0738872,9.34948383 L19.0738872,4.51297847 C22.5150057,2.73803908 26.5133205,1.38597695 31.1996943,0.653098754 Z M19.0738872,4.51297847 L19.0738872,9.35030177 C8.70032628,14.659579 0.982706421,24.3800305 0,38.5500996 C0,28.6807823 3.89790419,12.37915 19.0738872,4.51297847 Z M4.44769305,47.1401519 L6.37606921,53.9119138 L8.30362234,47.1401519 L12.6278598,47.1401519 L12.6278598,57.9991821 L9.41143042,57.9991821 L9.41143042,54.6815995 C9.41143042,53.4595905 9.50278755,52.2842044 9.63858869,51.0311135 L9.60813631,51.0311135 L7.62050146,58 L5.13081393,58 L3.14317908,51.0311135 L3.11190367,51.0311135 C3.2188985,51.981565 3.33988497,53.4448675 3.33988497,54.3192501 L3.33988497,58 L0.122632543,58 L0.122632543,47.1401519 L4.44769305,47.1401519 Z M21.413782,47.1401519 L25.3281469,57.9991821 L21.7619267,57.9991821 L21.3364165,56.5653255 L17.7701963,56.5653255 L17.3611468,57.9991821 L13.8558313,57.9991821 L17.7701963,47.1401519 L21.413782,47.1401519 Z M20.7158464,54.3037092 L19.5627713,50.4135655 L18.4549632,54.3037092 L20.7158464,54.3037092 Z M30.1396224,57.9991821 L26.5585875,57.9991821 L26.5585875,47.1401519 L31.8243795,47.1401519 C34.9650895,47.1401519 36.4835931,48.5723726 36.4835931,50.8053609 C36.4835931,53.1422281 35.086899,54.6210716 31.945366,54.6210716 L30.1396224,54.6210716 L30.1396224,57.9991821 Z M30.1396224,52.0870798 L31.6260276,52.0870798 C32.4614103,52.0870798 33.0679888,51.7541764 33.0679888,50.8200839 C33.0679888,49.8091046 31.9157367,49.6733258 31.1560733,49.6733258 L30.1396224,49.6733258 L30.1396224,52.0870798 Z M41.7181098,50.6524053 L44.8579967,47.1401519 L49.0637168,47.1401519 L45.0719864,51.2266023 L49.488404,57.9991821 L45.1937959,57.9991821 L42.5683072,53.6706202 L41.7181098,54.5597258 L41.7181098,57.9991821 L38.1370749,57.9991821 L38.1370749,47.1401519 L41.7181098,47.1401519 L41.7181098,50.6524053 Z M50.7015608,47.1401519 L55.9229088,47.1401519 C58.3796749,47.1401519 60.3376804,47.7143489 60.3376804,49.8712684 C60.3376804,50.9861266 59.6084694,51.8016172 58.9105339,52.2375816 C60.0948844,52.5377672 60.7327383,53.5495644 60.7327383,54.7265864 C60.7327383,57.1550634 58.8669129,58 56.0290806,58 L50.7015608,58 L50.7015608,47.1401519 Z M54.2825957,51.4834368 L55.770647,51.4834368 C56.4833972,51.4834368 56.9994415,51.1668923 56.9994415,50.5329854 C56.9994415,49.6880488 56.301506,49.6733258 55.5426657,49.6733258 L54.2834187,49.6733258 L54.2834187,51.4834368 L54.2825957,51.4834368 Z M54.2825957,55.4660082 L55.8438973,55.4660082 C56.7261932,55.4660082 57.3936763,55.2852425 57.3936763,54.4697519 C57.3936763,53.5193005 56.5582936,53.4587726 55.4208562,53.4587726 L54.2825957,53.4587726 L54.2825957,55.4660082 Z M71.3861318,47.1401519 L71.3861318,49.6733258 L66.058612,49.6733258 L66.058612,51.2266023 L70.5663868,51.2266023 L70.5663868,53.761412 L66.058612,53.761412 L66.058612,55.4660082 L71.5984754,55.4660082 L71.5984754,57.9991821 L62.4775771,57.9991821 L62.4775771,47.1401519 L71.3861318,47.1401519 Z M79.5498378,57.9991821 L75.9671569,57.9991821 L75.9671569,49.6733258 L72.7523736,49.6733258 L72.7523736,47.1401519 L82.7670903,47.1401519 L82.7670903,49.6733258 L79.5498378,49.6733258 L79.5498378,57.9991821 Z M82.6897248,42.5089506 L0.137447213,42.5089506 L0.137447213,40.1581784 L82.6897248,40.1581784 L82.6897248,42.5089506 Z M82.6897248,45.578696 L0.137447213,45.578696 L0.137447213,43.2279238 L82.6897248,43.2279238 L82.6897248,45.578696 Z" id="Shape"></path>
            </g>
        </g>
    </g>
</svg>