<?xml version="1.0" encoding="UTF-8"?>
<svg preserveAspectRatio="none" width="695px" height="251px" viewBox="0 0 695 251" version="1.1" xmlns="http://www.w3.org/2000/svg" xmlns:xlink="http://www.w3.org/1999/xlink">
    <!-- Generator: sketchtool 52.4 (67378) - http://www.bohemiancoding.com/sketch -->
    <title>4EEDBE0A-81A6-4B9E-910C-D9A22E33998A</title>
    <desc>Created with sketchtool.</desc>
    <g id="Page-1" stroke="none" stroke-width="1" fill="none" fill-rule="evenodd">
        <g id="Главная-планшет" transform="translate(-37.000000, -2541.000000)">
            <g id="Group-17" transform="translate(18.000000, 2514.000000)">
                <g id="Group-2" transform="translate(20.000000, 28.000000)">
                    <path d="M95.6395219,10.4486802 L641.068204,2.01535679 C663.858713,1.6629739 682.619734,19.8526692 682.972117,42.6431783 C683.06264,48.4978083 681.906338,54.3046864 679.580022,59.6780601 L665.420518,92.3839949 C658.116108,109.255882 656.27947,127.991842 660.168502,145.960993 L666.298116,174.282676 C671.475389,198.204104 656.280249,221.793263 632.358821,226.970536 C628.696702,227.763122 624.94885,228.088074 621.204966,227.937613 L93.4662666,206.728598 C46.2780086,204.832174 9,166.025927 9,118.799577 L9,98.438163 C9,50.3675793 47.5746832,11.1918503 95.6395219,10.4486802 Z" id="Rectangle" fill="#005260"></path>
                    <path d="M593.86593,249 C648.993891,249 668.239526,242.525293 679.930006,209.316159 C691.541059,176.33265 673.046788,143.806228 673.046788,120.049788 C673.046788,91.5621431 700.160961,46.0956594 691.1746,20.8722969 C682.625905,-3.12260471 654.705516,0.150356051 643.962801,0.150356051 C625.403606,0.150356051 277.060235,8.14306075 258.519178,8.14306075 C206.61999,8.14306075 33.9423712,13.7103529 18.8403542,32.540237 C14.4886696,37.966116 10.4479677,79.9165501 7.51487845,126.94448 C5.10955726,165.510396 -21.1982423,207.836535 41.4458308,215.476887 C84.9184185,220.778999 229.41694,229.976278 296.265774,233.016662 C445.809339,239.818127 574.180579,249 593.86593,249 Z" id="Oval" stroke="#3A3A3A" stroke-width="2"></path>
                </g>
            </g>
        </g>
    </g>
</svg>
