<?xml version="1.0" encoding="UTF-8"?>
<svg preserveAspectRatio="none" width="1308px" height="472px" viewBox="0 0 1308 472" version="1.1" xmlns="http://www.w3.org/2000/svg" xmlns:xlink="http://www.w3.org/1999/xlink">
    <!-- Generator: sketchtool 52.4 (67378) - http://www.bohemiancoding.com/sketch -->
    <title>2005B54D-6197-4410-BD78-C0A139414B52</title>
    <desc>Created with sketchtool.</desc>
    <g id="Page-1" stroke="none" stroke-width="1" fill="none" fill-rule="evenodd">
        <g id="1-Главная-комп" transform="translate(-66.000000, -2956.000000)">
            <g id="блок-пройти-тест" transform="translate(26.000000, 2905.000000)">
                <g id="Group-3" transform="translate(41.000000, 52.000000)">
                    <path d="M100.639107,27.1187695 L1205.56119,10.029439 C1248.54255,9.36466569 1283.92474,43.6690386 1284.58951,86.6504005 C1284.76024,97.6890409 1282.58073,108.637714 1278.1957,118.769456 L1241.55234,203.434938 C1234.25189,220.302826 1232.41625,239.033244 1236.30304,256.997517 L1253.15628,334.891178 C1262.91713,380.004649 1234.25817,424.489075 1189.1447,434.249924 C1182.23969,435.743907 1175.17312,436.356334 1168.11404,436.072554 L98.4651892,393.071868 C51.2773717,391.174882 14,352.368822 14,305.14289 L14,115.108246 C14,67.037824 52.5744331,27.8621641 100.639107,27.1187695 Z" id="Rectangle" fill="#005260"></path>
                    <path d="M1118.57257,469.491612 C1222.40851,469.491612 1258.65851,457.283498 1280.67804,394.667393 C1302.54797,332.476707 1267.7132,271.147862 1267.7132,226.354893 C1267.7132,172.641197 1318.78393,86.9137566 1301.85773,39.3548929 C1285.75589,-5.88769767 1233.16661,0.283497609 1212.93223,0.283497609 C1177.97517,0.283497609 521.855127,15.3538101 486.932231,15.3538101 C389.17783,15.3538101 63.9319475,25.8509866 35.486635,61.3548929 C27.2900459,71.5854337 19.6792063,150.683333 14.1546038,239.354893 C9.62407561,312.071255 -39.9278207,391.877549 78.0650434,406.283498 C159.947573,416.280674 432.116886,433.622222 558.029604,439.354893 C839.701479,452.179112 1081.49435,469.491612 1118.57257,469.491612 Z" id="Oval" stroke="#3A3A3A" stroke-width="2"></path>
                </g>
            </g>
        </g>
    </g>
</svg>
