<?xml version="1.0" encoding="UTF-8"?>
<svg width="286px" height="25px" viewBox="0 0 286 25" version="1.1" xmlns="http://www.w3.org/2000/svg" xmlns:xlink="http://www.w3.org/1999/xlink">
    <!-- Generator: Sketch 52.4 (67378) - http://www.bohemiancoding.com/sketch -->
    <title>Group 47</title>
    <desc>Created with Sketch.</desc>
    <g id="Page-1" stroke="none" stroke-width="1" fill="none" fill-rule="evenodd">
        <g id="Group-47" fill="#FFFFFF">
            <path d="M-1.42108547e-13,0.129810005 L0.897382212,0.129810005 L0.897382212,4.7183115 C0.897382212,5.56490273 0.871044213,6.33058597 0.818367426,7.01538421 L0.863518732,7.01538421 L5.49152762,0.129810005 L6.54129549,0.129810005 L6.54129549,8.38121122 L5.63826937,8.38121122 L5.63826937,3.83786103 C5.63826937,3.08157287 5.67025122,2.28767034 5.73421589,1.45612963 L5.68342067,1.45612963 L1.04976787,8.38121122 L-1.42108547e-13,8.38121122 L-1.42108547e-13,0.129810005 Z M12.7741173,8.38121122 L9.97473627,1.06669961 L9.92958497,1.06669961 C9.98226176,1.64614427 10.0085998,2.33469481 10.0085998,3.13237187 L10.0085998,8.38121122 L9.12250537,8.38121122 L9.12250537,0.129810005 L10.5673472,0.129810005 L13.180479,6.93636942 L13.2256303,6.93636942 L15.8613378,0.129810005 L17.2948918,0.129810005 L17.2948918,8.38121122 L16.3354265,8.38121122 L16.3354265,3.06464491 C16.3354265,2.45509923 16.3617645,1.79288669 16.4144413,1.07798744 L16.36929,1.07798744 L13.5473334,8.38121122 L12.7741173,8.38121122 Z M24.4815349,8.38121122 L19.8817456,8.38121122 L19.8817456,0.129810005 L24.4815349,0.129810005 L24.4815349,0.982040911 L20.8412108,0.982040911 L20.8412108,3.64032407 L24.2614223,3.64032407 L24.2614223,4.48691106 L20.8412108,4.48691106 L20.8412108,7.5233364 L24.4815349,7.5233364 L24.4815349,8.38121122 Z M36.9170174,4.24422279 C36.9170174,5.57619298 36.5962582,6.61748457 35.9547302,7.36812879 C35.3132021,8.11877301 34.4205321,8.49408949 33.2766933,8.49408949 C32.1441424,8.49408949 31.2571162,8.14887358 30.6155882,7.4584314 C29.9740602,6.76798922 29.6326068,5.78125492 29.5912179,4.49819889 L27.5932726,4.49819889 L27.5932726,8.38121122 L26.6338074,8.38121122 L26.6338074,0.129810005 L27.5932726,0.129810005 L27.5932726,3.64032407 L29.6025058,3.64032407 C29.6890462,2.47014686 30.0493124,1.57089234 30.6833152,0.942533518 C31.3173179,0.314174698 32.1742435,-4.55635529e-13 33.2541177,-4.55635529e-13 C34.4092444,-4.55635529e-13 35.3084989,0.377197766 35.9519082,1.13160461 C36.5953175,1.88601146 36.9170174,2.92354048 36.9170174,4.24422279 Z M30.5958345,4.24422279 C30.5958345,5.35796058 30.8197075,6.2045391 31.2674602,6.78398376 C31.7152129,7.36342842 32.3736628,7.65314641 33.2428298,7.65314641 C34.1232847,7.65314641 34.7864379,7.36530971 35.2323093,6.78962768 C35.6781806,6.21394564 35.901113,5.36548583 35.901113,4.24422279 C35.901113,3.12295974 35.6800619,2.2782625 35.2379532,1.71010572 C34.7958444,1.14194895 34.1383351,0.857874819 33.2654055,0.857874819 C32.3887132,0.857874819 31.7246194,1.14477087 31.2731041,1.71857159 C30.8215888,2.29237231 30.5958345,3.13424763 30.5958345,4.24422279 Z M41.2873478,8.38121122 L40.3278825,8.38121122 L40.3278825,0.982040911 L37.7147507,0.982040911 L37.7147507,0.129810005 L43.9004796,0.129810005 L43.9004796,0.982040911 L41.2873478,0.982040911 L41.2873478,8.38121122 Z M48.7674744,0.869162645 C47.8606811,0.869162645 47.1448519,1.17110899 46.6199654,1.77501073 C46.0950788,2.37891247 45.8326395,3.20573749 45.8326395,4.25551061 C45.8326395,5.33538475 46.0856724,6.16973492 46.5917458,6.75858615 C47.0978192,7.34743738 47.8192923,7.64185858 48.7561865,7.64185858 C49.3318686,7.64185858 49.9884373,7.53838787 50.7259123,7.33144335 L50.7259123,8.17238643 C50.1539929,8.38685621 49.4485108,8.49408949 48.6094448,8.49408949 C47.3941161,8.49408949 46.4562952,8.12535751 45.795954,7.38788249 C45.1356129,6.65040746 44.8054472,5.60253138 44.8054472,4.24422279 C44.8054472,3.39386893 44.9644159,2.64887983 45.2823579,2.00923313 C45.6003,1.36958642 46.0593336,0.876689594 46.6594728,0.530527848 C47.2596119,0.184366103 47.9660346,0.0112878266 48.7787622,0.0112878266 C49.6441666,0.0112878266 50.4004434,0.169315818 51.0476153,0.485376542 L50.6412536,1.30938788 C50.0166574,1.01590292 49.3920706,0.869162645 48.7674744,0.869162645 Z M55.2994235,4.93842412 L53.1378048,8.38121122 L52.0033782,8.38121122 L54.3173826,4.77475064 C53.7115996,4.58285662 53.2713787,4.292198 52.9967069,3.90276603 C52.7220351,3.51333407 52.5847013,3.02137788 52.5847013,2.42688271 C52.5847013,1.68940769 52.8396155,1.12220008 53.3494515,0.725242857 C53.8592876,0.328285638 54.6315553,0.129810005 55.6662779,0.129810005 L57.935131,0.129810005 L57.935131,8.38121122 L56.9756658,8.38121122 L56.9756658,4.93842412 L55.2994235,4.93842412 Z M56.9756658,0.959465258 L55.6944975,0.959465258 C55.0059366,0.959465258 54.4829392,1.07798625 54.1254896,1.31503179 C53.7680399,1.55207734 53.5893178,1.93774089 53.5893178,2.47203402 C53.5893178,3.56695867 54.3023251,4.11441278 55.7283609,4.11441278 L56.9756658,4.11441278 L56.9756658,0.959465258 Z M70.0113446,8.38121122 L69.0518793,8.38121122 L69.0518793,0.982040911 L64.8133004,0.982040911 L64.8133004,8.38121122 L63.8538352,8.38121122 L63.8538352,0.129810005 L70.0113446,0.129810005 L70.0113446,8.38121122 Z M77.8357499,2.53411706 C77.8357499,3.36942041 77.5507351,4.01187944 76.980697,4.46151345 C76.4106589,4.91114746 75.5951216,5.13596109 74.5340606,5.13596109 L73.5633075,5.13596109 L73.5633075,8.38121122 L72.6038423,8.38121122 L72.6038423,0.129810005 L74.7428854,0.129810005 C76.8048054,0.129810005 77.8357499,0.931237677 77.8357499,2.53411706 Z M73.5633075,4.31194975 L74.4268263,4.31194975 C75.2771801,4.31194975 75.8923605,4.1746159 76.2723859,3.89994408 C76.6524113,3.62527226 76.8424211,3.18505142 76.8424211,2.57926837 C76.8424211,2.03368736 76.663699,1.62732967 76.3062494,1.3601831 C75.9487997,1.09303654 75.3919392,0.959465258 74.635651,0.959465258 L73.5633075,0.959465258 L73.5633075,4.31194975 Z M87.0485579,4.24422279 C87.0485579,5.5649051 86.7146297,6.60337476 86.0467633,7.35966292 C85.3788968,8.11595108 84.4504824,8.49408949 83.261492,8.49408949 C82.0461633,8.49408949 81.1083424,8.12253558 80.4480013,7.37941662 C79.7876601,6.63629765 79.4574945,5.58748092 79.4574945,4.23293496 C79.4574945,2.88967688 79.7886008,1.8483853 80.4508232,1.10902896 C81.1130457,0.369672623 82.0536885,-4.55635529e-13 83.2727799,-4.55635529e-13 C84.4580076,-4.55635529e-13 85.3836001,0.376257123 86.0495852,1.12878266 C86.7155703,1.88130819 87.0485579,2.91977785 87.0485579,4.24422279 Z M80.4733989,4.24422279 C80.4733989,5.3617232 80.7113815,6.20924237 81.1873539,6.78680572 C81.6633263,7.36436907 82.3546988,7.65314641 83.261492,7.65314641 C84.1758106,7.65314641 84.8662424,7.36530971 85.3328082,6.78962768 C85.7993741,6.21394564 86.0326535,5.36548583 86.0326535,4.24422279 C86.0326535,3.13424763 85.8003147,2.29237231 85.3356302,1.71857159 C84.8709457,1.14477087 84.1833358,0.857874819 83.2727799,0.857874819 C82.3584613,0.857874819 81.6633263,1.14665216 81.1873539,1.72421551 C80.7113815,2.30177885 80.4733989,3.14177288 80.4733989,4.24422279 Z M91.4076004,8.38121122 L90.4481352,8.38121122 L90.4481352,0.982040911 L87.8350033,0.982040911 L87.8350033,0.129810005 L94.0207323,0.129810005 L94.0207323,0.982040911 L91.4076004,0.982040911 L91.4076004,8.38121122 Z M95.5973256,0.129810005 L96.4947078,0.129810005 L96.4947078,4.7183115 C96.4947078,5.56490273 96.4683698,6.33058597 96.415693,7.01538421 L96.4608443,7.01538421 L101.088853,0.129810005 L102.138621,0.129810005 L102.138621,8.38121122 L101.235595,8.38121122 L101.235595,3.83786103 C101.235595,3.08157287 101.267577,2.28767034 101.331541,1.45612963 L101.280746,1.45612963 L96.6470934,8.38121122 L95.5973256,8.38121122 L95.5973256,0.129810005 Z M104.719831,0.129810005 L107.050767,0.129810005 C108.145692,0.129810005 108.937713,0.293481854 109.426855,0.620830461 C109.915996,0.948179068 110.160563,1.46553261 110.160563,2.17290661 C110.160563,2.66204821 110.02417,3.06558397 109.75138,3.38352601 C109.478589,3.70146805 109.080697,3.90746882 108.557692,4.00153452 L108.557692,4.05797365 C109.810647,4.27244343 110.437115,4.93089339 110.437115,6.0333433 C110.437115,6.77081832 110.187845,7.34649172 109.689297,7.76038076 C109.190748,8.17426981 108.493732,8.38121122 107.598227,8.38121122 L104.719831,8.38121122 L104.719831,0.129810005 Z M105.679296,3.66289972 L107.259592,3.66289972 C107.936865,3.66289972 108.424118,3.55660708 108.721365,3.34401862 C109.018613,3.13143016 109.167235,2.77304525 109.167235,2.26885314 C109.167235,1.80604994 109.001681,1.47212174 108.67057,1.26705853 C108.339459,1.06199532 107.812699,0.959465258 107.090275,0.959465258 L105.679296,0.959465258 L105.679296,3.66289972 Z M105.679296,4.47562323 L105.679296,7.5628438 L107.40069,7.5628438 C108.066675,7.5628438 108.568037,7.43397573 108.904793,7.17623574 C109.241548,6.91849574 109.409923,6.51495998 109.409923,5.96561634 C109.409923,5.45389898 109.237785,5.07764185 108.893505,4.83683368 C108.549224,4.59602551 108.025286,4.47562323 107.321675,4.47562323 L105.679296,4.47562323 Z M119.695074,4.24422279 C119.695074,5.5649051 119.361146,6.60337476 118.69328,7.35966292 C118.025413,8.11595108 117.096999,8.49408949 115.908009,8.49408949 C114.69268,8.49408949 113.754859,8.12253558 113.094518,7.37941662 C112.434177,6.63629765 112.104011,5.58748092 112.104011,4.23293496 C112.104011,2.88967688 112.435117,1.8483853 113.09734,1.10902896 C113.759562,0.369672623 114.700205,-4.55635529e-13 115.919296,-4.55635529e-13 C117.104524,-4.55635529e-13 118.030117,0.376257123 118.696102,1.12878266 C119.362087,1.88130819 119.695074,2.91977785 119.695074,4.24422279 Z M113.119915,4.24422279 C113.119915,5.3617232 113.357898,6.20924237 113.83387,6.78680572 C114.309843,7.36436907 115.001215,7.65314641 115.908009,7.65314641 C116.822327,7.65314641 117.512759,7.36530971 117.979325,6.78962768 C118.445891,6.21394564 118.67917,5.36548583 118.67917,4.24422279 C118.67917,3.13424763 118.446831,2.29237231 117.982147,1.71857159 C117.517462,1.14477087 116.829852,0.857874819 115.919296,0.857874819 C115.004978,0.857874819 114.309843,1.14665216 113.83387,1.72421551 C113.357898,2.30177885 113.119915,3.14177288 113.119915,4.24422279 Z M128.016144,8.38121122 L127.056679,8.38121122 L127.056679,0.982040911 L122.8181,0.982040911 L122.8181,8.38121122 L121.858635,8.38121122 L121.858635,0.129810005 L128.016144,0.129810005 L128.016144,8.38121122 Z M137.770768,4.24422279 C137.770768,5.5649051 137.43684,6.60337476 136.768973,7.35966292 C136.101107,8.11595108 135.172692,8.49408949 133.983702,8.49408949 C132.768373,8.49408949 131.830552,8.12253558 131.170211,7.37941662 C130.50987,6.63629765 130.179704,5.58748092 130.179704,4.23293496 C130.179704,2.88967688 130.510811,1.8483853 131.173033,1.10902896 C131.835256,0.369672623 132.775898,-4.55635529e-13 133.99499,-4.55635529e-13 C135.180217,-4.55635529e-13 136.10581,0.376257123 136.771795,1.12878266 C137.43778,1.88130819 137.770768,2.91977785 137.770768,4.24422279 Z M131.195609,4.24422279 C131.195609,5.3617232 131.433591,6.20924237 131.909564,6.78680572 C132.385536,7.36436907 133.076909,7.65314641 133.983702,7.65314641 C134.89802,7.65314641 135.588452,7.36530971 136.055018,6.78962768 C136.521584,6.21394564 136.754863,5.36548583 136.754863,4.24422279 C136.754863,3.13424763 136.522525,2.29237231 136.05784,1.71857159 C135.593156,1.14477087 134.905546,0.857874819 133.99499,0.857874819 C133.080671,0.857874819 132.385536,1.14665216 131.909564,1.72421551 C131.433591,2.30177885 131.195609,3.14177288 131.195609,4.24422279 Z M145.871725,8.38121122 L144.709079,8.38121122 L140.893793,4.19907148 L140.893793,8.38121122 L139.934328,8.38121122 L139.934328,0.129810005 L140.893793,0.129810005 L140.893793,4.12570061 L144.613132,0.129810005 L145.713695,0.129810005 L142.062083,4.13698844 L145.871725,8.38121122 Z M152.516552,8.38121122 L151.48936,5.75679155 L148.182027,5.75679155 L147.166122,8.38121122 L146.195369,8.38121122 L149.457551,0.0959465258 L150.264631,0.0959465258 L153.509881,8.38121122 L152.516552,8.38121122 Z M151.190233,4.89327281 L150.230767,2.3365801 C150.106601,2.01299412 149.978673,1.61604285 149.846981,1.1457144 C149.764203,1.50692665 149.645682,1.90387792 149.491415,2.3365801 L148.520662,4.89327281 L151.190233,4.89327281 Z M159.753991,2.06002835 C159.753991,2.60184673 159.581853,3.04206757 159.237572,3.38070406 C158.893292,3.71934055 158.418267,3.93380711 157.812484,4.02411017 L157.812484,4.06926148 C158.501045,4.16332717 159.023102,4.37967501 159.37867,4.7183115 C159.734239,5.05694799 159.91202,5.49905011 159.91202,6.04463112 C159.91202,6.8159698 159.624183,7.41704055 159.048501,7.84786142 C158.472819,8.27868229 157.660104,8.49408949 156.610331,8.49408949 C155.650861,8.49408949 154.864483,8.34546792 154.251175,8.04822034 L154.251175,7.15648204 C154.612387,7.32956291 155.002754,7.46313419 155.422287,7.55719988 C155.84182,7.65126558 156.245356,7.69829772 156.632907,7.69829772 C157.377907,7.69829772 157.941352,7.55720129 158.323259,7.27500422 C158.705165,6.99280714 158.896116,6.58644945 158.896116,6.05591895 C158.896116,5.55172684 158.684471,5.16982586 158.261175,4.91020455 C157.83788,4.65058325 157.206709,4.52077454 156.367643,4.52077454 L155.137269,4.52077454 L155.137269,3.71369494 L156.316847,3.71369494 C157.088186,3.71369494 157.685494,3.57542045 158.10879,3.29886731 C158.532085,3.02231418 158.74373,2.63570999 158.74373,2.13904313 C158.74373,1.73644197 158.591346,1.41474213 158.286573,1.17393396 C157.9818,0.933125792 157.57168,0.812723512 157.0562,0.812723512 C156.642311,0.812723512 156.267935,0.859755653 155.933061,0.953821345 C155.598187,1.04788704 155.210643,1.23413431 154.770415,1.51256876 L154.296326,0.869162645 C154.676352,0.58696557 155.102463,0.373439653 155.574673,0.228578488 C156.046883,0.0837173227 156.536957,0.0112878266 157.044912,0.0112878266 C157.891503,0.0112878266 158.554657,0.19659446 159.034392,0.567213285 C159.514127,0.93783211 159.753991,1.43543215 159.753991,2.06002835 Z M167.19461,8.38121122 L166.167418,5.75679155 L162.860084,5.75679155 L161.84418,8.38121122 L160.873427,8.38121122 L164.135609,0.0959465258 L164.942688,0.0959465258 L168.187939,8.38121122 L167.19461,8.38121122 Z M165.86829,4.89327281 L164.908825,2.3365801 C164.784658,2.01299412 164.656731,1.61604285 164.525039,1.1457144 C164.442261,1.50692665 164.32374,1.90387792 164.169472,2.3365801 L163.198719,4.89327281 L165.86829,4.89327281 Z M175.910753,8.38121122 L174.951288,8.38121122 L174.951288,4.49819889 L170.605475,4.49819889 L170.605475,8.38121122 L169.64601,8.38121122 L169.64601,0.129810005 L170.605475,0.129810005 L170.605475,3.64032407 L174.951288,3.64032407 L174.951288,0.129810005 L175.910753,0.129810005 L175.910753,8.38121122 Z M178.508895,0.129810005 L179.406277,0.129810005 L179.406277,4.7183115 C179.406277,5.56490273 179.379939,6.33058597 179.327262,7.01538421 L179.372414,7.01538421 L184.000423,0.129810005 L185.05019,0.129810005 L185.05019,8.38121122 L184.147164,8.38121122 L184.147164,3.83786103 C184.147164,3.08157287 184.179146,2.28767034 184.243111,1.45612963 L184.192316,1.45612963 L179.558663,8.38121122 L178.508895,8.38121122 L178.508895,0.129810005 Z M190.080859,4.93842412 L187.91924,8.38121122 L186.784813,8.38121122 L189.098818,4.77475064 C188.493035,4.58285662 188.052814,4.292198 187.778142,3.90276603 C187.50347,3.51333407 187.366136,3.02137788 187.366136,2.42688271 C187.366136,1.68940769 187.621051,1.12220008 188.130887,0.725242857 C188.640723,0.328285638 189.41299,0.129810005 190.447713,0.129810005 L192.716566,0.129810005 L192.716566,8.38121122 L191.757101,8.38121122 L191.757101,4.93842412 L190.080859,4.93842412 Z M191.757101,0.959465258 L190.475933,0.959465258 C189.787372,0.959465258 189.264374,1.07798625 188.906925,1.31503179 C188.549475,1.55207734 188.370753,1.93774089 188.370753,2.47203402 C188.370753,3.56695867 189.08376,4.11441278 190.509796,4.11441278 L191.757101,4.11441278 L191.757101,0.959465258 Z M195.032512,7.78295641 C195.032512,7.53086036 195.089891,7.33990987 195.204652,7.21009922 C195.319412,7.08028856 195.484024,7.01538421 195.698494,7.01538421 C195.916726,7.01538421 196.086983,7.08028856 196.209268,7.21009922 C196.331554,7.33990987 196.392695,7.53086036 196.392695,7.78295641 C196.392695,8.02752721 196.330613,8.21565577 196.206446,8.34734774 C196.082279,8.47903971 195.912964,8.54488471 195.698494,8.54488471 C195.5066,8.54488471 195.347631,8.48562421 195.221583,8.36710144 C195.095535,8.24857867 195.032512,8.05386561 195.032512,7.78295641 Z M208.299591,8.38121122 L207.340126,8.38121122 L207.340126,4.49819889 L202.994313,4.49819889 L202.994313,8.38121122 L202.034848,8.38121122 L202.034848,0.129810005 L202.994313,0.129810005 L202.994313,3.64032407 L207.340126,3.64032407 L207.340126,0.129810005 L208.299591,0.129810005 L208.299591,8.38121122 Z M215.486235,8.38121122 L210.886445,8.38121122 L210.886445,0.129810005 L215.486235,0.129810005 L215.486235,0.982040911 L211.84591,0.982040911 L211.84591,3.64032407 L215.266122,3.64032407 L215.266122,4.48691106 L211.84591,4.48691106 L211.84591,7.5233364 L215.486235,7.5233364 L215.486235,8.38121122 Z M224.800633,4.24422279 C224.800633,5.5649051 224.466705,6.60337476 223.798838,7.35966292 C223.130972,8.11595108 222.202557,8.49408949 221.013567,8.49408949 C219.798238,8.49408949 218.860418,8.12253558 218.200076,7.37941662 C217.539735,6.63629765 217.20957,5.58748092 217.20957,4.23293496 C217.20957,2.88967688 217.540676,1.8483853 218.202898,1.10902896 C218.865121,0.369672623 219.805764,-4.55635529e-13 221.024855,-4.55635529e-13 C222.210083,-4.55635529e-13 223.135675,0.376257123 223.80166,1.12878266 C224.467645,1.88130819 224.800633,2.91977785 224.800633,4.24422279 Z M218.225474,4.24422279 C218.225474,5.3617232 218.463457,6.20924237 218.939429,6.78680572 C219.415401,7.36436907 220.106774,7.65314641 221.013567,7.65314641 C221.927886,7.65314641 222.618317,7.36530971 223.084883,6.78962768 C223.551449,6.21394564 223.784729,5.36548583 223.784729,4.24422279 C223.784729,3.13424763 223.55239,2.29237231 223.087705,1.71857159 C222.623021,1.14477087 221.935411,0.857874819 221.024855,0.857874819 C220.110536,0.857874819 219.415401,1.14665216 218.939429,1.72421551 C218.463457,2.30177885 218.225474,3.14177288 218.225474,4.24422279 Z M232.314623,5.97690416 C232.314623,6.797157 232.070997,7.40293096 231.583736,7.79424424 C231.096476,8.18555752 230.361834,8.38121122 229.379788,8.38121122 L226.964193,8.38121122 L226.964193,0.129810005 L231.829246,0.129810005 L231.829246,0.982040911 L227.923658,0.982040911 L227.923658,3.65161189 L229.204827,3.65161189 C229.931014,3.65161189 230.521738,3.7353291 230.977016,3.90276603 C231.432294,4.07020297 231.769044,4.31759202 231.987276,4.64494063 C232.205508,4.97228924 232.314623,5.41627264 232.314623,5.97690416 Z M227.923658,7.55155597 L229.272554,7.55155597 C229.987453,7.55155597 230.507628,7.42927241 230.833096,7.18470161 C231.158563,6.94013081 231.321294,6.53753569 231.321294,5.97690416 C231.321294,5.44261104 231.155741,5.06259134 230.82463,4.83683368 C230.493519,4.61107602 229.915964,4.49819889 229.091949,4.49819889 L227.923658,4.49819889 L227.923658,7.55155597 Z M239.862477,8.38121122 L238.773201,8.38121122 L236.555143,4.75217498 L234.297578,8.38121122 L233.281674,8.38121122 L236.024616,4.06926148 L233.467923,0.129810005 L234.528979,0.129810005 L236.577719,3.3976358 L238.643391,0.129810005 L239.66494,0.129810005 L237.108247,4.035398 L239.862477,8.38121122 Z M248.296425,4.24422279 C248.296425,5.5649051 247.962496,6.60337476 247.29463,7.35966292 C246.626764,8.11595108 245.698349,8.49408949 244.509359,8.49408949 C243.29403,8.49408949 242.356209,8.12253558 241.695868,7.37941662 C241.035527,6.63629765 240.705361,5.58748092 240.705361,4.23293496 C240.705361,2.88967688 241.036467,1.8483853 241.69869,1.10902896 C242.360912,0.369672623 243.301555,-4.55635529e-13 244.520647,-4.55635529e-13 C245.705874,-4.55635529e-13 246.631467,0.376257123 247.297452,1.12878266 C247.963437,1.88130819 248.296425,2.91977785 248.296425,4.24422279 Z M241.721266,4.24422279 C241.721266,5.3617232 241.959248,6.20924237 242.435221,6.78680572 C242.911193,7.36436907 243.602565,7.65314641 244.509359,7.65314641 C245.423677,7.65314641 246.114109,7.36530971 246.580675,6.78962768 C247.047241,6.21394564 247.28052,5.36548583 247.28052,4.24422279 C247.28052,3.13424763 247.048181,2.29237231 246.583497,1.71857159 C246.118812,1.14477087 245.431202,0.857874819 244.520647,0.857874819 C243.606328,0.857874819 242.911193,1.14665216 242.435221,1.72421551 C241.959248,2.30177885 241.721266,3.14177288 241.721266,4.24422279 Z M256.736016,10.5315422 L255.821702,10.5315422 L255.821702,8.38121122 L250.087487,8.38121122 L250.087487,10.5315422 L249.173173,10.5315422 L249.173173,7.51204858 L249.810935,7.51204858 C250.390379,6.53752801 250.886098,5.35231807 251.298106,3.95638321 C251.710114,2.56044835 251.93869,1.2849367 251.983841,0.129810005 L255.691892,0.129810005 L255.691892,7.51204858 L256.736016,7.51204858 L256.736016,10.5315422 Z M254.732427,7.51204858 L254.732427,0.993328737 L252.853004,0.993328737 C252.785277,1.90388463 252.557641,2.99785222 252.170091,4.27526431 C251.78254,5.5526764 251.331031,6.6315937 250.815551,7.51204858 L254.732427,7.51204858 Z M258.459351,0.129810005 L259.356734,0.129810005 L259.356734,4.7183115 C259.356734,5.56490273 259.330396,6.33058597 259.277719,7.01538421 L259.32287,7.01538421 L263.950879,0.129810005 L265.000647,0.129810005 L265.000647,8.38121122 L264.097621,8.38121122 L264.097621,3.83786103 C264.097621,3.08157287 264.129603,2.28767034 264.193567,1.45612963 L264.142772,1.45612963 L259.509119,8.38121122 L258.459351,8.38121122 L258.459351,0.129810005 Z M271.233469,8.38121122 L268.434088,1.06669961 L268.388936,1.06669961 C268.441613,1.64614427 268.467951,2.33469481 268.467951,3.13237187 L268.467951,8.38121122 L267.581857,8.38121122 L267.581857,0.129810005 L269.026699,0.129810005 L271.63983,6.93636942 L271.684982,6.93636942 L274.320689,0.129810005 L275.754243,0.129810005 L275.754243,8.38121122 L274.794778,8.38121122 L274.794778,3.06464491 C274.794778,2.45509923 274.821116,1.79288669 274.873793,1.07798744 L274.828641,1.07798744 L272.006685,8.38121122 L271.233469,8.38121122 Z M285.503223,4.24422279 C285.503223,5.5649051 285.169295,6.60337476 284.501428,7.35966292 C283.833562,8.11595108 282.905148,8.49408949 281.716157,8.49408949 C280.500828,8.49408949 279.563008,8.12253558 278.902666,7.37941662 C278.242325,6.63629765 277.91216,5.58748092 277.91216,4.23293496 C277.91216,2.88967688 278.243266,1.8483853 278.905488,1.10902896 C279.567711,0.369672623 280.508354,-4.55635529e-13 281.727445,-4.55635529e-13 C282.912673,-4.55635529e-13 283.838265,0.376257123 284.50425,1.12878266 C285.170235,1.88130819 285.503223,2.91977785 285.503223,4.24422279 Z M278.928064,4.24422279 C278.928064,5.3617232 279.166047,6.20924237 279.642019,6.78680572 C280.117991,7.36436907 280.809364,7.65314641 281.716157,7.65314641 C282.630476,7.65314641 283.320908,7.36530971 283.787473,6.78962768 C284.254039,6.21394564 284.487319,5.36548583 284.487319,4.24422279 C284.487319,3.13424763 284.25498,2.29237231 283.790295,1.71857159 C283.325611,1.14477087 282.638001,0.857874819 281.727445,0.857874819 C280.813126,0.857874819 280.117991,1.14665216 279.642019,1.72421551 C279.166047,2.30177885 278.928064,3.14177288 278.928064,4.24422279 Z" id="ИМЕЮТСЯ-ПРОТИВОПОКАЗ"></path>
            <path d="M6.33147508,22.1495445 L5.34490243,22.1495445 L5.34490243,14.5413283 L0.986572652,14.5413283 L0.986572652,22.1495445 L-1.98951966e-13,22.1495445 L-1.98951966e-13,13.6650197 L6.33147508,13.6650197 L6.33147508,22.1495445 Z M14.3769402,16.1372547 C14.3769402,16.9961575 14.0838731,17.6567677 13.4977299,18.119105 C12.9115868,18.5814424 12.0730084,18.8126076 10.9819696,18.8126076 L9.98379025,18.8126076 L9.98379025,22.1495445 L8.9972176,22.1495445 L8.9972176,13.6650197 L11.1966943,13.6650197 C13.3168689,13.6650197 14.3769402,14.4890898 14.3769402,16.1372547 Z M9.98379025,17.9653157 L10.8717056,17.9653157 C11.7460842,17.9653157 12.3786451,17.8241019 12.7694072,17.5416698 C13.1601693,17.2592378 13.3555474,16.8065796 13.3555474,16.1836816 C13.3555474,15.6226865 13.1717759,15.2048482 12.8042274,14.930154 C12.4366789,14.6554599 11.8640855,14.5181148 11.0864303,14.5181148 L9.98379025,14.5181148 L9.98379025,17.9653157 Z M23.8500341,17.8956753 C23.8500341,19.2536704 23.5066715,20.3214795 22.8199361,21.0991348 C22.1332008,21.87679 21.1785562,22.2656118 19.9559738,22.2656118 C18.7063088,22.2656118 17.7419921,21.8835606 17.0629946,21.1194466 C16.383997,20.3553325 16.0445034,19.276884 16.0445034,17.8840686 C16.0445034,16.50286 16.3849643,15.4321492 17.0658962,14.6719041 C17.7468282,13.911659 18.7140466,13.5315422 19.9675805,13.5315422 C21.186294,13.5315422 22.1380369,13.9184296 22.8228378,14.6922159 C23.5076387,15.4660022 23.8500341,16.5338114 23.8500341,17.8956753 Z M17.0891097,17.8956753 C17.0891097,19.044748 17.333816,19.9162118 17.8232358,20.5100929 C18.3126557,21.1039739 19.0235612,21.4009099 19.9559738,21.4009099 C20.8961242,21.4009099 21.6060625,21.1049411 22.08581,20.5129945 C22.5655576,19.921048 22.8054277,19.048617 22.8054277,17.8956753 C22.8054277,16.7543405 22.5665248,15.88868 22.0887117,15.2986679 C21.6108986,14.7086558 20.903862,14.4136542 19.9675805,14.4136542 C19.0274301,14.4136542 18.3126557,14.7105903 17.8232358,15.3044713 C17.333816,15.8983523 17.0891097,16.7620783 17.0891097,17.8956753 Z M32.1798643,22.1495445 L30.9843704,22.1495445 L27.0612932,17.8492484 L27.0612932,22.1495445 L26.0747206,22.1495445 L26.0747206,13.6650197 L27.0612932,13.6650197 L27.0612932,17.7738046 L30.8857131,13.6650197 L32.01737,13.6650197 L28.2625905,17.7854113 L32.1798643,22.1495445 Z M40.8056663,17.8956753 C40.8056663,19.2536704 40.4623038,20.3214795 39.7755684,21.0991348 C39.088833,21.87679 38.1341884,22.2656118 36.911606,22.2656118 C35.6619411,22.2656118 34.6976243,21.8835606 34.0186268,21.1194466 C33.3396293,20.3553325 33.0001356,19.276884 33.0001356,17.8840686 C33.0001356,16.50286 33.3405965,15.4321492 34.0215285,14.6719041 C34.7024604,13.911659 35.6696789,13.5315422 36.9232127,13.5315422 C38.1419262,13.5315422 39.0936692,13.9184296 39.7784701,14.6922159 C40.463271,15.4660022 40.8056663,16.5338114 40.8056663,17.8956753 Z M34.0447419,17.8956753 C34.0447419,19.044748 34.2894482,19.9162118 34.7788681,20.5100929 C35.2682879,21.1039739 35.9791935,21.4009099 36.911606,21.4009099 C37.8517564,21.4009099 38.5616947,21.1049411 39.0414423,20.5129945 C39.5211898,19.921048 39.76106,19.048617 39.76106,17.8956753 C39.76106,16.7543405 39.522157,15.88868 39.0443439,15.2986679 C38.5665309,14.7086558 37.8594942,14.4136542 36.9232127,14.4136542 C35.9830623,14.4136542 35.2682879,14.7105903 34.7788681,15.3044713 C34.2894482,15.8983523 34.0447419,16.7620783 34.0447419,17.8956753 Z M49.4720919,22.1495445 L48.4855192,22.1495445 L48.4855192,18.1568269 L44.0169255,18.1568269 L44.0169255,22.1495445 L43.0303528,22.1495445 L43.0303528,13.6650197 L44.0169255,13.6650197 L44.0169255,17.2747149 L48.4855192,17.2747149 L48.4855192,13.6650197 L49.4720919,13.6650197 L49.4720919,22.1495445 Z M55.7649398,14.4252609 C54.8325272,14.4252609 54.096474,14.7357381 53.556758,15.3567016 C53.017042,15.9776651 52.7471881,16.8278501 52.7471881,17.9072821 C52.7471881,19.0176655 53.0073699,19.8755882 53.5277412,20.481076 C54.0481125,21.0865638 54.789969,21.3893032 55.753333,21.3893032 C56.3452796,21.3893032 57.020398,21.2829092 57.7787086,21.0701179 L57.7787086,21.9348198 C57.190631,22.1553489 56.4652172,22.2656118 55.6024454,22.2656118 C54.3527805,22.2656118 53.3884637,21.8864622 52.7094662,21.1281516 C52.0304687,20.369841 51.690975,19.2923597 51.690975,17.8956753 C51.690975,17.0212968 51.8544349,16.2552598 52.1813597,15.5975414 C52.5082844,14.939823 52.980287,14.4330005 53.5973816,14.0770588 C54.2144762,13.7211171 54.9408572,13.5431489 55.7765465,13.5431489 C56.6664008,13.5431489 57.4440444,13.7056416 58.1095006,14.0306319 L57.6916581,14.8779237 C57.0494154,14.576147 56.4071824,14.4252609 55.7649398,14.4252609 Z M60.4966815,22.2656118 C60.0672301,22.2656118 59.6900149,22.2075787 59.3650246,22.0915108 L59.3650246,21.1281516 C59.7248353,21.2945157 60.0904438,21.3776965 60.4618613,21.3776965 C60.8874437,21.3776965 61.2288718,21.2800074 61.4861558,21.0846263 C61.7434398,20.8892453 61.9997526,20.5226695 62.2551021,19.984888 L58.9529854,13.6650197 L60.0440187,13.6650197 L62.5510739,18.4876189 C62.6477972,18.6771966 62.7232403,18.8629025 62.7774053,19.0447423 L62.8238323,19.0447423 C62.9321623,18.719752 63.0076054,18.5147017 63.0501636,18.4295852 L65.1335729,13.6650197 L66.1781793,13.6650197 L63.4680062,19.7353432 C63.1430159,20.4588334 62.8499487,20.9850002 62.5887958,21.3138594 C62.3276429,21.6427186 62.0336085,21.883556 61.7066838,22.0363788 C61.3797591,22.1892016 60.976429,22.2656118 60.4966815,22.2656118 Z M73.1210044,22.1495445 L72.1344318,22.1495445 L72.1344318,14.5413283 L69.3778317,14.5413283 L69.1979273,15.9341368 C68.9619224,17.787355 68.7539705,19.1424281 68.5740652,19.9993964 C68.3941598,20.8563648 68.1571913,21.4531386 67.8631525,21.7897356 C67.5691137,22.1263327 67.1783575,22.2907598 66.6908721,22.2830219 C66.4045711,22.2830219 66.147291,22.234661 65.9190241,22.1379377 L65.9190241,21.308056 C66.1279464,21.4086483 66.3465377,21.4589436 66.5748047,21.4589436 C66.7798581,21.4589436 66.9587935,21.3747956 67.1116163,21.2064971 C67.2644391,21.0381986 67.3998497,20.7460986 67.5178521,20.3301884 C67.6358545,19.9142783 67.7848061,19.125028 67.9647115,17.9624141 C68.1446168,16.7998001 68.3428966,15.3673496 68.5595567,13.6650197 L73.1210044,13.6650197 L73.1210044,22.1495445 Z M81.6423458,19.6773095 C81.6423458,20.4627026 81.3802296,21.071083 80.8559894,21.5024689 C80.3317491,21.9338548 79.5840893,22.1495445 78.6129874,22.1495445 L75.7867469,22.1495445 L75.7867469,13.6650197 L76.7733196,13.6650197 L76.7733196,17.2863216 L78.4620998,17.2863216 C79.4951046,17.2863216 80.2833876,17.4904047 80.8269725,17.898577 C81.3705574,18.3067493 81.6423458,18.8996542 81.6423458,19.6773095 Z M76.7733196,21.2964493 L78.5085268,21.2964493 C79.9168179,21.2964493 80.6209529,20.7567414 80.6209529,19.6773095 C80.6209529,19.1550037 80.4400831,18.771018 80.078338,18.5253408 C79.7165929,18.2796637 79.137229,18.1568269 78.3402291,18.1568269 L76.7733196,18.1568269 L76.7733196,21.2964493 Z M85.7821439,22.1495445 L84.7955713,22.1495445 L84.7955713,14.5413283 L82.1086116,14.5413283 L82.1086116,13.6650197 L88.4691036,13.6650197 L88.4691036,14.5413283 L85.7821439,14.5413283 L85.7821439,22.1495445 Z M90.0902397,13.6650197 L91.0129753,13.6650197 L91.0129753,18.3831583 C91.0129753,19.2536679 90.9858932,20.0409837 90.9317282,20.7451293 L90.9781551,20.7451293 L95.7369173,13.6650197 L96.8163439,13.6650197 L96.8163439,22.1495445 L95.8878049,22.1495445 L95.8878049,17.4778328 C95.8878049,16.7001775 95.9206903,15.8838452 95.9864622,15.0288113 L95.9342319,15.0288113 L91.1696663,22.1495445 L90.0902397,22.1495445 L90.0902397,13.6650197 Z M104.850202,16.1372547 C104.850202,16.9961575 104.557135,17.6567677 103.970992,18.119105 C103.384849,18.5814424 102.54627,18.8126076 101.455232,18.8126076 L100.457052,18.8126076 L100.457052,22.1495445 L99.4704797,22.1495445 L99.4704797,13.6650197 L101.669956,13.6650197 C103.790131,13.6650197 104.850202,14.4890898 104.850202,16.1372547 Z M100.457052,17.9653157 L101.344968,17.9653157 C102.219346,17.9653157 102.851907,17.8241019 103.242669,17.5416698 C103.633431,17.2592378 103.828809,16.8065796 103.828809,16.1836816 C103.828809,15.6226865 103.645038,15.2048482 103.277489,14.930154 C102.909941,14.6554599 102.337348,14.5181148 101.559692,14.5181148 L100.457052,14.5181148 L100.457052,17.9653157 Z M114.323296,17.8956753 C114.323296,19.2536704 113.979934,20.3214795 113.293198,21.0991348 C112.606463,21.87679 111.651818,22.2656118 110.429236,22.2656118 C109.179571,22.2656118 108.215254,21.8835606 107.536257,21.1194466 C106.857259,20.3553325 106.517765,19.276884 106.517765,17.8840686 C106.517765,16.50286 106.858226,15.4321492 107.539158,14.6719041 C108.22009,13.911659 109.187309,13.5315422 110.440843,13.5315422 C111.659556,13.5315422 112.611299,13.9184296 113.2961,14.6922159 C113.980901,15.4660022 114.323296,16.5338114 114.323296,17.8956753 Z M107.562372,17.8956753 C107.562372,19.044748 107.807078,19.9162118 108.296498,20.5100929 C108.785918,21.1039739 109.496823,21.4009099 110.429236,21.4009099 C111.369386,21.4009099 112.079325,21.1049411 112.559072,20.5129945 C113.03882,19.921048 113.27869,19.048617 113.27869,17.8956753 C113.27869,16.7543405 113.039787,15.88868 112.561974,15.2986679 C112.084161,14.7086558 111.377124,14.4136542 110.440843,14.4136542 C109.500692,14.4136542 108.785918,14.7105903 108.296498,15.3044713 C107.807078,15.8983523 107.562372,16.7620783 107.562372,17.8956753 Z M116.547983,13.6650197 L118.944774,13.6650197 C120.070633,13.6650197 120.885031,13.8333157 121.387992,14.1699127 C121.890953,14.5065098 122.14243,15.0384799 122.14243,15.7658391 C122.14243,16.2688002 122.002183,16.6837369 121.721686,17.0106616 C121.441188,17.3375864 121.032055,17.5494072 120.494273,17.6461305 L120.494273,17.7041642 C121.782628,17.9246933 122.426795,18.6017462 122.426795,19.7353432 C122.426795,20.4936538 122.170482,21.0855914 121.657849,21.5111739 C121.145215,21.9367564 120.428506,22.1495445 119.507701,22.1495445 L116.547983,22.1495445 L116.547983,13.6650197 Z M117.534555,17.2979284 L119.159498,17.2979284 C119.855906,17.2979284 120.356925,17.1886327 120.662571,16.970038 C120.968217,16.7514434 121.121037,16.3829332 121.121037,15.8644963 C121.121037,15.3886177 120.950807,15.0452552 120.610341,14.8343984 C120.269875,14.6235416 119.728232,14.5181148 118.985397,14.5181148 L117.534555,14.5181148 L117.534555,17.2979284 Z M117.534555,18.1336134 L117.534555,21.308056 L119.304583,21.308056 C119.989384,21.308056 120.504911,21.1755471 120.85118,20.9105253 C121.19745,20.6455035 121.370582,20.2305668 121.370582,19.6657027 C121.370582,19.139528 121.193581,18.7526407 120.839574,18.505029 C120.485566,18.2574174 119.946826,18.1336134 119.223336,18.1336134 L117.534555,18.1336134 Z M129.915137,22.1495445 L128.858924,19.4509781 L125.45815,19.4509781 L124.413543,22.1495445 L123.415364,22.1495445 L126.769711,13.6301994 L127.599593,13.6301994 L130.93653,22.1495445 L129.915137,22.1495445 Z M128.551345,18.5630627 L127.564772,15.9341368 C127.437098,15.6014086 127.305556,15.1932425 127.170143,14.709626 C127.085027,15.0810434 126.963157,15.4892096 126.804531,15.9341368 L125.806352,18.5630627 L128.551345,18.5630627 Z M134.217429,22.1495445 L133.230857,22.1495445 L133.230857,14.5413283 L130.543897,14.5413283 L130.543897,13.6650197 L136.904389,13.6650197 L136.904389,14.5413283 L134.217429,14.5413283 L134.217429,22.1495445 Z M144.369517,19.6773095 C144.369517,20.4627026 144.107401,21.071083 143.583161,21.5024689 C143.05892,21.9338548 142.311261,22.1495445 141.340159,22.1495445 L138.513918,22.1495445 L138.513918,13.6650197 L139.500491,13.6650197 L139.500491,17.2863216 L141.189271,17.2863216 C142.222276,17.2863216 143.010559,17.4904047 143.554144,17.898577 C144.097729,18.3067493 144.369517,18.8996542 144.369517,19.6773095 Z M139.500491,21.2964493 L141.235698,21.2964493 C142.643989,21.2964493 143.348124,20.7567414 143.348124,19.6773095 C143.348124,19.1550037 143.167254,18.771018 142.805509,18.5253408 C142.443764,18.2796637 141.8644,18.1568269 141.0674,18.1568269 L139.500491,18.1568269 L139.500491,21.2964493 Z M150.122652,14.4252609 C149.190239,14.4252609 148.454186,14.7357381 147.91447,15.3567016 C147.374754,15.9776651 147.1049,16.8278501 147.1049,17.9072821 C147.1049,19.0176655 147.365082,19.8755882 147.885453,20.481076 C148.405824,21.0865638 149.147681,21.3893032 150.111045,21.3893032 C150.702992,21.3893032 151.37811,21.2829092 152.136421,21.0701179 L152.136421,21.9348198 C151.548343,22.1553489 150.822929,22.2656118 149.960157,22.2656118 C148.710492,22.2656118 147.746176,21.8864622 147.067178,21.1281516 C146.388181,20.369841 146.048687,19.2923597 146.048687,17.8956753 C146.048687,17.0212968 146.212147,16.2552598 146.539072,15.5975414 C146.865996,14.939823 147.337999,14.4330005 147.955094,14.0770588 C148.572188,13.7211171 149.298569,13.5431489 150.134258,13.5431489 C151.024113,13.5431489 151.801756,13.7056416 152.467213,14.0306319 L152.04937,14.8779237 C151.407127,14.576147 150.764894,14.4252609 150.122652,14.4252609 Z M156.839145,18.6094897 L154.616455,22.1495445 L153.449978,22.1495445 L155.829359,18.441192 C155.206461,18.2438765 154.753803,17.945006 154.471371,17.5445715 C154.188939,17.1441371 154.047725,16.6382819 154.047725,16.0269907 C154.047725,15.26868 154.309841,14.6854473 154.834082,14.277275 C155.358322,13.8691027 156.152408,13.6650197 157.216364,13.6650197 L159.549319,13.6650197 L159.549319,22.1495445 L158.562746,22.1495445 L158.562746,18.6094897 L156.839145,18.6094897 Z M158.562746,14.5181148 L157.245381,14.5181148 C156.537367,14.5181148 155.999593,14.6399844 155.632045,14.8837271 C155.264496,15.1274698 155.080725,15.5240293 155.080725,16.0734176 C155.080725,17.1992767 155.813876,17.7621979 157.280202,17.7621979 L158.562746,17.7621979 L158.562746,14.5181148 Z M172.073965,14.4136542 C171.141552,14.4136542 170.405499,14.7241313 169.865783,15.3450949 C169.326067,15.9660584 169.056213,16.8162434 169.056213,17.8956753 C169.056213,19.0060587 169.316395,19.8639815 169.836766,20.4694693 C170.357137,21.0749571 171.098994,21.3776965 172.062358,21.3776965 C172.654305,21.3776965 173.329423,21.2713024 174.087734,21.0585112 L174.087734,21.9232131 C173.499656,22.1437422 172.774242,22.2540051 171.91147,22.2540051 C170.661805,22.2540051 169.697489,21.8748555 169.018491,21.1165449 C168.339494,20.3582343 168,19.2807529 168,17.8840686 C168,17.00969 168.16346,16.243653 168.490385,15.5859346 C168.817309,14.9282163 169.289312,14.4213938 169.906407,14.0654521 C170.523501,13.7095104 171.249882,13.5315422 172.085571,13.5315422 C172.975426,13.5315422 173.753069,13.6940349 174.418526,14.0190251 L174.000683,14.8663169 C173.35844,14.5645403 172.716207,14.4136542 172.073965,14.4136542 Z M257.966616,14.4136542 C257.034204,14.4136542 256.29815,14.7241313 255.758434,15.3450949 C255.218718,15.9660584 254.948864,16.8162434 254.948864,17.8956753 C254.948864,19.0060587 255.209046,19.8639815 255.729418,20.4694693 C256.249789,21.0749571 256.991645,21.3776965 257.955009,21.3776965 C258.546956,21.3776965 259.222074,21.2713024 259.980385,21.0585112 L259.980385,21.9232131 C259.392307,22.1437422 258.666894,22.2540051 257.804122,22.2540051 C256.554457,22.2540051 255.59014,21.8748555 254.911143,21.1165449 C254.232145,20.3582343 253.892651,19.2807529 253.892651,17.8840686 C253.892651,17.00969 254.056111,16.243653 254.383036,15.5859346 C254.709961,14.9282163 255.181963,14.4213938 255.799058,14.0654521 C256.416153,13.7095104 257.142534,13.5315422 257.978223,13.5315422 C258.868077,13.5315422 259.645721,13.6940349 260.311177,14.0190251 L259.893334,14.8663169 C259.251092,14.5645403 258.608859,14.4136542 257.966616,14.4136542 Z M183.012699,17.8956753 C183.012699,19.2536704 182.669337,20.3214795 181.982601,21.0991348 C181.295866,21.87679 180.341221,22.2656118 179.118639,22.2656118 C177.868974,22.2656118 176.904657,21.8835606 176.22566,21.1194466 C175.546662,20.3553325 175.207168,19.276884 175.207168,17.8840686 C175.207168,16.50286 175.547629,15.4321492 176.228561,14.6719041 C176.909493,13.911659 177.876712,13.5315422 179.130246,13.5315422 C180.348959,13.5315422 181.300702,13.9184296 181.985503,14.6922159 C182.670304,15.4660022 183.012699,16.5338114 183.012699,17.8956753 Z M176.251775,17.8956753 C176.251775,19.044748 176.496481,19.9162118 176.985901,20.5100929 C177.475321,21.1039739 178.186226,21.4009099 179.118639,21.4009099 C180.058789,21.4009099 180.768728,21.1049411 181.248475,20.5129945 C181.728223,19.921048 181.968093,19.048617 181.968093,17.8956753 C181.968093,16.7543405 181.72919,15.88868 181.251377,15.2986679 C180.773564,14.7086558 180.066527,14.4136542 179.130246,14.4136542 C178.190095,14.4136542 177.475321,14.7105903 176.985901,15.3044713 C176.496481,15.8983523 176.251775,16.7620783 176.251775,17.8956753 Z M191.710655,14.4252609 C190.778243,14.4252609 190.042189,14.7357381 189.502473,15.3567016 C188.962757,15.9776651 188.692904,16.8278501 188.692904,17.9072821 C188.692904,19.0176655 188.953085,19.8755882 189.473457,20.481076 C189.993828,21.0865638 190.735684,21.3893032 191.699048,21.3893032 C192.290995,21.3893032 192.966113,21.2829092 193.724424,21.0701179 L193.724424,21.9348198 C193.136346,22.1553489 192.410933,22.2656118 191.548161,22.2656118 C190.298496,22.2656118 189.334179,21.8864622 188.655182,21.1281516 C187.976184,20.369841 187.63669,19.2923597 187.63669,17.8956753 C187.63669,17.0212968 187.80015,16.2552598 188.127075,15.5975414 C188.454,14.939823 188.926002,14.4330005 189.543097,14.0770588 C190.160192,13.7211171 190.886573,13.5431489 191.722262,13.5431489 C192.612116,13.5431489 193.38976,13.7056416 194.055216,14.0306319 L193.637374,14.8779237 C192.995131,14.576147 192.352898,14.4252609 191.710655,14.4252609 Z M201.239962,22.1495445 L200.253389,22.1495445 L200.253389,14.5413283 L195.89506,14.5413283 L195.89506,22.1495445 L194.908487,22.1495445 L194.908487,13.6650197 L201.239962,13.6650197 L201.239962,22.1495445 Z M208.63545,22.1495445 L203.905705,22.1495445 L203.905705,13.6650197 L208.63545,13.6650197 L208.63545,14.5413283 L204.892277,14.5413283 L204.892277,17.2747149 L208.409119,17.2747149 L208.409119,18.1452202 L204.892277,18.1452202 L204.892277,21.2674325 L208.63545,21.2674325 L208.63545,22.1495445 Z M217.180005,21.2558257 L218.178184,21.2558257 L218.178184,24.3606279 L217.243842,24.3606279 L217.243842,22.1495445 L210.84853,22.1495445 L210.84853,13.6650197 L211.835102,13.6650197 L211.835102,21.2558257 L216.193432,21.2558257 L216.193432,13.6650197 L217.180005,13.6650197 L217.180005,21.2558257 Z M219.950208,13.6650197 L220.872944,13.6650197 L220.872944,18.3831583 C220.872944,19.2536679 220.845861,20.0409837 220.791696,20.7451293 L220.838123,20.7451293 L225.596886,13.6650197 L226.676312,13.6650197 L226.676312,22.1495445 L225.747773,22.1495445 L225.747773,17.4778328 C225.747773,16.7001775 225.780659,15.8838452 225.84643,15.0288113 L225.7942,15.0288113 L221.029634,22.1495445 L219.950208,22.1495445 L219.950208,13.6650197 Z M234.663744,22.1495445 L233.60753,19.4509781 L230.206757,19.4509781 L229.16215,22.1495445 L228.163971,22.1495445 L231.518318,13.6301994 L232.3482,13.6301994 L235.685136,22.1495445 L234.663744,22.1495445 Z M233.299952,18.5630627 L232.313379,15.9341368 C232.185705,15.6014086 232.054163,15.1932425 231.91875,14.709626 C231.833634,15.0810434 231.711764,15.4892096 231.553138,15.9341368 L230.554959,18.5630627 L233.299952,18.5630627 Z M244.219905,22.1495445 L243.233333,22.1495445 L243.233333,14.5413283 L240.476732,14.5413283 L240.296828,15.9341368 C240.060823,17.787355 239.852871,19.1424281 239.672966,19.9993964 C239.493061,20.8563648 239.256092,21.4531386 238.962053,21.7897356 C238.668014,22.1263327 238.277258,22.2907598 237.789773,22.2830219 C237.503472,22.2830219 237.246192,22.234661 237.017925,22.1379377 L237.017925,21.308056 C237.226847,21.4086483 237.445438,21.4589436 237.673705,21.4589436 C237.878759,21.4589436 238.057694,21.3747956 238.210517,21.2064971 C238.36334,21.0381986 238.49875,20.7460986 238.616753,20.3301884 C238.734755,19.9142783 238.883707,19.125028 239.063612,17.9624141 C239.243518,16.7998001 239.441797,15.3673496 239.658457,13.6650197 L244.219905,13.6650197 L244.219905,22.1495445 Z M245.897254,13.6650197 L246.81999,13.6650197 L246.81999,18.3831583 C246.81999,19.2536679 246.792908,20.0409837 246.738743,20.7451293 L246.78517,20.7451293 L251.543932,13.6650197 L252.623359,13.6650197 L252.623359,22.1495445 L251.69482,22.1495445 L251.69482,17.4778328 C251.69482,16.7001775 251.727705,15.8838452 251.793477,15.0288113 L251.741247,15.0288113 L246.976681,22.1495445 L245.897254,22.1495445 L245.897254,13.6650197 Z M264.88901,22.1495445 L263.902438,22.1495445 L263.902438,14.5413283 L261.215478,14.5413283 L261.215478,13.6650197 L267.57597,13.6650197 L267.57597,14.5413283 L264.88901,14.5413283 L264.88901,22.1495445 Z M276.312036,17.8956753 C276.312036,19.2536704 275.968673,20.3214795 275.281938,21.0991348 C274.595203,21.87679 273.640558,22.2656118 272.417976,22.2656118 C271.168311,22.2656118 270.203994,21.8835606 269.524996,21.1194466 C268.845999,20.3553325 268.506505,19.276884 268.506505,17.8840686 C268.506505,16.50286 268.846966,15.4321492 269.527898,14.6719041 C270.20883,13.911659 271.176048,13.5315422 272.429582,13.5315422 C273.648296,13.5315422 274.600039,13.9184296 275.28484,14.6922159 C275.969641,15.4660022 276.312036,16.5338114 276.312036,17.8956753 Z M269.551111,17.8956753 C269.551111,19.044748 269.795818,19.9162118 270.285238,20.5100929 C270.774657,21.1039739 271.485563,21.4009099 272.417976,21.4009099 C273.358126,21.4009099 274.068064,21.1049411 274.547812,20.5129945 C275.027559,19.921048 275.26743,19.048617 275.26743,17.8956753 C275.26743,16.7543405 275.028527,15.88868 274.550713,15.2986679 C274.0729,14.7086558 273.365864,14.4136542 272.429582,14.4136542 C271.489432,14.4136542 270.774657,14.7105903 270.285238,15.3044713 C269.795818,15.8983523 269.551111,16.7620783 269.551111,17.8956753 Z M281.291502,22.1495445 L278.413031,14.6283788 L278.366604,14.6283788 C278.420769,15.2241943 278.447851,15.9321982 278.447851,16.7524117 L278.447851,22.1495445 L277.536722,22.1495445 L277.536722,13.6650197 L279.022385,13.6650197 L281.709344,20.6638821 L281.755771,20.6638821 L284.465944,13.6650197 L285.94,13.6650197 L285.94,22.1495445 L284.953427,22.1495445 L284.953427,16.6827713 C284.953427,16.0560044 284.980509,15.3750826 285.034675,14.6399856 L284.988248,14.6399856 L282.086563,22.1495445 L281.291502,22.1495445 Z" id="ПРОКОНСУЛЬТИРОВАТЬСЯ"></path>
        </g>
    </g>
</svg>