<?xml version="1.0" encoding="UTF-8"?>
<svg width="1260px" height="24px" viewBox="0 0 1260 24" version="1.1" xmlns="http://www.w3.org/2000/svg" xmlns:xlink="http://www.w3.org/1999/xlink">
    <!-- Generator: Sketch 52.4 (67378) - http://www.bohemiancoding.com/sketch -->
    <title>ИМЕЮТСЯ ПРОТИВОПОКАЗ</title>
    <desc>Created with Sketch.</desc>
    <g id="Page-1" stroke="none" stroke-width="1" fill="none" fill-rule="evenodd">
        <g id="1-Главная-комп-_" transform="translate(-89.000000, -5240.000000)" fill="#FFFFFF">
            <path d="M89.4868164,5240.41018 L91.4683979,5240.41018 L91.4683979,5250.54242 C91.4683979,5252.41184 91.4102388,5254.10261 91.293919,5255.61477 L91.3936212,5255.61477 L101.613098,5240.41018 L103.931174,5240.41018 L103.931174,5258.63076 L101.93713,5258.63076 L101.93713,5248.59822 C101.93713,5246.9282 102.007752,5245.17512 102.148997,5243.33893 L102.036832,5243.33893 L91.8048928,5258.63076 L89.4868164,5258.63076 L89.4868164,5240.41018 Z M117.694367,5258.63076 L111.51283,5242.479 L111.413128,5242.479 C111.529447,5243.75852 111.587606,5245.27896 111.587606,5247.04038 L111.587606,5258.63076 L109.63095,5258.63076 L109.63095,5240.41018 L112.821421,5240.41018 L118.591687,5255.44029 L118.691389,5255.44029 L124.511506,5240.41018 L127.677051,5240.41018 L127.677051,5258.63076 L125.558379,5258.63076 L125.558379,5246.89082 C125.558379,5245.54484 125.616538,5244.08255 125.732858,5242.50393 L125.633156,5242.50393 L119.401767,5258.63076 L117.694367,5258.63076 Z M143.546453,5258.63076 L133.38929,5258.63076 L133.38929,5240.41018 L143.546453,5240.41018 L143.546453,5242.29206 L135.507962,5242.29206 L135.507962,5248.16203 L143.060404,5248.16203 L143.060404,5250.03144 L135.507962,5250.03144 L135.507962,5256.73642 L143.546453,5256.73642 L143.546453,5258.63076 Z M171.006236,5249.49554 C171.006236,5252.43677 170.297942,5254.73613 168.881333,5256.39369 C167.464724,5258.05125 165.493548,5258.88001 162.967746,5258.88001 C160.466869,5258.88001 158.508156,5258.11771 157.091546,5256.59309 C155.674937,5255.06847 154.920947,5252.88959 154.829553,5250.05637 L150.41773,5250.05637 L150.41773,5258.63076 L148.299058,5258.63076 L148.299058,5240.41018 L150.41773,5240.41018 L150.41773,5248.16203 L154.854478,5248.16203 C155.045575,5245.57806 155.841108,5243.59235 157.2411,5242.20482 C158.641092,5240.81729 160.533338,5240.12354 162.917894,5240.12354 C165.468622,5240.12354 167.454338,5240.95646 168.875102,5242.62232 C170.295865,5244.28819 171.006236,5246.57924 171.006236,5249.49554 Z M157.047927,5249.49554 C157.047927,5251.95488 157.542279,5253.82427 158.530997,5255.10379 C159.519716,5256.38331 160.973692,5257.02306 162.892969,5257.02306 C164.837172,5257.02306 166.301533,5256.38746 167.286098,5255.11626 C168.270662,5253.84505 168.762937,5251.97149 168.762937,5249.49554 C168.762937,5247.01959 168.274816,5245.15435 167.29856,5243.89976 C166.322305,5242.64516 164.870406,5242.01788 162.94282,5242.01788 C161.006926,5242.01788 159.540487,5242.6514 158.54346,5243.91845 C157.546433,5245.18551 157.047927,5247.04452 157.047927,5249.49554 Z M180.656713,5258.63076 L178.538041,5258.63076 L178.538041,5242.29206 L172.767775,5242.29206 L172.767775,5240.41018 L186.426978,5240.41018 L186.426978,5242.29206 L180.656713,5242.29206 L180.656713,5258.63076 Z M197.174179,5242.0428 C195.171816,5242.0428 193.591136,5242.70955 192.432092,5244.04308 C191.273048,5245.3766 190.693535,5247.20238 190.693535,5249.52047 C190.693535,5251.90503 191.252277,5253.74742 192.369778,5255.04771 C193.48728,5256.348 195.080422,5256.99813 197.149253,5256.99813 C198.420463,5256.99813 199.870285,5256.76965 201.498762,5256.31268 L201.498762,5258.16964 C200.235861,5258.64322 198.67803,5258.88001 196.825221,5258.88001 C194.141556,5258.88001 192.070679,5258.06579 190.612527,5256.43731 C189.154375,5254.80883 188.42531,5252.49493 188.42531,5249.49554 C188.42531,5247.61781 188.776341,5245.97274 189.478414,5244.56028 C190.180487,5243.14783 191.194117,5242.05942 192.519332,5241.29504 C193.844547,5240.53065 195.404456,5240.14846 197.199104,5240.14846 C199.110073,5240.14846 200.780068,5240.49741 202.20914,5241.19533 L201.311821,5243.0149 C199.9326,5242.36683 198.5534,5242.0428 197.174179,5242.0428 Z M211.597898,5251.02846 L206.824655,5258.63076 L204.319637,5258.63076 L209.429375,5250.66704 C208.091697,5250.24331 207.11961,5249.60148 206.513086,5248.74155 C205.906561,5247.88161 205.603303,5246.79528 205.603303,5245.48253 C205.603303,5243.85405 206.166199,5242.60155 207.292009,5241.725 C208.417819,5240.84845 210.123125,5240.41018 212.407979,5240.41018 L217.418015,5240.41018 L217.418015,5258.63076 L215.299343,5258.63076 L215.299343,5251.02846 L211.597898,5251.02846 Z M215.299343,5242.24221 L212.470293,5242.24221 C210.949826,5242.24221 209.794954,5242.50392 209.005641,5243.02736 C208.216328,5243.5508 207.821677,5244.40242 207.821677,5245.58223 C207.821677,5248.00002 209.396125,5249.2089 212.545069,5249.2089 L215.299343,5249.2089 L215.299343,5242.24221 Z M244.084468,5258.63076 L241.965796,5258.63076 L241.965796,5242.29206 L232.606251,5242.29206 L232.606251,5258.63076 L230.487579,5258.63076 L230.487579,5240.41018 L244.084468,5240.41018 L244.084468,5258.63076 Z M261.362164,5245.71932 C261.362164,5247.56382 260.7328,5248.98249 259.474053,5249.97536 C258.215306,5250.96823 256.414453,5251.46466 254.07144,5251.46466 L251.927842,5251.46466 L251.927842,5258.63076 L249.80917,5258.63076 L249.80917,5240.41018 L254.532562,5240.41018 C259.085653,5240.41018 261.362164,5242.17988 261.362164,5245.71932 Z M251.927842,5249.6451 L253.834647,5249.6451 C255.712381,5249.6451 257.07081,5249.34184 257.909975,5248.73531 C258.749139,5248.12879 259.168715,5247.1567 259.168715,5245.81902 C259.168715,5244.61428 258.774065,5243.71697 257.984751,5243.12706 C257.195438,5242.53716 255.96579,5242.24221 254.29577,5242.24221 L251.927842,5242.24221 L251.927842,5249.6451 Z M281.705702,5249.49554 C281.705702,5252.41185 280.968329,5254.70498 279.493559,5256.375 C278.01879,5258.04502 275.968684,5258.88001 273.343179,5258.88001 C270.659515,5258.88001 268.588637,5258.05956 267.130485,5256.41862 C265.672333,5254.77768 264.943268,5252.4617 264.943268,5249.47062 C264.943268,5246.50446 265.67441,5244.2051 267.136717,5242.57247 C268.599023,5240.93984 270.676132,5240.12354 273.368105,5240.12354 C275.985301,5240.12354 278.029176,5240.95438 279.499791,5242.61609 C280.970406,5244.2778 281.705702,5246.57093 281.705702,5249.49554 Z M267.186568,5249.49554 C267.186568,5251.96319 267.712076,5253.83466 268.763109,5255.11002 C269.814142,5256.38539 271.340816,5257.02306 273.343179,5257.02306 C275.362159,5257.02306 276.886757,5256.38746 277.917018,5255.11626 C278.94728,5253.84505 279.462403,5251.97149 279.462403,5249.49554 C279.462403,5247.04452 278.949357,5245.18551 277.92325,5243.91845 C276.897143,5242.6514 275.378776,5242.01788 273.368105,5242.01788 C271.349125,5242.01788 269.814142,5242.65555 268.763109,5243.93091 C267.712076,5245.20628 267.186568,5247.06114 267.186568,5249.49554 Z M291.331253,5258.63076 L289.212581,5258.63076 L289.212581,5242.29206 L283.442315,5242.29206 L283.442315,5240.41018 L297.101519,5240.41018 L297.101519,5242.29206 L291.331253,5242.29206 L291.331253,5258.63076 Z M300.58292,5240.41018 L302.564502,5240.41018 L302.564502,5250.54242 C302.564502,5252.41184 302.506343,5254.10261 302.390023,5255.61477 L302.489725,5255.61477 L312.709202,5240.41018 L315.027278,5240.41018 L315.027278,5258.63076 L313.033234,5258.63076 L313.033234,5248.59822 C313.033234,5246.9282 313.103856,5245.17512 313.245101,5243.33893 L313.132936,5243.33893 L302.900997,5258.63076 L300.58292,5258.63076 L300.58292,5240.41018 Z M320.727054,5240.41018 L325.874181,5240.41018 C328.291972,5240.41018 330.040897,5240.7716 331.12101,5241.49444 C332.201123,5242.21729 332.741171,5243.35969 332.741171,5244.9217 C332.741171,5246.00182 332.43999,5246.8929 331.83762,5247.59497 C331.235249,5248.29704 330.356632,5248.75193 329.201742,5248.95964 L329.201742,5249.08427 C331.968493,5249.55786 333.351847,5251.01184 333.351847,5253.44624 C333.351847,5255.07472 332.801413,5256.34591 331.700529,5257.25985 C330.599645,5258.17379 329.060508,5258.63076 327.08307,5258.63076 L320.727054,5258.63076 L320.727054,5240.41018 Z M322.845726,5248.21188 L326.335304,5248.21188 C327.830844,5248.21188 328.906787,5247.97716 329.563163,5247.50773 C330.219539,5247.0383 330.547722,5246.24692 330.547722,5245.13357 C330.547722,5244.11162 330.182151,5243.37424 329.450998,5242.92143 C328.719845,5242.46861 327.556664,5242.24221 325.961421,5242.24221 L322.845726,5242.24221 L322.845726,5248.21188 Z M322.845726,5250.00652 L322.845726,5256.82366 L326.646873,5256.82366 C328.117488,5256.82366 329.224587,5256.53909 329.968203,5255.96996 C330.711819,5255.40082 331.083622,5254.50974 331.083622,5253.29669 C331.083622,5252.16673 330.703511,5251.33588 329.943278,5250.80413 C329.183044,5250.27239 328.026095,5250.00652 326.472394,5250.00652 L322.845726,5250.00652 Z M353.795088,5249.49554 C353.795088,5252.41185 353.057714,5254.70498 351.582945,5256.375 C350.108176,5258.04502 348.058069,5258.88001 345.432565,5258.88001 C342.7489,5258.88001 340.678023,5258.05956 339.219871,5256.41862 C337.761718,5254.77768 337.032653,5252.4617 337.032653,5249.47062 C337.032653,5246.50446 337.763796,5244.2051 339.226102,5242.57247 C340.688408,5240.93984 342.765517,5240.12354 345.45749,5240.12354 C348.074686,5240.12354 350.118561,5240.95438 351.589176,5242.61609 C353.059791,5244.2778 353.795088,5246.57093 353.795088,5249.49554 Z M339.275953,5249.49554 C339.275953,5251.96319 339.801462,5253.83466 340.852494,5255.11002 C341.903527,5256.38539 343.430202,5257.02306 345.432565,5257.02306 C347.451545,5257.02306 348.976142,5256.38746 350.006404,5255.11626 C351.036665,5253.84505 351.551788,5251.97149 351.551788,5249.49554 C351.551788,5247.04452 351.038742,5245.18551 350.012635,5243.91845 C348.986528,5242.6514 347.468162,5242.01788 345.45749,5242.01788 C343.43851,5242.01788 341.903527,5242.65555 340.852494,5243.93091 C339.801462,5245.20628 339.275953,5247.06114 339.275953,5249.49554 Z M372.169507,5258.63076 L370.050835,5258.63076 L370.050835,5242.29206 L360.69129,5242.29206 L360.69129,5258.63076 L358.572618,5258.63076 L358.572618,5240.41018 L372.169507,5240.41018 L372.169507,5258.63076 Z M393.709473,5249.49554 C393.709473,5252.41185 392.972099,5254.70498 391.49733,5256.375 C390.02256,5258.04502 387.972454,5258.88001 385.346949,5258.88001 C382.663285,5258.88001 380.592408,5258.05956 379.134255,5256.41862 C377.676103,5254.77768 376.947038,5252.4617 376.947038,5249.47062 C376.947038,5246.50446 377.67818,5244.2051 379.140487,5242.57247 C380.602793,5240.93984 382.679902,5240.12354 385.371875,5240.12354 C387.989071,5240.12354 390.032946,5240.95438 391.503561,5242.61609 C392.974176,5244.2778 393.709473,5246.57093 393.709473,5249.49554 Z M379.190338,5249.49554 C379.190338,5251.96319 379.715846,5253.83466 380.766879,5255.11002 C381.817912,5256.38539 383.344587,5257.02306 385.346949,5257.02306 C387.365929,5257.02306 388.890527,5256.38746 389.920788,5255.11626 C390.95105,5253.84505 391.466173,5251.97149 391.466173,5249.49554 C391.466173,5247.04452 390.953127,5245.18551 389.92702,5243.91845 C388.900913,5242.6514 387.382546,5242.01788 385.371875,5242.01788 C383.352895,5242.01788 381.817912,5242.65555 380.766879,5243.93091 C379.715846,5245.20628 379.190338,5247.06114 379.190338,5249.49554 Z M411.597844,5258.63076 L409.030512,5258.63076 L400.605675,5249.39584 L400.605675,5258.63076 L398.487003,5258.63076 L398.487003,5240.41018 L400.605675,5240.41018 L400.605675,5249.23382 L408.818645,5240.41018 L411.248886,5240.41018 L403.18547,5249.25875 L411.597844,5258.63076 Z M426.270819,5258.63076 L424.002594,5252.83557 L416.699407,5252.83557 L414.456107,5258.63076 L412.312509,5258.63076 L419.515994,5240.3354 L421.298171,5240.3354 L428.464268,5258.63076 L426.270819,5258.63076 Z M423.342067,5250.92876 L421.223395,5245.28312 C420.949212,5244.56859 420.666725,5243.69205 420.375926,5242.65348 C420.193138,5243.4511 419.931422,5244.32764 419.590771,5245.28312 L417.447173,5250.92876 L423.342067,5250.92876 Z M442.252386,5244.67245 C442.252386,5245.86888 441.872275,5246.84097 441.112042,5247.58874 C440.351809,5248.33651 439.302869,5248.81009 437.965191,5249.00949 L437.965191,5249.1092 C439.485657,5249.31691 440.638452,5249.79465 441.423611,5250.54242 C442.20877,5251.29019 442.601344,5252.26643 442.601344,5253.47117 C442.601344,5255.17442 441.965748,5256.5017 440.694539,5257.45303 C439.423329,5258.40436 437.628707,5258.88001 435.310619,5258.88001 C433.191937,5258.88001 431.455474,5258.55183 430.101179,5257.89545 L430.101179,5255.92634 C430.8988,5256.30853 431.760801,5256.60348 432.687205,5256.81119 C433.613609,5257.01891 434.504689,5257.12276 435.36047,5257.12276 C437.005565,5257.12276 438.249753,5256.8112 439.093072,5256.18805 C439.936391,5255.56491 440.358044,5254.6676 440.358044,5253.49609 C440.358044,5252.38275 439.890694,5251.53944 438.955981,5250.96615 C438.021269,5250.39286 436.627529,5250.10622 434.77472,5250.10622 L432.057835,5250.10622 L432.057835,5248.32404 L434.662555,5248.32404 C436.36581,5248.32404 437.684774,5248.01871 438.619487,5247.40803 C439.554199,5246.79735 440.021549,5245.94366 440.021549,5244.84693 C440.021549,5243.95791 439.685057,5243.24754 439.012064,5242.71579 C438.339071,5242.18404 437.433451,5241.91817 436.295179,5241.91817 C435.381237,5241.91817 434.554548,5242.02203 433.815086,5242.22974 C433.075624,5242.43746 432.219856,5242.84873 431.247754,5243.46356 L430.200881,5242.0428 C431.040045,5241.41966 431.980976,5240.94816 433.0237,5240.62828 C434.066424,5240.3084 435.148598,5240.14846 436.270253,5240.14846 C438.139679,5240.14846 439.604041,5240.55765 440.663382,5241.37604 C441.722723,5242.19444 442.252386,5243.29323 442.252386,5244.67245 Z M458.682613,5258.63076 L456.414387,5252.83557 L449.1112,5252.83557 L446.8679,5258.63076 L444.724303,5258.63076 L451.927788,5240.3354 L453.709965,5240.3354 L460.876061,5258.63076 L458.682613,5258.63076 Z M455.75386,5250.92876 L453.635188,5245.28312 C453.361006,5244.56859 453.078519,5243.69205 452.787719,5242.65348 C452.604931,5243.4511 452.343215,5244.32764 452.002564,5245.28312 L449.858967,5250.92876 L455.75386,5250.92876 Z M477.929427,5258.63076 L475.810755,5258.63076 L475.810755,5250.05637 L466.214417,5250.05637 L466.214417,5258.63076 L464.095745,5258.63076 L464.095745,5240.41018 L466.214417,5240.41018 L466.214417,5248.16203 L475.810755,5248.16203 L475.810755,5240.41018 L477.929427,5240.41018 L477.929427,5258.63076 Z M483.666591,5240.41018 L485.648173,5240.41018 L485.648173,5250.54242 C485.648173,5252.41184 485.590013,5254.10261 485.473694,5255.61477 L485.573396,5255.61477 L495.792873,5240.41018 L498.110949,5240.41018 L498.110949,5258.63076 L496.116905,5258.63076 L496.116905,5248.59822 C496.116905,5246.9282 496.187526,5245.17512 496.328772,5243.33893 L496.216607,5243.33893 L485.984667,5258.63076 L483.666591,5258.63076 L483.666591,5240.41018 Z M509.21957,5251.02846 L504.446327,5258.63076 L501.941309,5258.63076 L507.051047,5250.66704 C505.713369,5250.24331 504.741282,5249.60148 504.134757,5248.74155 C503.528232,5247.88161 503.224975,5246.79528 503.224975,5245.48253 C503.224975,5243.85405 503.787871,5242.60155 504.913681,5241.725 C506.039491,5240.84845 507.744797,5240.41018 510.029651,5240.41018 L515.039687,5240.41018 L515.039687,5258.63076 L512.921015,5258.63076 L512.921015,5251.02846 L509.21957,5251.02846 Z M512.921015,5242.24221 L510.091964,5242.24221 C508.571498,5242.24221 507.416626,5242.50392 506.627313,5243.02736 C505.837999,5243.5508 505.443349,5244.40242 505.443349,5245.58223 C505.443349,5248.00002 507.017797,5249.2089 510.166741,5249.2089 L512.921015,5249.2089 L512.921015,5242.24221 Z M520.153712,5257.3097 C520.153712,5256.75303 520.280416,5256.33138 520.533827,5256.04473 C520.787238,5255.75809 521.150732,5255.61477 521.62432,5255.61477 C522.106216,5255.61477 522.482173,5255.75809 522.752201,5256.04473 C523.022229,5256.33138 523.157241,5256.75303 523.157241,5257.3097 C523.157241,5257.84976 523.020152,5258.26518 522.74597,5258.55598 C522.471787,5258.84678 522.097908,5258.99218 521.62432,5258.99218 C521.200583,5258.99218 520.849552,5258.86132 520.571215,5258.5996 C520.292879,5258.33788 520.153712,5257.90792 520.153712,5257.3097 Z M549.449812,5258.63076 L547.33114,5258.63076 L547.33114,5250.05637 L537.734802,5250.05637 L537.734802,5258.63076 L535.61613,5258.63076 L535.61613,5240.41018 L537.734802,5240.41018 L537.734802,5248.16203 L547.33114,5248.16203 L547.33114,5240.41018 L549.449812,5240.41018 L549.449812,5258.63076 Z M565.319213,5258.63076 L555.16205,5258.63076 L555.16205,5240.41018 L565.319213,5240.41018 L565.319213,5242.29206 L557.280722,5242.29206 L557.280722,5248.16203 L564.833165,5248.16203 L564.833165,5250.03144 L557.280722,5250.03144 L557.280722,5256.73642 L565.319213,5256.73642 L565.319213,5258.63076 Z M585.887082,5249.49554 C585.887082,5252.41185 585.149708,5254.70498 583.674939,5256.375 C582.20017,5258.04502 580.150063,5258.88001 577.524559,5258.88001 C574.840894,5258.88001 572.770017,5258.05956 571.311865,5256.41862 C569.853712,5254.77768 569.124647,5252.4617 569.124647,5249.47062 C569.124647,5246.50446 569.85579,5244.2051 571.318096,5242.57247 C572.780402,5240.93984 574.857511,5240.12354 577.549484,5240.12354 C580.16668,5240.12354 582.210555,5240.95438 583.68117,5242.61609 C585.151785,5244.2778 585.887082,5246.57093 585.887082,5249.49554 Z M571.367947,5249.49554 C571.367947,5251.96319 571.893456,5253.83466 572.944488,5255.11002 C573.995521,5256.38539 575.522196,5257.02306 577.524559,5257.02306 C579.543539,5257.02306 581.068136,5256.38746 582.098398,5255.11626 C583.128659,5253.84505 583.643782,5251.97149 583.643782,5249.49554 C583.643782,5247.04452 583.130736,5245.18551 582.104629,5243.91845 C581.078522,5242.6514 579.560156,5242.01788 577.549484,5242.01788 C575.530504,5242.01788 573.995521,5242.65555 572.944488,5243.93091 C571.893456,5245.20628 571.367947,5247.06114 571.367947,5249.49554 Z M602.479324,5253.32162 C602.479324,5255.13288 601.941353,5256.47054 600.865395,5257.33463 C599.789436,5258.19872 598.167215,5258.63076 595.998681,5258.63076 L590.664612,5258.63076 L590.664612,5240.41018 L601.407526,5240.41018 L601.407526,5242.29206 L592.783284,5242.29206 L592.783284,5248.18695 L595.612335,5248.18695 C597.215887,5248.18695 598.520311,5248.37181 599.525646,5248.74155 C600.530982,5249.11128 601.274587,5249.65756 601.756483,5250.3804 C602.23838,5251.10324 602.479324,5252.08364 602.479324,5253.32162 Z M592.783284,5256.79873 L595.761888,5256.79873 C597.340514,5256.79873 598.489155,5256.52871 599.207846,5255.98865 C599.926536,5255.44859 600.285876,5254.55959 600.285876,5253.32162 C600.285876,5252.1418 599.920305,5251.30265 599.189151,5250.80413 C598.457998,5250.30562 597.182654,5250.05637 595.363079,5250.05637 L592.783284,5250.05637 L592.783284,5256.79873 Z M619.146344,5258.63076 L616.741028,5258.63076 L611.843157,5250.61719 L606.858046,5258.63076 L604.614746,5258.63076 L610.671656,5249.1092 L605.026018,5240.41018 L607.36902,5240.41018 L611.893008,5247.62613 L616.454384,5240.41018 L618.710147,5240.41018 L613.064509,5249.03442 L619.146344,5258.63076 Z M637.770019,5249.49554 C637.770019,5252.41185 637.032646,5254.70498 635.557876,5256.375 C634.083107,5258.04502 632.033001,5258.88001 629.407496,5258.88001 C626.723831,5258.88001 624.652954,5258.05956 623.194802,5256.41862 C621.73665,5254.77768 621.007585,5252.4617 621.007585,5249.47062 C621.007585,5246.50446 621.738727,5244.2051 623.201033,5242.57247 C624.66334,5240.93984 626.740448,5240.12354 629.432422,5240.12354 C632.049618,5240.12354 634.093493,5240.95438 635.564108,5242.61609 C637.034723,5244.2778 637.770019,5246.57093 637.770019,5249.49554 Z M623.250885,5249.49554 C623.250885,5251.96319 623.776393,5253.83466 624.827426,5255.11002 C625.878458,5256.38539 627.405133,5257.02306 629.407496,5257.02306 C631.426476,5257.02306 632.951074,5256.38746 633.981335,5255.11626 C635.011596,5253.84505 635.526719,5251.97149 635.526719,5249.49554 C635.526719,5247.04452 635.013674,5245.18551 633.987566,5243.91845 C632.961459,5242.6514 631.443093,5242.01788 629.432422,5242.01788 C627.413442,5242.01788 625.878458,5242.65555 624.827426,5243.93091 C623.776393,5245.20628 623.250885,5247.06114 623.250885,5249.49554 Z M656.406157,5263.37908 L654.387187,5263.37908 L654.387187,5258.63076 L641.725007,5258.63076 L641.725007,5263.37908 L639.706037,5263.37908 L639.706037,5256.71149 L641.11433,5256.71149 C642.393849,5254.55957 643.488485,5251.94242 644.398272,5248.85994 C645.308059,5245.77747 645.812797,5242.96091 645.912499,5240.41018 L654.100544,5240.41018 L654.100544,5256.71149 L656.406157,5256.71149 L656.406157,5263.37908 Z M651.981872,5256.71149 L651.981872,5242.31698 L647.831767,5242.31698 C647.682213,5244.32766 647.179553,5246.74333 646.323771,5249.56409 C645.467989,5252.38484 644.470977,5254.76729 643.332705,5256.71149 L651.981872,5256.71149 Z M660.211591,5240.41018 L662.193173,5240.41018 L662.193173,5250.54242 C662.193173,5252.41184 662.135014,5254.10261 662.018694,5255.61477 L662.118396,5255.61477 L672.337873,5240.41018 L674.655949,5240.41018 L674.655949,5258.63076 L672.661905,5258.63076 L672.661905,5248.59822 C672.661905,5246.9282 672.732527,5245.17512 672.873772,5243.33893 L672.761607,5243.33893 L662.529668,5258.63076 L660.211591,5258.63076 L660.211591,5240.41018 Z M688.419142,5258.63076 L682.237605,5242.479 L682.137902,5242.479 C682.254222,5243.75852 682.312381,5245.27896 682.312381,5247.04038 L682.312381,5258.63076 L680.355725,5258.63076 L680.355725,5240.41018 L683.546196,5240.41018 L689.316462,5255.44029 L689.416164,5255.44029 L695.236281,5240.41018 L698.401826,5240.41018 L698.401826,5258.63076 L696.283154,5258.63076 L696.283154,5246.89082 C696.283154,5245.54484 696.341313,5244.08255 696.457633,5242.50393 L696.35793,5242.50393 L690.126542,5258.63076 L688.419142,5258.63076 Z M719.929328,5249.49554 C719.929328,5252.41185 719.191954,5254.70498 717.717185,5256.375 C716.242416,5258.04502 714.19231,5258.88001 711.566805,5258.88001 C708.88314,5258.88001 706.812263,5258.05956 705.354111,5256.41862 C703.895959,5254.77768 703.166894,5252.4617 703.166894,5249.47062 C703.166894,5246.50446 703.898036,5244.2051 705.360342,5242.57247 C706.822649,5240.93984 708.899757,5240.12354 711.59173,5240.12354 C714.208927,5240.12354 716.252802,5240.95438 717.723417,5242.61609 C719.194032,5244.2778 719.929328,5246.57093 719.929328,5249.49554 Z M705.410193,5249.49554 C705.410193,5251.96319 705.935702,5253.83466 706.986735,5255.11002 C708.037767,5256.38539 709.564442,5257.02306 711.566805,5257.02306 C713.585785,5257.02306 715.110383,5256.38746 716.140644,5255.11626 C717.170905,5253.84505 717.686028,5251.97149 717.686028,5249.49554 C717.686028,5247.04452 717.172982,5245.18551 716.146875,5243.91845 C715.120768,5242.6514 713.602402,5242.01788 711.59173,5242.01788 C709.572751,5242.01788 708.037767,5242.65555 706.986735,5243.93091 C705.935702,5245.20628 705.410193,5247.06114 705.410193,5249.49554 Z M745.64861,5258.63076 L743.529938,5258.63076 L743.529938,5242.29206 L734.170393,5242.29206 L734.170393,5258.63076 L732.051721,5258.63076 L732.051721,5240.41018 L745.64861,5240.41018 L745.64861,5258.63076 Z M762.926306,5245.71932 C762.926306,5247.56382 762.296942,5248.98249 761.038195,5249.97536 C759.779448,5250.96823 757.978595,5251.46466 755.635582,5251.46466 L753.491984,5251.46466 L753.491984,5258.63076 L751.373312,5258.63076 L751.373312,5240.41018 L756.096704,5240.41018 C760.649795,5240.41018 762.926306,5242.17988 762.926306,5245.71932 Z M753.491984,5249.6451 L755.398789,5249.6451 C757.276523,5249.6451 758.634952,5249.34184 759.474117,5248.73531 C760.313281,5248.12879 760.732857,5247.1567 760.732857,5245.81902 C760.732857,5244.61428 760.338206,5243.71697 759.548893,5243.12706 C758.75958,5242.53716 757.529932,5242.24221 755.859912,5242.24221 L753.491984,5242.24221 L753.491984,5249.6451 Z M783.269844,5249.49554 C783.269844,5252.41185 782.532471,5254.70498 781.057701,5256.375 C779.582932,5258.04502 777.532826,5258.88001 774.907321,5258.88001 C772.223657,5258.88001 770.152779,5258.05956 768.694627,5256.41862 C767.236475,5254.77768 766.50741,5252.4617 766.50741,5249.47062 C766.50741,5246.50446 767.238552,5244.2051 768.700859,5242.57247 C770.163165,5240.93984 772.240274,5240.12354 774.932247,5240.12354 C777.549443,5240.12354 779.593318,5240.95438 781.063933,5242.61609 C782.534548,5244.2778 783.269844,5246.57093 783.269844,5249.49554 Z M768.75071,5249.49554 C768.75071,5251.96319 769.276218,5253.83466 770.327251,5255.11002 C771.378284,5256.38539 772.904958,5257.02306 774.907321,5257.02306 C776.926301,5257.02306 778.450899,5256.38746 779.48116,5255.11626 C780.511422,5253.84505 781.026545,5251.97149 781.026545,5249.49554 C781.026545,5247.04452 780.513499,5245.18551 779.487392,5243.91845 C778.461285,5242.6514 776.942918,5242.01788 774.932247,5242.01788 C772.913267,5242.01788 771.378284,5242.65555 770.327251,5243.93091 C769.276218,5245.20628 768.75071,5247.06114 768.75071,5249.49554 Z M801.158216,5258.63076 L798.590884,5258.63076 L790.166047,5249.39584 L790.166047,5258.63076 L788.047375,5258.63076 L788.047375,5240.41018 L790.166047,5240.41018 L790.166047,5249.23382 L798.379017,5240.41018 L800.809258,5240.41018 L792.745842,5249.25875 L801.158216,5258.63076 Z M819.682189,5249.49554 C819.682189,5252.41185 818.944815,5254.70498 817.470046,5256.375 C815.995277,5258.04502 813.945171,5258.88001 811.319666,5258.88001 C808.636001,5258.88001 806.565124,5258.05956 805.106972,5256.41862 C803.64882,5254.77768 802.919754,5252.4617 802.919754,5249.47062 C802.919754,5246.50446 803.650897,5244.2051 805.113203,5242.57247 C806.57551,5240.93984 808.652618,5240.12354 811.344591,5240.12354 C813.961788,5240.12354 816.005662,5240.95438 817.476277,5242.61609 C818.946892,5244.2778 819.682189,5246.57093 819.682189,5249.49554 Z M805.163054,5249.49554 C805.163054,5251.96319 805.688563,5253.83466 806.739595,5255.11002 C807.790628,5256.38539 809.317303,5257.02306 811.319666,5257.02306 C813.338646,5257.02306 814.863243,5256.38746 815.893505,5255.11626 C816.923766,5253.84505 817.438889,5251.97149 817.438889,5249.49554 C817.438889,5247.04452 816.925843,5245.18551 815.899736,5243.91845 C814.873629,5242.6514 813.355263,5242.01788 811.344591,5242.01788 C809.325611,5242.01788 807.790628,5242.65555 806.739595,5243.93091 C805.688563,5245.20628 805.163054,5247.06114 805.163054,5249.49554 Z M838.293401,5258.63076 L836.174729,5258.63076 L836.174729,5250.05637 L826.578391,5250.05637 L826.578391,5258.63076 L824.459719,5258.63076 L824.459719,5240.41018 L826.578391,5240.41018 L826.578391,5248.16203 L836.174729,5248.16203 L836.174729,5240.41018 L838.293401,5240.41018 L838.293401,5258.63076 Z M851.807338,5242.0428 C849.804976,5242.0428 848.224296,5242.70955 847.065252,5244.04308 C845.906208,5245.3766 845.326695,5247.20238 845.326695,5249.52047 C845.326695,5251.90503 845.885437,5253.74742 847.002938,5255.04771 C848.120439,5256.348 849.713582,5256.99813 851.782413,5256.99813 C853.053622,5256.99813 854.503444,5256.76965 856.131922,5256.31268 L856.131922,5258.16964 C854.869021,5258.64322 853.311189,5258.88001 851.458381,5258.88001 C848.774716,5258.88001 846.703839,5258.06579 845.245687,5256.43731 C843.787534,5254.80883 843.058469,5252.49493 843.058469,5249.49554 C843.058469,5247.61781 843.409501,5245.97274 844.111574,5244.56028 C844.813647,5243.14783 845.827276,5242.05942 847.152491,5241.29504 C848.477707,5240.53065 850.037615,5240.14846 851.832264,5240.14846 C853.743233,5240.14846 855.413228,5240.49741 856.8423,5241.19533 L855.94498,5243.0149 C854.565759,5242.36683 853.186559,5242.0428 851.807338,5242.0428 Z M861.968788,5258.88001 C861.046538,5258.88001 860.236466,5258.75539 859.538547,5258.50613 L859.538547,5256.43731 C860.311243,5256.79458 861.09639,5256.97321 861.894012,5256.97321 C862.807953,5256.97321 863.541173,5256.76342 864.093692,5256.34384 C864.646211,5255.92426 865.196645,5255.13703 865.74501,5253.98214 L858.65369,5240.41018 L860.996692,5240.41018 L866.380611,5250.76675 C866.588325,5251.17387 866.75034,5251.57267 866.86666,5251.96317 L866.966362,5251.96317 C867.199001,5251.26525 867.361016,5250.82491 867.45241,5250.64212 L871.926547,5240.41018 L874.169847,5240.41018 L868.34973,5253.44624 C867.651811,5254.99994 867.022447,5256.12989 866.461619,5256.83612 C865.900792,5257.54235 865.269351,5258.05955 864.567277,5258.38773 C863.865204,5258.71592 862.99905,5258.88001 861.968788,5258.88001 Z M889.079615,5258.63076 L886.960943,5258.63076 L886.960943,5242.29206 L881.041124,5242.29206 L880.654778,5245.28312 C880.147956,5249.26292 879.701377,5252.17295 879.315029,5254.0133 C878.928681,5255.85365 878.41979,5257.13522 877.788339,5257.85807 C877.156889,5258.58091 876.317737,5258.93402 875.270858,5258.9174 C874.656025,5258.9174 874.103514,5258.81355 873.613309,5258.60583 L873.613309,5256.82366 C874.061971,5257.03968 874.531398,5257.14769 875.021603,5257.14769 C875.461956,5257.14769 875.846221,5256.96698 876.174409,5256.60556 C876.502598,5256.24413 876.793393,5255.61685 877.046804,5254.72368 C877.300215,5253.83051 877.62009,5252.13559 878.006438,5249.63887 C878.392786,5247.14214 878.818593,5244.06595 879.283872,5240.41018 L889.079615,5240.41018 L889.079615,5258.63076 Z M907.379258,5253.32162 C907.379258,5255.00825 906.816361,5256.31475 905.690551,5257.24116 C904.564742,5258.16756 902.959137,5258.63076 900.873688,5258.63076 L894.804316,5258.63076 L894.804316,5240.41018 L896.922988,5240.41018 L896.922988,5248.18695 L900.549656,5248.18695 C902.768041,5248.18695 904.460885,5248.62522 905.628238,5249.50177 C906.79559,5250.37833 907.379258,5251.6516 907.379258,5253.32162 Z M896.922988,5256.79873 L900.649358,5256.79873 C903.673674,5256.79873 905.185809,5255.6397 905.185809,5253.32162 C905.185809,5252.19996 904.79739,5251.37535 904.020539,5250.84775 C903.243689,5250.32016 901.999501,5250.05637 900.287938,5250.05637 L896.922988,5250.05637 L896.922988,5256.79873 Z M916.269505,5258.63076 L914.150833,5258.63076 L914.150833,5242.29206 L908.380567,5242.29206 L908.380567,5240.41018 L922.03977,5240.41018 L922.03977,5242.29206 L916.269505,5242.29206 L916.269505,5258.63076 Z M925.521172,5240.41018 L927.502753,5240.41018 L927.502753,5250.54242 C927.502753,5252.41184 927.444594,5254.10261 927.328275,5255.61477 L927.427977,5255.61477 L937.647453,5240.41018 L939.96553,5240.41018 L939.96553,5258.63076 L937.971486,5258.63076 L937.971486,5248.59822 C937.971486,5246.9282 938.042107,5245.17512 938.183353,5243.33893 L938.071188,5243.33893 L927.839248,5258.63076 L925.521172,5258.63076 L925.521172,5240.41018 Z M957.2183,5245.71932 C957.2183,5247.56382 956.588936,5248.98249 955.330189,5249.97536 C954.071442,5250.96823 952.270589,5251.46466 949.927576,5251.46466 L947.783978,5251.46466 L947.783978,5258.63076 L945.665306,5258.63076 L945.665306,5240.41018 L950.388698,5240.41018 C954.941789,5240.41018 957.2183,5242.17988 957.2183,5245.71932 Z M947.783978,5249.6451 L949.690783,5249.6451 C951.568517,5249.6451 952.926946,5249.34184 953.766111,5248.73531 C954.605275,5248.12879 955.024851,5247.1567 955.024851,5245.81902 C955.024851,5244.61428 954.6302,5243.71697 953.840887,5243.12706 C953.051574,5242.53716 951.821926,5242.24221 950.151906,5242.24221 L947.783978,5242.24221 L947.783978,5249.6451 Z M977.561838,5249.49554 C977.561838,5252.41185 976.824465,5254.70498 975.349695,5256.375 C973.874926,5258.04502 971.82482,5258.88001 969.199315,5258.88001 C966.515651,5258.88001 964.444773,5258.05956 962.986621,5256.41862 C961.528469,5254.77768 960.799404,5252.4617 960.799404,5249.47062 C960.799404,5246.50446 961.530546,5244.2051 962.992853,5242.57247 C964.455159,5240.93984 966.532268,5240.12354 969.224241,5240.12354 C971.841437,5240.12354 973.885312,5240.95438 975.355927,5242.61609 C976.826542,5244.2778 977.561838,5246.57093 977.561838,5249.49554 Z M963.042704,5249.49554 C963.042704,5251.96319 963.568212,5253.83466 964.619245,5255.11002 C965.670278,5256.38539 967.196952,5257.02306 969.199315,5257.02306 C971.218295,5257.02306 972.742893,5256.38746 973.773154,5255.11626 C974.803416,5253.84505 975.318538,5251.97149 975.318538,5249.49554 C975.318538,5247.04452 974.805493,5245.18551 973.779386,5243.91845 C972.753279,5242.6514 971.234912,5242.01788 969.224241,5242.01788 C967.205261,5242.01788 965.670278,5242.65555 964.619245,5243.93091 C963.568212,5245.20628 963.042704,5247.06114 963.042704,5249.49554 Z M982.339369,5240.41018 L987.486496,5240.41018 C989.904286,5240.41018 991.653212,5240.7716 992.733324,5241.49444 C993.813437,5242.21729 994.353485,5243.35969 994.353485,5244.9217 C994.353485,5246.00182 994.052305,5246.8929 993.449934,5247.59497 C992.847564,5248.29704 991.968947,5248.75193 990.814057,5248.95964 L990.814057,5249.08427 C993.580807,5249.55786 994.964161,5251.01184 994.964161,5253.44624 C994.964161,5255.07472 994.413728,5256.34591 993.312844,5257.25985 C992.21196,5258.17379 990.672822,5258.63076 988.695385,5258.63076 L982.339369,5258.63076 L982.339369,5240.41018 Z M984.458041,5248.21188 L987.947618,5248.21188 C989.443159,5248.21188 990.519101,5247.97716 991.175477,5247.50773 C991.831854,5247.0383 992.160037,5246.24692 992.160037,5245.13357 C992.160037,5244.11162 991.794466,5243.37424 991.063312,5242.92143 C990.332159,5242.46861 989.168978,5242.24221 987.573735,5242.24221 L984.458041,5242.24221 L984.458041,5248.21188 Z M984.458041,5250.00652 L984.458041,5256.82366 L988.259188,5256.82366 C989.729803,5256.82366 990.836902,5256.53909 991.580518,5255.96996 C992.324134,5255.40082 992.695936,5254.50974 992.695936,5253.29669 C992.695936,5252.16673 992.315825,5251.33588 991.555592,5250.80413 C990.795359,5250.27239 989.638409,5250.00652 988.084709,5250.00652 L984.458041,5250.00652 Z M1011.04543,5258.63076 L1008.77721,5252.83557 L1001.47402,5252.83557 L999.230718,5258.63076 L997.087121,5258.63076 L1004.29061,5240.3354 L1006.07278,5240.3354 L1013.23888,5258.63076 L1011.04543,5258.63076 Z M1008.11668,5250.92876 L1005.99801,5245.28312 C1005.72382,5244.56859 1005.44134,5243.69205 1005.15054,5242.65348 C1004.96775,5243.4511 1004.70603,5244.32764 1004.36538,5245.28312 L1002.22178,5250.92876 L1008.11668,5250.92876 Z M1020.28463,5258.63076 L1018.16596,5258.63076 L1018.16596,5242.29206 L1012.3957,5242.29206 L1012.3957,5240.41018 L1026.0549,5240.41018 L1026.0549,5242.29206 L1020.28463,5242.29206 L1020.28463,5258.63076 Z M1042.08632,5253.32162 C1042.08632,5255.00825 1041.52342,5256.31475 1040.39761,5257.24116 C1039.2718,5258.16756 1037.6662,5258.63076 1035.58075,5258.63076 L1029.51138,5258.63076 L1029.51138,5240.41018 L1031.63005,5240.41018 L1031.63005,5248.18695 L1035.25672,5248.18695 C1037.4751,5248.18695 1039.16795,5248.62522 1040.3353,5249.50177 C1041.50265,5250.37833 1042.08632,5251.6516 1042.08632,5253.32162 Z M1031.63005,5256.79873 L1035.35642,5256.79873 C1038.38073,5256.79873 1039.89287,5255.6397 1039.89287,5253.32162 C1039.89287,5252.19996 1039.50445,5251.37535 1038.7276,5250.84775 C1037.95075,5250.32016 1036.70656,5250.05637 1034.995,5250.05637 L1031.63005,5250.05637 L1031.63005,5256.79873 Z M1054.44122,5242.0428 C1052.43885,5242.0428 1050.85817,5242.70955 1049.69913,5244.04308 C1048.54009,5245.3766 1047.96057,5247.20238 1047.96057,5249.52047 C1047.96057,5251.90503 1048.51932,5253.74742 1049.63682,5255.04771 C1050.75432,5256.348 1052.34746,5256.99813 1054.41629,5256.99813 C1055.6875,5256.99813 1057.13732,5256.76965 1058.7658,5256.31268 L1058.7658,5258.16964 C1057.5029,5258.64322 1055.94507,5258.88001 1054.09226,5258.88001 C1051.40859,5258.88001 1049.33772,5258.06579 1047.87957,5256.43731 C1046.42141,5254.80883 1045.69235,5252.49493 1045.69235,5249.49554 C1045.69235,5247.61781 1046.04338,5245.97274 1046.74545,5244.56028 C1047.44753,5243.14783 1048.46115,5242.05942 1049.78637,5241.29504 C1051.11159,5240.53065 1052.67149,5240.14846 1054.46614,5240.14846 C1056.37711,5240.14846 1058.04711,5240.49741 1059.47618,5241.19533 L1058.57886,5243.0149 C1057.19964,5242.36683 1055.82044,5242.0428 1054.44122,5242.0428 Z M1068.86494,5251.02846 L1064.09169,5258.63076 L1061.58668,5258.63076 L1066.69641,5250.66704 C1065.35874,5250.24331 1064.38665,5249.60148 1063.78012,5248.74155 C1063.1736,5247.88161 1062.87034,5246.79528 1062.87034,5245.48253 C1062.87034,5243.85405 1063.43324,5242.60155 1064.55905,5241.725 C1065.68486,5240.84845 1067.39016,5240.41018 1069.67502,5240.41018 L1074.68505,5240.41018 L1074.68505,5258.63076 L1072.56638,5258.63076 L1072.56638,5251.02846 L1068.86494,5251.02846 Z M1072.56638,5242.24221 L1069.73733,5242.24221 C1068.21686,5242.24221 1067.06199,5242.50392 1066.27268,5243.02736 C1065.48337,5243.5508 1065.08872,5244.40242 1065.08872,5245.58223 C1065.08872,5248.00002 1066.66316,5249.2089 1069.81211,5249.2089 L1072.56638,5249.2089 L1072.56638,5242.24221 Z M1095.55632,5242.0428 C1093.55395,5242.0428 1091.97327,5242.70955 1090.81423,5244.04308 C1089.65519,5245.3766 1089.07567,5247.20238 1089.07567,5249.52047 C1089.07567,5251.90503 1089.63441,5253.74742 1090.75192,5255.04771 C1091.86942,5256.348 1093.46256,5256.99813 1095.53139,5256.99813 C1096.8026,5256.99813 1098.25242,5256.76965 1099.8809,5256.31268 L1099.8809,5258.16964 C1098.618,5258.64322 1097.06017,5258.88001 1095.20736,5258.88001 C1092.52369,5258.88001 1090.45282,5258.06579 1088.99466,5256.43731 C1087.53651,5254.80883 1086.80745,5252.49493 1086.80745,5249.49554 C1086.80745,5247.61781 1087.15848,5245.97274 1087.86055,5244.56028 C1088.56262,5243.14783 1089.57625,5242.05942 1090.90147,5241.29504 C1092.22668,5240.53065 1093.78659,5240.14846 1095.58124,5240.14846 C1097.49221,5240.14846 1099.16221,5240.49741 1100.59128,5241.19533 L1099.69396,5243.0149 C1098.31474,5242.36683 1096.93554,5242.0428 1095.55632,5242.0428 Z M1119.87548,5249.49554 C1119.87548,5252.41185 1119.13811,5254.70498 1117.66334,5256.375 C1116.18857,5258.04502 1114.13846,5258.88001 1111.51296,5258.88001 C1108.82929,5258.88001 1106.75841,5258.05956 1105.30026,5256.41862 C1103.84211,5254.77768 1103.11305,5252.4617 1103.11305,5249.47062 C1103.11305,5246.50446 1103.84419,5244.2051 1105.30649,5242.57247 C1106.7688,5240.93984 1108.84591,5240.12354 1111.53788,5240.12354 C1114.15508,5240.12354 1116.19895,5240.95438 1117.66957,5242.61609 C1119.14018,5244.2778 1119.87548,5246.57093 1119.87548,5249.49554 Z M1105.35635,5249.49554 C1105.35635,5251.96319 1105.88185,5253.83466 1106.93289,5255.11002 C1107.98392,5256.38539 1109.51059,5257.02306 1111.51296,5257.02306 C1113.53194,5257.02306 1115.05653,5256.38746 1116.0868,5255.11626 C1117.11706,5253.84505 1117.63218,5251.97149 1117.63218,5249.49554 C1117.63218,5247.04452 1117.11913,5245.18551 1116.09303,5243.91845 C1115.06692,5242.6514 1113.54855,5242.01788 1111.53788,5242.01788 C1109.5189,5242.01788 1107.98392,5242.65555 1106.93289,5243.93091 C1105.88185,5245.20628 1105.35635,5247.06114 1105.35635,5249.49554 Z M1139.79957,5242.0428 C1137.79721,5242.0428 1136.21653,5242.70955 1135.05748,5244.04308 C1133.89844,5245.3766 1133.31893,5247.20238 1133.31893,5249.52047 C1133.31893,5251.90503 1133.87767,5253.74742 1134.99517,5255.04771 C1136.11267,5256.348 1137.70581,5256.99813 1139.77465,5256.99813 C1141.04586,5256.99813 1142.49568,5256.76965 1144.12415,5256.31268 L1144.12415,5258.16964 C1142.86125,5258.64322 1141.30342,5258.88001 1139.45061,5258.88001 C1136.76695,5258.88001 1134.69607,5258.06579 1133.23792,5256.43731 C1131.77977,5254.80883 1131.0507,5252.49493 1131.0507,5249.49554 C1131.0507,5247.61781 1131.40173,5245.97274 1132.10381,5244.56028 C1132.80588,5243.14783 1133.81951,5242.05942 1135.14472,5241.29504 C1136.46994,5240.53065 1138.02985,5240.14846 1139.8245,5240.14846 C1141.73547,5240.14846 1143.40546,5240.49741 1144.83453,5241.19533 L1143.93721,5243.0149 C1142.55799,5242.36683 1141.17879,5242.0428 1139.79957,5242.0428 Z M1162.41133,5258.63076 L1160.29266,5258.63076 L1160.29266,5242.29206 L1150.93312,5242.29206 L1150.93312,5258.63076 L1148.81445,5258.63076 L1148.81445,5240.41018 L1162.41133,5240.41018 L1162.41133,5258.63076 Z M1178.2932,5258.63076 L1168.13604,5258.63076 L1168.13604,5240.41018 L1178.2932,5240.41018 L1178.2932,5242.29206 L1170.25471,5242.29206 L1170.25471,5248.16203 L1177.80715,5248.16203 L1177.80715,5250.03144 L1170.25471,5250.03144 L1170.25471,5256.73642 L1178.2932,5256.73642 L1178.2932,5258.63076 Z M1196.64269,5256.71149 L1198.78629,5256.71149 L1198.78629,5263.37908 L1196.77978,5263.37908 L1196.77978,5258.63076 L1183.0458,5258.63076 L1183.0458,5240.41018 L1185.16448,5240.41018 L1185.16448,5256.71149 L1194.52402,5256.71149 L1194.52402,5240.41018 L1196.64269,5240.41018 L1196.64269,5256.71149 Z M1202.59173,5240.41018 L1204.57331,5240.41018 L1204.57331,5250.54242 C1204.57331,5252.41184 1204.51515,5254.10261 1204.39883,5255.61477 L1204.49853,5255.61477 L1214.71801,5240.41018 L1217.03608,5240.41018 L1217.03608,5258.63076 L1215.04204,5258.63076 L1215.04204,5248.59822 C1215.04204,5246.9282 1215.11266,5245.17512 1215.25391,5243.33893 L1215.14174,5243.33893 L1204.9098,5258.63076 L1202.59173,5258.63076 L1202.59173,5240.41018 Z M1234.18915,5258.63076 L1231.92093,5252.83557 L1224.61774,5252.83557 L1222.37444,5258.63076 L1220.23084,5258.63076 L1227.43433,5240.3354 L1229.2165,5240.3354 L1236.3826,5258.63076 L1234.18915,5258.63076 Z M1231.2604,5250.92876 L1229.14173,5245.28312 C1228.86754,5244.56859 1228.58506,5243.69205 1228.29426,5242.65348 C1228.11147,5243.4511 1227.84975,5244.32764 1227.5091,5245.28312 L1225.36551,5250.92876 L1231.2604,5250.92876 Z M1252.56357,5258.63076 L1250.4449,5258.63076 L1250.4449,5242.29206 L1244.52508,5242.29206 L1244.13873,5245.28312 C1243.63191,5249.26292 1243.18533,5252.17295 1242.79899,5254.0133 C1242.41264,5255.85365 1241.90375,5257.13522 1241.2723,5257.85807 C1240.64084,5258.58091 1239.80169,5258.93402 1238.75481,5258.9174 C1238.13998,5258.9174 1237.58747,5258.81355 1237.09726,5258.60583 L1237.09726,5256.82366 C1237.54593,5257.03968 1238.01535,5257.14769 1238.50556,5257.14769 C1238.94591,5257.14769 1239.33018,5256.96698 1239.65837,5256.60556 C1239.98655,5256.24413 1240.27735,5255.61685 1240.53076,5254.72368 C1240.78417,5253.83051 1241.10405,5252.13559 1241.49039,5249.63887 C1241.87674,5247.14214 1242.30255,5244.06595 1242.76783,5240.41018 L1252.56357,5240.41018 L1252.56357,5258.63076 Z M1258.3132,5240.41018 L1260.29478,5240.41018 L1260.29478,5250.54242 C1260.29478,5252.41184 1260.23662,5254.10261 1260.1203,5255.61477 L1260.22,5255.61477 L1270.43948,5240.41018 L1272.75756,5240.41018 L1272.75756,5258.63076 L1270.76351,5258.63076 L1270.76351,5248.59822 C1270.76351,5246.9282 1270.83413,5245.17512 1270.97538,5243.33893 L1270.86321,5243.33893 L1260.63127,5258.63076 L1258.3132,5258.63076 L1258.3132,5240.41018 Z M1286.25903,5242.0428 C1284.25667,5242.0428 1282.67599,5242.70955 1281.51694,5244.04308 C1280.3579,5245.3766 1279.77839,5247.20238 1279.77839,5249.52047 C1279.77839,5251.90503 1280.33713,5253.74742 1281.45463,5255.04771 C1282.57213,5256.348 1284.16527,5256.99813 1286.2341,5256.99813 C1287.50531,5256.99813 1288.95514,5256.76965 1290.58361,5256.31268 L1290.58361,5258.16964 C1289.32071,5258.64322 1287.76288,5258.88001 1285.91007,5258.88001 C1283.22641,5258.88001 1281.15553,5258.06579 1279.69738,5256.43731 C1278.23923,5254.80883 1277.51016,5252.49493 1277.51016,5249.49554 C1277.51016,5247.61781 1277.86119,5245.97274 1278.56327,5244.56028 C1279.26534,5243.14783 1280.27897,5242.05942 1281.60418,5241.29504 C1282.9294,5240.53065 1284.48931,5240.14846 1286.28396,5240.14846 C1288.19492,5240.14846 1289.86492,5240.49741 1291.29399,5241.19533 L1290.39667,5243.0149 C1289.01745,5242.36683 1287.63825,5242.0428 1286.25903,5242.0428 Z M1300.88215,5258.63076 L1298.76348,5258.63076 L1298.76348,5242.29206 L1292.99322,5242.29206 L1292.99322,5240.41018 L1306.65242,5240.41018 L1306.65242,5242.29206 L1300.88215,5242.29206 L1300.88215,5258.63076 Z M1325.41319,5249.49554 C1325.41319,5252.41185 1324.67581,5254.70498 1323.20104,5256.375 C1321.72627,5258.04502 1319.67617,5258.88001 1317.05066,5258.88001 C1314.367,5258.88001 1312.29612,5258.05956 1310.83797,5256.41862 C1309.37982,5254.77768 1308.65075,5252.4617 1308.65075,5249.47062 C1308.65075,5246.50446 1309.38189,5244.2051 1310.8442,5242.57247 C1312.30651,5240.93984 1314.38361,5240.12354 1317.07559,5240.12354 C1319.69278,5240.12354 1321.73666,5240.95438 1323.20727,5242.61609 C1324.67789,5244.2778 1325.41319,5246.57093 1325.41319,5249.49554 Z M1310.89405,5249.49554 C1310.89405,5251.96319 1311.41956,5253.83466 1312.47059,5255.11002 C1313.52162,5256.38539 1315.0483,5257.02306 1317.05066,5257.02306 C1319.06964,5257.02306 1320.59424,5256.38746 1321.6245,5255.11626 C1322.65476,5253.84505 1323.16989,5251.97149 1323.16989,5249.49554 C1323.16989,5247.04452 1322.65684,5245.18551 1321.63073,5243.91845 C1320.60463,5242.6514 1319.08626,5242.01788 1317.07559,5242.01788 C1315.05661,5242.01788 1313.52162,5242.65555 1312.47059,5243.93091 C1311.41956,5245.20628 1310.89405,5247.06114 1310.89405,5249.49554 Z M1338.25413,5258.63076 L1332.0726,5242.479 L1331.97289,5242.479 C1332.08921,5243.75852 1332.14737,5245.27896 1332.14737,5247.04038 L1332.14737,5258.63076 L1330.19072,5258.63076 L1330.19072,5240.41018 L1333.38119,5240.41018 L1339.15145,5255.44029 L1339.25115,5255.44029 L1345.07127,5240.41018 L1348.23682,5240.41018 L1348.23682,5258.63076 L1346.11814,5258.63076 L1346.11814,5246.89082 C1346.11814,5245.54484 1346.1763,5244.08255 1346.29262,5242.50393 L1346.19292,5242.50393 L1339.96153,5258.63076 L1338.25413,5258.63076 Z" id="ИМЕЮТСЯ-ПРОТИВОПОКАЗ"></path>
        </g>
    </g>
</svg>