<?xml version="1.0" encoding="UTF-8"?>
<svg width="754px" height="15px" viewBox="0 0 754 15" version="1.1" xmlns="http://www.w3.org/2000/svg" xmlns:xlink="http://www.w3.org/1999/xlink">
    <!-- Generator: Sketch 52.4 (67378) - http://www.bohemiancoding.com/sketch -->
    <title>ИМЕЮТСЯ ПРОТИВОПОКАЗ</title>
    <desc>Created with Sketch.</desc>
    <g id="Page-1" stroke="none" stroke-width="1" fill="none" fill-rule="evenodd">
        <g id="Главная-планшет" transform="translate(-7.000000, -4329.000000)" fill="#FFFFFF">
            <path d="M7.48681641,4329.29495 L8.67183238,4329.29495 L8.67183238,4335.35419 C8.67183238,4336.47213 8.63705238,4337.48323 8.56749135,4338.38753 L8.62711479,4338.38753 L14.7385179,4329.29495 L16.124763,4329.29495 L16.124763,4340.19114 L14.9322941,4340.19114 L14.9322941,4334.19153 C14.9322941,4333.19283 14.974527,4332.14446 15.0589939,4331.04639 L14.9919176,4331.04639 L8.87306151,4340.19114 L7.48681641,4340.19114 L7.48681641,4329.29495 Z M24.3553623,4340.19114 L20.6587087,4330.53214 L20.5990852,4330.53214 C20.6686463,4331.29731 20.7034262,4332.20656 20.7034262,4333.25991 L20.7034262,4340.19114 L19.5333161,4340.19114 L19.5333161,4329.29495 L21.4412664,4329.29495 L24.8919733,4338.28319 L24.9515967,4338.28319 L28.4321153,4329.29495 L30.3251597,4329.29495 L30.3251597,4340.19114 L29.0581615,4340.19114 L29.0581615,4333.17048 C29.0581615,4332.36556 29.0929415,4331.49109 29.1625025,4330.54704 L29.1028791,4330.54704 L25.3764138,4340.19114 L24.3553623,4340.19114 Z M39.8153042,4340.19114 L33.7411658,4340.19114 L33.7411658,4329.29495 L39.8153042,4329.29495 L39.8153042,4330.42035 L35.008164,4330.42035 L35.008164,4333.93068 L39.5246399,4333.93068 L39.5246399,4335.04862 L35.008164,4335.04862 L35.008164,4339.05829 L39.8153042,4339.05829 L39.8153042,4340.19114 Z M56.2366742,4334.72814 C56.2366742,4336.48704 55.8131036,4337.86209 54.9659496,4338.85334 C54.1187956,4339.84458 52.9400021,4340.3402 51.429534,4340.3402 C49.9339718,4340.3402 48.7626312,4339.88433 47.9154772,4338.97258 C47.0683232,4338.06084 46.6174254,4336.75783 46.5627703,4335.06352 L43.9244328,4335.06352 L43.9244328,4340.19114 L42.6574346,4340.19114 L42.6574346,4329.29495 L43.9244328,4329.29495 L43.9244328,4333.93068 L46.5776761,4333.93068 C46.691955,4332.38543 47.1676956,4331.19794 48.0049124,4330.36817 C48.8421291,4329.53841 49.9737211,4329.12354 51.3997223,4329.12354 C52.9250964,4329.12354 54.1125848,4329.62163 54.9622231,4330.61785 C55.8118615,4331.61406 56.2366742,4332.98414 56.2366742,4334.72814 Z M47.8893919,4334.72814 C47.8893919,4336.19886 48.1850219,4337.31679 48.7762907,4338.08196 C49.3675595,4338.84713 50.2370593,4339.22971 51.3848164,4339.22971 C52.5474794,4339.22971 53.42319,4338.84961 54.0119745,4338.08941 C54.6007589,4337.32921 54.8951467,4336.2088 54.8951467,4334.72814 C54.8951467,4333.24748 54.6032432,4332.13204 54.0194274,4331.38177 C53.4356116,4330.63151 52.5673538,4330.25638 51.4146281,4330.25638 C50.2569338,4330.25638 49.379981,4330.63523 48.7837436,4331.39295 C48.1875062,4332.15067 47.8893919,4333.26239 47.8893919,4334.72814 Z M62.0078064,4340.19114 L60.7408082,4340.19114 L60.7408082,4330.42035 L57.2901013,4330.42035 L57.2901013,4329.29495 L65.4585133,4329.29495 L65.4585133,4330.42035 L62.0078064,4330.42035 L62.0078064,4340.19114 Z M71.8855033,4330.27129 C70.6880598,4330.27129 69.7427892,4330.67001 69.0496632,4331.46748 C68.3565372,4332.26495 68.0099794,4333.35679 68.0099794,4334.74304 C68.0099794,4336.16905 68.3441157,4337.27083 69.0123985,4338.04842 C69.6806813,4338.82601 70.6334048,4339.2148 71.8705974,4339.2148 C72.6308002,4339.2148 73.4978157,4339.07817 74.4716702,4338.80489 L74.4716702,4339.91538 C73.7164361,4340.19859 72.7848291,4340.3402 71.6768212,4340.3402 C70.0719488,4340.3402 68.8335326,4339.85328 67.9615353,4338.87942 C67.0895381,4337.90557 66.653546,4336.52182 66.653546,4334.72814 C66.653546,4333.60523 66.8634681,4332.62145 67.2833186,4331.77678 C67.7031691,4330.93211 68.3093348,4330.28123 69.1018337,4329.82411 C69.8943326,4329.367 70.8271818,4329.13844 71.9004092,4329.13844 C73.0431976,4329.13844 74.0418803,4329.34712 74.8964873,4329.76449 L74.3598763,4330.85262 C73.5350811,4330.46506 72.7102984,4330.27129 71.8855033,4330.27129 Z M80.5111079,4335.64485 L77.6566354,4340.19114 L76.1585964,4340.19114 L79.2142979,4335.42871 C78.414346,4335.17531 77.8330233,4334.79149 77.4703122,4334.27724 C77.107601,4333.76298 76.9262482,4333.11334 76.9262482,4332.3283 C76.9262482,4331.35444 77.2628689,4330.60543 77.9361203,4330.08124 C78.6093718,4329.55704 79.6291709,4329.29495 80.9955483,4329.29495 L83.9916265,4329.29495 L83.9916265,4340.19114 L82.7246283,4340.19114 L82.7246283,4335.64485 L80.5111079,4335.64485 Z M82.7246283,4330.39053 L81.032813,4330.39053 C80.1235509,4330.39053 79.4329196,4330.54704 78.9608983,4330.86007 C78.488877,4331.17309 78.2528699,4331.68237 78.2528699,4332.38792 C78.2528699,4333.83379 79.194414,4334.55672 81.0775306,4334.55672 L82.7246283,4334.55672 L82.7246283,4330.39053 Z M99.9385727,4340.19114 L98.6715745,4340.19114 L98.6715745,4330.42035 L93.0744236,4330.42035 L93.0744236,4340.19114 L91.8074254,4340.19114 L91.8074254,4329.29495 L99.9385727,4329.29495 L99.9385727,4340.19114 Z M110.270898,4332.4699 C110.270898,4333.57294 109.894529,4334.42132 109.141779,4335.01508 C108.38903,4335.60883 107.312092,4335.9057 105.910934,4335.9057 L104.62903,4335.9057 L104.62903,4340.19114 L103.362032,4340.19114 L103.362032,4329.29495 L106.186692,4329.29495 C108.90951,4329.29495 110.270898,4330.35326 110.270898,4332.4699 Z M104.62903,4334.81757 L105.769328,4334.81757 C106.892242,4334.81757 107.704603,4334.63622 108.206437,4334.27351 C108.70827,4333.9108 108.959183,4333.32948 108.959183,4332.52952 C108.959183,4331.80907 108.723176,4331.27247 108.251154,4330.91969 C107.779133,4330.56692 107.043784,4330.39053 106.045087,4330.39053 L104.62903,4330.39053 L104.62903,4334.81757 Z M122.436645,4334.72814 C122.436645,4336.47213 121.995684,4337.84346 121.11375,4338.84216 C120.231815,4339.84085 119.00582,4340.3402 117.435729,4340.3402 C115.830856,4340.3402 114.59244,4339.84955 113.720443,4338.86824 C112.848445,4337.88693 112.412453,4336.50195 112.412453,4334.71323 C112.412453,4332.93943 112.849688,4331.56437 113.724169,4330.58804 C114.598651,4329.6117 115.840793,4329.12354 117.450634,4329.12354 C119.015758,4329.12354 120.238026,4329.62039 121.117476,4330.61412 C121.996927,4331.60785 122.436645,4332.97918 122.436645,4334.72814 Z M113.753981,4334.72814 C113.753981,4336.20383 114.068243,4337.323 114.696777,4338.08568 C115.32531,4338.84837 116.238285,4339.22971 117.435729,4339.22971 C118.643109,4339.22971 119.554842,4338.84961 120.170954,4338.08941 C120.787066,4337.32921 121.095118,4336.2088 121.095118,4334.72814 C121.095118,4333.26239 120.788308,4332.15067 120.174681,4331.39295 C119.561053,4330.63523 118.653047,4330.25638 117.450634,4330.25638 C116.243254,4330.25638 115.32531,4330.63772 114.696777,4331.40041 C114.068243,4332.16309 113.753981,4333.27233 113.753981,4334.72814 Z M128.192871,4340.19114 L126.925873,4340.19114 L126.925873,4330.42035 L123.475166,4330.42035 L123.475166,4329.29495 L131.643578,4329.29495 L131.643578,4330.42035 L128.192871,4330.42035 L128.192871,4340.19114 Z M133.72551,4329.29495 L134.910526,4329.29495 L134.910526,4335.35419 C134.910526,4336.47213 134.875746,4337.48323 134.806185,4338.38753 L134.865808,4338.38753 L140.977211,4329.29495 L142.363456,4329.29495 L142.363456,4340.19114 L141.170987,4340.19114 L141.170987,4334.19153 C141.170987,4333.19283 141.21322,4332.14446 141.297687,4331.04639 L141.230611,4331.04639 L135.111755,4340.19114 L133.72551,4340.19114 L133.72551,4329.29495 Z M145.772009,4329.29495 L148.85007,4329.29495 C150.295946,4329.29495 151.34183,4329.51109 151.987754,4329.94336 C152.633677,4330.37563 152.956635,4331.05881 152.956635,4331.99291 C152.956635,4332.63884 152.776524,4333.17172 152.416297,4333.59157 C152.05607,4334.01142 151.530644,4334.28345 150.840002,4334.40766 L150.840002,4334.48219 C152.494561,4334.76541 153.321828,4335.6349 153.321828,4337.09072 C153.321828,4338.06457 152.99266,4338.82476 152.334315,4339.37131 C151.675969,4339.91787 150.755542,4340.19114 149.573004,4340.19114 L145.772009,4340.19114 L145.772009,4329.29495 Z M147.039008,4333.96049 L149.125828,4333.96049 C150.020184,4333.96049 150.663614,4333.82013 151.056137,4333.5394 C151.44866,4333.25867 151.644919,4332.78541 151.644919,4332.11961 C151.644919,4331.50847 151.426302,4331.06751 150.989061,4330.79672 C150.55182,4330.52593 149.85622,4330.39053 148.90224,4330.39053 L147.039008,4330.39053 L147.039008,4333.96049 Z M147.039008,4335.03371 L147.039008,4339.11046 L149.312151,4339.11046 C150.191602,4339.11046 150.853664,4338.94029 151.298357,4338.59994 C151.743051,4338.25958 151.965395,4337.72671 151.965395,4337.00128 C151.965395,4336.32555 151.738083,4335.82869 151.283452,4335.5107 C150.828821,4335.1927 150.136947,4335.03371 149.20781,4335.03371 L147.039008,4335.03371 Z M165.547198,4334.72814 C165.547198,4336.47213 165.106238,4337.84346 164.224303,4338.84216 C163.342368,4339.84085 162.116374,4340.3402 160.546282,4340.3402 C158.941409,4340.3402 157.702993,4339.84955 156.830996,4338.86824 C155.958999,4337.88693 155.523006,4336.50195 155.523006,4334.71323 C155.523006,4332.93943 155.960241,4331.56437 156.834722,4330.58804 C157.709204,4329.6117 158.951347,4329.12354 160.561188,4329.12354 C162.126311,4329.12354 163.348579,4329.62039 164.228029,4330.61412 C165.10748,4331.60785 165.547198,4332.97918 165.547198,4334.72814 Z M156.864534,4334.72814 C156.864534,4336.20383 157.178796,4337.323 157.80733,4338.08568 C158.435863,4338.84837 159.348838,4339.22971 160.546282,4339.22971 C161.753663,4339.22971 162.665395,4338.84961 163.281507,4338.08941 C163.897619,4337.32921 164.205671,4336.2088 164.205671,4334.72814 C164.205671,4333.26239 163.898861,4332.15067 163.285234,4331.39295 C162.671606,4330.63523 161.7636,4330.25638 160.561188,4330.25638 C159.353807,4330.25638 158.435863,4330.63772 157.80733,4331.40041 C157.178796,4332.16309 156.864534,4333.27233 156.864534,4334.72814 Z M176.535382,4340.19114 L175.268384,4340.19114 L175.268384,4330.42035 L169.671233,4330.42035 L169.671233,4340.19114 L168.404234,4340.19114 L168.404234,4329.29495 L176.535382,4329.29495 L176.535382,4340.19114 Z M189.41661,4334.72814 C189.41661,4336.47213 188.975649,4337.84346 188.093715,4338.84216 C187.21178,4339.84085 185.985785,4340.3402 184.415693,4340.3402 C182.810821,4340.3402 181.572405,4339.84955 180.700407,4338.86824 C179.82841,4337.88693 179.392418,4336.50195 179.392418,4334.71323 C179.392418,4332.93943 179.829652,4331.56437 180.704134,4330.58804 C181.578615,4329.6117 182.820758,4329.12354 184.430599,4329.12354 C185.995722,4329.12354 187.217991,4329.62039 188.097441,4330.61412 C188.976891,4331.60785 189.41661,4332.97918 189.41661,4334.72814 Z M180.733946,4334.72814 C180.733946,4336.20383 181.048208,4337.323 181.676741,4338.08568 C182.305275,4338.84837 183.21825,4339.22971 184.415693,4339.22971 C185.623074,4339.22971 186.534807,4338.84961 187.150919,4338.08941 C187.767031,4337.32921 188.075082,4336.2088 188.075082,4334.72814 C188.075082,4333.26239 187.768273,4332.15067 187.154645,4331.39295 C186.541018,4330.63523 185.633011,4330.25638 184.430599,4330.25638 C183.223218,4330.25638 182.305275,4330.63772 181.676741,4331.40041 C181.048208,4332.16309 180.733946,4333.27233 180.733946,4334.72814 Z M200.114129,4340.19114 L198.578825,4340.19114 L193.540644,4334.66852 L193.540644,4340.19114 L192.273646,4340.19114 L192.273646,4329.29495 L193.540644,4329.29495 L193.540644,4334.57163 L198.452125,4329.29495 L199.905447,4329.29495 L195.083401,4334.58653 L200.114129,4340.19114 Z M208.888792,4340.19114 L207.532359,4336.72552 L203.164941,4336.72552 L201.823414,4340.19114 L200.54151,4340.19114 L204.849304,4329.25023 L205.915073,4329.25023 L210.200508,4340.19114 L208.888792,4340.19114 Z M207.137353,4335.58523 L205.870355,4332.20905 C205.70639,4331.78174 205.537459,4331.25756 205.363556,4330.63648 C205.254246,4331.11347 205.097736,4331.63765 204.894021,4332.20905 L203.612117,4335.58523 L207.137353,4335.58523 Z M218.446013,4331.84385 C218.446013,4332.55934 218.218701,4333.14066 217.76407,4333.58784 C217.309439,4334.03502 216.682157,4334.31823 215.882205,4334.43747 L215.882205,4334.4971 C216.791467,4334.62131 217.480856,4334.90701 217.950393,4335.35419 C218.41993,4335.80136 218.654695,4336.38517 218.654695,4337.10562 C218.654695,4338.1242 218.274599,4338.91793 217.514397,4339.48684 C216.754194,4340.05575 215.680983,4340.3402 214.294731,4340.3402 C213.027726,4340.3402 211.989295,4340.14394 211.179406,4339.75141 L211.179406,4338.57385 C211.656396,4338.80241 212.171885,4338.97879 212.725889,4339.10301 C213.279893,4339.22723 213.812772,4339.28933 214.324542,4339.28933 C215.308334,4339.28933 216.052378,4339.10301 216.556695,4338.73036 C217.061013,4338.35771 217.313168,4337.82111 217.313168,4337.12053 C217.313168,4336.45473 217.033686,4335.95042 216.474713,4335.60758 C215.91574,4335.26475 215.082263,4335.09333 213.974255,4335.09333 L212.349516,4335.09333 L212.349516,4334.02756 L213.907178,4334.02756 C214.925751,4334.02756 215.714511,4333.84497 216.273484,4333.47977 C216.832456,4333.11458 217.111938,4332.60406 217.111938,4331.9482 C217.111938,4331.41655 216.910711,4330.99174 216.508251,4330.67374 C216.105791,4330.35575 215.564217,4330.19676 214.883512,4330.19676 C214.336961,4330.19676 213.842588,4330.25886 213.400379,4330.38308 C212.95817,4330.5073 212.446407,4330.75324 211.865075,4331.12092 L211.239029,4330.27129 C211.740862,4329.89864 212.303553,4329.61667 212.927118,4329.42538 C213.550683,4329.23409 214.197839,4329.13844 214.868606,4329.13844 C215.986552,4329.13844 216.862262,4329.38314 217.495764,4329.87255 C218.129267,4330.36197 218.446013,4331.01906 218.446013,4331.84385 Z M228.271539,4340.19114 L226.915106,4336.72552 L222.547689,4336.72552 L221.206161,4340.19114 L219.924257,4340.19114 L224.232051,4329.25023 L225.29782,4329.25023 L229.583255,4340.19114 L228.271539,4340.19114 Z M226.520101,4335.58523 L225.253103,4332.20905 C225.089137,4331.78174 224.920206,4331.25756 224.746303,4330.63648 C224.636993,4331.11347 224.480483,4331.63765 224.276769,4332.20905 L222.994865,4335.58523 L226.520101,4335.58523 Z M239.781428,4340.19114 L238.51443,4340.19114 L238.51443,4335.06352 L232.775673,4335.06352 L232.775673,4340.19114 L231.508675,4340.19114 L231.508675,4329.29495 L232.775673,4329.29495 L232.775673,4333.93068 L238.51443,4333.93068 L238.51443,4329.29495 L239.781428,4329.29495 L239.781428,4340.19114 Z M243.21234,4329.29495 L244.397356,4329.29495 L244.397356,4335.35419 C244.397356,4336.47213 244.362576,4337.48323 244.293015,4338.38753 L244.352639,4338.38753 L250.464042,4329.29495 L251.850287,4329.29495 L251.850287,4340.19114 L250.657818,4340.19114 L250.657818,4334.19153 C250.657818,4333.19283 250.700051,4332.14446 250.784518,4331.04639 L250.717441,4331.04639 L244.598585,4340.19114 L243.21234,4340.19114 L243.21234,4329.29495 Z M258.493412,4335.64485 L255.638939,4340.19114 L254.1409,4340.19114 L257.196602,4335.42871 C256.39665,4335.17531 255.815327,4334.79149 255.452616,4334.27724 C255.089905,4333.76298 254.908552,4333.11334 254.908552,4332.3283 C254.908552,4331.35444 255.245173,4330.60543 255.918424,4330.08124 C256.591676,4329.55704 257.611475,4329.29495 258.977852,4329.29495 L261.97393,4329.29495 L261.97393,4340.19114 L260.706932,4340.19114 L260.706932,4335.64485 L258.493412,4335.64485 Z M260.706932,4330.39053 L259.015117,4330.39053 C258.105855,4330.39053 257.415223,4330.54704 256.943202,4330.86007 C256.471181,4331.17309 256.235174,4331.68237 256.235174,4332.38792 C256.235174,4333.83379 257.176718,4334.55672 259.059834,4334.55672 L260.706932,4334.55672 L260.706932,4330.39053 Z M265.032196,4339.40113 C265.032196,4339.06823 265.107966,4338.81607 265.25951,4338.64465 C265.411054,4338.47324 265.628429,4338.38753 265.911642,4338.38753 C266.199823,4338.38753 266.424651,4338.47324 266.586132,4338.64465 C266.747613,4338.81607 266.828352,4339.06823 266.828352,4339.40113 C266.828352,4339.72409 266.746371,4339.97252 266.582405,4340.14642 C266.41844,4340.32032 266.194854,4340.40727 265.911642,4340.40727 C265.658241,4340.40727 265.448319,4340.32902 265.281869,4340.1725 C265.115419,4340.01599 265.032196,4339.75887 265.032196,4339.40113 Z M282.55171,4340.19114 L281.284712,4340.19114 L281.284712,4335.06352 L275.545956,4335.06352 L275.545956,4340.19114 L274.278957,4340.19114 L274.278957,4329.29495 L275.545956,4329.29495 L275.545956,4333.93068 L281.284712,4333.93068 L281.284712,4329.29495 L282.55171,4329.29495 L282.55171,4340.19114 Z M292.041855,4340.19114 L285.967716,4340.19114 L285.967716,4329.29495 L292.041855,4329.29495 L292.041855,4330.42035 L287.234715,4330.42035 L287.234715,4333.93068 L291.751191,4333.93068 L291.751191,4335.04862 L287.234715,4335.04862 L287.234715,4339.05829 L292.041855,4339.05829 L292.041855,4340.19114 Z M304.341754,4334.72814 C304.341754,4336.47213 303.900794,4337.84346 303.018859,4338.84216 C302.136925,4339.84085 300.91093,4340.3402 299.340838,4340.3402 C297.735965,4340.3402 296.497549,4339.84955 295.625552,4338.86824 C294.753555,4337.88693 294.317563,4336.50195 294.317563,4334.71323 C294.317563,4332.93943 294.754797,4331.56437 295.629278,4330.58804 C296.50376,4329.6117 297.745903,4329.12354 299.355744,4329.12354 C300.920867,4329.12354 302.143135,4329.62039 303.022586,4330.61412 C303.902036,4331.60785 304.341754,4332.97918 304.341754,4334.72814 Z M295.65909,4334.72814 C295.65909,4336.20383 295.973352,4337.323 296.601886,4338.08568 C297.230419,4338.84837 298.143394,4339.22971 299.340838,4339.22971 C300.548219,4339.22971 301.459951,4338.84961 302.076063,4338.08941 C302.692175,4337.32921 303.000227,4336.2088 303.000227,4334.72814 C303.000227,4333.26239 302.693417,4332.15067 302.07979,4331.39295 C301.466162,4330.63523 300.558156,4330.25638 299.355744,4330.25638 C298.148363,4330.25638 297.230419,4330.63772 296.601886,4331.40041 C295.973352,4332.16309 295.65909,4333.27233 295.65909,4334.72814 Z M314.264169,4337.01619 C314.264169,4338.09935 313.942454,4338.89929 313.299014,4339.41603 C312.655575,4339.93277 311.685461,4340.19114 310.388645,4340.19114 L307.19879,4340.19114 L307.19879,4329.29495 L313.623217,4329.29495 L313.623217,4330.42035 L308.465789,4330.42035 L308.465789,4333.94558 L310.157604,4333.94558 C311.116552,4333.94558 311.896618,4334.05613 312.497824,4334.27724 C313.09903,4334.49834 313.543717,4334.82502 313.831899,4335.2573 C314.12008,4335.68957 314.264169,4336.27586 314.264169,4337.01619 Z M308.465789,4339.09556 L310.247039,4339.09556 C311.191082,4339.09556 311.877987,4338.93408 312.307774,4338.61112 C312.737562,4338.28815 312.952453,4337.75652 312.952453,4337.01619 C312.952453,4336.31064 312.733836,4335.80882 312.296595,4335.5107 C311.859354,4335.21258 311.096679,4335.06352 310.008545,4335.06352 L308.465789,4335.06352 L308.465789,4339.09556 Z M324.231301,4340.19114 L322.792885,4340.19114 L319.863883,4335.3989 L316.882711,4340.19114 L315.541184,4340.19114 L319.163308,4334.4971 L315.78713,4329.29495 L317.188281,4329.29495 L319.893695,4333.6102 L322.621468,4329.29495 L323.970448,4329.29495 L320.594271,4334.45238 L324.231301,4340.19114 Z M335.368543,4334.72814 C335.368543,4336.47213 334.927582,4337.84346 334.045648,4338.84216 C333.163713,4339.84085 331.937718,4340.3402 330.367627,4340.3402 C328.762754,4340.3402 327.524338,4339.84955 326.652341,4338.86824 C325.780343,4337.88693 325.344351,4336.50195 325.344351,4334.71323 C325.344351,4332.93943 325.781586,4331.56437 326.656067,4330.58804 C327.530549,4329.6117 328.772691,4329.12354 330.382532,4329.12354 C331.947656,4329.12354 333.169924,4329.62039 334.049374,4330.61412 C334.928825,4331.60785 335.368543,4332.97918 335.368543,4334.72814 Z M326.685879,4334.72814 C326.685879,4336.20383 327.000141,4337.323 327.628675,4338.08568 C328.257208,4338.84837 329.170183,4339.22971 330.367627,4339.22971 C331.575007,4339.22971 332.48674,4338.84961 333.102852,4338.08941 C333.718964,4337.32921 334.027016,4336.2088 334.027016,4334.72814 C334.027016,4333.26239 333.720206,4332.15067 333.106579,4331.39295 C332.492951,4330.63523 331.584945,4330.25638 330.382532,4330.25638 C329.175152,4330.25638 328.257208,4330.63772 327.628675,4331.40041 C327.000141,4332.16309 326.685879,4333.27233 326.685879,4334.72814 Z M346.513238,4343.0307 L345.305863,4343.0307 L345.305863,4340.19114 L337.733686,4340.19114 L337.733686,4343.0307 L336.526311,4343.0307 L336.526311,4339.04339 L337.368492,4339.04339 C338.133664,4337.75651 338.788273,4336.19141 339.332339,4334.34804 C339.876406,4332.50467 340.178247,4330.82033 340.237871,4329.29495 L345.134446,4329.29495 L345.134446,4339.04339 L346.513238,4339.04339 L346.513238,4343.0307 Z M343.867448,4339.04339 L343.867448,4330.43525 L341.385622,4330.43525 C341.296186,4331.63766 340.995588,4333.08228 340.483817,4334.76913 C339.972047,4336.45599 339.375818,4337.88072 338.695114,4339.04339 L343.867448,4339.04339 Z M348.788946,4329.29495 L349.973962,4329.29495 L349.973962,4335.35419 C349.973962,4336.47213 349.939182,4337.48323 349.869621,4338.38753 L349.929244,4338.38753 L356.040647,4329.29495 L357.426892,4329.29495 L357.426892,4340.19114 L356.234424,4340.19114 L356.234424,4334.19153 C356.234424,4333.19283 356.276656,4332.14446 356.361123,4331.04639 L356.294047,4331.04639 L350.175191,4340.19114 L348.788946,4340.19114 L348.788946,4329.29495 Z M365.657492,4340.19114 L361.960838,4330.53214 L361.901215,4330.53214 C361.970776,4331.29731 362.005556,4332.20656 362.005556,4333.25991 L362.005556,4340.19114 L360.835446,4340.19114 L360.835446,4329.29495 L362.743396,4329.29495 L366.194103,4338.28319 L366.253726,4338.28319 L369.734245,4329.29495 L371.627289,4329.29495 L371.627289,4340.19114 L370.360291,4340.19114 L370.360291,4333.17048 C370.360291,4332.36556 370.395071,4331.49109 370.464632,4330.54704 L370.405008,4330.54704 L366.678543,4340.19114 L365.657492,4340.19114 Z M384.501064,4334.72814 C384.501064,4336.47213 384.060103,4337.84346 383.178169,4338.84216 C382.296234,4339.84085 381.07024,4340.3402 379.500148,4340.3402 C377.895275,4340.3402 376.656859,4339.84955 375.784862,4338.86824 C374.912864,4337.88693 374.476872,4336.50195 374.476872,4334.71323 C374.476872,4332.93943 374.914107,4331.56437 375.788588,4330.58804 C376.66307,4329.6117 377.905212,4329.12354 379.515054,4329.12354 C381.080177,4329.12354 382.302445,4329.62039 383.181895,4330.61412 C384.061346,4331.60785 384.501064,4332.97918 384.501064,4334.72814 Z M375.8184,4334.72814 C375.8184,4336.20383 376.132662,4337.323 376.761196,4338.08568 C377.389729,4338.84837 378.302704,4339.22971 379.500148,4339.22971 C380.707528,4339.22971 381.619261,4338.84961 382.235373,4338.08941 C382.851485,4337.32921 383.159537,4336.2088 383.159537,4334.72814 C383.159537,4333.26239 382.852727,4332.15067 382.2391,4331.39295 C381.625472,4330.63523 380.717466,4330.25638 379.515054,4330.25638 C378.307673,4330.25638 377.389729,4330.63772 376.761196,4331.40041 C376.132662,4332.16309 375.8184,4333.27233 375.8184,4334.72814 Z M399.881588,4340.19114 L398.614589,4340.19114 L398.614589,4330.42035 L393.017439,4330.42035 L393.017439,4340.19114 L391.75044,4340.19114 L391.75044,4329.29495 L399.881588,4329.29495 L399.881588,4340.19114 Z M410.213913,4332.4699 C410.213913,4333.57294 409.837544,4334.42132 409.084794,4335.01508 C408.332045,4335.60883 407.255107,4335.9057 405.853949,4335.9057 L404.572045,4335.9057 L404.572045,4340.19114 L403.305047,4340.19114 L403.305047,4329.29495 L406.129707,4329.29495 C408.852525,4329.29495 410.213913,4330.35326 410.213913,4332.4699 Z M404.572045,4334.81757 L405.712343,4334.81757 C406.835257,4334.81757 407.647618,4334.63622 408.149452,4334.27351 C408.651285,4333.9108 408.902198,4333.32948 408.902198,4332.52952 C408.902198,4331.80907 408.66619,4331.27247 408.194169,4330.91969 C407.722148,4330.56692 406.986799,4330.39053 405.988102,4330.39053 L404.572045,4330.39053 L404.572045,4334.81757 Z M422.37966,4334.72814 C422.37966,4336.47213 421.938699,4337.84346 421.056765,4338.84216 C420.17483,4339.84085 418.948835,4340.3402 417.378744,4340.3402 C415.773871,4340.3402 414.535455,4339.84955 413.663458,4338.86824 C412.79146,4337.88693 412.355468,4336.50195 412.355468,4334.71323 C412.355468,4332.93943 412.792702,4331.56437 413.667184,4330.58804 C414.541666,4329.6117 415.783808,4329.12354 417.393649,4329.12354 C418.958773,4329.12354 420.181041,4329.62039 421.060491,4330.61412 C421.939941,4331.60785 422.37966,4332.97918 422.37966,4334.72814 Z M413.696996,4334.72814 C413.696996,4336.20383 414.011258,4337.323 414.639791,4338.08568 C415.268325,4338.84837 416.1813,4339.22971 417.378744,4339.22971 C418.586124,4339.22971 419.497857,4338.84961 420.113969,4338.08941 C420.730081,4337.32921 421.038132,4336.2088 421.038132,4334.72814 C421.038132,4333.26239 420.731323,4332.15067 420.117696,4331.39295 C419.504068,4330.63523 418.596062,4330.25638 417.393649,4330.25638 C416.186269,4330.25638 415.268325,4330.63772 414.639791,4331.40041 C414.011258,4332.16309 413.696996,4333.27233 413.696996,4334.72814 Z M433.077179,4340.19114 L431.541876,4340.19114 L426.503694,4334.66852 L426.503694,4340.19114 L425.236696,4340.19114 L425.236696,4329.29495 L426.503694,4329.29495 L426.503694,4334.57163 L431.415176,4329.29495 L432.868497,4329.29495 L428.046451,4334.58653 L433.077179,4340.19114 Z M444.154798,4334.72814 C444.154798,4336.47213 443.713837,4337.84346 442.831903,4338.84216 C441.949968,4339.84085 440.723973,4340.3402 439.153882,4340.3402 C437.549009,4340.3402 436.310593,4339.84955 435.438596,4338.86824 C434.566598,4337.88693 434.130606,4336.50195 434.130606,4334.71323 C434.130606,4332.93943 434.567841,4331.56437 435.442322,4330.58804 C436.316804,4329.6117 437.558946,4329.12354 439.168787,4329.12354 C440.733911,4329.12354 441.956179,4329.62039 442.835629,4330.61412 C443.715079,4331.60785 444.154798,4332.97918 444.154798,4334.72814 Z M435.472134,4334.72814 C435.472134,4336.20383 435.786396,4337.323 436.41493,4338.08568 C437.043463,4338.84837 437.956438,4339.22971 439.153882,4339.22971 C440.361262,4339.22971 441.272995,4338.84961 441.889107,4338.08941 C442.505219,4337.32921 442.81327,4336.2088 442.81327,4334.72814 C442.81327,4333.26239 442.506461,4332.15067 441.892834,4331.39295 C441.279206,4330.63523 440.3712,4330.25638 439.168787,4330.25638 C437.961407,4330.25638 437.043463,4330.63772 436.41493,4331.40041 C435.786396,4332.16309 435.472134,4333.27233 435.472134,4334.72814 Z M455.284587,4340.19114 L454.017589,4340.19114 L454.017589,4335.06352 L448.278832,4335.06352 L448.278832,4340.19114 L447.011834,4340.19114 L447.011834,4329.29495 L448.278832,4329.29495 L448.278832,4333.93068 L454.017589,4333.93068 L454.017589,4329.29495 L455.284587,4329.29495 L455.284587,4340.19114 Z M463.366128,4330.27129 C462.168684,4330.27129 461.223414,4330.67001 460.530288,4331.46748 C459.837162,4332.26495 459.490604,4333.35679 459.490604,4334.74304 C459.490604,4336.16905 459.82474,4337.27083 460.493023,4338.04842 C461.161306,4338.82601 462.114029,4339.2148 463.351222,4339.2148 C464.111425,4339.2148 464.97844,4339.07817 465.952295,4338.80489 L465.952295,4339.91538 C465.197061,4340.19859 464.265454,4340.3402 463.157446,4340.3402 C461.552573,4340.3402 460.314157,4339.85328 459.44216,4338.87942 C458.570163,4337.90557 458.134171,4336.52182 458.134171,4334.72814 C458.134171,4333.60523 458.344093,4332.62145 458.763943,4331.77678 C459.183794,4330.93211 459.789959,4330.28123 460.582458,4329.82411 C461.374957,4329.367 462.307806,4329.13844 463.381034,4329.13844 C464.523822,4329.13844 465.522505,4329.34712 466.377112,4329.76449 L465.840501,4330.85262 C465.015706,4330.46506 464.190923,4330.27129 463.366128,4330.27129 Z M469.44283,4340.3402 C468.891311,4340.3402 468.406875,4340.26567 467.989509,4340.11661 L467.989509,4338.87942 C468.451593,4339.09307 468.921123,4339.1999 469.398113,4339.1999 C469.944664,4339.1999 470.38314,4339.07444 470.713555,4338.82352 C471.04397,4338.57261 471.373138,4338.10184 471.701068,4337.41119 L467.460351,4329.29495 L468.861502,4329.29495 L472.081168,4335.48834 C472.205384,4335.7318 472.302271,4335.97029 472.371832,4336.20382 L472.431455,4336.20382 C472.570577,4335.78645 472.667465,4335.52312 472.72212,4335.41381 L475.397722,4329.29495 L476.739249,4329.29495 L473.258731,4337.09072 C472.841364,4338.01985 472.464995,4338.69558 472.129612,4339.11792 C471.794228,4339.54025 471.416617,4339.84954 470.996766,4340.04581 C470.576916,4340.24207 470.058942,4340.3402 469.44283,4340.3402 Z M485.655518,4340.19114 L484.38852,4340.19114 L484.38852,4330.42035 L480.848378,4330.42035 L480.617337,4332.20905 C480.31425,4334.58903 480.047189,4336.32927 479.816147,4337.42983 C479.585105,4338.53038 479.28078,4339.29678 478.903163,4339.72906 C478.525546,4340.16133 478.02372,4340.37249 477.397671,4340.36255 C477.029991,4340.36255 476.699581,4340.30045 476.406431,4340.17623 L476.406431,4339.11046 C476.674738,4339.23965 476.955462,4339.30424 477.248612,4339.30424 C477.511951,4339.30424 477.741747,4339.19617 477.938008,4338.98004 C478.13427,4338.7639 478.30817,4338.38877 478.459714,4337.85464 C478.611257,4337.32051 478.802547,4336.30693 479.033589,4334.81385 C479.264631,4333.32077 479.519271,4331.48116 479.797515,4329.29495 L485.655518,4329.29495 L485.655518,4340.19114 Z M496.598984,4337.01619 C496.598984,4338.02482 496.262363,4338.80613 495.589112,4339.36014 C494.915861,4339.91414 493.955684,4340.19114 492.708554,4340.19114 L489.078977,4340.19114 L489.078977,4329.29495 L490.345975,4329.29495 L490.345975,4333.94558 L492.514778,4333.94558 C493.841406,4333.94558 494.853753,4334.20767 495.551847,4334.73187 C496.249942,4335.25606 496.598984,4336.01749 496.598984,4337.01619 Z M490.345975,4339.09556 L492.574402,4339.09556 C494.382988,4339.09556 495.287268,4338.40244 495.287268,4337.01619 C495.287268,4336.34542 495.054988,4335.85229 494.590419,4335.53678 C494.125851,4335.22127 493.381808,4335.06352 492.358267,4335.06352 L490.345975,4335.06352 L490.345975,4339.09556 Z M501.915487,4340.19114 L500.648489,4340.19114 L500.648489,4330.42035 L497.197782,4330.42035 L497.197782,4329.29495 L505.366194,4329.29495 L505.366194,4330.42035 L501.915487,4330.42035 L501.915487,4340.19114 Z M507.448126,4329.29495 L508.633142,4329.29495 L508.633142,4335.35419 C508.633142,4336.47213 508.598362,4337.48323 508.528801,4338.38753 L508.588424,4338.38753 L514.699827,4329.29495 L516.086072,4329.29495 L516.086072,4340.19114 L514.893604,4340.19114 L514.893604,4334.19153 C514.893604,4333.19283 514.935836,4332.14446 515.020303,4331.04639 L514.953227,4331.04639 L508.834371,4340.19114 L507.448126,4340.19114 L507.448126,4329.29495 Z M526.403492,4332.4699 C526.403492,4333.57294 526.027123,4334.42132 525.274373,4335.01508 C524.521624,4335.60883 523.444686,4335.9057 522.043528,4335.9057 L520.761624,4335.9057 L520.761624,4340.19114 L519.494626,4340.19114 L519.494626,4329.29495 L522.319286,4329.29495 C525.042104,4329.29495 526.403492,4330.35326 526.403492,4332.4699 Z M520.761624,4334.81757 L521.901922,4334.81757 C523.024836,4334.81757 523.837197,4334.63622 524.33903,4334.27351 C524.840864,4333.9108 525.091776,4333.32948 525.091776,4332.52952 C525.091776,4331.80907 524.855769,4331.27247 524.383748,4330.91969 C523.911727,4330.56692 523.176378,4330.39053 522.177681,4330.39053 L520.761624,4330.39053 L520.761624,4334.81757 Z M538.569239,4334.72814 C538.569239,4336.47213 538.128278,4337.84346 537.246344,4338.84216 C536.364409,4339.84085 535.138414,4340.3402 533.568322,4340.3402 C531.96345,4340.3402 530.725034,4339.84955 529.853037,4338.86824 C528.981039,4337.88693 528.545047,4336.50195 528.545047,4334.71323 C528.545047,4332.93943 528.982281,4331.56437 529.856763,4330.58804 C530.731245,4329.6117 531.973387,4329.12354 533.583228,4329.12354 C535.148352,4329.12354 536.37062,4329.62039 537.25007,4330.61412 C538.12952,4331.60785 538.569239,4332.97918 538.569239,4334.72814 Z M529.886575,4334.72814 C529.886575,4336.20383 530.200837,4337.323 530.82937,4338.08568 C531.457904,4338.84837 532.370879,4339.22971 533.568322,4339.22971 C534.775703,4339.22971 535.687436,4338.84961 536.303548,4338.08941 C536.91966,4337.32921 537.227711,4336.2088 537.227711,4334.72814 C537.227711,4333.26239 536.920902,4332.15067 536.307274,4331.39295 C535.693647,4330.63523 534.78564,4330.25638 533.583228,4330.25638 C532.375847,4330.25638 531.457904,4330.63772 530.82937,4331.40041 C530.200837,4332.16309 529.886575,4333.27233 529.886575,4334.72814 Z M541.426275,4329.29495 L544.504335,4329.29495 C545.950211,4329.29495 546.996095,4329.51109 547.642019,4329.94336 C548.287943,4330.37563 548.6109,4331.05881 548.6109,4331.99291 C548.6109,4332.63884 548.43079,4333.17172 548.070563,4333.59157 C547.710336,4334.01142 547.18491,4334.28345 546.494268,4334.40766 L546.494268,4334.48219 C548.148827,4334.76541 548.976094,4335.6349 548.976094,4337.09072 C548.976094,4338.06457 548.646926,4338.82476 547.988581,4339.37131 C547.330235,4339.91787 546.409807,4340.19114 545.22727,4340.19114 L541.426275,4340.19114 L541.426275,4329.29495 Z M542.693273,4333.96049 L544.780094,4333.96049 C545.67445,4333.96049 546.31788,4333.82013 546.710403,4333.5394 C547.102926,4333.25867 547.299184,4332.78541 547.299184,4332.11961 C547.299184,4331.50847 547.080567,4331.06751 546.643327,4330.79672 C546.206086,4330.52593 545.510486,4330.39053 544.556506,4330.39053 L542.693273,4330.39053 L542.693273,4333.96049 Z M542.693273,4335.03371 L542.693273,4339.11046 L544.966417,4339.11046 C545.845867,4339.11046 546.507929,4338.94029 546.952623,4338.59994 C547.397317,4338.25958 547.619661,4337.72671 547.619661,4337.00128 C547.619661,4336.32555 547.392348,4335.82869 546.937717,4335.5107 C546.483086,4335.1927 545.791213,4335.03371 544.862076,4335.03371 L542.693273,4335.03371 Z M558.592938,4340.19114 L557.236505,4336.72552 L552.869087,4336.72552 L551.52756,4340.19114 L550.245656,4340.19114 L554.55345,4329.25023 L555.619219,4329.25023 L559.904654,4340.19114 L558.592938,4340.19114 Z M556.8415,4335.58523 L555.574501,4332.20905 C555.410536,4331.78174 555.241605,4331.25756 555.067702,4330.63648 C554.958392,4331.11347 554.801882,4331.63765 554.598167,4332.20905 L553.316263,4335.58523 L556.8415,4335.58523 Z M564.118124,4340.19114 L562.851125,4340.19114 L562.851125,4330.42035 L559.400419,4330.42035 L559.400419,4329.29495 L567.568831,4329.29495 L567.568831,4330.42035 L564.118124,4330.42035 L564.118124,4340.19114 Z M577.155863,4337.01619 C577.155863,4338.02482 576.819242,4338.80613 576.145991,4339.36014 C575.47274,4339.91414 574.512563,4340.19114 573.265433,4340.19114 L569.635856,4340.19114 L569.635856,4329.29495 L570.902854,4329.29495 L570.902854,4333.94558 L573.071657,4333.94558 C574.398285,4333.94558 575.410632,4334.20767 576.108726,4334.73187 C576.806821,4335.25606 577.155863,4336.01749 577.155863,4337.01619 Z M570.902854,4339.09556 L573.131281,4339.09556 C574.939867,4339.09556 575.844147,4338.40244 575.844147,4337.01619 C575.844147,4336.34542 575.611867,4335.85229 575.147298,4335.53678 C574.68273,4335.22127 573.938687,4335.06352 572.915146,4335.06352 L570.902854,4335.06352 L570.902854,4339.09556 Z M584.544281,4330.27129 C583.346838,4330.27129 582.401567,4330.67001 581.708441,4331.46748 C581.015315,4332.26495 580.668757,4333.35679 580.668757,4334.74304 C580.668757,4336.16905 581.002894,4337.27083 581.671176,4338.04842 C582.339459,4338.82601 583.292183,4339.2148 584.529375,4339.2148 C585.289578,4339.2148 586.156594,4339.07817 587.130448,4338.80489 L587.130448,4339.91538 C586.375214,4340.19859 585.443607,4340.3402 584.335599,4340.3402 C582.730727,4340.3402 581.49231,4339.85328 580.620313,4338.87942 C579.748316,4337.90557 579.312324,4336.52182 579.312324,4334.72814 C579.312324,4333.60523 579.522246,4332.62145 579.942097,4331.77678 C580.361947,4330.93211 580.968113,4330.28123 581.760612,4329.82411 C582.553111,4329.367 583.48596,4329.13844 584.559187,4329.13844 C585.701975,4329.13844 586.700658,4329.34712 587.555265,4329.76449 L587.018654,4330.85262 C586.193859,4330.46506 585.369076,4330.27129 584.544281,4330.27129 Z M593.169886,4335.64485 L590.315413,4340.19114 L588.817374,4340.19114 L591.873076,4335.42871 C591.073124,4335.17531 590.491801,4334.79149 590.12909,4334.27724 C589.766379,4333.76298 589.585026,4333.11334 589.585026,4332.3283 C589.585026,4331.35444 589.921647,4330.60543 590.594898,4330.08124 C591.26815,4329.55704 592.287949,4329.29495 593.654326,4329.29495 L596.650404,4329.29495 L596.650404,4340.19114 L595.383406,4340.19114 L595.383406,4335.64485 L593.169886,4335.64485 Z M595.383406,4330.39053 L593.691591,4330.39053 C592.782329,4330.39053 592.091698,4330.54704 591.619676,4330.86007 C591.147655,4331.17309 590.911648,4331.68237 590.911648,4332.38792 C590.911648,4333.83379 591.853192,4334.55672 593.736309,4334.55672 L595.383406,4334.55672 L595.383406,4330.39053 Z M609.131738,4330.27129 C607.934294,4330.27129 606.989024,4330.67001 606.295898,4331.46748 C605.602772,4332.26495 605.256214,4333.35679 605.256214,4334.74304 C605.256214,4336.16905 605.59035,4337.27083 606.258633,4338.04842 C606.926916,4338.82601 607.879639,4339.2148 609.116832,4339.2148 C609.877035,4339.2148 610.74405,4339.07817 611.717905,4338.80489 L611.717905,4339.91538 C610.962671,4340.19859 610.031064,4340.3402 608.923056,4340.3402 C607.318183,4340.3402 606.079767,4339.85328 605.20777,4338.87942 C604.335773,4337.90557 603.899781,4336.52182 603.899781,4334.72814 C603.899781,4333.60523 604.109703,4332.62145 604.529553,4331.77678 C604.949404,4330.93211 605.555569,4330.28123 606.348068,4329.82411 C607.140567,4329.367 608.073416,4329.13844 609.146644,4329.13844 C610.289432,4329.13844 611.288115,4329.34712 612.142722,4329.76449 L611.606111,4330.85262 C610.781316,4330.46506 609.956533,4330.27129 609.131738,4330.27129 Z M623.674969,4334.72814 C623.674969,4336.47213 623.234009,4337.84346 622.352074,4338.84216 C621.47014,4339.84085 620.244145,4340.3402 618.674053,4340.3402 C617.069181,4340.3402 615.830764,4339.84955 614.958767,4338.86824 C614.08677,4337.88693 613.650778,4336.50195 613.650778,4334.71323 C613.650778,4332.93943 614.088012,4331.56437 614.962493,4330.58804 C615.836975,4329.6117 617.079118,4329.12354 618.688959,4329.12354 C620.254082,4329.12354 621.47635,4329.62039 622.355801,4330.61412 C623.235251,4331.60785 623.674969,4332.97918 623.674969,4334.72814 Z M614.992305,4334.72814 C614.992305,4336.20383 615.306567,4337.323 615.935101,4338.08568 C616.563635,4338.84837 617.476609,4339.22971 618.674053,4339.22971 C619.881434,4339.22971 620.793166,4338.84961 621.409278,4338.08941 C622.025391,4337.32921 622.333442,4336.2088 622.333442,4334.72814 C622.333442,4333.26239 622.026633,4332.15067 621.413005,4331.39295 C620.799377,4330.63523 619.891371,4330.25638 618.688959,4330.25638 C617.481578,4330.25638 616.563635,4330.63772 615.935101,4331.40041 C615.306567,4332.16309 614.992305,4333.27233 614.992305,4334.72814 Z M635.58988,4330.27129 C634.392437,4330.27129 633.447166,4330.67001 632.75404,4331.46748 C632.060914,4332.26495 631.714356,4333.35679 631.714356,4334.74304 C631.714356,4336.16905 632.048493,4337.27083 632.716775,4338.04842 C633.385058,4338.82601 634.337782,4339.2148 635.574974,4339.2148 C636.335177,4339.2148 637.202193,4339.07817 638.176047,4338.80489 L638.176047,4339.91538 C637.420813,4340.19859 636.489206,4340.3402 635.381198,4340.3402 C633.776326,4340.3402 632.537909,4339.85328 631.665912,4338.87942 C630.793915,4337.90557 630.357923,4336.52182 630.357923,4334.72814 C630.357923,4333.60523 630.567845,4332.62145 630.987696,4331.77678 C631.407546,4330.93211 632.013712,4330.28123 632.806211,4329.82411 C633.59871,4329.367 634.531559,4329.13844 635.604786,4329.13844 C636.747574,4329.13844 637.746257,4329.34712 638.600864,4329.76449 L638.064253,4330.85262 C637.239458,4330.46506 636.414675,4330.27129 635.58988,4330.27129 Z M649.11206,4340.19114 L647.845062,4340.19114 L647.845062,4330.42035 L642.247911,4330.42035 L642.247911,4340.19114 L640.980913,4340.19114 L640.980913,4329.29495 L649.11206,4329.29495 L649.11206,4340.19114 Z M658.609658,4340.19114 L652.535519,4340.19114 L652.535519,4329.29495 L658.609658,4329.29495 L658.609658,4330.42035 L653.802517,4330.42035 L653.802517,4333.93068 L658.318993,4333.93068 L658.318993,4335.04862 L653.802517,4335.04862 L653.802517,4339.05829 L658.609658,4339.05829 L658.609658,4340.19114 Z M669.582935,4339.04339 L670.864839,4339.04339 L670.864839,4343.0307 L669.664918,4343.0307 L669.664918,4340.19114 L661.451788,4340.19114 L661.451788,4329.29495 L662.718786,4329.29495 L662.718786,4339.04339 L668.315937,4339.04339 L668.315937,4329.29495 L669.582935,4329.29495 L669.582935,4339.04339 Z M673.140547,4329.29495 L674.325563,4329.29495 L674.325563,4335.35419 C674.325563,4336.47213 674.290783,4337.48323 674.221222,4338.38753 L674.280845,4338.38753 L680.392249,4329.29495 L681.778494,4329.29495 L681.778494,4340.19114 L680.586025,4340.19114 L680.586025,4334.19153 C680.586025,4333.19283 680.628258,4332.14446 680.712725,4331.04639 L680.645648,4331.04639 L674.526792,4340.19114 L673.140547,4340.19114 L673.140547,4329.29495 Z M692.03629,4340.19114 L690.679857,4336.72552 L686.312439,4336.72552 L684.970912,4340.19114 L683.689008,4340.19114 L687.996802,4329.25023 L689.062571,4329.25023 L693.348006,4340.19114 L692.03629,4340.19114 Z M690.284851,4335.58523 L689.017853,4332.20905 C688.853888,4331.78174 688.684956,4331.25756 688.511054,4330.63648 C688.401744,4331.11347 688.245234,4331.63765 688.041519,4332.20905 L686.759615,4335.58523 L690.284851,4335.58523 Z M703.024474,4340.19114 L701.757475,4340.19114 L701.757475,4330.42035 L698.217333,4330.42035 L697.986293,4332.20905 C697.683205,4334.58903 697.416145,4336.32927 697.185103,4337.42983 C696.95406,4338.53038 696.649736,4339.29678 696.272119,4339.72906 C695.894501,4340.16133 695.392676,4340.37249 694.766627,4340.36255 C694.398947,4340.36255 694.068537,4340.30045 693.775387,4340.17623 L693.775387,4339.11046 C694.043694,4339.23965 694.324418,4339.30424 694.617568,4339.30424 C694.880906,4339.30424 695.110702,4339.19617 695.306964,4338.98004 C695.503225,4338.7639 695.677125,4338.38877 695.828669,4337.85464 C695.980213,4337.32051 696.171503,4336.30693 696.402545,4334.81385 C696.633587,4333.32077 696.888226,4331.48116 697.16647,4329.29495 L703.024474,4329.29495 L703.024474,4340.19114 Z M706.462839,4329.29495 L707.647854,4329.29495 L707.647854,4335.35419 C707.647854,4336.47213 707.613074,4337.48323 707.543513,4338.38753 L707.603137,4338.38753 L713.71454,4329.29495 L715.100785,4329.29495 L715.100785,4340.19114 L713.908316,4340.19114 L713.908316,4334.19153 C713.908316,4333.19283 713.950549,4332.14446 714.035016,4331.04639 L713.96794,4331.04639 L707.849084,4340.19114 L706.462839,4340.19114 L706.462839,4329.29495 Z M723.174873,4330.27129 C721.977429,4330.27129 721.032159,4330.67001 720.339033,4331.46748 C719.645907,4332.26495 719.299349,4333.35679 719.299349,4334.74304 C719.299349,4336.16905 719.633485,4337.27083 720.301768,4338.04842 C720.970051,4338.82601 721.922774,4339.2148 723.159967,4339.2148 C723.92017,4339.2148 724.787185,4339.07817 725.76104,4338.80489 L725.76104,4339.91538 C725.005806,4340.19859 724.074199,4340.3402 722.966191,4340.3402 C721.361318,4340.3402 720.122902,4339.85328 719.250905,4338.87942 C718.378908,4337.90557 717.942916,4336.52182 717.942916,4334.72814 C717.942916,4333.60523 718.152838,4332.62145 718.572688,4331.77678 C718.992539,4330.93211 719.598704,4330.28123 720.391203,4329.82411 C721.183702,4329.367 722.116551,4329.13844 723.189779,4329.13844 C724.332567,4329.13844 725.33125,4329.34712 726.185857,4329.76449 L725.649246,4330.85262 C724.824451,4330.46506 723.999668,4330.27129 723.174873,4330.27129 Z M731.919724,4340.19114 L730.652726,4340.19114 L730.652726,4330.42035 L727.202019,4330.42035 L727.202019,4329.29495 L735.370431,4329.29495 L735.370431,4330.42035 L731.919724,4330.42035 L731.919724,4340.19114 Z M746.589656,4334.72814 C746.589656,4336.47213 746.148695,4337.84346 745.26676,4338.84216 C744.384826,4339.84085 743.158831,4340.3402 741.588739,4340.3402 C739.983867,4340.3402 738.74545,4339.84955 737.873453,4338.86824 C737.001456,4337.88693 736.565464,4336.50195 736.565464,4334.71323 C736.565464,4332.93943 737.002698,4331.56437 737.87718,4330.58804 C738.751661,4329.6117 739.993804,4329.12354 741.603645,4329.12354 C743.168768,4329.12354 744.391037,4329.62039 745.270487,4330.61412 C746.149937,4331.60785 746.589656,4332.97918 746.589656,4334.72814 Z M737.906991,4334.72814 C737.906991,4336.20383 738.221253,4337.323 738.849787,4338.08568 C739.478321,4338.84837 740.391296,4339.22971 741.588739,4339.22971 C742.79612,4339.22971 743.707853,4338.84961 744.323965,4338.08941 C744.940077,4337.32921 745.248128,4336.2088 745.248128,4334.72814 C745.248128,4333.26239 744.941319,4332.15067 744.327691,4331.39295 C743.714063,4330.63523 742.806057,4330.25638 741.603645,4330.25638 C740.396264,4330.25638 739.478321,4330.63772 738.849787,4331.40041 C738.221253,4332.16309 737.906991,4333.27233 737.906991,4334.72814 Z M754.268738,4340.19114 L750.572084,4330.53214 L750.512461,4330.53214 C750.582022,4331.29731 750.616802,4332.20656 750.616802,4333.25991 L750.616802,4340.19114 L749.446692,4340.19114 L749.446692,4329.29495 L751.354642,4329.29495 L754.805349,4338.28319 L754.864972,4338.28319 L758.345491,4329.29495 L760.238535,4329.29495 L760.238535,4340.19114 L758.971537,4340.19114 L758.971537,4333.17048 C758.971537,4332.36556 759.006317,4331.49109 759.075878,4330.54704 L759.016255,4330.54704 L755.289789,4340.19114 L754.268738,4340.19114 Z" id="ИМЕЮТСЯ-ПРОТИВОПОКАЗ"></path>
        </g>
    </g>
</svg>